<?xml version="1.0" encoding="utf-8"?>
<svg xmlns="http://www.w3.org/2000/svg" xmlns:xlink="http://www.w3.org/1999/xlink" width="600" height="400" viewBox="0 0 2400 1600">
<defs>
  <clipPath id="clip230">
    <rect x="0" y="0" width="2400" height="1600"/>
  </clipPath>
</defs>
<path clip-path="url(#clip230)" d="M0 1600 L2400 1600 L2400 8.88178e-14 L0 8.88178e-14  Z" fill="#ffffff" fill-rule="evenodd" fill-opacity="1"/>
<defs>
  <clipPath id="clip231">
    <rect x="480" y="0" width="1681" height="1600"/>
  </clipPath>
</defs>
<path clip-path="url(#clip230)" d="M236.203 1423.18 L2352.76 1423.18 L2352.76 123.472 L236.203 123.472  Z" fill="#ffffff" fill-rule="evenodd" fill-opacity="1"/>
<defs>
  <clipPath id="clip232">
    <rect x="236" y="123" width="2118" height="1301"/>
  </clipPath>
</defs>
<polyline clip-path="url(#clip232)" style="stroke:#000000; stroke-linecap:round; stroke-linejoin:round; stroke-width:2; stroke-opacity:0.1; fill:none" points="296.106,1423.18 296.106,123.472 "/>
<polyline clip-path="url(#clip232)" style="stroke:#000000; stroke-linecap:round; stroke-linejoin:round; stroke-width:2; stroke-opacity:0.1; fill:none" points="795.293,1423.18 795.293,123.472 "/>
<polyline clip-path="url(#clip232)" style="stroke:#000000; stroke-linecap:round; stroke-linejoin:round; stroke-width:2; stroke-opacity:0.1; fill:none" points="1294.48,1423.18 1294.48,123.472 "/>
<polyline clip-path="url(#clip232)" style="stroke:#000000; stroke-linecap:round; stroke-linejoin:round; stroke-width:2; stroke-opacity:0.1; fill:none" points="1793.67,1423.18 1793.67,123.472 "/>
<polyline clip-path="url(#clip232)" style="stroke:#000000; stroke-linecap:round; stroke-linejoin:round; stroke-width:2; stroke-opacity:0.1; fill:none" points="2292.85,1423.18 2292.85,123.472 "/>
<polyline clip-path="url(#clip232)" style="stroke:#000000; stroke-linecap:round; stroke-linejoin:round; stroke-width:2; stroke-opacity:0.1; fill:none" points="296.106,1423.18 296.106,123.472 "/>
<polyline clip-path="url(#clip232)" style="stroke:#000000; stroke-linecap:round; stroke-linejoin:round; stroke-width:2; stroke-opacity:0.1; fill:none" points="795.293,1423.18 795.293,123.472 "/>
<polyline clip-path="url(#clip232)" style="stroke:#000000; stroke-linecap:round; stroke-linejoin:round; stroke-width:2; stroke-opacity:0.1; fill:none" points="1294.48,1423.18 1294.48,123.472 "/>
<polyline clip-path="url(#clip232)" style="stroke:#000000; stroke-linecap:round; stroke-linejoin:round; stroke-width:2; stroke-opacity:0.1; fill:none" points="1793.67,1423.18 1793.67,123.472 "/>
<polyline clip-path="url(#clip232)" style="stroke:#000000; stroke-linecap:round; stroke-linejoin:round; stroke-width:2; stroke-opacity:0.1; fill:none" points="2292.85,1423.18 2292.85,123.472 "/>
<polyline clip-path="url(#clip232)" style="stroke:#000000; stroke-linecap:round; stroke-linejoin:round; stroke-width:2; stroke-opacity:0.1; fill:none" points="236.203,1386.4 2352.76,1386.4 "/>
<polyline clip-path="url(#clip232)" style="stroke:#000000; stroke-linecap:round; stroke-linejoin:round; stroke-width:2; stroke-opacity:0.1; fill:none" points="236.203,1079.86 2352.76,1079.86 "/>
<polyline clip-path="url(#clip232)" style="stroke:#000000; stroke-linecap:round; stroke-linejoin:round; stroke-width:2; stroke-opacity:0.1; fill:none" points="236.203,773.326 2352.76,773.326 "/>
<polyline clip-path="url(#clip232)" style="stroke:#000000; stroke-linecap:round; stroke-linejoin:round; stroke-width:2; stroke-opacity:0.1; fill:none" points="236.203,466.791 2352.76,466.791 "/>
<polyline clip-path="url(#clip232)" style="stroke:#000000; stroke-linecap:round; stroke-linejoin:round; stroke-width:2; stroke-opacity:0.1; fill:none" points="236.203,160.256 2352.76,160.256 "/>
<polyline clip-path="url(#clip232)" style="stroke:#000000; stroke-linecap:round; stroke-linejoin:round; stroke-width:2; stroke-opacity:0.1; fill:none" points="236.203,1386.4 2352.76,1386.4 "/>
<polyline clip-path="url(#clip232)" style="stroke:#000000; stroke-linecap:round; stroke-linejoin:round; stroke-width:2; stroke-opacity:0.1; fill:none" points="236.203,1079.86 2352.76,1079.86 "/>
<polyline clip-path="url(#clip232)" style="stroke:#000000; stroke-linecap:round; stroke-linejoin:round; stroke-width:2; stroke-opacity:0.1; fill:none" points="236.203,773.326 2352.76,773.326 "/>
<polyline clip-path="url(#clip232)" style="stroke:#000000; stroke-linecap:round; stroke-linejoin:round; stroke-width:2; stroke-opacity:0.1; fill:none" points="236.203,466.791 2352.76,466.791 "/>
<polyline clip-path="url(#clip232)" style="stroke:#000000; stroke-linecap:round; stroke-linejoin:round; stroke-width:2; stroke-opacity:0.1; fill:none" points="236.203,160.256 2352.76,160.256 "/>
<polyline clip-path="url(#clip230)" style="stroke:#000000; stroke-linecap:round; stroke-linejoin:round; stroke-width:4; stroke-opacity:1; fill:none" points="236.203,1423.18 2352.76,1423.18 "/>
<polyline clip-path="url(#clip230)" style="stroke:#000000; stroke-linecap:round; stroke-linejoin:round; stroke-width:4; stroke-opacity:1; fill:none" points="236.203,123.472 2352.76,123.472 "/>
<polyline clip-path="url(#clip230)" style="stroke:#000000; stroke-linecap:round; stroke-linejoin:round; stroke-width:4; stroke-opacity:1; fill:none" points="296.106,1423.18 296.106,1404.28 "/>
<polyline clip-path="url(#clip230)" style="stroke:#000000; stroke-linecap:round; stroke-linejoin:round; stroke-width:4; stroke-opacity:1; fill:none" points="795.293,1423.18 795.293,1404.28 "/>
<polyline clip-path="url(#clip230)" style="stroke:#000000; stroke-linecap:round; stroke-linejoin:round; stroke-width:4; stroke-opacity:1; fill:none" points="1294.48,1423.18 1294.48,1404.28 "/>
<polyline clip-path="url(#clip230)" style="stroke:#000000; stroke-linecap:round; stroke-linejoin:round; stroke-width:4; stroke-opacity:1; fill:none" points="1793.67,1423.18 1793.67,1404.28 "/>
<polyline clip-path="url(#clip230)" style="stroke:#000000; stroke-linecap:round; stroke-linejoin:round; stroke-width:4; stroke-opacity:1; fill:none" points="2292.85,1423.18 2292.85,1404.28 "/>
<polyline clip-path="url(#clip230)" style="stroke:#000000; stroke-linecap:round; stroke-linejoin:round; stroke-width:4; stroke-opacity:1; fill:none" points="296.106,123.472 296.106,142.37 "/>
<polyline clip-path="url(#clip230)" style="stroke:#000000; stroke-linecap:round; stroke-linejoin:round; stroke-width:4; stroke-opacity:1; fill:none" points="795.293,123.472 795.293,142.37 "/>
<polyline clip-path="url(#clip230)" style="stroke:#000000; stroke-linecap:round; stroke-linejoin:round; stroke-width:4; stroke-opacity:1; fill:none" points="1294.48,123.472 1294.48,142.37 "/>
<polyline clip-path="url(#clip230)" style="stroke:#000000; stroke-linecap:round; stroke-linejoin:round; stroke-width:4; stroke-opacity:1; fill:none" points="1793.67,123.472 1793.67,142.37 "/>
<polyline clip-path="url(#clip230)" style="stroke:#000000; stroke-linecap:round; stroke-linejoin:round; stroke-width:4; stroke-opacity:1; fill:none" points="2292.85,123.472 2292.85,142.37 "/>
<path clip-path="url(#clip230)" d="M265.782 1469.4 Q265.782 1461.96 267.66 1457.91 Q270.278 1451.88 276.454 1451.88 Q277.763 1451.88 279.122 1452.26 Q280.505 1452.6 282.235 1453.96 Q283.989 1455.32 285.051 1457.54 Q287.077 1461.84 287.077 1469.4 Q287.077 1476.79 285.199 1480.81 Q282.457 1486.69 276.405 1486.69 Q274.132 1486.69 271.81 1485.53 Q269.512 1484.37 268.055 1481.58 Q265.782 1477.4 265.782 1469.4 M269.982 1468.78 Q269.982 1476.41 270.525 1479.45 Q271.143 1482.74 272.823 1484.17 Q274.527 1485.58 276.405 1485.58 Q278.43 1485.58 280.11 1484.07 Q281.815 1482.54 282.333 1479.26 Q282.902 1476.02 282.877 1468.78 Q282.877 1461.74 282.383 1458.92 Q281.716 1455.64 279.937 1454.33 Q278.183 1453 276.405 1453 Q275.738 1453 275.021 1453.19 Q274.33 1453.39 273.317 1453.96 Q272.304 1454.53 271.513 1455.94 Q270.748 1457.34 270.377 1459.47 Q269.982 1462.21 269.982 1468.78 Z" fill="#000000" fill-rule="nonzero" fill-opacity="1" /><path clip-path="url(#clip230)" d="M294.166 1484.76 Q293.401 1483.95 293.401 1482.89 Q293.401 1481.82 294.166 1481.06 Q294.932 1480.27 296.093 1480.27 Q297.205 1480.27 297.946 1481.01 Q298.712 1481.73 298.712 1482.91 Q298.712 1484.07 297.897 1484.84 Q297.106 1485.58 296.093 1485.58 Q294.932 1485.58 294.166 1484.76 Z" fill="#000000" fill-rule="nonzero" fill-opacity="1" /><path clip-path="url(#clip230)" d="M305.135 1469.4 Q305.135 1461.96 307.012 1457.91 Q309.631 1451.88 315.807 1451.88 Q317.116 1451.88 318.474 1452.26 Q319.858 1452.6 321.587 1453.96 Q323.341 1455.32 324.403 1457.54 Q326.429 1461.84 326.429 1469.4 Q326.429 1476.79 324.552 1480.81 Q321.809 1486.69 315.757 1486.69 Q313.484 1486.69 311.162 1485.53 Q308.865 1484.37 307.407 1481.58 Q305.135 1477.4 305.135 1469.4 M309.334 1468.78 Q309.334 1476.41 309.878 1479.45 Q310.495 1482.74 312.175 1484.17 Q313.88 1485.58 315.757 1485.58 Q317.783 1485.58 319.463 1484.07 Q321.167 1482.54 321.686 1479.26 Q322.254 1476.02 322.229 1468.78 Q322.229 1461.74 321.735 1458.92 Q321.068 1455.64 319.29 1454.33 Q317.536 1453 315.757 1453 Q315.09 1453 314.374 1453.19 Q313.682 1453.39 312.669 1453.96 Q311.656 1454.53 310.866 1455.94 Q310.1 1457.34 309.729 1459.47 Q309.334 1462.21 309.334 1468.78 Z" fill="#000000" fill-rule="nonzero" fill-opacity="1" /><path clip-path="url(#clip230)" d="M765.513 1485.58 Q765.513 1484.67 765.587 1484.39 Q765.686 1484.12 766.081 1483.7 L775.789 1472.88 Q781.1 1466.9 781.1 1461.69 Q781.1 1458.31 779.322 1455.89 Q777.568 1453.47 774.332 1453.47 Q772.108 1453.47 770.231 1454.82 Q768.354 1456.18 767.489 1458.6 Q767.637 1458.55 768.156 1458.55 Q769.416 1458.55 770.107 1459.34 Q770.824 1460.14 770.824 1461.2 Q770.824 1462.56 769.935 1463.22 Q769.07 1463.87 768.205 1463.87 Q767.859 1463.87 767.39 1463.79 Q766.945 1463.72 766.229 1463.03 Q765.513 1462.31 765.513 1461.05 Q765.513 1457.52 768.181 1454.7 Q770.873 1451.88 774.974 1451.88 Q779.618 1451.88 782.657 1454.65 Q785.72 1457.39 785.72 1461.69 Q785.72 1463.2 785.251 1464.58 Q784.806 1465.94 784.188 1467 Q783.596 1468.07 781.965 1469.77 Q780.335 1471.47 779.025 1472.68 Q777.716 1473.9 774.776 1476.46 L769.416 1481.68 L778.531 1481.68 Q782.978 1481.68 783.324 1481.28 Q783.818 1480.57 784.435 1476.79 L785.72 1476.79 L784.287 1485.58 L765.513 1485.58 Z" fill="#000000" fill-rule="nonzero" fill-opacity="1" /><path clip-path="url(#clip230)" d="M793.353 1484.76 Q792.588 1483.95 792.588 1482.89 Q792.588 1481.82 793.353 1481.06 Q794.119 1480.27 795.28 1480.27 Q796.392 1480.27 797.133 1481.01 Q797.899 1481.73 797.899 1482.91 Q797.899 1484.07 797.084 1484.84 Q796.293 1485.58 795.28 1485.58 Q794.119 1485.58 793.353 1484.76 Z" fill="#000000" fill-rule="nonzero" fill-opacity="1" /><path clip-path="url(#clip230)" d="M804.865 1477.43 Q804.865 1475.92 805.68 1475.35 Q806.496 1474.76 807.36 1474.76 Q808.521 1474.76 809.188 1475.5 Q809.88 1476.22 809.88 1477.23 Q809.88 1478.24 809.188 1478.98 Q808.521 1479.7 807.36 1479.7 Q806.792 1479.7 806.496 1479.6 Q807.163 1481.92 809.188 1483.6 Q811.239 1485.28 813.931 1485.28 Q817.316 1485.28 819.341 1482 Q820.552 1479.87 820.552 1475.06 Q820.552 1470.81 819.638 1468.68 Q818.23 1465.45 815.339 1465.45 Q811.239 1465.45 808.818 1468.98 Q808.521 1469.42 808.175 1469.45 Q807.681 1469.45 807.558 1469.18 Q807.459 1468.88 807.459 1468.11 L807.459 1453.14 Q807.459 1451.93 807.953 1451.93 Q808.151 1451.93 808.571 1452.08 Q811.757 1453.49 815.29 1453.51 Q818.921 1453.51 822.182 1452.03 Q822.429 1451.88 822.577 1451.88 Q823.071 1451.88 823.096 1452.45 Q823.096 1452.65 822.676 1453.24 Q822.281 1453.81 821.416 1454.58 Q820.552 1455.32 819.44 1456.03 Q818.328 1456.75 816.698 1457.25 Q815.092 1457.71 813.314 1457.71 Q811.189 1457.71 809.015 1457.05 L809.015 1466.9 Q811.634 1464.33 815.438 1464.33 Q819.489 1464.33 822.281 1467.6 Q825.072 1470.86 825.072 1475.4 Q825.072 1480.17 821.762 1483.43 Q818.477 1486.69 814.03 1486.69 Q809.979 1486.69 807.41 1483.8 Q804.865 1480.91 804.865 1477.43 Z" fill="#000000" fill-rule="nonzero" fill-opacity="1" /><path clip-path="url(#clip230)" d="M1264.43 1477.43 Q1264.43 1475.92 1265.24 1475.35 Q1266.06 1474.76 1266.92 1474.76 Q1268.08 1474.76 1268.75 1475.5 Q1269.44 1476.22 1269.44 1477.23 Q1269.44 1478.24 1268.75 1478.98 Q1268.08 1479.7 1266.92 1479.7 Q1266.35 1479.7 1266.06 1479.6 Q1266.73 1481.92 1268.75 1483.6 Q1270.8 1485.28 1273.49 1485.28 Q1276.88 1485.28 1278.9 1482 Q1280.11 1479.87 1280.11 1475.06 Q1280.11 1470.81 1279.2 1468.68 Q1277.79 1465.45 1274.9 1465.45 Q1270.8 1465.45 1268.38 1468.98 Q1268.08 1469.42 1267.74 1469.45 Q1267.24 1469.45 1267.12 1469.18 Q1267.02 1468.88 1267.02 1468.11 L1267.02 1453.14 Q1267.02 1451.93 1267.52 1451.93 Q1267.71 1451.93 1268.13 1452.08 Q1271.32 1453.49 1274.85 1453.51 Q1278.48 1453.51 1281.74 1452.03 Q1281.99 1451.88 1282.14 1451.88 Q1282.63 1451.88 1282.66 1452.45 Q1282.66 1452.65 1282.24 1453.24 Q1281.84 1453.81 1280.98 1454.58 Q1280.11 1455.32 1279 1456.03 Q1277.89 1456.75 1276.26 1457.25 Q1274.66 1457.71 1272.88 1457.71 Q1270.75 1457.71 1268.58 1457.05 L1268.58 1466.9 Q1271.2 1464.33 1275 1464.33 Q1279.05 1464.33 1281.84 1467.6 Q1284.64 1470.86 1284.64 1475.4 Q1284.64 1480.17 1281.32 1483.43 Q1278.04 1486.69 1273.59 1486.69 Q1269.54 1486.69 1266.97 1483.8 Q1264.43 1480.91 1264.43 1477.43 Z" fill="#000000" fill-rule="nonzero" fill-opacity="1" /><path clip-path="url(#clip230)" d="M1292.27 1484.76 Q1291.5 1483.95 1291.5 1482.89 Q1291.5 1481.82 1292.27 1481.06 Q1293.03 1480.27 1294.2 1480.27 Q1295.31 1480.27 1296.05 1481.01 Q1296.81 1481.73 1296.81 1482.91 Q1296.81 1484.07 1296 1484.84 Q1295.21 1485.58 1294.2 1485.58 Q1293.03 1485.58 1292.27 1484.76 Z" fill="#000000" fill-rule="nonzero" fill-opacity="1" /><path clip-path="url(#clip230)" d="M1303.24 1469.4 Q1303.24 1461.96 1305.11 1457.91 Q1307.73 1451.88 1313.91 1451.88 Q1315.22 1451.88 1316.58 1452.26 Q1317.96 1452.6 1319.69 1453.96 Q1321.44 1455.32 1322.51 1457.54 Q1324.53 1461.84 1324.53 1469.4 Q1324.53 1476.79 1322.65 1480.81 Q1319.91 1486.69 1313.86 1486.69 Q1311.59 1486.69 1309.26 1485.53 Q1306.97 1484.37 1305.51 1481.58 Q1303.24 1477.4 1303.24 1469.4 M1307.44 1468.78 Q1307.44 1476.41 1307.98 1479.45 Q1308.6 1482.74 1310.28 1484.17 Q1311.98 1485.58 1313.86 1485.58 Q1315.88 1485.58 1317.56 1484.07 Q1319.27 1482.54 1319.79 1479.26 Q1320.36 1476.02 1320.33 1468.78 Q1320.33 1461.74 1319.84 1458.92 Q1319.17 1455.64 1317.39 1454.33 Q1315.64 1453 1313.86 1453 Q1313.19 1453 1312.48 1453.19 Q1311.78 1453.39 1310.77 1453.96 Q1309.76 1454.53 1308.97 1455.94 Q1308.2 1457.34 1307.83 1459.47 Q1307.44 1462.21 1307.44 1468.78 Z" fill="#000000" fill-rule="nonzero" fill-opacity="1" /><path clip-path="url(#clip230)" d="M1764.05 1461.79 L1765.7 1451.39 L1766.96 1451.39 Q1767.11 1452.01 1767.36 1452.28 Q1767.63 1452.55 1769.06 1452.77 Q1770.52 1453 1773.46 1453 L1785.74 1453 Q1785.74 1454.16 1785.29 1454.77 L1778.45 1464.38 Q1776.28 1467.42 1775.31 1473.03 Q1774.74 1476.79 1774.77 1481.33 L1774.77 1483.9 Q1774.77 1486.69 1772.42 1486.69 Q1770.1 1486.69 1770.1 1483.9 Q1770.1 1474.24 1776.32 1464.88 Q1776.99 1463.91 1779.44 1460.48 Q1781.91 1457.05 1782.01 1456.9 L1771.53 1456.9 Q1766.94 1456.9 1766.57 1457.2 Q1766.07 1457.64 1765.31 1461.79 L1764.05 1461.79 Z" fill="#000000" fill-rule="nonzero" fill-opacity="1" /><path clip-path="url(#clip230)" d="M1791.57 1484.76 Q1790.8 1483.95 1790.8 1482.89 Q1790.8 1481.82 1791.57 1481.06 Q1792.33 1480.27 1793.49 1480.27 Q1794.61 1480.27 1795.35 1481.01 Q1796.11 1481.73 1796.11 1482.91 Q1796.11 1484.07 1795.3 1484.84 Q1794.51 1485.58 1793.49 1485.58 Q1792.33 1485.58 1791.57 1484.76 Z" fill="#000000" fill-rule="nonzero" fill-opacity="1" /><path clip-path="url(#clip230)" d="M1803.08 1477.43 Q1803.08 1475.92 1803.89 1475.35 Q1804.71 1474.76 1805.57 1474.76 Q1806.73 1474.76 1807.4 1475.5 Q1808.09 1476.22 1808.09 1477.23 Q1808.09 1478.24 1807.4 1478.98 Q1806.73 1479.7 1805.57 1479.7 Q1805.01 1479.7 1804.71 1479.6 Q1805.38 1481.92 1807.4 1483.6 Q1809.45 1485.28 1812.14 1485.28 Q1815.53 1485.28 1817.55 1482 Q1818.77 1479.87 1818.77 1475.06 Q1818.77 1470.81 1817.85 1468.68 Q1816.44 1465.45 1813.55 1465.45 Q1809.45 1465.45 1807.03 1468.98 Q1806.73 1469.42 1806.39 1469.45 Q1805.89 1469.45 1805.77 1469.18 Q1805.67 1468.88 1805.67 1468.11 L1805.67 1453.14 Q1805.67 1451.93 1806.17 1451.93 Q1806.36 1451.93 1806.78 1452.08 Q1809.97 1453.49 1813.5 1453.51 Q1817.13 1453.51 1820.4 1452.03 Q1820.64 1451.88 1820.79 1451.88 Q1821.28 1451.88 1821.31 1452.45 Q1821.31 1452.65 1820.89 1453.24 Q1820.49 1453.81 1819.63 1454.58 Q1818.77 1455.32 1817.65 1456.03 Q1816.54 1456.75 1814.91 1457.25 Q1813.31 1457.71 1811.53 1457.71 Q1809.4 1457.71 1807.23 1457.05 L1807.23 1466.9 Q1809.85 1464.33 1813.65 1464.33 Q1817.7 1464.33 1820.49 1467.6 Q1823.29 1470.86 1823.29 1475.4 Q1823.29 1480.17 1819.98 1483.43 Q1816.69 1486.69 1812.24 1486.69 Q1808.19 1486.69 1805.62 1483.8 Q1803.08 1480.91 1803.08 1477.43 Z" fill="#000000" fill-rule="nonzero" fill-opacity="1" /><path clip-path="url(#clip230)" d="M2251.14 1456.7 L2251.14 1455.12 Q2257.22 1455.12 2260.36 1451.88 Q2261.22 1451.88 2261.37 1452.08 Q2261.52 1452.28 2261.52 1453.19 L2261.52 1481.58 Q2261.52 1483.08 2262.26 1483.55 Q2263 1484.02 2266.24 1484.02 L2267.84 1484.02 L2267.84 1485.58 Q2266.06 1485.43 2259.64 1485.43 Q2253.22 1485.43 2251.46 1485.58 L2251.46 1484.02 L2253.07 1484.02 Q2256.26 1484.02 2257.02 1483.58 Q2257.79 1483.11 2257.79 1481.58 L2257.79 1455.37 Q2255.14 1456.7 2251.14 1456.7 Z" fill="#000000" fill-rule="nonzero" fill-opacity="1" /><path clip-path="url(#clip230)" d="M2273.92 1469.4 Q2273.92 1461.96 2275.8 1457.91 Q2278.41 1451.88 2284.59 1451.88 Q2285.9 1451.88 2287.26 1452.26 Q2288.64 1452.6 2290.37 1453.96 Q2292.12 1455.32 2293.19 1457.54 Q2295.21 1461.84 2295.21 1469.4 Q2295.21 1476.79 2293.34 1480.81 Q2290.59 1486.69 2284.54 1486.69 Q2282.27 1486.69 2279.95 1485.53 Q2277.65 1484.37 2276.19 1481.58 Q2273.92 1477.4 2273.92 1469.4 M2278.12 1468.78 Q2278.12 1476.41 2278.66 1479.45 Q2279.28 1482.74 2280.96 1484.17 Q2282.66 1485.58 2284.54 1485.58 Q2286.57 1485.58 2288.25 1484.07 Q2289.95 1482.54 2290.47 1479.26 Q2291.04 1476.02 2291.01 1468.78 Q2291.01 1461.74 2290.52 1458.92 Q2289.85 1455.64 2288.07 1454.33 Q2286.32 1453 2284.54 1453 Q2283.87 1453 2283.16 1453.19 Q2282.47 1453.39 2281.45 1453.96 Q2280.44 1454.53 2279.65 1455.94 Q2278.88 1457.34 2278.51 1459.47 Q2278.12 1462.21 2278.12 1468.78 Z" fill="#000000" fill-rule="nonzero" fill-opacity="1" /><path clip-path="url(#clip230)" d="M2302.3 1484.76 Q2301.54 1483.95 2301.54 1482.89 Q2301.54 1481.82 2302.3 1481.06 Q2303.07 1480.27 2304.23 1480.27 Q2305.34 1480.27 2306.08 1481.01 Q2306.85 1481.73 2306.85 1482.91 Q2306.85 1484.07 2306.03 1484.84 Q2305.24 1485.58 2304.23 1485.58 Q2303.07 1485.58 2302.3 1484.76 Z" fill="#000000" fill-rule="nonzero" fill-opacity="1" /><path clip-path="url(#clip230)" d="M2313.27 1469.4 Q2313.27 1461.96 2315.15 1457.91 Q2317.77 1451.88 2323.94 1451.88 Q2325.25 1451.88 2326.61 1452.26 Q2327.99 1452.6 2329.72 1453.96 Q2331.48 1455.32 2332.54 1457.54 Q2334.57 1461.84 2334.57 1469.4 Q2334.57 1476.79 2332.69 1480.81 Q2329.95 1486.69 2323.89 1486.69 Q2321.62 1486.69 2319.3 1485.53 Q2317 1484.37 2315.54 1481.58 Q2313.27 1477.4 2313.27 1469.4 M2317.47 1468.78 Q2317.47 1476.41 2318.01 1479.45 Q2318.63 1482.74 2320.31 1484.17 Q2322.02 1485.58 2323.89 1485.58 Q2325.92 1485.58 2327.6 1484.07 Q2329.3 1482.54 2329.82 1479.26 Q2330.39 1476.02 2330.37 1468.78 Q2330.37 1461.74 2329.87 1458.92 Q2329.2 1455.64 2327.43 1454.33 Q2325.67 1453 2323.89 1453 Q2323.23 1453 2322.51 1453.19 Q2321.82 1453.39 2320.81 1453.96 Q2319.79 1454.53 2319 1455.94 Q2318.24 1457.34 2317.87 1459.47 Q2317.47 1462.21 2317.47 1468.78 Z" fill="#000000" fill-rule="nonzero" fill-opacity="1" /><path clip-path="url(#clip230)" d="M1277.33 1522.7 L1277.33 1520.52 L1287.35 1519.78 L1287.35 1541.82 Q1291.39 1537.3 1296.89 1537.3 Q1302.87 1537.3 1307.25 1541.89 Q1311.63 1546.47 1311.63 1553.03 Q1311.63 1559.65 1307.05 1564.24 Q1302.46 1568.83 1296.11 1568.83 Q1290.34 1568.83 1287.01 1563.73 Q1284.56 1567.98 1284.49 1568.04 L1282.76 1568.04 L1282.76 1526.57 Q1282.76 1523.99 1281.84 1523.34 Q1280.93 1522.7 1277.33 1522.7 M1287.55 1560.13 Q1287.55 1561.59 1288.54 1563.05 Q1291.29 1567.26 1295.77 1567.26 Q1295.8 1567.26 1295.84 1567.26 Q1300.7 1567.26 1303.72 1562.81 Q1305.86 1559.48 1305.86 1552.96 Q1305.86 1546.51 1303.85 1543.28 Q1301.07 1538.83 1296.55 1538.83 Q1291.46 1538.83 1288.33 1543.28 Q1287.55 1544.4 1287.55 1545.8 L1287.55 1560.13 Z" fill="#000000" fill-rule="nonzero" fill-opacity="1" /><polyline clip-path="url(#clip230)" style="stroke:#000000; stroke-linecap:round; stroke-linejoin:round; stroke-width:4; stroke-opacity:1; fill:none" points="236.203,1423.18 236.203,123.472 "/>
<polyline clip-path="url(#clip230)" style="stroke:#000000; stroke-linecap:round; stroke-linejoin:round; stroke-width:4; stroke-opacity:1; fill:none" points="2352.76,1423.18 2352.76,123.472 "/>
<polyline clip-path="url(#clip230)" style="stroke:#000000; stroke-linecap:round; stroke-linejoin:round; stroke-width:4; stroke-opacity:1; fill:none" points="236.203,1386.4 255.101,1386.4 "/>
<polyline clip-path="url(#clip230)" style="stroke:#000000; stroke-linecap:round; stroke-linejoin:round; stroke-width:4; stroke-opacity:1; fill:none" points="236.203,1079.86 255.101,1079.86 "/>
<polyline clip-path="url(#clip230)" style="stroke:#000000; stroke-linecap:round; stroke-linejoin:round; stroke-width:4; stroke-opacity:1; fill:none" points="236.203,773.326 255.101,773.326 "/>
<polyline clip-path="url(#clip230)" style="stroke:#000000; stroke-linecap:round; stroke-linejoin:round; stroke-width:4; stroke-opacity:1; fill:none" points="236.203,466.791 255.101,466.791 "/>
<polyline clip-path="url(#clip230)" style="stroke:#000000; stroke-linecap:round; stroke-linejoin:round; stroke-width:4; stroke-opacity:1; fill:none" points="236.203,160.256 255.101,160.256 "/>
<polyline clip-path="url(#clip230)" style="stroke:#000000; stroke-linecap:round; stroke-linejoin:round; stroke-width:4; stroke-opacity:1; fill:none" points="2352.76,1386.4 2333.86,1386.4 "/>
<polyline clip-path="url(#clip230)" style="stroke:#000000; stroke-linecap:round; stroke-linejoin:round; stroke-width:4; stroke-opacity:1; fill:none" points="2352.76,1079.86 2333.86,1079.86 "/>
<polyline clip-path="url(#clip230)" style="stroke:#000000; stroke-linecap:round; stroke-linejoin:round; stroke-width:4; stroke-opacity:1; fill:none" points="2352.76,773.326 2333.86,773.326 "/>
<polyline clip-path="url(#clip230)" style="stroke:#000000; stroke-linecap:round; stroke-linejoin:round; stroke-width:4; stroke-opacity:1; fill:none" points="2352.76,466.791 2333.86,466.791 "/>
<polyline clip-path="url(#clip230)" style="stroke:#000000; stroke-linecap:round; stroke-linejoin:round; stroke-width:4; stroke-opacity:1; fill:none" points="2352.76,160.256 2333.86,160.256 "/>
<path clip-path="url(#clip230)" d="M114.26 1387.49 Q114.26 1380.06 116.138 1376.01 Q118.756 1369.98 124.932 1369.98 Q126.241 1369.98 127.6 1370.35 Q128.983 1370.7 130.713 1372.06 Q132.467 1373.41 133.529 1375.64 Q135.554 1379.94 135.554 1387.49 Q135.554 1394.88 133.677 1398.91 Q130.935 1404.79 124.883 1404.79 Q122.61 1404.79 120.288 1403.63 Q117.99 1402.47 116.533 1399.67 Q114.26 1395.5 114.26 1387.49 M118.46 1386.88 Q118.46 1394.51 119.003 1397.55 Q119.621 1400.83 121.301 1402.27 Q123.005 1403.68 124.883 1403.68 Q126.908 1403.68 128.588 1402.17 Q130.293 1400.64 130.811 1397.35 Q131.38 1394.12 131.355 1386.88 Q131.355 1379.84 130.861 1377.02 Q130.194 1373.74 128.415 1372.43 Q126.661 1371.09 124.883 1371.09 Q124.216 1371.09 123.499 1371.29 Q122.808 1371.49 121.795 1372.06 Q120.782 1372.62 119.991 1374.03 Q119.226 1375.44 118.855 1377.56 Q118.46 1380.31 118.46 1386.88 Z" fill="#000000" fill-rule="nonzero" fill-opacity="1" /><path clip-path="url(#clip230)" d="M142.644 1402.86 Q141.879 1402.05 141.879 1400.98 Q141.879 1399.92 142.644 1399.15 Q143.41 1398.36 144.571 1398.36 Q145.683 1398.36 146.424 1399.11 Q147.19 1399.82 147.19 1401.01 Q147.19 1402.17 146.375 1402.93 Q145.584 1403.68 144.571 1403.68 Q143.41 1403.68 142.644 1402.86 Z" fill="#000000" fill-rule="nonzero" fill-opacity="1" /><path clip-path="url(#clip230)" d="M153.613 1387.49 Q153.613 1380.06 155.49 1376.01 Q158.109 1369.98 164.284 1369.98 Q165.594 1369.98 166.952 1370.35 Q168.336 1370.7 170.065 1372.06 Q171.819 1373.41 172.881 1375.64 Q174.907 1379.94 174.907 1387.49 Q174.907 1394.88 173.029 1398.91 Q170.287 1404.79 164.235 1404.79 Q161.962 1404.79 159.64 1403.63 Q157.343 1402.47 155.885 1399.67 Q153.613 1395.5 153.613 1387.49 M157.812 1386.88 Q157.812 1394.51 158.356 1397.55 Q158.973 1400.83 160.653 1402.27 Q162.358 1403.68 164.235 1403.68 Q166.261 1403.68 167.941 1402.17 Q169.645 1400.64 170.164 1397.35 Q170.732 1394.12 170.707 1386.88 Q170.707 1379.84 170.213 1377.02 Q169.546 1373.74 167.768 1372.43 Q166.014 1371.09 164.235 1371.09 Q163.568 1371.09 162.852 1371.29 Q162.16 1371.49 161.147 1372.06 Q160.134 1372.62 159.344 1374.03 Q158.578 1375.44 158.207 1377.56 Q157.812 1380.31 157.812 1386.88 Z" fill="#000000" fill-rule="nonzero" fill-opacity="1" /><path clip-path="url(#clip230)" d="M178.909 1387.49 Q178.909 1380.06 180.786 1376.01 Q183.405 1369.98 189.581 1369.98 Q190.89 1369.98 192.249 1370.35 Q193.632 1370.7 195.361 1372.06 Q197.115 1373.41 198.177 1375.64 Q200.203 1379.94 200.203 1387.49 Q200.203 1394.88 198.326 1398.91 Q195.584 1404.79 189.531 1404.79 Q187.259 1404.79 184.936 1403.63 Q182.639 1402.47 181.182 1399.67 Q178.909 1395.5 178.909 1387.49 M183.108 1386.88 Q183.108 1394.51 183.652 1397.55 Q184.269 1400.83 185.949 1402.27 Q187.654 1403.68 189.531 1403.68 Q191.557 1403.68 193.237 1402.17 Q194.941 1400.64 195.46 1397.35 Q196.028 1394.12 196.004 1386.88 Q196.004 1379.84 195.51 1377.02 Q194.843 1373.74 193.064 1372.43 Q191.31 1371.09 189.531 1371.09 Q188.864 1371.09 188.148 1371.29 Q187.456 1371.49 186.443 1372.06 Q185.431 1372.62 184.64 1374.03 Q183.874 1375.44 183.504 1377.56 Q183.108 1380.31 183.108 1386.88 Z" fill="#000000" fill-rule="nonzero" fill-opacity="1" /><path clip-path="url(#clip230)" d="M114.804 1080.96 Q114.804 1073.52 116.681 1069.47 Q119.3 1063.45 125.475 1063.45 Q126.785 1063.45 128.143 1063.82 Q129.527 1064.16 131.256 1065.52 Q133.01 1066.88 134.072 1069.1 Q136.098 1073.4 136.098 1080.96 Q136.098 1088.35 134.22 1092.37 Q131.478 1098.25 125.426 1098.25 Q123.153 1098.25 120.831 1097.09 Q118.534 1095.93 117.076 1093.14 Q114.804 1088.96 114.804 1080.96 M119.003 1080.34 Q119.003 1087.98 119.547 1091.01 Q120.164 1094.3 121.844 1095.73 Q123.549 1097.14 125.426 1097.14 Q127.452 1097.14 129.132 1095.63 Q130.836 1094.1 131.355 1090.82 Q131.923 1087.58 131.898 1080.34 Q131.898 1073.3 131.404 1070.49 Q130.737 1067.2 128.959 1065.89 Q127.205 1064.56 125.426 1064.56 Q124.759 1064.56 124.043 1064.75 Q123.351 1064.95 122.338 1065.52 Q121.325 1066.09 120.535 1067.5 Q119.769 1068.9 119.398 1071.03 Q119.003 1073.77 119.003 1080.34 Z" fill="#000000" fill-rule="nonzero" fill-opacity="1" /><path clip-path="url(#clip230)" d="M143.188 1096.33 Q142.422 1095.51 142.422 1094.45 Q142.422 1093.39 143.188 1092.62 Q143.954 1091.83 145.115 1091.83 Q146.226 1091.83 146.967 1092.57 Q147.733 1093.29 147.733 1094.47 Q147.733 1095.63 146.918 1096.4 Q146.127 1097.14 145.115 1097.14 Q143.954 1097.14 143.188 1096.33 Z" fill="#000000" fill-rule="nonzero" fill-opacity="1" /><path clip-path="url(#clip230)" d="M154.7 1097.14 Q154.7 1096.23 154.774 1095.96 Q154.872 1095.68 155.268 1095.26 L164.976 1084.44 Q170.287 1078.47 170.287 1073.25 Q170.287 1069.87 168.509 1067.45 Q166.755 1065.03 163.519 1065.03 Q161.295 1065.03 159.418 1066.39 Q157.54 1067.74 156.676 1070.16 Q156.824 1070.12 157.343 1070.12 Q158.603 1070.12 159.294 1070.91 Q160.011 1071.7 160.011 1072.76 Q160.011 1074.12 159.121 1074.78 Q158.257 1075.43 157.392 1075.43 Q157.046 1075.43 156.577 1075.35 Q156.132 1075.28 155.416 1074.59 Q154.7 1073.87 154.7 1072.61 Q154.7 1069.08 157.368 1066.26 Q160.06 1063.45 164.161 1063.45 Q168.805 1063.45 171.844 1066.21 Q174.907 1068.95 174.907 1073.25 Q174.907 1074.76 174.438 1076.14 Q173.993 1077.5 173.375 1078.56 Q172.782 1079.63 171.152 1081.33 Q169.522 1083.04 168.212 1084.25 Q166.903 1085.46 163.963 1088.03 L158.603 1093.24 L167.718 1093.24 Q172.165 1093.24 172.511 1092.84 Q173.005 1092.13 173.622 1088.35 L174.907 1088.35 L173.474 1097.14 L154.7 1097.14 Z" fill="#000000" fill-rule="nonzero" fill-opacity="1" /><path clip-path="url(#clip230)" d="M179.996 1088.99 Q179.996 1087.48 180.811 1086.91 Q181.626 1086.32 182.491 1086.32 Q183.652 1086.32 184.319 1087.06 Q185.011 1087.78 185.011 1088.79 Q185.011 1089.8 184.319 1090.55 Q183.652 1091.26 182.491 1091.26 Q181.923 1091.26 181.626 1091.16 Q182.293 1093.48 184.319 1095.16 Q186.369 1096.84 189.062 1096.84 Q192.446 1096.84 194.472 1093.56 Q195.682 1091.43 195.682 1086.62 Q195.682 1082.37 194.768 1080.24 Q193.36 1077.01 190.47 1077.01 Q186.369 1077.01 183.948 1080.54 Q183.652 1080.98 183.306 1081.01 Q182.812 1081.01 182.688 1080.74 Q182.59 1080.44 182.59 1079.68 L182.59 1064.71 Q182.59 1063.49 183.084 1063.49 Q183.281 1063.49 183.701 1063.64 Q186.888 1065.05 190.421 1065.08 Q194.052 1065.08 197.313 1063.59 Q197.56 1063.45 197.708 1063.45 Q198.202 1063.45 198.227 1064.01 Q198.227 1064.21 197.807 1064.8 Q197.412 1065.37 196.547 1066.14 Q195.682 1066.88 194.571 1067.6 Q193.459 1068.31 191.829 1068.81 Q190.223 1069.28 188.444 1069.28 Q186.32 1069.28 184.146 1068.61 L184.146 1078.47 Q186.765 1075.9 190.569 1075.9 Q194.62 1075.9 197.412 1079.16 Q200.203 1082.42 200.203 1086.96 Q200.203 1091.73 196.893 1094.99 Q193.607 1098.25 189.161 1098.25 Q185.109 1098.25 182.54 1095.36 Q179.996 1092.47 179.996 1088.99 Z" fill="#000000" fill-rule="nonzero" fill-opacity="1" /><path clip-path="url(#clip230)" d="M114.26 774.425 Q114.26 766.99 116.138 762.938 Q118.756 756.911 124.932 756.911 Q126.241 756.911 127.6 757.281 Q128.983 757.627 130.713 758.986 Q132.467 760.344 133.529 762.568 Q135.554 766.866 135.554 774.425 Q135.554 781.812 133.677 785.838 Q130.935 791.718 124.883 791.718 Q122.61 791.718 120.288 790.557 Q117.99 789.396 116.533 786.604 Q114.26 782.429 114.26 774.425 M118.46 773.808 Q118.46 781.441 119.003 784.48 Q119.621 787.765 121.301 789.198 Q123.005 790.606 124.883 790.606 Q126.908 790.606 128.588 789.099 Q130.293 787.567 130.811 784.282 Q131.38 781.046 131.355 773.808 Q131.355 766.767 130.861 763.951 Q130.194 760.666 128.415 759.356 Q126.661 758.022 124.883 758.022 Q124.216 758.022 123.499 758.22 Q122.808 758.418 121.795 758.986 Q120.782 759.554 119.991 760.962 Q119.226 762.37 118.855 764.495 Q118.46 767.237 118.46 773.808 Z" fill="#000000" fill-rule="nonzero" fill-opacity="1" /><path clip-path="url(#clip230)" d="M142.644 789.791 Q141.879 788.976 141.879 787.913 Q141.879 786.851 142.644 786.085 Q143.41 785.295 144.571 785.295 Q145.683 785.295 146.424 786.036 Q147.19 786.752 147.19 787.938 Q147.19 789.099 146.375 789.865 Q145.584 790.606 144.571 790.606 Q143.41 790.606 142.644 789.791 Z" fill="#000000" fill-rule="nonzero" fill-opacity="1" /><path clip-path="url(#clip230)" d="M154.156 782.454 Q154.156 780.947 154.971 780.379 Q155.787 779.786 156.651 779.786 Q157.812 779.786 158.479 780.527 Q159.171 781.243 159.171 782.256 Q159.171 783.269 158.479 784.01 Q157.812 784.727 156.651 784.727 Q156.083 784.727 155.787 784.628 Q156.453 786.95 158.479 788.63 Q160.53 790.31 163.222 790.31 Q166.607 790.31 168.632 787.024 Q169.843 784.9 169.843 780.082 Q169.843 775.833 168.929 773.709 Q167.521 770.473 164.63 770.473 Q160.53 770.473 158.109 774.005 Q157.812 774.45 157.466 774.475 Q156.972 774.475 156.849 774.203 Q156.75 773.907 156.75 773.141 L156.75 758.17 Q156.75 756.96 157.244 756.96 Q157.442 756.96 157.862 757.108 Q161.048 758.516 164.581 758.541 Q168.212 758.541 171.473 757.059 Q171.72 756.911 171.868 756.911 Q172.362 756.911 172.387 757.479 Q172.387 757.676 171.967 758.269 Q171.572 758.837 170.707 759.603 Q169.843 760.344 168.731 761.061 Q167.619 761.777 165.989 762.271 Q164.383 762.741 162.605 762.741 Q160.48 762.741 158.306 762.074 L158.306 771.93 Q160.925 769.361 164.729 769.361 Q168.78 769.361 171.572 772.622 Q174.363 775.883 174.363 780.428 Q174.363 785.196 171.053 788.457 Q167.768 791.718 163.321 791.718 Q159.27 791.718 156.701 788.827 Q154.156 785.937 154.156 782.454 Z" fill="#000000" fill-rule="nonzero" fill-opacity="1" /><path clip-path="url(#clip230)" d="M178.909 774.425 Q178.909 766.99 180.786 762.938 Q183.405 756.911 189.581 756.911 Q190.89 756.911 192.249 757.281 Q193.632 757.627 195.361 758.986 Q197.115 760.344 198.177 762.568 Q200.203 766.866 200.203 774.425 Q200.203 781.812 198.326 785.838 Q195.584 791.718 189.531 791.718 Q187.259 791.718 184.936 790.557 Q182.639 789.396 181.182 786.604 Q178.909 782.429 178.909 774.425 M183.108 773.808 Q183.108 781.441 183.652 784.48 Q184.269 787.765 185.949 789.198 Q187.654 790.606 189.531 790.606 Q191.557 790.606 193.237 789.099 Q194.941 787.567 195.46 784.282 Q196.028 781.046 196.004 773.808 Q196.004 766.767 195.51 763.951 Q194.843 760.666 193.064 759.356 Q191.31 758.022 189.531 758.022 Q188.864 758.022 188.148 758.22 Q187.456 758.418 186.443 758.986 Q185.431 759.554 184.64 760.962 Q183.874 762.37 183.504 764.495 Q183.108 767.237 183.108 773.808 Z" fill="#000000" fill-rule="nonzero" fill-opacity="1" /><path clip-path="url(#clip230)" d="M114.804 467.89 Q114.804 460.455 116.681 456.403 Q119.3 450.376 125.475 450.376 Q126.785 450.376 128.143 450.746 Q129.527 451.092 131.256 452.451 Q133.01 453.81 134.072 456.033 Q136.098 460.331 136.098 467.89 Q136.098 475.277 134.22 479.303 Q131.478 485.183 125.426 485.183 Q123.153 485.183 120.831 484.022 Q118.534 482.861 117.076 480.069 Q114.804 475.894 114.804 467.89 M119.003 467.273 Q119.003 474.906 119.547 477.945 Q120.164 481.23 121.844 482.663 Q123.549 484.071 125.426 484.071 Q127.452 484.071 129.132 482.564 Q130.836 481.033 131.355 477.747 Q131.923 474.511 131.898 467.273 Q131.898 460.232 131.404 457.416 Q130.737 454.131 128.959 452.821 Q127.205 451.487 125.426 451.487 Q124.759 451.487 124.043 451.685 Q123.351 451.883 122.338 452.451 Q121.325 453.019 120.535 454.427 Q119.769 455.835 119.398 457.96 Q119.003 460.702 119.003 467.273 Z" fill="#000000" fill-rule="nonzero" fill-opacity="1" /><path clip-path="url(#clip230)" d="M143.188 483.256 Q142.422 482.441 142.422 481.378 Q142.422 480.316 143.188 479.55 Q143.954 478.76 145.115 478.76 Q146.226 478.76 146.967 479.501 Q147.733 480.217 147.733 481.403 Q147.733 482.564 146.918 483.33 Q146.127 484.071 145.115 484.071 Q143.954 484.071 143.188 483.256 Z" fill="#000000" fill-rule="nonzero" fill-opacity="1" /><path clip-path="url(#clip230)" d="M155.021 460.282 L156.676 449.882 L157.936 449.882 Q158.084 450.499 158.331 450.771 Q158.603 451.043 160.035 451.265 Q161.493 451.487 164.433 451.487 L176.71 451.487 Q176.71 452.648 176.266 453.266 L169.423 462.876 Q167.249 465.914 166.285 471.522 Q165.717 475.277 165.742 479.822 L165.742 482.391 Q165.742 485.183 163.395 485.183 Q161.073 485.183 161.073 482.391 Q161.073 472.732 167.298 463.37 Q167.965 462.406 170.411 458.973 Q172.881 455.539 172.98 455.391 L162.506 455.391 Q157.911 455.391 157.54 455.687 Q157.046 456.132 156.281 460.282 L155.021 460.282 Z" fill="#000000" fill-rule="nonzero" fill-opacity="1" /><path clip-path="url(#clip230)" d="M179.996 475.919 Q179.996 474.412 180.811 473.844 Q181.626 473.251 182.491 473.251 Q183.652 473.251 184.319 473.992 Q185.011 474.709 185.011 475.721 Q185.011 476.734 184.319 477.475 Q183.652 478.192 182.491 478.192 Q181.923 478.192 181.626 478.093 Q182.293 480.415 184.319 482.095 Q186.369 483.775 189.062 483.775 Q192.446 483.775 194.472 480.489 Q195.682 478.365 195.682 473.548 Q195.682 469.299 194.768 467.174 Q193.36 463.938 190.47 463.938 Q186.369 463.938 183.948 467.47 Q183.652 467.915 183.306 467.94 Q182.812 467.94 182.688 467.668 Q182.59 467.372 182.59 466.606 L182.59 451.636 Q182.59 450.425 183.084 450.425 Q183.281 450.425 183.701 450.573 Q186.888 451.981 190.421 452.006 Q194.052 452.006 197.313 450.524 Q197.56 450.376 197.708 450.376 Q198.202 450.376 198.227 450.944 Q198.227 451.142 197.807 451.734 Q197.412 452.303 196.547 453.068 Q195.682 453.81 194.571 454.526 Q193.459 455.242 191.829 455.736 Q190.223 456.206 188.444 456.206 Q186.32 456.206 184.146 455.539 L184.146 465.395 Q186.765 462.826 190.569 462.826 Q194.62 462.826 197.412 466.087 Q200.203 469.348 200.203 473.893 Q200.203 478.661 196.893 481.922 Q193.607 485.183 189.161 485.183 Q185.109 485.183 182.54 482.293 Q179.996 479.402 179.996 475.919 Z" fill="#000000" fill-rule="nonzero" fill-opacity="1" /><path clip-path="url(#clip230)" d="M116.78 148.658 L116.78 147.077 Q122.857 147.077 125.994 143.841 Q126.859 143.841 127.007 144.039 Q127.155 144.236 127.155 145.15 L127.155 173.534 Q127.155 175.041 127.896 175.511 Q128.638 175.98 131.874 175.98 L133.479 175.98 L133.479 177.536 Q131.701 177.388 125.278 177.388 Q118.855 177.388 117.101 177.536 L117.101 175.98 L118.707 175.98 Q121.893 175.98 122.659 175.535 Q123.425 175.066 123.425 173.534 L123.425 147.324 Q120.782 148.658 116.78 148.658 Z" fill="#000000" fill-rule="nonzero" fill-opacity="1" /><path clip-path="url(#clip230)" d="M142.644 176.721 Q141.879 175.906 141.879 174.844 Q141.879 173.781 142.644 173.016 Q143.41 172.225 144.571 172.225 Q145.683 172.225 146.424 172.966 Q147.19 173.683 147.19 174.868 Q147.19 176.029 146.375 176.795 Q145.584 177.536 144.571 177.536 Q143.41 177.536 142.644 176.721 Z" fill="#000000" fill-rule="nonzero" fill-opacity="1" /><path clip-path="url(#clip230)" d="M153.613 161.356 Q153.613 153.92 155.49 149.869 Q158.109 143.841 164.284 143.841 Q165.594 143.841 166.952 144.211 Q168.336 144.557 170.065 145.916 Q171.819 147.275 172.881 149.498 Q174.907 153.796 174.907 161.356 Q174.907 168.742 173.029 172.769 Q170.287 178.648 164.235 178.648 Q161.962 178.648 159.64 177.487 Q157.343 176.326 155.885 173.534 Q153.613 169.359 153.613 161.356 M157.812 160.738 Q157.812 168.371 158.356 171.41 Q158.973 174.695 160.653 176.128 Q162.358 177.536 164.235 177.536 Q166.261 177.536 167.941 176.029 Q169.645 174.498 170.164 171.212 Q170.732 167.976 170.707 160.738 Q170.707 153.698 170.213 150.881 Q169.546 147.596 167.768 146.287 Q166.014 144.953 164.235 144.953 Q163.568 144.953 162.852 145.15 Q162.16 145.348 161.147 145.916 Q160.134 146.484 159.344 147.892 Q158.578 149.3 158.207 151.425 Q157.812 154.167 157.812 160.738 Z" fill="#000000" fill-rule="nonzero" fill-opacity="1" /><path clip-path="url(#clip230)" d="M178.909 161.356 Q178.909 153.92 180.786 149.869 Q183.405 143.841 189.581 143.841 Q190.89 143.841 192.249 144.211 Q193.632 144.557 195.361 145.916 Q197.115 147.275 198.177 149.498 Q200.203 153.796 200.203 161.356 Q200.203 168.742 198.326 172.769 Q195.584 178.648 189.531 178.648 Q187.259 178.648 184.936 177.487 Q182.639 176.326 181.182 173.534 Q178.909 169.359 178.909 161.356 M183.108 160.738 Q183.108 168.371 183.652 171.41 Q184.269 174.695 185.949 176.128 Q187.654 177.536 189.531 177.536 Q191.557 177.536 193.237 176.029 Q194.941 174.498 195.46 171.212 Q196.028 167.976 196.004 160.738 Q196.004 153.698 195.51 150.881 Q194.843 147.596 193.064 146.287 Q191.31 144.953 189.531 144.953 Q188.864 144.953 188.148 145.15 Q187.456 145.348 186.443 145.916 Q185.431 146.484 184.64 147.892 Q183.874 149.3 183.504 151.425 Q183.108 154.167 183.108 160.738 Z" fill="#000000" fill-rule="nonzero" fill-opacity="1" /><path clip-path="url(#clip230)" d="M40.431 895.268 Q29.7993 895.268 22.3944 888.475 Q14.9556 881.647 14.9556 872.17 Q14.9556 862.626 22.3944 855.832 Q29.8332 849.005 40.431 849.005 Q48.1415 849.005 54.4254 852.945 Q60.6754 856.885 63.5286 863.135 Q67.0612 861.81 68.6916 860.316 Q70.322 858.821 70.322 856.477 Q70.322 854.1 68.7596 852.266 Q67.1971 850.397 64.4797 850.126 Q63.2229 849.99 63.2229 849.378 Q63.2229 848.597 64.6835 848.597 Q66.3479 848.597 68.2161 848.971 Q70.1182 849.31 72.3261 850.16 Q74.5679 850.975 76.0285 852.741 Q77.4891 854.507 77.4891 857.021 Q77.4891 858.889 76.6739 860.282 Q75.8926 861.674 74.9076 862.49 Q73.9565 863.271 71.8506 863.95 Q69.7786 864.596 68.4539 864.833 Q67.1291 865.071 64.4797 865.513 Q65.5327 868.842 65.5327 872.102 Q65.5327 881.647 58.2297 888.475 Q50.9268 895.268 40.431 895.268 M40.431 888.339 Q46.0695 888.339 50.4173 887.116 Q54.7651 885.893 57.2447 883.923 Q59.6903 881.919 60.9811 880.221 Q62.2718 878.522 62.8832 876.79 Q60.9471 877.775 59.5545 877.741 Q57.2447 877.741 55.4784 876.144 Q53.7121 874.548 53.7121 872.034 Q53.7121 867.109 61.083 864.188 Q55.0368 855.968 40.431 855.968 Q34.1131 855.968 29.3237 857.53 Q24.5004 859.093 21.851 861.607 Q19.2015 864.12 17.9447 866.803 Q16.688 869.487 16.688 872.17 Q16.688 874.82 17.9108 877.469 Q19.1336 880.119 21.7151 882.632 Q24.2966 885.112 29.1879 886.742 Q34.0452 888.339 40.431 888.339 M59.5545 876.212 Q60.3357 876.212 61.1849 875.975 Q62.0001 875.737 62.9172 874.718 Q63.8004 873.699 63.8004 872.102 Q63.8004 868.842 62.2039 865.988 Q55.2406 867.313 55.2406 872.034 Q55.2406 873.903 56.5654 875.058 Q57.8901 876.212 59.5545 876.212 Z" fill="#000000" fill-rule="nonzero" fill-opacity="1" /><path clip-path="url(#clip230)" d="M46.613 838.237 Q34.8604 838.237 25.3835 833.855 Q21.4094 831.987 18.0806 829.372 Q14.7518 826.756 13.2912 825.024 Q11.8307 823.292 11.8307 822.816 Q11.8307 822.137 12.51 822.103 Q12.8497 822.103 13.6989 823.02 Q25.1118 834.229 46.613 834.195 Q68.1821 834.195 79.1535 823.292 Q80.3423 822.103 80.716 822.103 Q81.3953 822.103 81.3953 822.816 Q81.3953 823.292 80.0027 824.956 Q78.61 826.62 75.4171 829.202 Q72.2242 831.783 68.318 833.652 Q58.8412 838.237 46.613 838.237 Z" fill="#000000" fill-rule="nonzero" fill-opacity="1" /><path clip-path="url(#clip230)" d="M24.2966 811.981 L22.1227 811.981 Q22.1227 803.625 17.673 799.311 Q17.673 798.122 17.9447 797.918 Q18.2165 797.714 19.4733 797.714 L58.5015 797.714 Q60.5735 797.714 61.2189 796.695 Q61.8642 795.676 61.8642 791.227 L61.8642 789.019 L64.0042 789.019 Q63.8004 791.464 63.8004 800.296 Q63.8004 809.127 64.0042 811.539 L61.8642 811.539 L61.8642 809.331 Q61.8642 804.949 61.2528 803.896 Q60.6074 802.843 58.5015 802.843 L22.4624 802.843 Q24.2966 806.478 24.2966 811.981 Z" fill="#000000" fill-rule="nonzero" fill-opacity="1" /><path clip-path="url(#clip230)" d="M62.8832 776.417 Q61.7623 777.402 60.3017 777.402 Q58.8412 777.402 57.7542 776.451 Q56.6333 775.466 56.6333 773.7 Q56.6333 771.628 58.6374 770.439 Q60.6074 769.25 63.9362 769.25 Q67.5367 769.25 70.8655 770.711 Q74.2283 772.171 75.8247 773.598 Q77.4212 775.024 77.4212 775.602 Q77.4212 776.281 76.6739 776.281 Q76.4022 776.281 75.8926 775.806 Q70.5258 770.812 63.9362 770.778 Q62.8832 770.778 62.8832 770.914 L63.0191 771.084 Q64.0042 772.273 64.0042 773.7 Q64.0042 775.432 62.8832 776.417 Z" fill="#000000" fill-rule="nonzero" fill-opacity="1" /><path clip-path="url(#clip230)" d="M57.3806 761.2 Q51.4703 761.2 48.3453 754.236 Q46.3413 750.059 45.8317 741.431 L43.2842 741.431 Q38.9704 741.431 36.6946 743.707 Q34.3848 745.948 34.3848 748.802 Q34.3848 753.897 37.5777 756.342 Q37.6457 754.27 38.6987 753.523 Q39.7177 752.776 40.7706 752.776 Q42.1633 752.776 43.0804 753.659 Q43.9636 754.508 43.9636 755.969 Q43.9636 757.361 43.1144 758.279 Q42.2312 759.196 40.7027 759.196 Q37.306 759.196 35.0642 756.139 Q32.8223 753.048 32.8223 748.666 Q32.8223 742.959 36.6606 739.155 Q37.8495 737.966 39.378 737.389 Q40.9065 736.777 41.9255 736.709 Q42.9106 736.641 44.8807 736.641 L58.7732 736.641 Q59.1808 736.641 59.8602 736.506 Q60.5395 736.37 61.4227 735.758 Q62.2718 735.113 62.2718 734.06 Q62.2718 731.546 57.8221 731.58 L53.9159 731.58 L53.9159 729.814 L57.8221 729.814 Q61.5246 729.814 62.9851 731.784 Q64.4118 733.72 64.4118 735.521 Q64.4118 737.83 62.7134 739.291 Q61.0151 740.752 58.7053 740.955 Q61.3547 742.008 63.087 744.42 Q64.7854 746.798 64.7854 750.059 Q64.7854 752.572 64.14 754.95 Q63.5286 757.294 61.7963 759.264 Q60.03 761.2 57.3806 761.2 M57.3126 755.833 Q59.8941 755.833 61.5585 753.999 Q63.2229 752.164 63.2229 749.583 Q63.2229 746.662 60.9811 744.046 Q58.7053 741.431 54.2556 741.431 L47.2923 741.431 Q47.5641 749.141 50.6551 752.504 Q53.7121 755.833 57.3126 755.833 Z" fill="#000000" fill-rule="nonzero" fill-opacity="1" /><path clip-path="url(#clip230)" d="M62.8832 722.375 Q61.7623 723.36 60.3017 723.36 Q58.8412 723.36 57.7542 722.409 Q56.6333 721.424 56.6333 719.658 Q56.6333 717.586 58.6374 716.397 Q60.6074 715.208 63.9362 715.208 Q67.5367 715.208 70.8655 716.669 Q74.2283 718.129 75.8247 719.556 Q77.4212 720.983 77.4212 721.56 Q77.4212 722.239 76.6739 722.239 Q76.4022 722.239 75.8926 721.764 Q70.5258 716.771 63.9362 716.737 Q62.8832 716.737 62.8832 716.873 L63.0191 717.042 Q64.0042 718.231 64.0042 719.658 Q64.0042 721.39 62.8832 722.375 Z" fill="#000000" fill-rule="nonzero" fill-opacity="1" /><path clip-path="url(#clip230)" d="M18.6581 708.143 L16.4842 708.143 L15.7369 698.123 L37.7815 698.123 Q33.2639 694.081 33.2639 688.578 Q33.2639 682.6 37.8495 678.218 Q42.435 673.836 48.9907 673.836 Q55.6143 673.836 60.1998 678.422 Q64.7854 683.007 64.7854 689.359 Q64.7854 695.134 59.6903 698.462 Q63.9362 700.908 64.0042 700.976 L64.0042 702.708 L22.5303 702.708 Q19.9488 702.708 19.3034 703.625 Q18.6581 704.543 18.6581 708.143 M56.0898 697.919 Q57.5504 697.919 59.011 696.934 Q63.2229 694.183 63.2229 689.699 Q63.2229 689.665 63.2229 689.631 Q63.2229 684.774 58.7732 681.751 Q55.4444 679.611 48.9228 679.611 Q42.469 679.611 39.2421 681.615 Q34.7924 684.4 34.7924 688.918 Q34.7924 694.013 39.2421 697.138 Q40.363 697.919 41.7557 697.919 L56.0898 697.919 Z" fill="#000000" fill-rule="nonzero" fill-opacity="1" /><path clip-path="url(#clip230)" d="M80.716 667.518 Q80.3763 667.518 79.5271 666.635 Q68.1142 655.426 46.613 655.426 Q25.0439 655.426 14.1404 666.194 Q12.8836 667.518 12.51 667.518 Q11.8307 667.518 11.8307 666.839 Q11.8307 666.364 13.2233 664.699 Q14.616 663.001 17.8089 660.453 Q21.0018 657.872 24.908 655.97 Q34.3848 651.384 46.613 651.384 Q58.3656 651.384 67.8424 655.766 Q71.8166 657.634 75.1454 660.249 Q78.4742 662.865 79.9347 664.597 Q81.3953 666.33 81.3953 666.839 Q81.3953 667.518 80.716 667.518 Z" fill="#000000" fill-rule="nonzero" fill-opacity="1" /><path clip-path="url(#clip230)" d="M913.788 72.576 L913.788 69.8525 Q916.987 69.8525 919.019 69.2472 Q921.051 68.5988 921.786 67.4315 Q922.564 66.2211 922.737 65.4429 Q922.91 64.6215 922.91 63.2814 L922.91 19.0129 Q922.91 16.4623 921.786 15.6842 Q920.705 14.8628 915.907 14.8628 L913.788 14.8628 L913.788 12.096 L928.746 12.096 Q930.346 12.096 930.778 12.3986 Q931.21 12.658 931.859 14.0414 L951.053 63.6272 L970.421 13.782 Q970.853 12.5283 971.242 12.3122 Q971.675 12.096 973.361 12.096 L988.318 12.096 L988.318 14.8628 L986.2 14.8628 Q981.401 14.8628 980.277 15.6842 Q979.197 16.4623 979.197 19.0129 L979.197 65.6591 Q979.197 68.2097 980.277 69.0311 Q981.401 69.8525 986.2 69.8525 L988.318 69.8525 L988.318 72.576 Q985.033 72.3166 975.652 72.3166 Q966.184 72.3166 962.899 72.576 L962.899 69.8525 L965.06 69.8525 Q969.859 69.8525 970.94 69.0743 Q972.02 68.2529 972.02 65.6591 L972.02 14.8628 L971.934 14.8628 L950.189 70.89 Q949.584 72.576 948.589 72.576 Q947.508 72.576 946.817 70.6306 L925.461 15.5545 L925.374 15.5545 L925.374 63.2814 Q925.374 64.6215 925.547 65.4429 Q925.72 66.2211 926.455 67.4315 Q927.233 68.5988 929.265 69.2472 Q931.297 69.8525 934.496 69.8525 L934.496 72.576 Q925.201 72.3166 924.121 72.3166 Q923.083 72.3166 913.788 72.576 Z" fill="#000000" fill-rule="nonzero" fill-opacity="1" /><path clip-path="url(#clip230)" d="M995.279 64.146 Q995.279 56.6238 1004.14 52.6466 Q1009.46 50.0959 1020.44 49.4475 L1020.44 46.2052 Q1020.44 40.7148 1017.54 37.8184 Q1014.69 34.8787 1011.06 34.8787 Q1004.57 34.8787 1001.46 38.9424 Q1004.1 39.0288 1005.05 40.369 Q1006 41.6659 1006 43.0061 Q1006 44.7785 1004.88 45.9458 Q1003.8 47.0698 1001.94 47.0698 Q1000.16 47.0698 998.996 45.989 Q997.829 44.865 997.829 42.9196 Q997.829 38.5965 1001.72 35.7433 Q1005.65 32.8901 1011.23 32.8901 Q1018.49 32.8901 1023.34 37.7751 Q1024.85 39.2882 1025.58 41.2336 Q1026.36 43.179 1026.45 44.4759 Q1026.53 45.7296 1026.53 48.237 L1026.53 65.9184 Q1026.53 66.4372 1026.71 67.3018 Q1026.88 68.1665 1027.66 69.2905 Q1028.48 70.3712 1029.82 70.3712 Q1033.02 70.3712 1032.98 64.708 L1032.98 59.7364 L1035.22 59.7364 L1035.22 64.708 Q1035.22 69.4201 1032.72 71.2791 Q1030.25 73.0948 1027.96 73.0948 Q1025.02 73.0948 1023.16 70.9332 Q1021.3 68.7717 1021.04 65.832 Q1019.7 69.204 1016.63 71.4088 Q1013.61 73.5703 1009.46 73.5703 Q1006.26 73.5703 1003.23 72.7489 Q1000.25 71.9708 997.743 69.766 Q995.279 67.518 995.279 64.146 M1002.11 64.0595 Q1002.11 67.3451 1004.44 69.4634 Q1006.78 71.5817 1010.06 71.5817 Q1013.78 71.5817 1017.11 68.7285 Q1020.44 65.832 1020.44 60.1687 L1020.44 51.3064 Q1010.63 51.6523 1006.35 55.5863 Q1002.11 59.477 1002.11 64.0595 Z" fill="#000000" fill-rule="nonzero" fill-opacity="1" /><path clip-path="url(#clip230)" d="M1038.29 72.576 L1038.29 69.8525 Q1043.01 69.8525 1044.09 69.2905 Q1045.21 68.6852 1045.21 65.832 L1045.21 42.0982 Q1045.21 38.8127 1044.04 37.9913 Q1042.92 37.1699 1038.29 37.1699 L1038.29 34.4031 L1050.61 33.4521 L1050.61 43.179 Q1051.87 39.3747 1054.5 36.435 Q1057.19 33.4521 1061.51 33.4521 Q1064.36 33.4521 1066.18 35.0516 Q1068.04 36.6511 1068.04 38.8559 Q1068.04 40.8013 1066.83 41.7956 Q1065.66 42.7467 1064.23 42.7467 Q1062.63 42.7467 1061.51 41.7524 Q1060.43 40.7148 1060.43 38.9424 Q1060.43 37.8616 1060.9 37.0402 Q1061.42 36.1756 1061.81 35.873 Q1062.2 35.5704 1062.46 35.4839 Q1062.29 35.3974 1061.51 35.3974 Q1056.62 35.3974 1053.81 40.2825 Q1051.05 45.1244 1051.05 52.0413 L1051.05 65.6591 Q1051.05 68.2097 1052.08 69.0311 Q1053.16 69.8525 1057.79 69.8525 L1059.65 69.8525 L1059.65 72.576 Q1056.1 72.3166 1048.41 72.3166 Q1047.33 72.3166 1045.64 72.3598 Q1043.96 72.4031 1041.75 72.4895 Q1039.55 72.576 1038.29 72.576 Z" fill="#000000" fill-rule="nonzero" fill-opacity="1" /><path clip-path="url(#clip230)" d="M1079.06 67.7341 Q1073.44 61.8547 1073.44 53.468 Q1073.44 45.0379 1078.97 38.9856 Q1084.51 32.8901 1092.63 32.8901 Q1098.04 32.8901 1102.1 35.4839 Q1106.17 38.0345 1106.17 42.4008 Q1106.17 44.3462 1105 45.4702 Q1103.87 46.551 1102.1 46.551 Q1100.24 46.551 1099.12 45.427 Q1098.04 44.2598 1098.04 42.4873 Q1098.04 41.7092 1098.3 40.931 Q1098.56 40.1528 1099.51 39.3315 Q1100.5 38.5101 1102.19 38.3804 Q1099.03 35.1381 1092.89 35.1381 Q1092.81 35.1381 1092.72 35.1381 Q1088.23 35.1381 1084.51 39.3747 Q1080.79 43.6113 1080.79 53.295 Q1080.79 58.353 1082 62.0709 Q1083.25 65.7455 1085.29 67.6477 Q1087.32 69.5498 1089.31 70.4577 Q1091.29 71.3223 1093.24 71.3223 Q1101.93 71.3223 1104.87 62.0277 Q1105.13 61.163 1105.99 61.163 Q1107.16 61.163 1107.16 62.0277 Q1107.16 62.46 1106.81 63.584 Q1106.47 64.708 1105.39 66.4804 Q1104.31 68.2529 1102.75 69.8092 Q1101.24 71.3223 1098.51 72.4463 Q1095.83 73.5703 1092.46 73.5703 Q1084.68 73.5703 1079.06 67.7341 Z" fill="#000000" fill-rule="nonzero" fill-opacity="1" /><path clip-path="url(#clip230)" d="M1112.56 37.1699 L1112.56 34.4031 L1125.58 33.4521 L1125.58 62.8491 Q1125.58 64.9674 1125.75 66.2211 Q1125.92 67.4315 1126.61 68.8581 Q1127.35 70.2848 1128.99 70.9332 Q1130.68 71.5817 1133.36 71.5817 Q1138.16 71.5817 1141.1 67.6477 Q1144.08 63.7137 1144.08 57.8775 L1144.08 42.0982 Q1144.08 38.8127 1142.91 37.9913 Q1141.74 37.1699 1137.16 37.1699 L1137.16 34.4031 L1150.17 33.4521 L1150.17 64.8809 Q1150.17 68.1665 1151.3 69.0311 Q1152.47 69.8525 1157.09 69.8525 L1157.09 72.576 L1144.34 73.5703 L1144.34 65.5726 Q1140.62 73.5271 1132.93 73.5703 Q1129.03 73.5703 1126.35 72.576 Q1123.72 71.5817 1122.38 70.3712 Q1121.04 69.1175 1120.3 66.7398 Q1119.61 64.3621 1119.52 62.8923 Q1119.44 61.4224 1119.44 58.5692 L1119.44 45.2973 Q1119.44 39.2882 1118.57 38.2507 Q1117.71 37.1699 1112.56 37.1699 Z" fill="#000000" fill-rule="nonzero" fill-opacity="1" /><path clip-path="url(#clip230)" d="M1161.67 72.576 L1161.67 69.8525 Q1166.39 69.8525 1167.47 69.2905 Q1168.55 68.6852 1168.55 65.832 L1168.55 42.0982 Q1168.55 38.8127 1167.38 37.9913 Q1166.26 37.1699 1161.67 37.1699 L1161.67 34.4031 L1174.12 33.4521 L1174.12 42.7467 Q1178.27 33.4521 1187.22 33.4521 Q1197.6 33.4521 1199.03 42.0982 Q1200.54 38.7262 1203.69 36.0891 Q1206.89 33.4521 1211.87 33.4521 Q1218.52 33.4521 1221.16 36.7376 Q1223.11 38.9424 1223.49 41.4065 Q1223.88 43.8707 1223.88 50.2689 L1223.88 67.1721 Q1223.97 69.0311 1225.4 69.4634 Q1226.82 69.8525 1230.8 69.8525 L1230.8 72.576 Q1221.77 72.3166 1220.9 72.3166 Q1220.21 72.3166 1210.87 72.576 L1210.87 69.8525 Q1215.58 69.8525 1216.66 69.2905 Q1217.79 68.6852 1217.79 65.832 L1217.79 45.2109 Q1217.79 40.7148 1216.4 38.0778 Q1215.02 35.3974 1211.22 35.3974 Q1206.63 35.3974 1202.96 39.245 Q1199.29 43.0925 1199.29 49.5772 L1199.29 65.832 Q1199.29 68.6852 1200.37 69.2905 Q1201.49 69.8525 1206.2 69.8525 L1206.2 72.576 Q1197.17 72.3166 1196.26 72.3166 Q1195.57 72.3166 1186.27 72.576 L1186.27 69.8525 Q1190.98 69.8525 1192.07 69.2905 Q1193.19 68.6852 1193.19 65.832 L1193.19 45.2109 Q1193.19 40.7148 1191.81 38.0778 Q1190.42 35.3974 1186.62 35.3974 Q1182.04 35.3974 1178.36 39.245 Q1174.69 43.0925 1174.69 49.5772 L1174.69 65.832 Q1174.69 68.6852 1175.77 69.2905 Q1176.89 69.8525 1181.56 69.8525 L1181.56 72.576 Q1172.53 72.3166 1171.66 72.3166 Q1170.97 72.3166 1161.67 72.576 Z" fill="#000000" fill-rule="nonzero" fill-opacity="1" /><path clip-path="url(#clip230)" d="M1266.94 42.5738 Q1266.94 29.0425 1275.59 19.6182 Q1284.28 10.1506 1296.34 10.1506 Q1308.49 10.1506 1317.13 19.6182 Q1325.82 29.0857 1325.82 42.5738 Q1325.82 52.3872 1320.81 60.3849 Q1315.79 68.3394 1307.84 71.9708 Q1309.52 76.4668 1311.43 78.5419 Q1313.33 80.6169 1316.31 80.6169 Q1319.34 80.6169 1321.67 78.6283 Q1324.05 76.6397 1324.4 73.1812 Q1324.57 71.5817 1325.35 71.5817 Q1326.34 71.5817 1326.34 73.4406 Q1326.34 75.5589 1325.87 77.9366 Q1325.43 80.3576 1324.35 83.1676 Q1323.31 86.0208 1321.07 87.8797 Q1318.82 89.7387 1315.62 89.7387 Q1313.24 89.7387 1311.47 88.7011 Q1309.7 87.7068 1308.66 86.4531 Q1307.66 85.2426 1306.8 82.5623 Q1305.98 79.9252 1305.68 78.2392 Q1305.37 76.5532 1304.81 73.1812 Q1300.58 74.5214 1296.42 74.5214 Q1284.28 74.5214 1275.59 65.2268 Q1266.94 55.9321 1266.94 42.5738 M1275.76 42.5738 Q1275.76 49.7501 1277.32 55.2836 Q1278.87 60.8172 1281.38 63.9731 Q1283.93 67.0857 1286.09 68.7285 Q1288.25 70.3712 1290.46 71.1494 Q1289.21 68.6852 1289.25 66.9128 Q1289.25 63.9731 1291.28 61.725 Q1293.31 59.477 1296.51 59.477 Q1302.78 59.477 1306.5 68.8581 Q1316.96 61.163 1316.96 42.5738 Q1316.96 34.5328 1314.97 28.4373 Q1312.98 22.2985 1309.78 18.9265 Q1306.58 15.5545 1303.17 13.9549 Q1299.75 12.3554 1296.34 12.3554 Q1292.97 12.3554 1289.59 13.9117 Q1286.22 15.468 1283.02 18.7536 Q1279.87 22.0391 1277.79 28.2643 Q1275.76 34.4464 1275.76 42.5738 M1291.19 66.9128 Q1291.19 67.9071 1291.5 68.9878 Q1291.8 70.0254 1293.1 71.1926 Q1294.39 72.3166 1296.42 72.3166 Q1300.58 72.3166 1304.21 70.2848 Q1302.52 61.4224 1296.51 61.4224 Q1294.13 61.4224 1292.66 63.1084 Q1291.19 64.7944 1291.19 66.9128 Z" fill="#000000" fill-rule="nonzero" fill-opacity="1" /><path clip-path="url(#clip230)" d="M1331.61 56.105 L1331.61 50.8741 L1355.18 50.8741 L1355.18 56.105 L1331.61 56.105 Z" fill="#000000" fill-rule="nonzero" fill-opacity="1" /><path clip-path="url(#clip230)" d="M1363.13 37.1699 L1363.13 34.4031 L1370.09 34.4031 L1370.09 24.2439 Q1370.09 17.6728 1374.33 13.9117 Q1378.61 10.1506 1383.84 10.1506 Q1387.3 10.1506 1389.54 12.0095 Q1391.79 13.8685 1391.79 16.3759 Q1391.79 18.0619 1390.75 19.1859 Q1389.76 20.2666 1387.9 20.2666 Q1386.13 20.2666 1385.09 19.1426 Q1384.1 18.0186 1384.1 16.4623 Q1384.1 13.6091 1386.73 12.7445 Q1385.39 12.1392 1383.84 12.096 Q1380.64 12.096 1378.13 15.3815 Q1375.67 18.6671 1375.67 24.1574 L1375.67 34.4031 L1386.04 34.4031 L1386.04 37.1699 L1375.97 37.1699 L1375.97 65.6591 Q1375.97 68.2097 1377.01 69.0311 Q1378.09 69.8525 1382.67 69.8525 L1384.53 69.8525 L1384.53 72.576 Q1380.98 72.3166 1373.29 72.3166 Q1372.21 72.3166 1370.52 72.3598 Q1368.88 72.4031 1366.63 72.4895 Q1364.43 72.576 1363.22 72.576 L1363.22 69.8525 Q1367.93 69.8525 1369.01 69.2905 Q1370.09 68.6852 1370.09 65.832 L1370.09 37.1699 L1363.13 37.1699 Z" fill="#000000" fill-rule="nonzero" fill-opacity="1" /><path clip-path="url(#clip230)" d="M1390.02 37.1699 L1390.02 34.4031 L1403.03 33.4521 L1403.03 62.8491 Q1403.03 64.9674 1403.21 66.2211 Q1403.38 67.4315 1404.07 68.8581 Q1404.8 70.2848 1406.45 70.9332 Q1408.13 71.5817 1410.81 71.5817 Q1415.61 71.5817 1418.55 67.6477 Q1421.54 63.7137 1421.54 57.8775 L1421.54 42.0982 Q1421.54 38.8127 1420.37 37.9913 Q1419.2 37.1699 1414.62 37.1699 L1414.62 34.4031 L1427.63 33.4521 L1427.63 64.8809 Q1427.63 68.1665 1428.75 69.0311 Q1429.92 69.8525 1434.55 69.8525 L1434.55 72.576 L1421.79 73.5703 L1421.79 65.5726 Q1418.08 73.5271 1410.38 73.5703 Q1406.49 73.5703 1403.81 72.576 Q1401.17 71.5817 1399.83 70.3712 Q1398.49 69.1175 1397.76 66.7398 Q1397.07 64.3621 1396.98 62.8923 Q1396.89 61.4224 1396.89 58.5692 L1396.89 45.2973 Q1396.89 39.2882 1396.03 38.2507 Q1395.16 37.1699 1390.02 37.1699 Z" fill="#000000" fill-rule="nonzero" fill-opacity="1" /><path clip-path="url(#clip230)" d="M1439.13 72.576 L1439.13 69.8525 Q1443.84 69.8525 1444.92 69.2905 Q1446 68.6852 1446 65.832 L1446 42.0982 Q1446 38.8127 1444.84 37.9913 Q1443.71 37.1699 1439.13 37.1699 L1439.13 34.4031 L1451.58 33.4521 L1451.58 42.7467 Q1455.73 33.4521 1464.68 33.4521 Q1471.34 33.4521 1473.97 36.7376 Q1475.92 38.9424 1476.31 41.4065 Q1476.74 43.8707 1476.74 50.2689 L1476.74 67.1721 Q1476.83 69.0311 1478.25 69.4634 Q1479.68 69.8525 1483.66 69.8525 L1483.66 72.576 Q1474.62 72.3166 1473.71 72.3166 Q1473.02 72.3166 1463.73 72.576 L1463.73 69.8525 Q1468.44 69.8525 1469.52 69.2905 Q1470.65 68.6852 1470.65 65.832 L1470.65 45.2109 Q1470.65 40.7148 1469.26 38.0778 Q1467.88 35.3974 1464.07 35.3974 Q1459.49 35.3974 1455.82 39.245 Q1452.14 43.0925 1452.14 49.5772 L1452.14 65.832 Q1452.14 68.6852 1453.22 69.2905 Q1454.35 69.8525 1459.02 69.8525 L1459.02 72.576 Q1449.98 72.3166 1449.12 72.3166 Q1448.42 72.3166 1439.13 72.576 Z" fill="#000000" fill-rule="nonzero" fill-opacity="1" /><path clip-path="url(#clip230)" d="M1494.03 67.7341 Q1488.41 61.8547 1488.41 53.468 Q1488.41 45.0379 1493.95 38.9856 Q1499.48 32.8901 1507.61 32.8901 Q1513.01 32.8901 1517.08 35.4839 Q1521.14 38.0345 1521.14 42.4008 Q1521.14 44.3462 1519.97 45.4702 Q1518.85 46.551 1517.08 46.551 Q1515.22 46.551 1514.09 45.427 Q1513.01 44.2598 1513.01 42.4873 Q1513.01 41.7092 1513.27 40.931 Q1513.53 40.1528 1514.48 39.3315 Q1515.48 38.5101 1517.16 38.3804 Q1514.01 35.1381 1507.87 35.1381 Q1507.78 35.1381 1507.69 35.1381 Q1503.2 35.1381 1499.48 39.3747 Q1495.76 43.6113 1495.76 53.295 Q1495.76 58.353 1496.97 62.0709 Q1498.23 65.7455 1500.26 67.6477 Q1502.29 69.5498 1504.28 70.4577 Q1506.27 71.3223 1508.21 71.3223 Q1516.9 71.3223 1519.84 62.0277 Q1520.1 61.163 1520.97 61.163 Q1522.13 61.163 1522.13 62.0277 Q1522.13 62.46 1521.79 63.584 Q1521.44 64.708 1520.36 66.4804 Q1519.28 68.2529 1517.72 69.8092 Q1516.21 71.3223 1513.49 72.4463 Q1510.81 73.5703 1507.43 73.5703 Q1499.65 73.5703 1494.03 67.7341 Z" fill="#000000" fill-rule="nonzero" fill-opacity="1" /><path clip-path="url(#clip230)" d="M1526.37 37.1699 L1526.37 35.2245 Q1530.43 35.0516 1533.11 32.1984 Q1535.84 29.3019 1536.75 25.757 Q1537.7 22.212 1537.78 18.1051 L1539.99 18.1051 L1539.99 34.4031 L1552.65 34.4031 L1552.65 37.1699 L1539.99 37.1699 L1539.99 61.7683 Q1539.99 71.3223 1545.95 71.3223 Q1548.5 71.3223 1550.19 68.7285 Q1551.88 66.0914 1551.88 61.4224 L1551.88 56.5373 L1554.08 56.5373 L1554.08 61.5954 Q1554.08 66.394 1551.88 69.9821 Q1549.67 73.5703 1545.31 73.5703 Q1543.71 73.5703 1542.11 73.138 Q1540.55 72.7489 1538.47 71.7114 Q1536.44 70.6306 1535.15 68.0368 Q1533.89 65.3997 1533.89 61.5954 L1533.89 37.1699 L1526.37 37.1699 Z" fill="#000000" fill-rule="nonzero" fill-opacity="1" /><path clip-path="url(#clip230)" d="M1561.95 72.576 L1561.95 69.8525 Q1566.66 69.8525 1567.74 69.2905 Q1568.82 68.6852 1568.82 65.832 L1568.82 42.0118 Q1568.82 38.7262 1567.7 37.9481 Q1566.62 37.1699 1562.29 37.1699 L1562.29 34.4031 L1574.66 33.4521 L1574.66 65.9184 Q1574.66 68.5555 1575.61 69.204 Q1576.56 69.8525 1580.88 69.8525 L1580.88 72.576 Q1571.85 72.3166 1571.68 72.3166 Q1570.47 72.3166 1561.95 72.576 M1565.67 18.0186 Q1565.67 16.2462 1567.01 14.8195 Q1568.39 13.3497 1570.34 13.3497 Q1572.28 13.3497 1573.66 14.6899 Q1575.05 15.9868 1575.05 18.0619 Q1575.05 20.0937 1573.66 21.4339 Q1572.28 22.7308 1570.34 22.7308 Q1568.3 22.7308 1566.96 21.3042 Q1565.67 19.8776 1565.67 18.0186 Z" fill="#000000" fill-rule="nonzero" fill-opacity="1" /><path clip-path="url(#clip230)" d="M1591.82 67.8206 Q1585.99 62.0277 1585.99 53.6409 Q1585.99 45.2109 1591.69 39.0721 Q1597.44 32.8901 1605.66 32.8901 Q1613.7 32.8901 1619.45 39.0288 Q1625.24 45.1244 1625.24 53.6409 Q1625.24 61.9844 1619.4 67.7774 Q1613.61 73.5703 1605.57 73.5703 Q1597.7 73.5703 1591.82 67.8206 M1593.33 52.9059 Q1593.33 61.5089 1595.58 65.3997 Q1599.04 71.3223 1605.66 71.3223 Q1608.94 71.3223 1611.66 69.5498 Q1614.43 67.7774 1615.94 64.7944 Q1617.89 60.9037 1617.89 52.9059 Q1617.89 44.3895 1615.56 40.6284 Q1612.1 34.8787 1605.57 34.8787 Q1602.72 34.8787 1599.91 36.3918 Q1597.14 37.8616 1595.45 40.8013 Q1593.33 44.6921 1593.33 52.9059 Z" fill="#000000" fill-rule="nonzero" fill-opacity="1" /><path clip-path="url(#clip230)" d="M1630.64 72.576 L1630.64 69.8525 Q1635.36 69.8525 1636.44 69.2905 Q1637.52 68.6852 1637.52 65.832 L1637.52 42.0982 Q1637.52 38.8127 1636.35 37.9913 Q1635.23 37.1699 1630.64 37.1699 L1630.64 34.4031 L1643.09 33.4521 L1643.09 42.7467 Q1647.24 33.4521 1656.19 33.4521 Q1662.85 33.4521 1665.49 36.7376 Q1667.43 38.9424 1667.82 41.4065 Q1668.25 43.8707 1668.25 50.2689 L1668.25 67.1721 Q1668.34 69.0311 1669.77 69.4634 Q1671.19 69.8525 1675.17 69.8525 L1675.17 72.576 Q1666.14 72.3166 1665.23 72.3166 Q1664.54 72.3166 1655.24 72.576 L1655.24 69.8525 Q1659.95 69.8525 1661.03 69.2905 Q1662.16 68.6852 1662.16 65.832 L1662.16 45.2109 Q1662.16 40.7148 1660.77 38.0778 Q1659.39 35.3974 1655.59 35.3974 Q1651 35.3974 1647.33 39.245 Q1643.66 43.0925 1643.66 49.5772 L1643.66 65.832 Q1643.66 68.6852 1644.74 69.2905 Q1645.86 69.8525 1650.53 69.8525 L1650.53 72.576 Q1641.49 72.3166 1640.63 72.3166 Q1639.94 72.3166 1630.64 72.576 Z" fill="#000000" fill-rule="nonzero" fill-opacity="1" /><polyline clip-path="url(#clip232)" style="stroke:#1f77b4; stroke-linecap:round; stroke-linejoin:round; stroke-width:10; stroke-opacity:1; fill:none" points="296.106,160.256 316.275,166.372 336.444,184.538 356.613,214.215 376.782,254.536 396.951,304.347 417.121,362.26 437.29,426.72 457.459,496.074 477.628,568.636 497.797,642.761 517.966,716.898 538.136,789.644 558.305,859.781 578.474,926.302 598.643,988.422 618.812,1045.58 638.981,1097.44 659.151,1143.85 679.32,1184.83 699.489,1220.56 719.658,1251.31 739.827,1277.46 759.997,1299.42 780.166,1317.64 800.335,1332.59 820.504,1344.71 840.673,1354.42 860.842,1362.11 881.012,1368.14 901.181,1372.81 921.35,1376.38 941.519,1379.09 961.688,1381.12 981.857,1382.62 1002.03,1383.72 1022.2,1384.52 1042.36,1385.1 1062.53,1385.5 1082.7,1385.79 1102.87,1385.99 1123.04,1386.12 1143.21,1386.22 1163.38,1386.28 1183.55,1386.32 1203.72,1386.35 1223.89,1386.36 1244.06,1386.38 1264.23,1386.38 1284.39,1386.39 1304.56,1386.39 1324.73,1386.39 1344.9,1386.39 1365.07,1386.39 1385.24,1386.4 1405.41,1386.4 1425.58,1386.4 1445.75,1386.4 1465.92,1386.4 1486.09,1386.4 1506.26,1386.4 1526.42,1386.4 1546.59,1386.4 1566.76,1386.4 1586.93,1386.4 1607.1,1386.4 1627.27,1386.4 1647.44,1386.4 1667.61,1386.4 1687.78,1386.4 1707.95,1386.4 1728.12,1386.4 1748.29,1386.4 1768.46,1386.4 1788.62,1386.4 1808.79,1386.4 1828.96,1386.4 1849.13,1386.4 1869.3,1386.4 1889.47,1386.4 1909.64,1386.4 1929.81,1386.4 1949.98,1386.4 1970.15,1386.4 1990.32,1386.4 2010.49,1386.4 2030.65,1386.4 2050.82,1386.4 2070.99,1386.4 2091.16,1386.4 2111.33,1386.4 2131.5,1386.4 2151.67,1386.4 2171.84,1386.4 2192.01,1386.4 2212.18,1386.4 2232.35,1386.4 2252.52,1386.4 2272.68,1386.4 2292.85,1386.4 "/>
<polyline clip-path="url(#clip232)" style="stroke:#ff7e0d; stroke-linecap:round; stroke-linejoin:round; stroke-width:10; stroke-opacity:1; fill:none" points="296.106,160.256 316.275,162.942 336.444,170.987 356.613,184.35 376.782,202.96 396.951,226.709 417.121,255.442 437.29,288.956 457.459,326.984 477.628,369.198 497.797,415.2 517.966,464.525 538.136,516.647 558.305,570.982 578.474,626.902 598.643,683.753 618.812,740.867 638.981,797.581 659.151,853.26 679.32,907.312 699.489,959.203 719.658,1008.47 739.827,1054.74 759.997,1097.73 780.166,1137.22 800.335,1173.13 820.504,1205.42 840.673,1234.15 860.842,1259.44 881.012,1281.46 901.181,1300.43 921.35,1316.61 941.519,1330.26 961.688,1341.65 981.857,1351.05 1002.03,1358.74 1022.2,1364.96 1042.36,1369.93 1062.53,1373.87 1082.7,1376.96 1102.87,1379.35 1123.04,1381.19 1143.21,1382.58 1163.38,1383.63 1183.55,1384.41 1203.72,1384.98 1223.89,1385.4 1244.06,1385.7 1264.23,1385.92 1284.39,1386.07 1304.56,1386.17 1324.73,1386.25 1344.9,1386.3 1365.07,1386.33 1385.24,1386.35 1405.41,1386.37 1425.58,1386.38 1445.75,1386.38 1465.92,1386.39 1486.09,1386.39 1506.26,1386.39 1526.42,1386.39 1546.59,1386.39 1566.76,1386.4 1586.93,1386.4 1607.1,1386.4 1627.27,1386.4 1647.44,1386.4 1667.61,1386.4 1687.78,1386.4 1707.95,1386.4 1728.12,1386.4 1748.29,1386.4 1768.46,1386.4 1788.62,1386.4 1808.79,1386.4 1828.96,1386.4 1849.13,1386.4 1869.3,1386.4 1889.47,1386.4 1909.64,1386.4 1929.81,1386.4 1949.98,1386.4 1970.15,1386.4 1990.32,1386.4 2010.49,1386.4 2030.65,1386.4 2050.82,1386.4 2070.99,1386.4 2091.16,1386.4 2111.33,1386.4 2131.5,1386.4 2151.67,1386.4 2171.84,1386.4 2192.01,1386.4 2212.18,1386.4 2232.35,1386.4 2252.52,1386.4 2272.68,1386.4 2292.85,1386.4 "/>
<polyline clip-path="url(#clip232)" style="stroke:#2ba02b; stroke-linecap:round; stroke-linejoin:round; stroke-width:10; stroke-opacity:1; fill:none" points="296.106,160.256 316.275,160.533 336.444,161.379 356.613,162.85 376.782,165.033 396.951,168.051 417.121,172.058 437.29,177.239 457.459,183.805 477.628,191.989 497.797,202.04 517.966,214.214 538.136,228.768 558.305,245.947 578.474,265.976 598.643,289.045 618.812,315.301 638.981,344.833 659.151,377.666 679.32,413.752 699.489,452.963 719.658,495.092 739.827,539.852 759.997,586.881 780.166,635.75 800.335,685.976 820.504,737.037 840.673,788.384 860.842,839.463 881.012,889.729 901.181,938.666 921.35,985.802 941.519,1030.72 961.688,1073.07 981.857,1112.58 1002.03,1149.05 1022.2,1182.35 1042.36,1212.45 1062.53,1239.37 1082.7,1263.18 1102.87,1284.04 1123.04,1302.11 1143.21,1317.6 1163.38,1330.75 1183.55,1341.79 1203.72,1350.96 1223.89,1358.51 1244.06,1364.65 1264.23,1369.59 1284.39,1373.53 1304.56,1376.64 1324.73,1379.07 1344.9,1380.94 1365.07,1382.38 1385.24,1383.46 1405.41,1384.27 1425.58,1384.88 1445.75,1385.32 1465.92,1385.64 1486.09,1385.87 1506.26,1386.03 1526.42,1386.15 1546.59,1386.23 1566.76,1386.28 1586.93,1386.32 1607.1,1386.35 1627.27,1386.36 1647.44,1386.38 1667.61,1386.38 1687.78,1386.39 1707.95,1386.39 1728.12,1386.39 1748.29,1386.39 1768.46,1386.39 1788.62,1386.39 1808.79,1386.4 1828.96,1386.4 1849.13,1386.4 1869.3,1386.4 1889.47,1386.4 1909.64,1386.4 1929.81,1386.4 1949.98,1386.4 1970.15,1386.4 1990.32,1386.4 2010.49,1386.4 2030.65,1386.4 2050.82,1386.4 2070.99,1386.4 2091.16,1386.4 2111.33,1386.4 2131.5,1386.4 2151.67,1386.4 2171.84,1386.4 2192.01,1386.4 2212.18,1386.4 2232.35,1386.4 2252.52,1386.4 2272.68,1386.4 2292.85,1386.4 "/>
<polyline clip-path="url(#clip232)" style="stroke:#d52628; stroke-linecap:round; stroke-linejoin:round; stroke-width:10; stroke-opacity:1; fill:none" points="296.106,160.256 316.275,160.256 336.444,160.257 356.613,160.257 376.782,160.259 396.951,160.261 417.121,160.264 437.29,160.27 457.459,160.278 477.628,160.292 497.797,160.313 517.966,160.346 538.136,160.394 558.305,160.466 578.474,160.571 598.643,160.721 618.812,160.936 638.981,161.238 659.151,161.658 679.32,162.234 699.489,163.018 719.658,164.069 739.827,165.465 759.997,167.298 780.166,169.678 800.335,172.733 820.504,176.613 840.673,181.487 860.842,187.543 881.012,194.988 901.181,204.041 921.35,214.932 941.519,227.894 961.688,243.159 981.857,260.943 1002.03,281.445 1022.2,304.83 1042.36,331.223 1062.53,360.698 1082.7,393.27 1102.87,428.888 1123.04,467.429 1143.21,508.698 1163.38,552.428 1183.55,598.284 1203.72,645.868 1223.89,694.733 1244.06,744.392 1264.23,794.337 1284.39,844.047 1304.56,893.012 1324.73,940.745 1344.9,986.796 1365.07,1030.76 1385.24,1072.31 1405.41,1111.17 1425.58,1147.13 1445.75,1180.08 1465.92,1209.94 1486.09,1236.74 1506.26,1260.54 1526.42,1281.46 1546.59,1299.65 1566.76,1315.32 1586.93,1328.67 1607.1,1339.93 1627.27,1349.32 1647.44,1357.09 1667.61,1363.43 1687.78,1368.57 1707.95,1372.69 1728.12,1375.95 1748.29,1378.51 1768.46,1380.5 1788.62,1382.03 1808.79,1383.19 1828.96,1384.06 1849.13,1384.72 1869.3,1385.2 1889.47,1385.55 1909.64,1385.8 1929.81,1385.99 1949.98,1386.11 1970.15,1386.2 1990.32,1386.27 2010.49,1386.31 2030.65,1386.34 2050.82,1386.36 2070.99,1386.37 2091.16,1386.38 2111.33,1386.39 2131.5,1386.39 2151.67,1386.39 2171.84,1386.39 2192.01,1386.39 2212.18,1386.39 2232.35,1386.4 2252.52,1386.4 2272.68,1386.4 2292.85,1386.4 "/>
<path clip-path="url(#clip230)" d="M1944.14 425.996 L2282.2 425.996 L2282.2 166.796 L1944.14 166.796  Z" fill="#ffffff" fill-rule="evenodd" fill-opacity="1"/>
<polyline clip-path="url(#clip230)" style="stroke:#000000; stroke-linecap:round; stroke-linejoin:round; stroke-width:4; stroke-opacity:1; fill:none" points="1944.14,425.996 2282.2,425.996 2282.2,166.796 1944.14,166.796 1944.14,425.996 "/>
<polyline clip-path="url(#clip230)" style="stroke:#1f77b4; stroke-linecap:round; stroke-linejoin:round; stroke-width:10; stroke-opacity:1; fill:none" points="1967.66,218.636 2108.76,218.636 "/>
<path clip-path="url(#clip230)" d="M2132.28 231.099 Q2132.28 226.8 2137.34 224.527 Q2140.38 223.07 2146.66 222.699 L2146.66 220.847 Q2146.66 217.709 2145 216.054 Q2143.37 214.374 2141.3 214.374 Q2137.59 214.374 2135.81 216.697 Q2137.32 216.746 2137.86 217.512 Q2138.41 218.253 2138.41 219.019 Q2138.41 220.031 2137.76 220.698 Q2137.15 221.341 2136.08 221.341 Q2135.07 221.341 2134.4 220.723 Q2133.74 220.081 2133.74 218.969 Q2133.74 216.499 2135.96 214.868 Q2138.21 213.238 2141.4 213.238 Q2145.55 213.238 2148.31 216.03 Q2149.18 216.894 2149.6 218.006 Q2150.04 219.117 2150.09 219.859 Q2150.14 220.575 2150.14 222.008 L2150.14 232.111 Q2150.14 232.408 2150.24 232.902 Q2150.34 233.396 2150.78 234.038 Q2151.25 234.656 2152.02 234.656 Q2153.85 234.656 2153.82 231.42 L2153.82 228.579 L2155.11 228.579 L2155.11 231.42 Q2155.11 234.112 2153.67 235.175 Q2152.26 236.212 2150.96 236.212 Q2149.28 236.212 2148.21 234.977 Q2147.15 233.742 2147 232.062 Q2146.24 233.989 2144.48 235.249 Q2142.75 236.484 2140.38 236.484 Q2138.55 236.484 2136.83 236.015 Q2135.12 235.57 2133.69 234.31 Q2132.28 233.025 2132.28 231.099 M2136.18 231.049 Q2136.18 232.927 2137.52 234.137 Q2138.85 235.348 2140.73 235.348 Q2142.85 235.348 2144.75 233.717 Q2146.66 232.062 2146.66 228.826 L2146.66 223.762 Q2141.05 223.959 2138.6 226.207 Q2136.18 228.431 2136.18 231.049 Z" fill="#000000" fill-rule="nonzero" fill-opacity="1" /><path clip-path="url(#clip230)" d="M2158.34 228.233 Q2158.39 227.615 2159.35 227.615 L2190.36 227.615 Q2191.81 227.615 2191.84 228.184 Q2191.84 228.801 2190.46 228.776 L2159.7 228.776 Q2158.34 228.801 2158.34 228.233 M2158.34 218.352 Q2158.34 217.734 2159.4 217.759 L2190.31 217.759 Q2191.81 217.759 2191.84 218.352 Q2191.84 218.92 2190.56 218.92 L2159.35 218.92 Q2158.34 218.92 2158.34 218.352 Z" fill="#000000" fill-rule="nonzero" fill-opacity="1" /><path clip-path="url(#clip230)" d="M2196.78 219.735 Q2196.78 212.299 2198.66 208.248 Q2201.28 202.22 2207.45 202.22 Q2208.76 202.22 2210.12 202.591 Q2211.5 202.937 2213.23 204.295 Q2214.99 205.654 2216.05 207.877 Q2218.07 212.176 2218.07 219.735 Q2218.07 227.121 2216.2 231.148 Q2213.46 237.027 2207.4 237.027 Q2205.13 237.027 2202.81 235.866 Q2200.51 234.705 2199.05 231.914 Q2196.78 227.739 2196.78 219.735 M2200.98 219.117 Q2200.98 226.751 2201.52 229.789 Q2202.14 233.075 2203.82 234.508 Q2205.53 235.916 2207.4 235.916 Q2209.43 235.916 2211.11 234.409 Q2212.81 232.877 2213.33 229.592 Q2213.9 226.356 2213.87 219.117 Q2213.87 212.077 2213.38 209.261 Q2212.71 205.975 2210.94 204.666 Q2209.18 203.332 2207.4 203.332 Q2206.74 203.332 2206.02 203.53 Q2205.33 203.727 2204.31 204.295 Q2203.3 204.864 2202.51 206.272 Q2201.75 207.68 2201.38 209.804 Q2200.98 212.546 2200.98 219.117 Z" fill="#000000" fill-rule="nonzero" fill-opacity="1" /><path clip-path="url(#clip230)" d="M2225.16 235.101 Q2224.4 234.285 2224.4 233.223 Q2224.4 232.161 2225.16 231.395 Q2225.93 230.604 2227.09 230.604 Q2228.2 230.604 2228.94 231.346 Q2229.71 232.062 2229.71 233.248 Q2229.71 234.409 2228.89 235.175 Q2228.1 235.916 2227.09 235.916 Q2225.93 235.916 2225.16 235.101 Z" fill="#000000" fill-rule="nonzero" fill-opacity="1" /><path clip-path="url(#clip230)" d="M2236.68 235.916 Q2236.68 235.002 2236.75 234.73 Q2236.85 234.458 2237.24 234.038 L2246.95 223.218 Q2252.26 217.24 2252.26 212.028 Q2252.26 208.643 2250.49 206.222 Q2248.73 203.801 2245.5 203.801 Q2243.27 203.801 2241.39 205.16 Q2239.52 206.519 2238.65 208.94 Q2238.8 208.89 2239.32 208.89 Q2240.58 208.89 2241.27 209.681 Q2241.99 210.471 2241.99 211.534 Q2241.99 212.892 2241.1 213.559 Q2240.23 214.201 2239.37 214.201 Q2239.02 214.201 2238.55 214.127 Q2238.11 214.053 2237.39 213.362 Q2236.68 212.645 2236.68 211.385 Q2236.68 207.853 2239.34 205.037 Q2242.04 202.22 2246.14 202.22 Q2250.78 202.22 2253.82 204.987 Q2256.88 207.729 2256.88 212.028 Q2256.88 213.534 2256.41 214.918 Q2255.97 216.277 2255.35 217.339 Q2254.76 218.401 2253.13 220.106 Q2251.5 221.81 2250.19 223.021 Q2248.88 224.231 2245.94 226.8 L2240.58 232.013 L2249.69 232.013 Q2254.14 232.013 2254.49 231.617 Q2254.98 230.901 2255.6 227.121 L2256.88 227.121 L2255.45 235.916 L2236.68 235.916 Z" fill="#000000" fill-rule="nonzero" fill-opacity="1" /><polyline clip-path="url(#clip230)" style="stroke:#ff7e0d; stroke-linecap:round; stroke-linejoin:round; stroke-width:10; stroke-opacity:1; fill:none" points="1967.66,270.476 2108.76,270.476 "/>
<path clip-path="url(#clip230)" d="M2132.28 282.939 Q2132.28 278.64 2137.34 276.367 Q2140.38 274.91 2146.66 274.539 L2146.66 272.687 Q2146.66 269.549 2145 267.894 Q2143.37 266.214 2141.3 266.214 Q2137.59 266.214 2135.81 268.537 Q2137.32 268.586 2137.86 269.352 Q2138.41 270.093 2138.41 270.859 Q2138.41 271.871 2137.76 272.538 Q2137.15 273.181 2136.08 273.181 Q2135.07 273.181 2134.4 272.563 Q2133.74 271.921 2133.74 270.809 Q2133.74 268.339 2135.96 266.708 Q2138.21 265.078 2141.4 265.078 Q2145.55 265.078 2148.31 267.87 Q2149.18 268.734 2149.6 269.846 Q2150.04 270.957 2150.09 271.699 Q2150.14 272.415 2150.14 273.848 L2150.14 283.951 Q2150.14 284.248 2150.24 284.742 Q2150.34 285.236 2150.78 285.878 Q2151.25 286.496 2152.02 286.496 Q2153.85 286.496 2153.82 283.26 L2153.82 280.419 L2155.11 280.419 L2155.11 283.26 Q2155.11 285.952 2153.67 287.015 Q2152.26 288.052 2150.96 288.052 Q2149.28 288.052 2148.21 286.817 Q2147.15 285.582 2147 283.902 Q2146.24 285.829 2144.48 287.089 Q2142.75 288.324 2140.38 288.324 Q2138.55 288.324 2136.83 287.855 Q2135.12 287.41 2133.69 286.15 Q2132.28 284.865 2132.28 282.939 M2136.18 282.889 Q2136.18 284.767 2137.52 285.977 Q2138.85 287.188 2140.73 287.188 Q2142.85 287.188 2144.75 285.557 Q2146.66 283.902 2146.66 280.666 L2146.66 275.602 Q2141.05 275.799 2138.6 278.047 Q2136.18 280.271 2136.18 282.889 Z" fill="#000000" fill-rule="nonzero" fill-opacity="1" /><path clip-path="url(#clip230)" d="M2158.34 280.073 Q2158.39 279.455 2159.35 279.455 L2190.36 279.455 Q2191.81 279.455 2191.84 280.024 Q2191.84 280.641 2190.46 280.616 L2159.7 280.616 Q2158.34 280.641 2158.34 280.073 M2158.34 270.192 Q2158.34 269.574 2159.4 269.599 L2190.31 269.599 Q2191.81 269.599 2191.84 270.192 Q2191.84 270.76 2190.56 270.76 L2159.35 270.76 Q2158.34 270.76 2158.34 270.192 Z" fill="#000000" fill-rule="nonzero" fill-opacity="1" /><path clip-path="url(#clip230)" d="M2199.3 258.877 L2199.3 257.296 Q2205.38 257.296 2208.51 254.06 Q2209.38 254.06 2209.53 254.258 Q2209.68 254.456 2209.68 255.37 L2209.68 283.754 Q2209.68 285.261 2210.42 285.73 Q2211.16 286.199 2214.39 286.199 L2216 286.199 L2216 287.756 Q2214.22 287.607 2207.8 287.607 Q2201.38 287.607 2199.62 287.756 L2199.62 286.199 L2201.23 286.199 Q2204.41 286.199 2205.18 285.755 Q2205.95 285.285 2205.95 283.754 L2205.95 257.544 Q2203.3 258.877 2199.3 258.877 Z" fill="#000000" fill-rule="nonzero" fill-opacity="1" /><path clip-path="url(#clip230)" d="M2225.16 286.941 Q2224.4 286.125 2224.4 285.063 Q2224.4 284.001 2225.16 283.235 Q2225.93 282.444 2227.09 282.444 Q2228.2 282.444 2228.94 283.186 Q2229.71 283.902 2229.71 285.088 Q2229.71 286.249 2228.89 287.015 Q2228.1 287.756 2227.09 287.756 Q2225.93 287.756 2225.16 286.941 Z" fill="#000000" fill-rule="nonzero" fill-opacity="1" /><path clip-path="url(#clip230)" d="M2236.28 280.938 Q2236.28 279.431 2237.15 278.714 Q2238.01 277.998 2239.12 277.998 Q2240.28 277.998 2241.1 278.764 Q2241.94 279.505 2241.94 280.814 Q2241.94 282.222 2240.95 283.013 Q2239.99 283.803 2238.6 283.606 Q2239.81 285.631 2242.04 286.545 Q2244.28 287.459 2246.36 287.459 Q2248.53 287.459 2250.29 285.582 Q2252.07 283.704 2252.07 279.11 Q2252.07 275.206 2250.53 272.958 Q2249.03 270.71 2246.04 270.71 L2243.82 270.71 Q2243.05 270.71 2242.83 270.636 Q2242.61 270.562 2242.61 270.142 Q2242.61 269.648 2243.37 269.549 Q2244.14 269.549 2245.35 269.401 Q2248.29 269.302 2249.84 266.758 Q2251.25 264.386 2251.25 261.002 Q2251.25 257.914 2249.77 256.629 Q2248.31 255.32 2246.41 255.32 Q2244.63 255.32 2242.68 256.061 Q2240.73 256.802 2239.67 258.458 Q2242.8 258.458 2242.8 261.002 Q2242.8 262.114 2242.09 262.855 Q2241.39 263.571 2240.23 263.571 Q2239.12 263.571 2238.38 262.879 Q2237.64 262.163 2237.64 260.953 Q2237.64 258.062 2240.21 256.061 Q2242.8 254.06 2246.61 254.06 Q2250.36 254.06 2253.13 256.037 Q2255.92 258.013 2255.92 261.051 Q2255.92 264.04 2253.94 266.486 Q2251.97 268.932 2248.83 269.945 Q2252.68 270.71 2254.98 273.329 Q2257.28 275.923 2257.28 279.11 Q2257.28 283.062 2254.17 285.977 Q2251.05 288.867 2246.51 288.867 Q2242.31 288.867 2239.29 286.595 Q2236.28 284.322 2236.28 280.938 Z" fill="#000000" fill-rule="nonzero" fill-opacity="1" /><polyline clip-path="url(#clip230)" style="stroke:#2ba02b; stroke-linecap:round; stroke-linejoin:round; stroke-width:10; stroke-opacity:1; fill:none" points="1967.66,322.316 2108.76,322.316 "/>
<path clip-path="url(#clip230)" d="M2132.28 334.779 Q2132.28 330.48 2137.34 328.207 Q2140.38 326.75 2146.66 326.379 L2146.66 324.527 Q2146.66 321.389 2145 319.734 Q2143.37 318.054 2141.3 318.054 Q2137.59 318.054 2135.81 320.377 Q2137.32 320.426 2137.86 321.192 Q2138.41 321.933 2138.41 322.699 Q2138.41 323.711 2137.76 324.378 Q2137.15 325.021 2136.08 325.021 Q2135.07 325.021 2134.4 324.403 Q2133.74 323.761 2133.74 322.649 Q2133.74 320.179 2135.96 318.548 Q2138.21 316.918 2141.4 316.918 Q2145.55 316.918 2148.31 319.71 Q2149.18 320.574 2149.6 321.686 Q2150.04 322.797 2150.09 323.539 Q2150.14 324.255 2150.14 325.688 L2150.14 335.791 Q2150.14 336.088 2150.24 336.582 Q2150.34 337.076 2150.78 337.718 Q2151.25 338.336 2152.02 338.336 Q2153.85 338.336 2153.82 335.1 L2153.82 332.259 L2155.11 332.259 L2155.11 335.1 Q2155.11 337.792 2153.67 338.855 Q2152.26 339.892 2150.96 339.892 Q2149.28 339.892 2148.21 338.657 Q2147.15 337.422 2147 335.742 Q2146.24 337.669 2144.48 338.929 Q2142.75 340.164 2140.38 340.164 Q2138.55 340.164 2136.83 339.695 Q2135.12 339.25 2133.69 337.99 Q2132.28 336.705 2132.28 334.779 M2136.18 334.729 Q2136.18 336.607 2137.52 337.817 Q2138.85 339.028 2140.73 339.028 Q2142.85 339.028 2144.75 337.397 Q2146.66 335.742 2146.66 332.506 L2146.66 327.442 Q2141.05 327.639 2138.6 329.887 Q2136.18 332.111 2136.18 334.729 Z" fill="#000000" fill-rule="nonzero" fill-opacity="1" /><path clip-path="url(#clip230)" d="M2158.34 331.913 Q2158.39 331.295 2159.35 331.295 L2190.36 331.295 Q2191.81 331.295 2191.84 331.864 Q2191.84 332.481 2190.46 332.456 L2159.7 332.456 Q2158.34 332.481 2158.34 331.913 M2158.34 322.032 Q2158.34 321.414 2159.4 321.439 L2190.31 321.439 Q2191.81 321.439 2191.84 322.032 Q2191.84 322.6 2190.56 322.6 L2159.35 322.6 Q2158.34 322.6 2158.34 322.032 Z" fill="#000000" fill-rule="nonzero" fill-opacity="1" /><path clip-path="url(#clip230)" d="M2197.32 339.596 Q2197.32 338.682 2197.4 338.41 Q2197.5 338.138 2197.89 337.718 L2207.6 326.898 Q2212.91 320.92 2212.91 315.708 Q2212.91 312.323 2211.13 309.902 Q2209.38 307.481 2206.14 307.481 Q2203.92 307.481 2202.04 308.84 Q2200.16 310.199 2199.3 312.62 Q2199.45 312.57 2199.97 312.57 Q2201.23 312.57 2201.92 313.361 Q2202.63 314.151 2202.63 315.214 Q2202.63 316.572 2201.75 317.239 Q2200.88 317.881 2200.02 317.881 Q2199.67 317.881 2199.2 317.807 Q2198.76 317.733 2198.04 317.042 Q2197.32 316.325 2197.32 315.065 Q2197.32 311.533 2199.99 308.717 Q2202.68 305.9 2206.79 305.9 Q2211.43 305.9 2214.47 308.667 Q2217.53 311.409 2217.53 315.708 Q2217.53 317.214 2217.06 318.598 Q2216.62 319.957 2216 321.019 Q2215.41 322.081 2213.78 323.786 Q2212.15 325.49 2210.84 326.701 Q2209.53 327.911 2206.59 330.48 L2201.23 335.693 L2210.34 335.693 Q2214.79 335.693 2215.13 335.297 Q2215.63 334.581 2216.25 330.801 L2217.53 330.801 L2216.1 339.596 L2197.32 339.596 Z" fill="#000000" fill-rule="nonzero" fill-opacity="1" /><path clip-path="url(#clip230)" d="M2225.16 338.781 Q2224.4 337.965 2224.4 336.903 Q2224.4 335.841 2225.16 335.075 Q2225.93 334.284 2227.09 334.284 Q2228.2 334.284 2228.94 335.026 Q2229.71 335.742 2229.71 336.928 Q2229.71 338.089 2228.89 338.855 Q2228.1 339.596 2227.09 339.596 Q2225.93 339.596 2225.16 338.781 Z" fill="#000000" fill-rule="nonzero" fill-opacity="1" /><path clip-path="url(#clip230)" d="M2236.68 331.444 Q2236.68 329.937 2237.49 329.369 Q2238.31 328.776 2239.17 328.776 Q2240.33 328.776 2241 329.517 Q2241.69 330.233 2241.69 331.246 Q2241.69 332.259 2241 333 Q2240.33 333.716 2239.17 333.716 Q2238.6 333.716 2238.31 333.618 Q2238.97 335.94 2241 337.619 Q2243.05 339.299 2245.74 339.299 Q2249.13 339.299 2251.15 336.014 Q2252.36 333.889 2252.36 329.072 Q2252.36 324.823 2251.45 322.699 Q2250.04 319.462 2247.15 319.462 Q2243.05 319.462 2240.63 322.995 Q2240.33 323.44 2239.99 323.464 Q2239.49 323.464 2239.37 323.193 Q2239.27 322.896 2239.27 322.13 L2239.27 307.16 Q2239.27 305.95 2239.76 305.95 Q2239.96 305.95 2240.38 306.098 Q2243.57 307.506 2247.1 307.531 Q2250.73 307.531 2253.99 306.049 Q2254.24 305.9 2254.39 305.9 Q2254.88 305.9 2254.91 306.469 Q2254.91 306.666 2254.49 307.259 Q2254.09 307.827 2253.23 308.593 Q2252.36 309.334 2251.25 310.05 Q2250.14 310.767 2248.51 311.261 Q2246.9 311.73 2245.12 311.73 Q2243 311.73 2240.83 311.063 L2240.83 320.92 Q2243.44 318.351 2247.25 318.351 Q2251.3 318.351 2254.09 321.612 Q2256.88 324.873 2256.88 329.418 Q2256.88 334.186 2253.57 337.447 Q2250.29 340.707 2245.84 340.707 Q2241.79 340.707 2239.22 337.817 Q2236.68 334.927 2236.68 331.444 Z" fill="#000000" fill-rule="nonzero" fill-opacity="1" /><polyline clip-path="url(#clip230)" style="stroke:#d52628; stroke-linecap:round; stroke-linejoin:round; stroke-width:10; stroke-opacity:1; fill:none" points="1967.66,374.156 2108.76,374.156 "/>
<path clip-path="url(#clip230)" d="M2132.28 386.619 Q2132.28 382.32 2137.34 380.047 Q2140.38 378.59 2146.66 378.219 L2146.66 376.367 Q2146.66 373.229 2145 371.574 Q2143.37 369.894 2141.3 369.894 Q2137.59 369.894 2135.81 372.217 Q2137.32 372.266 2137.86 373.032 Q2138.41 373.773 2138.41 374.539 Q2138.41 375.551 2137.76 376.218 Q2137.15 376.861 2136.08 376.861 Q2135.07 376.861 2134.4 376.243 Q2133.74 375.601 2133.74 374.489 Q2133.74 372.019 2135.96 370.388 Q2138.21 368.758 2141.4 368.758 Q2145.55 368.758 2148.31 371.55 Q2149.18 372.414 2149.6 373.526 Q2150.04 374.637 2150.09 375.379 Q2150.14 376.095 2150.14 377.528 L2150.14 387.631 Q2150.14 387.928 2150.24 388.422 Q2150.34 388.916 2150.78 389.558 Q2151.25 390.176 2152.02 390.176 Q2153.85 390.176 2153.82 386.94 L2153.82 384.099 L2155.11 384.099 L2155.11 386.94 Q2155.11 389.632 2153.67 390.695 Q2152.26 391.732 2150.96 391.732 Q2149.28 391.732 2148.21 390.497 Q2147.15 389.262 2147 387.582 Q2146.24 389.509 2144.48 390.769 Q2142.75 392.004 2140.38 392.004 Q2138.55 392.004 2136.83 391.535 Q2135.12 391.09 2133.69 389.83 Q2132.28 388.545 2132.28 386.619 M2136.18 386.569 Q2136.18 388.447 2137.52 389.657 Q2138.85 390.868 2140.73 390.868 Q2142.85 390.868 2144.75 389.237 Q2146.66 387.582 2146.66 384.346 L2146.66 379.282 Q2141.05 379.479 2138.6 381.727 Q2136.18 383.951 2136.18 386.569 Z" fill="#000000" fill-rule="nonzero" fill-opacity="1" /><path clip-path="url(#clip230)" d="M2158.34 383.753 Q2158.39 383.135 2159.35 383.135 L2190.36 383.135 Q2191.81 383.135 2191.84 383.704 Q2191.84 384.321 2190.46 384.296 L2159.7 384.296 Q2158.34 384.321 2158.34 383.753 M2158.34 373.872 Q2158.34 373.254 2159.4 373.279 L2190.31 373.279 Q2191.81 373.279 2191.84 373.872 Q2191.84 374.44 2190.56 374.44 L2159.35 374.44 Q2158.34 374.44 2158.34 373.872 Z" fill="#000000" fill-rule="nonzero" fill-opacity="1" /><path clip-path="url(#clip230)" d="M2196.21 383.086 L2196.21 381.53 L2211.75 357.79 Q2212.15 357.172 2212.76 357.197 Q2213.33 357.197 2213.46 357.419 Q2213.58 357.642 2213.58 358.506 L2213.58 381.53 L2218.64 381.53 L2218.64 383.086 L2213.58 383.086 L2213.58 387.483 Q2213.58 388.941 2214.17 389.41 Q2214.79 389.879 2217.41 389.879 L2218.47 389.879 L2218.47 391.436 Q2216.39 391.287 2211.6 391.287 Q2206.83 391.287 2204.76 391.436 L2204.76 389.879 L2205.82 389.879 Q2208.44 389.879 2209.06 389.435 Q2209.68 388.965 2209.68 387.483 L2209.68 383.086 L2196.21 383.086 M2197.64 381.53 L2209.97 381.53 L2209.97 362.656 L2197.64 381.53 Z" fill="#000000" fill-rule="nonzero" fill-opacity="1" /><path clip-path="url(#clip230)" d="M2225.16 390.621 Q2224.4 389.805 2224.4 388.743 Q2224.4 387.681 2225.16 386.915 Q2225.93 386.124 2227.09 386.124 Q2228.2 386.124 2228.94 386.866 Q2229.71 387.582 2229.71 388.768 Q2229.71 389.929 2228.89 390.695 Q2228.1 391.436 2227.09 391.436 Q2225.93 391.436 2225.16 390.621 Z" fill="#000000" fill-rule="nonzero" fill-opacity="1" /><path clip-path="url(#clip230)" d="M2237 367.646 L2238.65 357.246 L2239.91 357.246 Q2240.06 357.864 2240.31 358.136 Q2240.58 358.407 2242.01 358.63 Q2243.47 358.852 2246.41 358.852 L2258.69 358.852 Q2258.69 360.013 2258.24 360.631 L2251.4 370.24 Q2249.23 373.279 2248.26 378.886 Q2247.69 382.641 2247.72 387.187 L2247.72 389.756 Q2247.72 392.547 2245.37 392.547 Q2243.05 392.547 2243.05 389.756 Q2243.05 380.097 2249.27 370.734 Q2249.94 369.771 2252.39 366.337 Q2254.86 362.903 2254.96 362.755 L2244.48 362.755 Q2239.89 362.755 2239.52 363.052 Q2239.02 363.496 2238.26 367.646 L2237 367.646 Z" fill="#000000" fill-rule="nonzero" fill-opacity="1" /></svg>
