<?xml version="1.0" encoding="utf-8"?>
<svg xmlns="http://www.w3.org/2000/svg" xmlns:xlink="http://www.w3.org/1999/xlink" width="600" height="400" viewBox="0 0 2400 1600">
<defs>
  <clipPath id="clip930">
    <rect x="0" y="0" width="2400" height="1600"/>
  </clipPath>
</defs>
<path clip-path="url(#clip930)" d="M0 1600 L2400 1600 L2400 8.88178e-14 L0 8.88178e-14  Z" fill="#ffffff" fill-rule="evenodd" fill-opacity="1"/>
<defs>
  <clipPath id="clip931">
    <rect x="480" y="0" width="1681" height="1600"/>
  </clipPath>
</defs>
<path clip-path="url(#clip930)" d="M209.894 1423.18 L2352.76 1423.18 L2352.76 123.472 L209.894 123.472  Z" fill="#ffffff" fill-rule="evenodd" fill-opacity="1"/>
<defs>
  <clipPath id="clip932">
    <rect x="209" y="123" width="2144" height="1301"/>
  </clipPath>
</defs>
<polyline clip-path="url(#clip932)" style="stroke:#000000; stroke-linecap:round; stroke-linejoin:round; stroke-width:2; stroke-opacity:0.1; fill:none" points="472.698,1423.18 472.698,123.472 "/>
<polyline clip-path="url(#clip932)" style="stroke:#000000; stroke-linecap:round; stroke-linejoin:round; stroke-width:2; stroke-opacity:0.1; fill:none" points="877.011,1423.18 877.011,123.472 "/>
<polyline clip-path="url(#clip932)" style="stroke:#000000; stroke-linecap:round; stroke-linejoin:round; stroke-width:2; stroke-opacity:0.1; fill:none" points="1281.32,1423.18 1281.32,123.472 "/>
<polyline clip-path="url(#clip932)" style="stroke:#000000; stroke-linecap:round; stroke-linejoin:round; stroke-width:2; stroke-opacity:0.1; fill:none" points="1685.64,1423.18 1685.64,123.472 "/>
<polyline clip-path="url(#clip932)" style="stroke:#000000; stroke-linecap:round; stroke-linejoin:round; stroke-width:2; stroke-opacity:0.1; fill:none" points="2089.95,1423.18 2089.95,123.472 "/>
<polyline clip-path="url(#clip932)" style="stroke:#000000; stroke-linecap:round; stroke-linejoin:round; stroke-width:2; stroke-opacity:0.1; fill:none" points="472.698,1423.18 472.698,123.472 "/>
<polyline clip-path="url(#clip932)" style="stroke:#000000; stroke-linecap:round; stroke-linejoin:round; stroke-width:2; stroke-opacity:0.1; fill:none" points="877.011,1423.18 877.011,123.472 "/>
<polyline clip-path="url(#clip932)" style="stroke:#000000; stroke-linecap:round; stroke-linejoin:round; stroke-width:2; stroke-opacity:0.1; fill:none" points="1281.32,1423.18 1281.32,123.472 "/>
<polyline clip-path="url(#clip932)" style="stroke:#000000; stroke-linecap:round; stroke-linejoin:round; stroke-width:2; stroke-opacity:0.1; fill:none" points="1685.64,1423.18 1685.64,123.472 "/>
<polyline clip-path="url(#clip932)" style="stroke:#000000; stroke-linecap:round; stroke-linejoin:round; stroke-width:2; stroke-opacity:0.1; fill:none" points="2089.95,1423.18 2089.95,123.472 "/>
<polyline clip-path="url(#clip932)" style="stroke:#000000; stroke-linecap:round; stroke-linejoin:round; stroke-width:2; stroke-opacity:0.1; fill:none" points="209.894,1423.18 2352.76,1423.18 "/>
<polyline clip-path="url(#clip932)" style="stroke:#000000; stroke-linecap:round; stroke-linejoin:round; stroke-width:2; stroke-opacity:0.1; fill:none" points="209.894,1206.56 2352.76,1206.56 "/>
<polyline clip-path="url(#clip932)" style="stroke:#000000; stroke-linecap:round; stroke-linejoin:round; stroke-width:2; stroke-opacity:0.1; fill:none" points="209.894,989.944 2352.76,989.944 "/>
<polyline clip-path="url(#clip932)" style="stroke:#000000; stroke-linecap:round; stroke-linejoin:round; stroke-width:2; stroke-opacity:0.1; fill:none" points="209.894,773.326 2352.76,773.326 "/>
<polyline clip-path="url(#clip932)" style="stroke:#000000; stroke-linecap:round; stroke-linejoin:round; stroke-width:2; stroke-opacity:0.1; fill:none" points="209.894,556.708 2352.76,556.708 "/>
<polyline clip-path="url(#clip932)" style="stroke:#000000; stroke-linecap:round; stroke-linejoin:round; stroke-width:2; stroke-opacity:0.1; fill:none" points="209.894,340.09 2352.76,340.09 "/>
<polyline clip-path="url(#clip932)" style="stroke:#000000; stroke-linecap:round; stroke-linejoin:round; stroke-width:2; stroke-opacity:0.1; fill:none" points="209.894,123.472 2352.76,123.472 "/>
<polyline clip-path="url(#clip932)" style="stroke:#000000; stroke-linecap:round; stroke-linejoin:round; stroke-width:2; stroke-opacity:0.1; fill:none" points="209.894,1423.18 2352.76,1423.18 "/>
<polyline clip-path="url(#clip932)" style="stroke:#000000; stroke-linecap:round; stroke-linejoin:round; stroke-width:2; stroke-opacity:0.1; fill:none" points="209.894,1206.56 2352.76,1206.56 "/>
<polyline clip-path="url(#clip932)" style="stroke:#000000; stroke-linecap:round; stroke-linejoin:round; stroke-width:2; stroke-opacity:0.1; fill:none" points="209.894,989.944 2352.76,989.944 "/>
<polyline clip-path="url(#clip932)" style="stroke:#000000; stroke-linecap:round; stroke-linejoin:round; stroke-width:2; stroke-opacity:0.1; fill:none" points="209.894,773.326 2352.76,773.326 "/>
<polyline clip-path="url(#clip932)" style="stroke:#000000; stroke-linecap:round; stroke-linejoin:round; stroke-width:2; stroke-opacity:0.1; fill:none" points="209.894,556.708 2352.76,556.708 "/>
<polyline clip-path="url(#clip932)" style="stroke:#000000; stroke-linecap:round; stroke-linejoin:round; stroke-width:2; stroke-opacity:0.1; fill:none" points="209.894,340.09 2352.76,340.09 "/>
<polyline clip-path="url(#clip932)" style="stroke:#000000; stroke-linecap:round; stroke-linejoin:round; stroke-width:2; stroke-opacity:0.1; fill:none" points="209.894,123.472 2352.76,123.472 "/>
<polyline clip-path="url(#clip930)" style="stroke:#000000; stroke-linecap:round; stroke-linejoin:round; stroke-width:4; stroke-opacity:1; fill:none" points="209.894,1423.18 2352.76,1423.18 "/>
<polyline clip-path="url(#clip930)" style="stroke:#000000; stroke-linecap:round; stroke-linejoin:round; stroke-width:4; stroke-opacity:1; fill:none" points="209.894,123.472 2352.76,123.472 "/>
<polyline clip-path="url(#clip930)" style="stroke:#000000; stroke-linecap:round; stroke-linejoin:round; stroke-width:4; stroke-opacity:1; fill:none" points="472.698,1423.18 472.698,1404.28 "/>
<polyline clip-path="url(#clip930)" style="stroke:#000000; stroke-linecap:round; stroke-linejoin:round; stroke-width:4; stroke-opacity:1; fill:none" points="877.011,1423.18 877.011,1404.28 "/>
<polyline clip-path="url(#clip930)" style="stroke:#000000; stroke-linecap:round; stroke-linejoin:round; stroke-width:4; stroke-opacity:1; fill:none" points="1281.32,1423.18 1281.32,1404.28 "/>
<polyline clip-path="url(#clip930)" style="stroke:#000000; stroke-linecap:round; stroke-linejoin:round; stroke-width:4; stroke-opacity:1; fill:none" points="1685.64,1423.18 1685.64,1404.28 "/>
<polyline clip-path="url(#clip930)" style="stroke:#000000; stroke-linecap:round; stroke-linejoin:round; stroke-width:4; stroke-opacity:1; fill:none" points="2089.95,1423.18 2089.95,1404.28 "/>
<polyline clip-path="url(#clip930)" style="stroke:#000000; stroke-linecap:round; stroke-linejoin:round; stroke-width:4; stroke-opacity:1; fill:none" points="472.698,123.472 472.698,142.37 "/>
<polyline clip-path="url(#clip930)" style="stroke:#000000; stroke-linecap:round; stroke-linejoin:round; stroke-width:4; stroke-opacity:1; fill:none" points="877.011,123.472 877.011,142.37 "/>
<polyline clip-path="url(#clip930)" style="stroke:#000000; stroke-linecap:round; stroke-linejoin:round; stroke-width:4; stroke-opacity:1; fill:none" points="1281.32,123.472 1281.32,142.37 "/>
<polyline clip-path="url(#clip930)" style="stroke:#000000; stroke-linecap:round; stroke-linejoin:round; stroke-width:4; stroke-opacity:1; fill:none" points="1685.64,123.472 1685.64,142.37 "/>
<polyline clip-path="url(#clip930)" style="stroke:#000000; stroke-linecap:round; stroke-linejoin:round; stroke-width:4; stroke-opacity:1; fill:none" points="2089.95,123.472 2089.95,142.37 "/>
<path clip-path="url(#clip930)" d="M476.477 1472.22 Q476.774 1472.51 476.774 1472.93 Q476.774 1473.35 476.477 1473.65 Q476.181 1473.94 475.761 1473.94 L444.091 1473.94 Q443.671 1473.94 443.375 1473.65 Q443.079 1473.35 443.079 1472.93 Q443.079 1472.51 443.375 1472.22 Q443.671 1471.92 444.091 1471.92 L475.761 1471.92 Q476.181 1471.92 476.477 1472.22 Z" fill="#000000" fill-rule="nonzero" fill-opacity="1" /><path clip-path="url(#clip930)" d="M482.11 1485.58 Q482.11 1484.67 482.184 1484.39 Q482.283 1484.12 482.678 1483.7 L492.386 1472.88 Q497.698 1466.9 497.698 1461.69 Q497.698 1458.31 495.919 1455.89 Q494.165 1453.47 490.929 1453.47 Q488.706 1453.47 486.828 1454.82 Q484.951 1456.18 484.086 1458.6 Q484.234 1458.55 484.753 1458.55 Q486.013 1458.55 486.705 1459.34 Q487.421 1460.14 487.421 1461.2 Q487.421 1462.56 486.532 1463.22 Q485.667 1463.87 484.803 1463.87 Q484.457 1463.87 483.987 1463.79 Q483.543 1463.72 482.826 1463.03 Q482.11 1462.31 482.11 1461.05 Q482.11 1457.52 484.778 1454.7 Q487.47 1451.88 491.571 1451.88 Q496.215 1451.88 499.254 1454.65 Q502.317 1457.39 502.317 1461.69 Q502.317 1463.2 501.848 1464.58 Q501.403 1465.94 500.786 1467 Q500.193 1468.07 498.562 1469.77 Q496.932 1471.47 495.623 1472.68 Q494.313 1473.9 491.374 1476.46 L486.013 1481.68 L495.129 1481.68 Q499.575 1481.68 499.921 1481.28 Q500.415 1480.57 501.033 1476.79 L502.317 1476.79 L500.884 1485.58 L482.11 1485.58 Z" fill="#000000" fill-rule="nonzero" fill-opacity="1" /><path clip-path="url(#clip930)" d="M881.557 1472.22 Q881.853 1472.51 881.853 1472.93 Q881.853 1473.35 881.557 1473.65 Q881.26 1473.94 880.84 1473.94 L849.171 1473.94 Q848.751 1473.94 848.454 1473.65 Q848.158 1473.35 848.158 1472.93 Q848.158 1472.51 848.454 1472.22 Q848.751 1471.92 849.171 1471.92 L880.84 1471.92 Q881.26 1471.92 881.557 1472.22 Z" fill="#000000" fill-rule="nonzero" fill-opacity="1" /><path clip-path="url(#clip930)" d="M889.165 1456.7 L889.165 1455.12 Q895.243 1455.12 898.38 1451.88 Q899.244 1451.88 899.393 1452.08 Q899.541 1452.28 899.541 1453.19 L899.541 1481.58 Q899.541 1483.08 900.282 1483.55 Q901.023 1484.02 904.259 1484.02 L905.865 1484.02 L905.865 1485.58 Q904.086 1485.43 897.663 1485.43 Q891.241 1485.43 889.487 1485.58 L889.487 1484.02 L891.092 1484.02 Q894.279 1484.02 895.045 1483.58 Q895.811 1483.11 895.811 1481.58 L895.811 1455.37 Q893.167 1456.7 889.165 1456.7 Z" fill="#000000" fill-rule="nonzero" fill-opacity="1" /><path clip-path="url(#clip930)" d="M1270.68 1469.4 Q1270.68 1461.96 1272.56 1457.91 Q1275.17 1451.88 1281.35 1451.88 Q1282.66 1451.88 1284.02 1452.26 Q1285.4 1452.6 1287.13 1453.96 Q1288.88 1455.32 1289.95 1457.54 Q1291.97 1461.84 1291.97 1469.4 Q1291.97 1476.79 1290.09 1480.81 Q1287.35 1486.69 1281.3 1486.69 Q1279.03 1486.69 1276.71 1485.53 Q1274.41 1484.37 1272.95 1481.58 Q1270.68 1477.4 1270.68 1469.4 M1274.88 1468.78 Q1274.88 1476.41 1275.42 1479.45 Q1276.04 1482.74 1277.72 1484.17 Q1279.42 1485.58 1281.3 1485.58 Q1283.33 1485.58 1285.01 1484.07 Q1286.71 1482.54 1287.23 1479.26 Q1287.8 1476.02 1287.77 1468.78 Q1287.77 1461.74 1287.28 1458.92 Q1286.61 1455.64 1284.83 1454.33 Q1283.08 1453 1281.3 1453 Q1280.63 1453 1279.92 1453.19 Q1279.23 1453.39 1278.21 1453.96 Q1277.2 1454.53 1276.41 1455.94 Q1275.64 1457.34 1275.27 1459.47 Q1274.88 1462.21 1274.88 1468.78 Z" fill="#000000" fill-rule="nonzero" fill-opacity="1" /><path clip-path="url(#clip930)" d="M1677.29 1456.7 L1677.29 1455.12 Q1683.37 1455.12 1686.5 1451.88 Q1687.37 1451.88 1687.52 1452.08 Q1687.66 1452.28 1687.66 1453.19 L1687.66 1481.58 Q1687.66 1483.08 1688.41 1483.55 Q1689.15 1484.02 1692.38 1484.02 L1693.99 1484.02 L1693.99 1485.58 Q1692.21 1485.43 1685.79 1485.43 Q1679.36 1485.43 1677.61 1485.58 L1677.61 1484.02 L1679.22 1484.02 Q1682.4 1484.02 1683.17 1483.58 Q1683.93 1483.11 1683.93 1481.58 L1683.93 1455.37 Q1681.29 1456.7 1677.29 1456.7 Z" fill="#000000" fill-rule="nonzero" fill-opacity="1" /><path clip-path="url(#clip930)" d="M2079.85 1485.58 Q2079.85 1484.67 2079.92 1484.39 Q2080.02 1484.12 2080.42 1483.7 L2090.13 1472.88 Q2095.44 1466.9 2095.44 1461.69 Q2095.44 1458.31 2093.66 1455.89 Q2091.9 1453.47 2088.67 1453.47 Q2086.44 1453.47 2084.57 1454.82 Q2082.69 1456.18 2081.82 1458.6 Q2081.97 1458.55 2082.49 1458.55 Q2083.75 1458.55 2084.44 1459.34 Q2085.16 1460.14 2085.16 1461.2 Q2085.16 1462.56 2084.27 1463.22 Q2083.41 1463.87 2082.54 1463.87 Q2082.2 1463.87 2081.73 1463.79 Q2081.28 1463.72 2080.56 1463.03 Q2079.85 1462.31 2079.85 1461.05 Q2079.85 1457.52 2082.52 1454.7 Q2085.21 1451.88 2089.31 1451.88 Q2093.95 1451.88 2096.99 1454.65 Q2100.06 1457.39 2100.06 1461.69 Q2100.06 1463.2 2099.59 1464.58 Q2099.14 1465.94 2098.52 1467 Q2097.93 1468.07 2096.3 1469.77 Q2094.67 1471.47 2093.36 1472.68 Q2092.05 1473.9 2089.11 1476.46 L2083.75 1481.68 L2092.87 1481.68 Q2097.31 1481.68 2097.66 1481.28 Q2098.15 1480.57 2098.77 1476.79 L2100.06 1476.79 L2098.62 1485.58 L2079.85 1485.58 Z" fill="#000000" fill-rule="nonzero" fill-opacity="1" /><path clip-path="url(#clip930)" d="M1263.8 1568.04 L1263.8 1565.9 Q1269.23 1565.9 1272.7 1561.73 Q1272.7 1561.73 1279.22 1553.44 L1272.32 1544.47 Q1269.88 1541.35 1268.79 1540.8 Q1267.74 1540.22 1264.14 1540.22 L1264.14 1538.05 Q1266.99 1538.25 1270.73 1538.25 Q1272.8 1538.25 1278.27 1538.05 L1278.27 1540.22 Q1275.82 1540.36 1275.82 1541.96 Q1275.82 1542.5 1276.43 1543.21 L1281.87 1550.25 L1286.18 1544.81 Q1287.24 1543.55 1287.24 1542.36 Q1287.24 1540.43 1285.2 1540.22 L1285.2 1538.05 Q1287.91 1538.25 1291.89 1538.25 Q1294.88 1538.25 1297.6 1538.05 L1297.6 1540.22 Q1292.3 1540.36 1289.31 1543.83 Q1287.98 1545.29 1282.92 1551.71 L1292.23 1563.73 Q1293.35 1565.19 1294.61 1565.56 Q1295.86 1565.9 1298.85 1565.9 L1298.85 1568.04 Q1295.73 1567.84 1292.16 1567.84 Q1290.9 1567.84 1284.65 1568.04 L1284.65 1565.9 Q1285.91 1565.84 1286.52 1565.29 Q1287.17 1564.72 1287.17 1564.14 Q1287.17 1563.87 1285.71 1561.86 L1280.41 1554.9 Q1275.11 1561.15 1274.43 1562.61 Q1274.16 1563.22 1274.16 1563.73 Q1274.16 1565.6 1276.16 1565.9 L1276.16 1568.04 Q1271.17 1567.84 1269.57 1567.84 Q1266.52 1567.84 1263.8 1568.04 Z" fill="#000000" fill-rule="nonzero" fill-opacity="1" /><polyline clip-path="url(#clip930)" style="stroke:#000000; stroke-linecap:round; stroke-linejoin:round; stroke-width:4; stroke-opacity:1; fill:none" points="209.894,1423.18 209.894,123.472 "/>
<polyline clip-path="url(#clip930)" style="stroke:#000000; stroke-linecap:round; stroke-linejoin:round; stroke-width:4; stroke-opacity:1; fill:none" points="2352.76,1423.18 2352.76,123.472 "/>
<polyline clip-path="url(#clip930)" style="stroke:#000000; stroke-linecap:round; stroke-linejoin:round; stroke-width:4; stroke-opacity:1; fill:none" points="209.894,1423.18 228.792,1423.18 "/>
<polyline clip-path="url(#clip930)" style="stroke:#000000; stroke-linecap:round; stroke-linejoin:round; stroke-width:4; stroke-opacity:1; fill:none" points="209.894,1206.56 228.792,1206.56 "/>
<polyline clip-path="url(#clip930)" style="stroke:#000000; stroke-linecap:round; stroke-linejoin:round; stroke-width:4; stroke-opacity:1; fill:none" points="209.894,989.944 228.792,989.944 "/>
<polyline clip-path="url(#clip930)" style="stroke:#000000; stroke-linecap:round; stroke-linejoin:round; stroke-width:4; stroke-opacity:1; fill:none" points="209.894,773.326 228.792,773.326 "/>
<polyline clip-path="url(#clip930)" style="stroke:#000000; stroke-linecap:round; stroke-linejoin:round; stroke-width:4; stroke-opacity:1; fill:none" points="209.894,556.708 228.792,556.708 "/>
<polyline clip-path="url(#clip930)" style="stroke:#000000; stroke-linecap:round; stroke-linejoin:round; stroke-width:4; stroke-opacity:1; fill:none" points="209.894,340.09 228.792,340.09 "/>
<polyline clip-path="url(#clip930)" style="stroke:#000000; stroke-linecap:round; stroke-linejoin:round; stroke-width:4; stroke-opacity:1; fill:none" points="209.894,123.472 228.792,123.472 "/>
<polyline clip-path="url(#clip930)" style="stroke:#000000; stroke-linecap:round; stroke-linejoin:round; stroke-width:4; stroke-opacity:1; fill:none" points="2352.76,1423.18 2333.86,1423.18 "/>
<polyline clip-path="url(#clip930)" style="stroke:#000000; stroke-linecap:round; stroke-linejoin:round; stroke-width:4; stroke-opacity:1; fill:none" points="2352.76,1206.56 2333.86,1206.56 "/>
<polyline clip-path="url(#clip930)" style="stroke:#000000; stroke-linecap:round; stroke-linejoin:round; stroke-width:4; stroke-opacity:1; fill:none" points="2352.76,989.944 2333.86,989.944 "/>
<polyline clip-path="url(#clip930)" style="stroke:#000000; stroke-linecap:round; stroke-linejoin:round; stroke-width:4; stroke-opacity:1; fill:none" points="2352.76,773.326 2333.86,773.326 "/>
<polyline clip-path="url(#clip930)" style="stroke:#000000; stroke-linecap:round; stroke-linejoin:round; stroke-width:4; stroke-opacity:1; fill:none" points="2352.76,556.708 2333.86,556.708 "/>
<polyline clip-path="url(#clip930)" style="stroke:#000000; stroke-linecap:round; stroke-linejoin:round; stroke-width:4; stroke-opacity:1; fill:none" points="2352.76,340.09 2333.86,340.09 "/>
<polyline clip-path="url(#clip930)" style="stroke:#000000; stroke-linecap:round; stroke-linejoin:round; stroke-width:4; stroke-opacity:1; fill:none" points="2352.76,123.472 2333.86,123.472 "/>
<path clip-path="url(#clip930)" d="M147.659 1427.1 Q147.956 1427.39 147.956 1427.81 Q147.956 1428.23 147.659 1428.53 Q147.363 1428.82 146.943 1428.82 L115.273 1428.82 Q114.853 1428.82 114.557 1428.53 Q114.26 1428.23 114.26 1427.81 Q114.26 1427.39 114.557 1427.1 Q114.853 1426.8 115.273 1426.8 L146.943 1426.8 Q147.363 1426.8 147.659 1427.1 Z" fill="#000000" fill-rule="nonzero" fill-opacity="1" /><path clip-path="url(#clip930)" d="M152.896 1433.64 Q152.896 1432.13 153.761 1431.42 Q154.625 1430.7 155.737 1430.7 Q156.898 1430.7 157.713 1431.47 Q158.553 1432.21 158.553 1433.52 Q158.553 1434.93 157.565 1435.72 Q156.602 1436.51 155.218 1436.31 Q156.429 1438.34 158.652 1439.25 Q160.9 1440.16 162.975 1440.16 Q165.149 1440.16 166.903 1438.29 Q168.682 1436.41 168.682 1431.81 Q168.682 1427.91 167.15 1425.66 Q165.643 1423.41 162.654 1423.41 L160.431 1423.41 Q159.665 1423.41 159.443 1423.34 Q159.22 1423.27 159.22 1422.85 Q159.22 1422.35 159.986 1422.25 Q160.752 1422.25 161.962 1422.11 Q164.902 1422.01 166.458 1419.46 Q167.866 1417.09 167.866 1413.71 Q167.866 1410.62 166.384 1409.33 Q164.927 1408.02 163.025 1408.02 Q161.246 1408.02 159.294 1408.77 Q157.343 1409.51 156.281 1411.16 Q159.418 1411.16 159.418 1413.71 Q159.418 1414.82 158.702 1415.56 Q158.01 1416.28 156.849 1416.28 Q155.737 1416.28 154.996 1415.58 Q154.255 1414.87 154.255 1413.66 Q154.255 1410.77 156.824 1408.77 Q159.418 1406.76 163.222 1406.76 Q166.977 1406.76 169.744 1408.74 Q172.535 1410.72 172.535 1413.76 Q172.535 1416.74 170.559 1419.19 Q168.583 1421.64 165.446 1422.65 Q169.299 1423.41 171.597 1426.03 Q173.894 1428.63 173.894 1431.81 Q173.894 1435.77 170.781 1438.68 Q167.669 1441.57 163.123 1441.57 Q158.924 1441.57 155.91 1439.3 Q152.896 1437.03 152.896 1433.64 Z" fill="#000000" fill-rule="nonzero" fill-opacity="1" /><path clip-path="url(#clip930)" d="M148.054 1210.48 Q148.351 1210.77 148.351 1211.19 Q148.351 1211.61 148.054 1211.91 Q147.758 1212.21 147.338 1212.21 L115.668 1212.21 Q115.248 1212.21 114.952 1211.91 Q114.655 1211.61 114.655 1211.19 Q114.655 1210.77 114.952 1210.48 Q115.248 1210.18 115.668 1210.18 L147.338 1210.18 Q147.758 1210.18 148.054 1210.48 Z" fill="#000000" fill-rule="nonzero" fill-opacity="1" /><path clip-path="url(#clip930)" d="M153.687 1223.84 Q153.687 1222.93 153.761 1222.66 Q153.86 1222.38 154.255 1221.96 L163.963 1211.14 Q169.275 1205.17 169.275 1199.95 Q169.275 1196.57 167.496 1194.15 Q165.742 1191.73 162.506 1191.73 Q160.283 1191.73 158.405 1193.09 Q156.528 1194.44 155.663 1196.87 Q155.811 1196.82 156.33 1196.82 Q157.59 1196.82 158.282 1197.61 Q158.998 1198.4 158.998 1199.46 Q158.998 1200.82 158.109 1201.49 Q157.244 1202.13 156.379 1202.13 Q156.034 1202.13 155.564 1202.05 Q155.12 1201.98 154.403 1201.29 Q153.687 1200.57 153.687 1199.31 Q153.687 1195.78 156.355 1192.96 Q159.047 1190.15 163.148 1190.15 Q167.792 1190.15 170.831 1192.91 Q173.894 1195.66 173.894 1199.95 Q173.894 1201.46 173.425 1202.84 Q172.98 1204.2 172.362 1205.26 Q171.77 1206.33 170.139 1208.03 Q168.509 1209.74 167.199 1210.95 Q165.89 1212.16 162.95 1214.73 L157.59 1219.94 L166.705 1219.94 Q171.152 1219.94 171.498 1219.54 Q171.992 1218.83 172.609 1215.05 L173.894 1215.05 L172.461 1223.84 L153.687 1223.84 Z" fill="#000000" fill-rule="nonzero" fill-opacity="1" /><path clip-path="url(#clip930)" d="M149.586 993.859 Q149.882 994.156 149.882 994.576 Q149.882 994.996 149.586 995.292 Q149.29 995.589 148.87 995.589 L117.2 995.589 Q116.78 995.589 116.483 995.292 Q116.187 994.996 116.187 994.576 Q116.187 994.156 116.483 993.859 Q116.78 993.563 117.2 993.563 L148.87 993.563 Q149.29 993.563 149.586 993.859 Z" fill="#000000" fill-rule="nonzero" fill-opacity="1" /><path clip-path="url(#clip930)" d="M157.195 978.346 L157.195 976.765 Q163.272 976.765 166.409 973.529 Q167.274 973.529 167.422 973.726 Q167.57 973.924 167.57 974.838 L167.57 1003.22 Q167.57 1004.73 168.311 1005.2 Q169.052 1005.67 172.288 1005.67 L173.894 1005.67 L173.894 1007.22 Q172.115 1007.08 165.693 1007.08 Q159.27 1007.08 157.516 1007.22 L157.516 1005.67 L159.121 1005.67 Q162.308 1005.67 163.074 1005.22 Q163.84 1004.75 163.84 1003.22 L163.84 977.012 Q161.197 978.346 157.195 978.346 Z" fill="#000000" fill-rule="nonzero" fill-opacity="1" /><path clip-path="url(#clip930)" d="M152.6 774.425 Q152.6 766.99 154.477 762.938 Q157.096 756.911 163.272 756.911 Q164.581 756.911 165.94 757.281 Q167.323 757.627 169.052 758.986 Q170.806 760.344 171.868 762.568 Q173.894 766.866 173.894 774.425 Q173.894 781.812 172.017 785.838 Q169.275 791.718 163.222 791.718 Q160.95 791.718 158.627 790.557 Q156.33 789.396 154.872 786.604 Q152.6 782.429 152.6 774.425 M156.799 773.808 Q156.799 781.441 157.343 784.48 Q157.96 787.765 159.64 789.198 Q161.345 790.606 163.222 790.606 Q165.248 790.606 166.928 789.099 Q168.632 787.567 169.151 784.282 Q169.719 781.046 169.694 773.808 Q169.694 766.767 169.2 763.951 Q168.533 760.666 166.755 759.356 Q165.001 758.022 163.222 758.022 Q162.555 758.022 161.839 758.22 Q161.147 758.418 160.134 758.986 Q159.121 759.554 158.331 760.962 Q157.565 762.37 157.195 764.495 Q156.799 767.237 156.799 773.808 Z" fill="#000000" fill-rule="nonzero" fill-opacity="1" /><path clip-path="url(#clip930)" d="M157.195 545.11 L157.195 543.529 Q163.272 543.529 166.409 540.293 Q167.274 540.293 167.422 540.49 Q167.57 540.688 167.57 541.602 L167.57 569.986 Q167.57 571.493 168.311 571.962 Q169.052 572.432 172.288 572.432 L173.894 572.432 L173.894 573.988 Q172.115 573.84 165.693 573.84 Q159.27 573.84 157.516 573.988 L157.516 572.432 L159.121 572.432 Q162.308 572.432 163.074 571.987 Q163.84 571.518 163.84 569.986 L163.84 543.776 Q161.197 545.11 157.195 545.11 Z" fill="#000000" fill-rule="nonzero" fill-opacity="1" /><path clip-path="url(#clip930)" d="M153.687 357.37 Q153.687 356.456 153.761 356.184 Q153.86 355.913 154.255 355.493 L163.963 344.673 Q169.275 338.694 169.275 333.482 Q169.275 330.098 167.496 327.677 Q165.742 325.256 162.506 325.256 Q160.283 325.256 158.405 326.614 Q156.528 327.973 155.663 330.394 Q155.811 330.345 156.33 330.345 Q157.59 330.345 158.282 331.135 Q158.998 331.926 158.998 332.988 Q158.998 334.347 158.109 335.014 Q157.244 335.656 156.379 335.656 Q156.034 335.656 155.564 335.582 Q155.12 335.508 154.403 334.816 Q153.687 334.1 153.687 332.84 Q153.687 329.307 156.355 326.491 Q159.047 323.675 163.148 323.675 Q167.792 323.675 170.831 326.441 Q173.894 329.184 173.894 333.482 Q173.894 334.989 173.425 336.372 Q172.98 337.731 172.362 338.793 Q171.77 339.855 170.139 341.56 Q168.509 343.264 167.199 344.475 Q165.89 345.685 162.95 348.255 L157.59 353.467 L166.705 353.467 Q171.152 353.467 171.498 353.072 Q171.992 352.355 172.609 348.576 L173.894 348.576 L172.461 357.37 L153.687 357.37 Z" fill="#000000" fill-rule="nonzero" fill-opacity="1" /><path clip-path="url(#clip930)" d="M152.896 133.934 Q152.896 132.427 153.761 131.711 Q154.625 130.994 155.737 130.994 Q156.898 130.994 157.713 131.76 Q158.553 132.501 158.553 133.81 Q158.553 135.219 157.565 136.009 Q156.602 136.8 155.218 136.602 Q156.429 138.628 158.652 139.542 Q160.9 140.456 162.975 140.456 Q165.149 140.456 166.903 138.578 Q168.682 136.701 168.682 132.106 Q168.682 128.203 167.15 125.955 Q165.643 123.707 162.654 123.707 L160.431 123.707 Q159.665 123.707 159.443 123.633 Q159.22 123.559 159.22 123.139 Q159.22 122.645 159.986 122.546 Q160.752 122.546 161.962 122.398 Q164.902 122.299 166.458 119.754 Q167.866 117.383 167.866 113.998 Q167.866 110.91 166.384 109.626 Q164.927 108.317 163.025 108.317 Q161.246 108.317 159.294 109.058 Q157.343 109.799 156.281 111.454 Q159.418 111.454 159.418 113.998 Q159.418 115.11 158.702 115.851 Q158.01 116.568 156.849 116.568 Q155.737 116.568 154.996 115.876 Q154.255 115.159 154.255 113.949 Q154.255 111.059 156.824 109.058 Q159.418 107.057 163.222 107.057 Q166.977 107.057 169.744 109.033 Q172.535 111.009 172.535 114.048 Q172.535 117.037 170.559 119.483 Q168.583 121.928 165.446 122.941 Q169.299 123.707 171.597 126.325 Q173.894 128.919 173.894 132.106 Q173.894 136.058 170.781 138.973 Q167.669 141.864 163.123 141.864 Q158.924 141.864 155.91 139.591 Q152.896 137.318 152.896 133.934 Z" fill="#000000" fill-rule="nonzero" fill-opacity="1" /><path clip-path="url(#clip930)" d="M21.8332 828.67 Q23.0249 828.735 23.0893 829.54 Q23.1537 830.764 23.3147 831.505 Q23.4435 832.245 23.9266 833.405 Q24.4097 834.564 25.5691 835.691 Q26.7285 836.819 28.5643 837.978 L66.3417 861.714 Q67.0503 862.132 67.2757 862.487 Q67.5334 862.809 67.5334 863.549 Q67.5334 864.226 67.2435 864.483 Q66.9859 864.741 66.0197 864.87 L25.3115 870.087 Q24.5707 870.184 24.2487 870.28 Q23.9266 870.377 23.6046 870.763 Q23.2825 871.118 23.1859 871.891 Q23.0893 872.664 23.0893 874.048 Q23.0893 874.693 23.0571 874.982 Q23.0249 875.24 22.8638 875.466 Q22.6706 875.691 22.2841 875.691 Q21.7044 875.691 21.4146 875.466 Q21.0925 875.208 21.0603 875.015 Q21.0281 874.789 21.0281 874.435 Q21.0281 873.887 21.0925 872.696 Q21.1569 871.504 21.1569 870.892 Q21.1569 870.313 21.1891 869.089 Q21.2213 867.865 21.2213 867.253 Q21.2213 865.9 21.1247 863.163 Q21.0281 860.393 21.0281 859.073 Q21.0281 858.171 21.7688 858.171 Q22.6706 858.171 22.896 858.557 Q23.0893 858.944 23.0893 859.813 Q23.0893 862.003 23.6368 863.195 Q24.1843 864.355 25.0538 864.355 L59.965 859.878 L27.7591 839.62 Q26.2454 838.622 25.2471 838.622 Q23.3147 838.622 23.0893 841.682 Q23.0893 842.712 22.2841 842.712 Q21.7044 842.712 21.4146 842.455 Q21.0925 842.197 21.0603 842.004 Q21.0281 841.778 21.0281 841.456 Q21.0281 840.393 21.1247 838.236 Q21.2213 836.046 21.2213 834.951 Q21.2213 834.049 21.1247 832.213 Q21.0281 830.377 21.0281 829.54 Q21.0281 828.67 21.8332 828.67 Z" fill="#000000" fill-rule="nonzero" fill-opacity="1" /><path clip-path="url(#clip930)" d="M49.5947 819.948 Q38.4515 819.948 29.466 815.794 Q25.6979 814.022 22.5418 811.542 Q19.3856 809.062 18.0007 807.42 Q16.6159 805.777 16.6159 805.327 Q16.6159 804.683 17.26 804.65 Q17.5821 804.65 18.3872 805.52 Q29.2084 816.148 49.5947 816.116 Q70.0454 816.116 80.4479 805.777 Q81.5751 804.65 81.9294 804.65 Q82.5735 804.65 82.5735 805.327 Q82.5735 805.777 81.2531 807.356 Q79.9326 808.934 76.9053 811.381 Q73.8779 813.829 70.1742 815.6 Q61.1888 819.948 49.5947 819.948 Z" fill="#000000" fill-rule="nonzero" fill-opacity="1" /><path clip-path="url(#clip930)" d="M56.6478 768.372 Q60.8023 769.241 63.1856 770.368 Q66.8248 772.172 66.8248 775.231 Q66.8248 777.55 65.4078 779.193 Q63.9907 780.835 61.8651 781.222 Q66.8248 785.441 66.8248 789.821 Q66.8248 793.685 63.8941 796.133 Q60.9312 798.581 56.2613 798.581 Q51.5593 798.581 47.0504 796.262 Q42.5416 793.911 39.7397 790.207 Q36.9378 786.503 36.9378 782.703 Q36.9378 778.677 41.1568 776.616 Q39.9973 776.455 39.1278 775.715 Q38.2582 774.974 38.2582 773.847 Q38.2582 772.977 38.7413 772.462 Q39.1922 771.946 40.0296 771.946 Q40.4482 771.946 42.284 772.397 L51.4948 774.781 L57.4529 776.23 Q59.6429 776.777 60.4481 776.938 Q61.2532 777.067 62.316 777.067 Q65.3434 777.067 65.3434 775.103 Q65.3434 774.136 64.7314 773.363 Q64.1195 772.591 62.8313 771.979 Q61.5431 771.367 60.3515 770.98 Q59.1276 770.594 57.1953 770.078 Q56.4223 769.917 56.2291 769.789 Q56.0037 769.628 56.0037 769.177 Q56.0037 768.372 56.6478 768.372 M44.1841 777.421 Q43.8943 777.421 43.0891 777.647 Q42.284 777.872 41.1568 778.388 Q40.0296 778.903 39.2244 780.03 Q38.3871 781.125 38.3871 782.607 Q38.3871 784.603 40.094 786.697 Q41.8009 788.758 44.6994 790.272 Q47.0182 791.431 51.8813 792.687 Q56.7444 793.911 59.1598 793.911 Q60.6413 793.911 61.9617 793.589 Q63.25 793.234 64.3128 792.236 Q65.3434 791.238 65.3434 789.692 Q65.3434 785.924 60.6735 782.22 Q59.8684 781.512 59.5463 781.351 Q59.192 781.157 58.2259 780.9 L45.3113 777.615 Q44.3451 777.421 44.1841 777.421 Z" fill="#000000" fill-rule="nonzero" fill-opacity="1" /><path clip-path="url(#clip930)" d="M65.0213 763.101 Q63.9585 764.035 62.5737 764.035 Q61.1888 764.035 60.1582 763.133 Q59.0954 762.199 59.0954 760.524 Q59.0954 758.56 60.9956 757.432 Q62.8635 756.305 66.0197 756.305 Q69.4335 756.305 72.5897 757.69 Q75.7781 759.075 77.2917 760.428 Q78.8054 761.78 78.8054 762.328 Q78.8054 762.972 78.0969 762.972 Q77.8392 762.972 77.3561 762.521 Q72.2676 757.787 66.0197 757.754 Q65.0213 757.754 65.0213 757.883 L65.1501 758.044 Q66.0841 759.172 66.0841 760.524 Q66.0841 762.167 65.0213 763.101 Z" fill="#000000" fill-rule="nonzero" fill-opacity="1" /><path clip-path="url(#clip930)" d="M41.2856 702.64 Q43.0891 702.64 44.1197 703.767 Q45.1181 704.894 45.1181 706.182 Q45.1181 707.406 44.4096 708.05 Q43.701 708.694 42.7993 708.694 Q41.5754 708.694 40.5126 707.792 Q39.4498 706.891 39.2244 705.538 Q38.3871 706.859 38.3871 708.823 Q38.3871 710.111 39.0634 711.239 Q39.7397 712.334 40.6093 713.01 Q41.4788 713.654 42.7348 714.234 Q43.9587 714.781 44.6994 715.007 Q45.4079 715.2 46.1809 715.361 L55.1985 717.615 Q59.4819 718.71 60.9956 718.71 Q62.8635 718.71 64.1195 717.809 Q65.3434 716.907 65.3434 715.103 Q65.3434 714.395 65.1501 713.59 Q64.9247 712.784 64.345 711.754 Q63.7331 710.691 62.8313 709.757 Q61.8973 708.791 60.3192 707.857 Q58.7412 706.923 56.7122 706.311 Q56.0037 706.118 56.0037 705.474 Q56.0037 704.669 56.6478 704.669 Q57.1953 704.669 58.3547 705.119 Q59.4819 705.538 60.9634 706.472 Q62.4126 707.374 63.7331 708.565 Q65.0213 709.757 65.9231 711.528 Q66.8248 713.3 66.8248 715.232 Q66.8248 718.002 65.3434 719.837 Q63.8619 721.673 61.8007 722.35 Q62.0906 722.511 62.477 722.736 Q62.8635 722.961 63.7331 723.638 Q64.5704 724.282 65.2145 725.023 Q65.8264 725.763 66.3095 726.923 Q66.8248 728.05 66.8248 729.274 Q66.8248 730.82 66.3739 732.205 Q65.9231 733.557 64.8925 734.523 Q63.8619 735.49 62.4448 735.49 Q60.8667 735.49 59.7717 734.427 Q58.6445 733.332 58.6445 731.85 Q58.6445 730.916 59.192 730.176 Q59.7395 729.403 60.9312 729.403 Q62.2516 729.403 63.25 730.304 Q64.2484 731.206 64.506 732.494 Q65.3434 731.174 65.3434 729.209 Q65.3434 727.084 63.4754 725.409 Q61.6075 723.734 58.4835 722.929 Q50.9795 720.932 47.6301 720.16 Q44.2485 719.387 42.7993 719.387 Q41.4466 719.387 40.5126 719.741 Q39.5787 720.095 39.16 720.707 Q38.7091 721.287 38.5481 721.834 Q38.3871 722.35 38.3871 722.929 Q38.3871 723.895 38.7735 724.99 Q39.16 726.053 40.0618 727.341 Q40.9313 728.597 42.7348 729.789 Q44.5384 730.981 47.0182 731.786 Q47.759 731.947 47.759 732.655 Q47.7268 733.428 47.0826 733.428 Q46.5351 733.428 45.4079 733.01 Q44.2485 732.559 42.7993 731.657 Q41.35 730.723 40.0618 729.531 Q38.7413 728.308 37.8396 726.536 Q36.9378 724.733 36.9378 722.8 Q36.9378 721.931 37.131 721.094 Q37.2921 720.224 37.7751 719.193 Q38.2582 718.131 39.321 717.197 Q40.3838 716.263 41.9297 715.683 Q41.189 715.296 40.4804 714.781 Q39.7719 714.234 38.9023 713.396 Q38.0006 712.527 37.4853 711.335 Q36.9378 710.111 36.9378 708.759 Q36.9378 707.438 37.2921 706.15 Q37.6141 704.862 38.6769 703.767 Q39.7075 702.64 41.2856 702.64 Z" fill="#000000" fill-rule="nonzero" fill-opacity="1" /><path clip-path="url(#clip930)" d="M81.9294 696.288 Q81.6073 696.288 80.8022 695.451 Q69.981 684.823 49.5947 684.823 Q29.144 684.823 18.8059 695.032 Q17.6143 696.288 17.26 696.288 Q16.6159 696.288 16.6159 695.644 Q16.6159 695.193 17.9363 693.615 Q19.2568 692.005 22.2841 689.59 Q25.3115 687.142 29.0151 685.338 Q38.0006 680.991 49.5947 680.991 Q60.7379 680.991 69.7234 685.145 Q73.4914 686.916 76.6476 689.396 Q79.8038 691.876 81.1886 693.519 Q82.5735 695.161 82.5735 695.644 Q82.5735 696.288 81.9294 696.288 Z" fill="#000000" fill-rule="nonzero" fill-opacity="1" /><path clip-path="url(#clip930)" d="M623.459 72.576 L623.459 69.8525 L625.577 69.8525 Q630.376 69.8525 631.457 69.0743 Q632.581 68.2529 632.581 65.6591 L632.581 19.0129 Q632.581 16.4623 631.457 15.6842 Q630.333 14.8628 625.577 14.8628 L623.459 14.8628 L623.459 12.096 L654.715 12.096 Q663.664 12.096 669.63 17.0243 Q675.596 21.9526 675.596 28.567 Q675.596 35.1381 669.5 39.8935 Q663.448 44.6056 655.407 44.6056 L640.449 44.6056 L640.449 65.6591 Q640.449 68.2097 641.53 69.0311 Q642.654 69.8525 647.452 69.8525 L649.571 69.8525 L649.571 72.576 Q646.458 72.3166 636.472 72.3166 Q626.572 72.3166 623.459 72.576 M640.189 42.3144 L652.381 42.3144 Q656.358 42.3144 659.254 41.1904 Q662.151 40.0664 663.448 38.7262 Q664.788 37.3428 665.523 35.1381 Q666.301 32.8901 666.387 31.6796 Q666.474 30.4259 666.474 28.567 Q666.474 26.6216 666.387 25.4111 Q666.301 24.1574 665.523 21.9526 Q664.788 19.7046 663.448 18.3645 Q662.151 16.9811 659.254 15.9435 Q656.401 14.8628 652.381 14.8628 L644.513 14.8628 Q641.486 14.8628 640.838 15.468 Q640.189 16.0732 640.189 18.4077 L640.189 42.3144 Z" fill="#000000" fill-rule="nonzero" fill-opacity="1" /><path clip-path="url(#clip930)" d="M681.778 64.146 Q681.778 56.6238 690.64 52.6466 Q695.957 50.0959 706.938 49.4475 L706.938 46.2052 Q706.938 40.7148 704.041 37.8184 Q701.188 34.8787 697.557 34.8787 Q691.072 34.8787 687.96 38.9424 Q690.597 39.0288 691.548 40.369 Q692.499 41.6659 692.499 43.0061 Q692.499 44.7785 691.375 45.9458 Q690.294 47.0698 688.435 47.0698 Q686.663 47.0698 685.495 45.989 Q684.328 44.865 684.328 42.9196 Q684.328 38.5965 688.219 35.7433 Q692.153 32.8901 697.73 32.8901 Q704.993 32.8901 709.834 37.7751 Q711.347 39.2882 712.082 41.2336 Q712.861 43.179 712.947 44.4759 Q713.033 45.7296 713.033 48.237 L713.033 65.9184 Q713.033 66.4372 713.206 67.3018 Q713.379 68.1665 714.157 69.2905 Q714.979 70.3712 716.319 70.3712 Q719.518 70.3712 719.475 64.708 L719.475 59.7364 L721.723 59.7364 L721.723 64.708 Q721.723 69.4201 719.215 71.2791 Q716.751 73.0948 714.46 73.0948 Q711.52 73.0948 709.661 70.9332 Q707.803 68.7717 707.543 65.832 Q706.203 69.204 703.134 71.4088 Q700.107 73.5703 695.957 73.5703 Q692.758 73.5703 689.732 72.7489 Q686.749 71.9708 684.242 69.766 Q681.778 67.518 681.778 64.146 M688.608 64.0595 Q688.608 67.3451 690.942 69.4634 Q693.277 71.5817 696.562 71.5817 Q700.28 71.5817 703.609 68.7285 Q706.938 65.832 706.938 60.1687 L706.938 51.3064 Q697.125 51.6523 692.845 55.5863 Q688.608 59.477 688.608 64.0595 Z" fill="#000000" fill-rule="nonzero" fill-opacity="1" /><path clip-path="url(#clip930)" d="M724.792 72.576 L724.792 69.8525 Q729.504 69.8525 730.585 69.2905 Q731.709 68.6852 731.709 65.832 L731.709 42.0982 Q731.709 38.8127 730.542 37.9913 Q729.418 37.1699 724.792 37.1699 L724.792 34.4031 L737.113 33.4521 L737.113 43.179 Q738.367 39.3747 741.004 36.435 Q743.684 33.4521 748.007 33.4521 Q750.86 33.4521 752.676 35.0516 Q754.535 36.6511 754.535 38.8559 Q754.535 40.8013 753.325 41.7956 Q752.157 42.7467 750.731 42.7467 Q749.131 42.7467 748.007 41.7524 Q746.926 40.7148 746.926 38.9424 Q746.926 37.8616 747.402 37.0402 Q747.921 36.1756 748.31 35.873 Q748.699 35.5704 748.958 35.4839 Q748.785 35.3974 748.007 35.3974 Q743.122 35.3974 740.312 40.2825 Q737.545 45.1244 737.545 52.0413 L737.545 65.6591 Q737.545 68.2097 738.583 69.0311 Q739.664 69.8525 744.289 69.8525 L746.148 69.8525 L746.148 72.576 Q742.603 72.3166 734.908 72.3166 Q733.828 72.3166 732.142 72.3598 Q730.456 72.4031 728.251 72.4895 Q726.046 72.576 724.792 72.576 Z" fill="#000000" fill-rule="nonzero" fill-opacity="1" /><path clip-path="url(#clip930)" d="M760.631 64.146 Q760.631 56.6238 769.493 52.6466 Q774.81 50.0959 785.791 49.4475 L785.791 46.2052 Q785.791 40.7148 782.895 37.8184 Q780.041 34.8787 776.41 34.8787 Q769.925 34.8787 766.813 38.9424 Q769.45 39.0288 770.401 40.369 Q771.352 41.6659 771.352 43.0061 Q771.352 44.7785 770.228 45.9458 Q769.147 47.0698 767.288 47.0698 Q765.516 47.0698 764.349 45.989 Q763.181 44.865 763.181 42.9196 Q763.181 38.5965 767.072 35.7433 Q771.006 32.8901 776.583 32.8901 Q783.846 32.8901 788.688 37.7751 Q790.201 39.2882 790.936 41.2336 Q791.714 43.179 791.8 44.4759 Q791.887 45.7296 791.887 48.237 L791.887 65.9184 Q791.887 66.4372 792.06 67.3018 Q792.232 68.1665 793.011 69.2905 Q793.832 70.3712 795.172 70.3712 Q798.371 70.3712 798.328 64.708 L798.328 59.7364 L800.576 59.7364 L800.576 64.708 Q800.576 69.4201 798.069 71.2791 Q795.604 73.0948 793.313 73.0948 Q790.374 73.0948 788.515 70.9332 Q786.656 68.7717 786.396 65.832 Q785.056 69.204 781.987 71.4088 Q778.961 73.5703 774.81 73.5703 Q771.611 73.5703 768.585 72.7489 Q765.602 71.9708 763.095 69.766 Q760.631 67.518 760.631 64.146 M767.461 64.0595 Q767.461 67.3451 769.796 69.4634 Q772.13 71.5817 775.416 71.5817 Q779.133 71.5817 782.462 68.7285 Q785.791 65.832 785.791 60.1687 L785.791 51.3064 Q775.978 51.6523 771.698 55.5863 Q767.461 59.477 767.461 64.0595 Z" fill="#000000" fill-rule="nonzero" fill-opacity="1" /><path clip-path="url(#clip930)" d="M803.645 14.8628 L803.645 12.096 L816.398 11.1449 L816.398 39.2018 Q821.543 33.4521 828.546 33.4521 Q836.155 33.4521 841.732 39.2882 Q847.309 45.1244 847.309 53.468 Q847.309 61.898 841.472 67.7341 Q835.636 73.5703 827.552 73.5703 Q820.203 73.5703 815.966 67.0857 Q812.854 72.4895 812.767 72.576 L810.562 72.576 L810.562 19.7911 Q810.562 16.5055 809.395 15.6842 Q808.228 14.8628 803.645 14.8628 M816.658 62.5032 Q816.658 64.3621 817.912 66.2211 Q821.413 71.5817 827.12 71.5817 Q827.163 71.5817 827.206 71.5817 Q833.388 71.5817 837.236 65.9184 Q839.959 61.6818 839.959 53.3815 Q839.959 45.1676 837.409 41.0607 Q833.864 35.3974 828.114 35.3974 Q821.629 35.3974 817.652 41.0607 Q816.658 42.4873 816.658 44.2598 L816.658 62.5032 Z" fill="#000000" fill-rule="nonzero" fill-opacity="1" /><path clip-path="url(#clip930)" d="M861.056 67.8206 Q855.22 62.0277 855.22 53.6409 Q855.22 45.2109 860.926 39.0721 Q866.676 32.8901 874.89 32.8901 Q882.931 32.8901 888.681 39.0288 Q894.473 45.1244 894.473 53.6409 Q894.473 61.9844 888.637 67.7774 Q882.844 73.5703 874.803 73.5703 Q866.935 73.5703 861.056 67.8206 M862.569 52.9059 Q862.569 61.5089 864.817 65.3997 Q868.276 71.3223 874.89 71.3223 Q878.175 71.3223 880.899 69.5498 Q883.666 67.7774 885.179 64.7944 Q887.124 60.9037 887.124 52.9059 Q887.124 44.3895 884.79 40.6284 Q881.331 34.8787 874.803 34.8787 Q871.95 34.8787 869.14 36.3918 Q866.373 37.8616 864.687 40.8013 Q862.569 44.6921 862.569 52.9059 Z" fill="#000000" fill-rule="nonzero" fill-opacity="1" /><path clip-path="url(#clip930)" d="M899.964 72.576 L899.964 69.8525 Q904.676 69.8525 905.757 69.2905 Q906.837 68.6852 906.837 65.832 L906.837 19.7911 Q906.837 16.5055 905.67 15.6842 Q904.546 14.8628 899.964 14.8628 L899.964 12.096 L912.674 11.1449 L912.674 65.832 Q912.674 68.6852 913.798 69.2905 Q914.922 69.8525 919.591 69.8525 L919.591 72.576 Q918.51 72.576 916.262 72.4895 Q914.014 72.4031 912.371 72.3598 Q910.728 72.3166 909.777 72.3166 Q908.74 72.3166 899.964 72.576 Z" fill="#000000" fill-rule="nonzero" fill-opacity="1" /><path clip-path="url(#clip930)" d="M924.476 72.576 L924.476 69.8525 Q929.188 69.8525 930.269 69.2905 Q931.349 68.6852 931.349 65.832 L931.349 42.0118 Q931.349 38.7262 930.225 37.9481 Q929.145 37.1699 924.822 37.1699 L924.822 34.4031 L937.186 33.4521 L937.186 65.9184 Q937.186 68.5555 938.137 69.204 Q939.088 69.8525 943.411 69.8525 L943.411 72.576 Q934.376 72.3166 934.203 72.3166 Q932.992 72.3166 924.476 72.576 M928.194 18.0186 Q928.194 16.2462 929.534 14.8195 Q930.917 13.3497 932.862 13.3497 Q934.808 13.3497 936.191 14.6899 Q937.575 15.9868 937.575 18.0619 Q937.575 20.0937 936.191 21.4339 Q934.808 22.7308 932.862 22.7308 Q930.831 22.7308 929.49 21.3042 Q928.194 19.8776 928.194 18.0186 Z" fill="#000000" fill-rule="nonzero" fill-opacity="1" /><path clip-path="url(#clip930)" d="M954.694 67.7341 Q949.074 61.8547 949.074 53.468 Q949.074 45.0379 954.608 38.9856 Q960.141 32.8901 968.269 32.8901 Q973.672 32.8901 977.736 35.4839 Q981.8 38.0345 981.8 42.4008 Q981.8 44.3462 980.633 45.4702 Q979.509 46.551 977.736 46.551 Q975.877 46.551 974.753 45.427 Q973.672 44.2598 973.672 42.4873 Q973.672 41.7092 973.932 40.931 Q974.191 40.1528 975.142 39.3315 Q976.137 38.5101 977.823 38.3804 Q974.667 35.1381 968.528 35.1381 Q968.441 35.1381 968.355 35.1381 Q963.859 35.1381 960.141 39.3747 Q956.423 43.6113 956.423 53.295 Q956.423 58.353 957.634 62.0709 Q958.887 65.7455 960.919 67.6477 Q962.951 69.5498 964.94 70.4577 Q966.928 71.3223 968.874 71.3223 Q977.563 71.3223 980.503 62.0277 Q980.762 61.163 981.627 61.163 Q982.794 61.163 982.794 62.0277 Q982.794 62.46 982.448 63.584 Q982.102 64.708 981.022 66.4804 Q979.941 68.2529 978.385 69.8092 Q976.872 71.3223 974.148 72.4463 Q971.468 73.5703 968.096 73.5703 Q960.314 73.5703 954.694 67.7341 Z" fill="#000000" fill-rule="nonzero" fill-opacity="1" /><path clip-path="url(#clip930)" d="M1023.43 67.7341 Q1017.81 61.8547 1017.81 53.468 Q1017.81 45.0379 1023.34 38.9856 Q1028.88 32.8901 1037.01 32.8901 Q1042.41 32.8901 1046.47 35.4839 Q1050.54 38.0345 1050.54 42.4008 Q1050.54 44.3462 1049.37 45.4702 Q1048.25 46.551 1046.47 46.551 Q1044.61 46.551 1043.49 45.427 Q1042.41 44.2598 1042.41 42.4873 Q1042.41 41.7092 1042.67 40.931 Q1042.93 40.1528 1043.88 39.3315 Q1044.87 38.5101 1046.56 38.3804 Q1043.4 35.1381 1037.27 35.1381 Q1037.18 35.1381 1037.09 35.1381 Q1032.6 35.1381 1028.88 39.3747 Q1025.16 43.6113 1025.16 53.295 Q1025.16 58.353 1026.37 62.0709 Q1027.62 65.7455 1029.66 67.6477 Q1031.69 69.5498 1033.68 70.4577 Q1035.67 71.3223 1037.61 71.3223 Q1046.3 71.3223 1049.24 62.0277 Q1049.5 61.163 1050.36 61.163 Q1051.53 61.163 1051.53 62.0277 Q1051.53 62.46 1051.19 63.584 Q1050.84 64.708 1049.76 66.4804 Q1048.68 68.2529 1047.12 69.8092 Q1045.61 71.3223 1042.89 72.4463 Q1040.2 73.5703 1036.83 73.5703 Q1029.05 73.5703 1023.43 67.7341 Z" fill="#000000" fill-rule="nonzero" fill-opacity="1" /><path clip-path="url(#clip930)" d="M1055.77 83.5566 Q1055.77 81.6977 1056.85 80.7034 Q1057.97 79.7523 1059.49 79.7523 Q1061.09 79.7523 1062.12 80.7466 Q1063.2 81.7842 1063.2 83.4702 Q1063.2 86.7557 1059.75 87.188 Q1061.43 88.7876 1063.9 88.7876 Q1066.53 88.7876 1068.65 86.8422 Q1070.81 84.8968 1071.72 83.0379 Q1072.67 81.1789 1074.01 77.8069 Q1075.27 75.1699 1076.22 72.576 L1062.94 40.2393 Q1062.08 38.121 1060.74 37.6454 Q1059.4 37.1699 1055.77 37.1699 L1055.77 34.4031 Q1059.75 34.6625 1064.37 34.6625 Q1067.09 34.6625 1074.01 34.4031 L1074.01 37.1699 Q1069.04 37.1699 1069.04 39.4611 Q1069.04 39.7205 1069.56 41.0607 L1079.42 64.8809 L1088.36 43.0925 Q1088.88 41.8388 1088.88 40.9742 Q1088.88 37.3428 1084.73 37.1699 L1084.73 34.4031 Q1090.57 34.6625 1092.43 34.6625 Q1096.06 34.6625 1099.04 34.4031 L1099.04 37.1699 Q1093.12 37.1699 1090.83 42.8332 L1075.22 80.6169 Q1070.99 90.6897 1063.9 90.733 Q1060.52 90.733 1058.15 88.6579 Q1055.77 86.5828 1055.77 83.5566 Z" fill="#000000" fill-rule="nonzero" fill-opacity="1" /><path clip-path="url(#clip930)" d="M1103.67 72.576 L1103.67 69.8525 Q1108.38 69.8525 1109.46 69.2905 Q1110.54 68.6852 1110.54 65.832 L1110.54 19.7911 Q1110.54 16.5055 1109.37 15.6842 Q1108.25 14.8628 1103.67 14.8628 L1103.67 12.096 L1116.38 11.1449 L1116.38 65.832 Q1116.38 68.6852 1117.5 69.2905 Q1118.63 69.8525 1123.29 69.8525 L1123.29 72.576 Q1122.21 72.576 1119.97 72.4895 Q1117.72 72.4031 1116.07 72.3598 Q1114.43 72.3166 1113.48 72.3166 Q1112.44 72.3166 1103.67 72.576 Z" fill="#000000" fill-rule="nonzero" fill-opacity="1" /><path clip-path="url(#clip930)" d="M1128.18 72.576 L1128.18 69.8525 Q1132.89 69.8525 1133.97 69.2905 Q1135.05 68.6852 1135.05 65.832 L1135.05 42.0118 Q1135.05 38.7262 1133.93 37.9481 Q1132.85 37.1699 1128.53 37.1699 L1128.53 34.4031 L1140.89 33.4521 L1140.89 65.9184 Q1140.89 68.5555 1141.84 69.204 Q1142.79 69.8525 1147.11 69.8525 L1147.11 72.576 Q1138.08 72.3166 1137.91 72.3166 Q1136.7 72.3166 1128.18 72.576 M1131.9 18.0186 Q1131.9 16.2462 1133.24 14.8195 Q1134.62 13.3497 1136.57 13.3497 Q1138.51 13.3497 1139.9 14.6899 Q1141.28 15.9868 1141.28 18.0619 Q1141.28 20.0937 1139.9 21.4339 Q1138.51 22.7308 1136.57 22.7308 Q1134.53 22.7308 1133.19 21.3042 Q1131.9 19.8776 1131.9 18.0186 Z" fill="#000000" fill-rule="nonzero" fill-opacity="1" /><path clip-path="url(#clip930)" d="M1152.61 72.576 L1152.61 69.8525 Q1157.32 69.8525 1158.4 69.2905 Q1159.48 68.6852 1159.48 65.832 L1159.48 42.0982 Q1159.48 38.8127 1158.31 37.9913 Q1157.19 37.1699 1152.61 37.1699 L1152.61 34.4031 L1165.06 33.4521 L1165.06 42.7467 Q1169.21 33.4521 1178.15 33.4521 Q1184.81 33.4521 1187.45 36.7376 Q1189.39 38.9424 1189.78 41.4065 Q1190.22 43.8707 1190.22 50.2689 L1190.22 67.1721 Q1190.3 69.0311 1191.73 69.4634 Q1193.16 69.8525 1197.13 69.8525 L1197.13 72.576 Q1188.1 72.3166 1187.19 72.3166 Q1186.5 72.3166 1177.2 72.576 L1177.2 69.8525 Q1181.92 69.8525 1183 69.2905 Q1184.12 68.6852 1184.12 65.832 L1184.12 45.2109 Q1184.12 40.7148 1182.74 38.0778 Q1181.35 35.3974 1177.55 35.3974 Q1172.97 35.3974 1169.29 39.245 Q1165.62 43.0925 1165.62 49.5772 L1165.62 65.832 Q1165.62 68.6852 1166.7 69.2905 Q1167.82 69.8525 1172.49 69.8525 L1172.49 72.576 Q1163.46 72.3166 1162.59 72.3166 Q1161.9 72.3166 1152.61 72.576 Z" fill="#000000" fill-rule="nonzero" fill-opacity="1" /><path clip-path="url(#clip930)" d="M1201.89 53.5544 Q1201.89 45.1244 1207.77 39.2882 Q1213.65 33.4521 1221.6 33.4521 Q1228.35 33.4521 1232.76 38.9424 L1232.76 19.7911 Q1232.76 16.5055 1231.59 15.6842 Q1230.46 14.8628 1225.88 14.8628 L1225.88 12.096 L1238.63 11.1449 L1238.63 64.8809 Q1238.63 68.1665 1239.76 69.0311 Q1240.93 69.8525 1245.51 69.8525 L1245.51 72.576 L1232.5 73.5703 L1232.5 67.6909 Q1227.91 73.5271 1220.65 73.5703 Q1213.04 73.5703 1207.47 67.7341 Q1201.89 61.898 1201.89 53.5544 M1209.24 53.6409 Q1209.24 61.8547 1211.79 65.9184 Q1215.33 71.5817 1221.08 71.5817 Q1227.65 71.5817 1231.54 65.3997 Q1232.54 63.8866 1232.5 62.1141 L1232.5 43.9572 Q1232.5 42.1847 1231.54 40.7148 Q1227.91 35.3974 1221.99 35.3974 Q1215.81 35.3974 1211.96 41.0607 Q1209.24 45.2973 1209.24 53.6409 Z" fill="#000000" fill-rule="nonzero" fill-opacity="1" /><path clip-path="url(#clip930)" d="M1250.44 53.0789 Q1250.44 44.7353 1255.8 38.8127 Q1261.16 32.8901 1268.85 32.8901 Q1276.63 32.8901 1280.65 37.9481 Q1284.72 43.0061 1284.72 50.2689 Q1284.72 51.609 1284.37 51.8684 Q1284.03 52.1278 1282.51 52.1278 L1257.79 52.1278 Q1257.79 61.163 1260.47 65.3997 Q1264.18 71.3223 1270.45 71.3223 Q1271.32 71.3223 1272.35 71.1494 Q1273.39 70.9765 1275.51 70.2415 Q1277.63 69.4634 1279.49 67.4315 Q1281.35 65.3997 1282.43 62.2006 Q1282.69 60.9469 1283.55 60.9901 Q1284.72 60.9901 1284.72 62.0277 Q1284.72 62.8058 1283.85 64.5783 Q1283.03 66.3075 1281.43 68.3826 Q1279.83 70.4577 1276.72 72.014 Q1273.65 73.5703 1269.93 73.5703 Q1262.15 73.5703 1256.27 67.6909 Q1250.44 61.7683 1250.44 53.0789 M1257.87 50.2689 L1278.88 50.2689 Q1278.88 48.4099 1278.54 46.3349 Q1278.23 44.2598 1277.28 41.4065 Q1276.38 38.5101 1274.21 36.6944 Q1272.05 34.8787 1268.85 34.8787 Q1267.43 34.8787 1265.87 35.4839 Q1264.36 36.0891 1262.5 37.559 Q1260.64 39.0288 1259.34 42.3576 Q1258.05 45.6864 1257.87 50.2689 Z" fill="#000000" fill-rule="nonzero" fill-opacity="1" /><path clip-path="url(#clip930)" d="M1289.73 72.576 L1289.73 69.8525 Q1294.45 69.8525 1295.53 69.2905 Q1296.65 68.6852 1296.65 65.832 L1296.65 42.0982 Q1296.65 38.8127 1295.48 37.9913 Q1294.36 37.1699 1289.73 37.1699 L1289.73 34.4031 L1302.05 33.4521 L1302.05 43.179 Q1303.31 39.3747 1305.94 36.435 Q1308.63 33.4521 1312.95 33.4521 Q1315.8 33.4521 1317.62 35.0516 Q1319.48 36.6511 1319.48 38.8559 Q1319.48 40.8013 1318.27 41.7956 Q1317.1 42.7467 1315.67 42.7467 Q1314.07 42.7467 1312.95 41.7524 Q1311.87 40.7148 1311.87 38.9424 Q1311.87 37.8616 1312.34 37.0402 Q1312.86 36.1756 1313.25 35.873 Q1313.64 35.5704 1313.9 35.4839 Q1313.73 35.3974 1312.95 35.3974 Q1308.06 35.3974 1305.25 40.2825 Q1302.49 45.1244 1302.49 52.0413 L1302.49 65.6591 Q1302.49 68.2097 1303.52 69.0311 Q1304.6 69.8525 1309.23 69.8525 L1311.09 69.8525 L1311.09 72.576 Q1307.54 72.3166 1299.85 72.3166 Q1298.77 72.3166 1297.08 72.3598 Q1295.4 72.4031 1293.19 72.4895 Q1290.99 72.576 1289.73 72.576 Z" fill="#000000" fill-rule="nonzero" fill-opacity="1" /><path clip-path="url(#clip930)" d="M1354.23 37.1699 L1354.23 34.4031 L1361.19 34.4031 L1361.19 24.2439 Q1361.19 17.6728 1365.43 13.9117 Q1369.71 10.1506 1374.94 10.1506 Q1378.4 10.1506 1380.65 12.0095 Q1382.9 13.8685 1382.9 16.3759 Q1382.9 18.0619 1381.86 19.1859 Q1380.86 20.2666 1379.01 20.2666 Q1377.23 20.2666 1376.2 19.1426 Q1375.2 18.0186 1375.2 16.4623 Q1375.2 13.6091 1377.84 12.7445 Q1376.5 12.1392 1374.94 12.096 Q1371.74 12.096 1369.23 15.3815 Q1366.77 18.6671 1366.77 24.1574 L1366.77 34.4031 L1377.15 34.4031 L1377.15 37.1699 L1367.07 37.1699 L1367.07 65.6591 Q1367.07 68.2097 1368.11 69.0311 Q1369.19 69.8525 1373.77 69.8525 L1375.63 69.8525 L1375.63 72.576 Q1372.09 72.3166 1364.39 72.3166 Q1363.31 72.3166 1361.63 72.3598 Q1359.98 72.4031 1357.74 72.4895 Q1355.53 72.576 1354.32 72.576 L1354.32 69.8525 Q1359.03 69.8525 1360.11 69.2905 Q1361.19 68.6852 1361.19 65.832 L1361.19 37.1699 L1354.23 37.1699 Z" fill="#000000" fill-rule="nonzero" fill-opacity="1" /><path clip-path="url(#clip930)" d="M1381.12 37.1699 L1381.12 34.4031 L1394.14 33.4521 L1394.14 62.8491 Q1394.14 64.9674 1394.31 66.2211 Q1394.48 67.4315 1395.17 68.8581 Q1395.91 70.2848 1397.55 70.9332 Q1399.24 71.5817 1401.92 71.5817 Q1406.72 71.5817 1409.66 67.6477 Q1412.64 63.7137 1412.64 57.8775 L1412.64 42.0982 Q1412.64 38.8127 1411.47 37.9913 Q1410.3 37.1699 1405.72 37.1699 L1405.72 34.4031 L1418.73 33.4521 L1418.73 64.8809 Q1418.73 68.1665 1419.86 69.0311 Q1421.03 69.8525 1425.65 69.8525 L1425.65 72.576 L1412.9 73.5703 L1412.9 65.5726 Q1409.18 73.5271 1401.49 73.5703 Q1397.59 73.5703 1394.91 72.576 Q1392.28 71.5817 1390.94 70.3712 Q1389.6 69.1175 1388.86 66.7398 Q1388.17 64.3621 1388.08 62.8923 Q1388 61.4224 1388 58.5692 L1388 45.2973 Q1388 39.2882 1387.13 38.2507 Q1386.27 37.1699 1381.12 37.1699 Z" fill="#000000" fill-rule="nonzero" fill-opacity="1" /><path clip-path="url(#clip930)" d="M1430.23 72.576 L1430.23 69.8525 Q1434.95 69.8525 1436.03 69.2905 Q1437.11 68.6852 1437.11 65.832 L1437.11 42.0982 Q1437.11 38.8127 1435.94 37.9913 Q1434.82 37.1699 1430.23 37.1699 L1430.23 34.4031 L1442.68 33.4521 L1442.68 42.7467 Q1446.83 33.4521 1455.78 33.4521 Q1462.44 33.4521 1465.08 36.7376 Q1467.02 38.9424 1467.41 41.4065 Q1467.84 43.8707 1467.84 50.2689 L1467.84 67.1721 Q1467.93 69.0311 1469.36 69.4634 Q1470.78 69.8525 1474.76 69.8525 L1474.76 72.576 Q1465.73 72.3166 1464.82 72.3166 Q1464.13 72.3166 1454.83 72.576 L1454.83 69.8525 Q1459.54 69.8525 1460.63 69.2905 Q1461.75 68.6852 1461.75 65.832 L1461.75 45.2109 Q1461.75 40.7148 1460.37 38.0778 Q1458.98 35.3974 1455.18 35.3974 Q1450.6 35.3974 1446.92 39.245 Q1443.25 43.0925 1443.25 49.5772 L1443.25 65.832 Q1443.25 68.6852 1444.33 69.2905 Q1445.45 69.8525 1450.12 69.8525 L1450.12 72.576 Q1441.08 72.3166 1440.22 72.3166 Q1439.53 72.3166 1430.23 72.576 Z" fill="#000000" fill-rule="nonzero" fill-opacity="1" /><path clip-path="url(#clip930)" d="M1485.14 67.7341 Q1479.52 61.8547 1479.52 53.468 Q1479.52 45.0379 1485.05 38.9856 Q1490.58 32.8901 1498.71 32.8901 Q1504.12 32.8901 1508.18 35.4839 Q1512.24 38.0345 1512.24 42.4008 Q1512.24 44.3462 1511.08 45.4702 Q1509.95 46.551 1508.18 46.551 Q1506.32 46.551 1505.2 45.427 Q1504.12 44.2598 1504.12 42.4873 Q1504.12 41.7092 1504.37 40.931 Q1504.63 40.1528 1505.59 39.3315 Q1506.58 38.5101 1508.27 38.3804 Q1505.11 35.1381 1498.97 35.1381 Q1498.88 35.1381 1498.8 35.1381 Q1494.3 35.1381 1490.58 39.3747 Q1486.87 43.6113 1486.87 53.295 Q1486.87 58.353 1488.08 62.0709 Q1489.33 65.7455 1491.36 67.6477 Q1493.39 69.5498 1495.38 70.4577 Q1497.37 71.3223 1499.32 71.3223 Q1508.01 71.3223 1510.95 62.0277 Q1511.21 61.163 1512.07 61.163 Q1513.24 61.163 1513.24 62.0277 Q1513.24 62.46 1512.89 63.584 Q1512.55 64.708 1511.46 66.4804 Q1510.38 68.2529 1508.83 69.8092 Q1507.31 71.3223 1504.59 72.4463 Q1501.91 73.5703 1498.54 73.5703 Q1490.76 73.5703 1485.14 67.7341 Z" fill="#000000" fill-rule="nonzero" fill-opacity="1" /><path clip-path="url(#clip930)" d="M1517.47 37.1699 L1517.47 35.2245 Q1521.54 35.0516 1524.22 32.1984 Q1526.94 29.3019 1527.85 25.757 Q1528.8 22.212 1528.89 18.1051 L1531.09 18.1051 L1531.09 34.4031 L1543.76 34.4031 L1543.76 37.1699 L1531.09 37.1699 L1531.09 61.7683 Q1531.09 71.3223 1537.06 71.3223 Q1539.61 71.3223 1541.29 68.7285 Q1542.98 66.0914 1542.98 61.4224 L1542.98 56.5373 L1545.18 56.5373 L1545.18 61.5954 Q1545.18 66.394 1542.98 69.9821 Q1540.78 73.5703 1536.41 73.5703 Q1534.81 73.5703 1533.21 73.138 Q1531.65 72.7489 1529.58 71.7114 Q1527.55 70.6306 1526.25 68.0368 Q1525 65.3997 1525 61.5954 L1525 37.1699 L1517.47 37.1699 Z" fill="#000000" fill-rule="nonzero" fill-opacity="1" /><path clip-path="url(#clip930)" d="M1553.05 72.576 L1553.05 69.8525 Q1557.76 69.8525 1558.85 69.2905 Q1559.93 68.6852 1559.93 65.832 L1559.93 42.0118 Q1559.93 38.7262 1558.8 37.9481 Q1557.72 37.1699 1553.4 37.1699 L1553.4 34.4031 L1565.76 33.4521 L1565.76 65.9184 Q1565.76 68.5555 1566.71 69.204 Q1567.66 69.8525 1571.99 69.8525 L1571.99 72.576 Q1562.95 72.3166 1562.78 72.3166 Q1561.57 72.3166 1553.05 72.576 M1556.77 18.0186 Q1556.77 16.2462 1558.11 14.8195 Q1559.49 13.3497 1561.44 13.3497 Q1563.38 13.3497 1564.77 14.6899 Q1566.15 15.9868 1566.15 18.0619 Q1566.15 20.0937 1564.77 21.4339 Q1563.38 22.7308 1561.44 22.7308 Q1559.41 22.7308 1558.07 21.3042 Q1556.77 19.8776 1556.77 18.0186 Z" fill="#000000" fill-rule="nonzero" fill-opacity="1" /><path clip-path="url(#clip930)" d="M1582.93 67.8206 Q1577.09 62.0277 1577.09 53.6409 Q1577.09 45.2109 1582.8 39.0721 Q1588.55 32.8901 1596.76 32.8901 Q1604.8 32.8901 1610.55 39.0288 Q1616.34 45.1244 1616.34 53.6409 Q1616.34 61.9844 1610.51 67.7774 Q1604.71 73.5703 1596.67 73.5703 Q1588.8 73.5703 1582.93 67.8206 M1584.44 52.9059 Q1584.44 61.5089 1586.69 65.3997 Q1590.14 71.3223 1596.76 71.3223 Q1600.04 71.3223 1602.77 69.5498 Q1605.53 67.7774 1607.05 64.7944 Q1608.99 60.9037 1608.99 52.9059 Q1608.99 44.3895 1606.66 40.6284 Q1603.2 34.8787 1596.67 34.8787 Q1593.82 34.8787 1591.01 36.3918 Q1588.24 37.8616 1586.56 40.8013 Q1584.44 44.6921 1584.44 52.9059 Z" fill="#000000" fill-rule="nonzero" fill-opacity="1" /><path clip-path="url(#clip930)" d="M1621.75 72.576 L1621.75 69.8525 Q1626.46 69.8525 1627.54 69.2905 Q1628.62 68.6852 1628.62 65.832 L1628.62 42.0982 Q1628.62 38.8127 1627.45 37.9913 Q1626.33 37.1699 1621.75 37.1699 L1621.75 34.4031 L1634.2 33.4521 L1634.2 42.7467 Q1638.35 33.4521 1647.3 33.4521 Q1653.95 33.4521 1656.59 36.7376 Q1658.54 38.9424 1658.93 41.4065 Q1659.36 43.8707 1659.36 50.2689 L1659.36 67.1721 Q1659.44 69.0311 1660.87 69.4634 Q1662.3 69.8525 1666.27 69.8525 L1666.27 72.576 Q1657.24 72.3166 1656.33 72.3166 Q1655.64 72.3166 1646.34 72.576 L1646.34 69.8525 Q1651.06 69.8525 1652.14 69.2905 Q1653.26 68.6852 1653.26 65.832 L1653.26 45.2109 Q1653.26 40.7148 1651.88 38.0778 Q1650.5 35.3974 1646.69 35.3974 Q1642.11 35.3974 1638.43 39.245 Q1634.76 43.0925 1634.76 49.5772 L1634.76 65.832 Q1634.76 68.6852 1635.84 69.2905 Q1636.96 69.8525 1641.63 69.8525 L1641.63 72.576 Q1632.6 72.3166 1631.73 72.3166 Q1631.04 72.3166 1621.75 72.576 Z" fill="#000000" fill-rule="nonzero" fill-opacity="1" /><path clip-path="url(#clip930)" d="M1699.13 14.8628 L1699.13 12.096 Q1708.68 12.3554 1710.37 12.3554 Q1719.84 12.3554 1723.04 12.096 L1723.04 14.8628 Q1715.77 14.8628 1715.77 17.4134 Q1715.77 17.7592 1716.29 19.0129 L1733.2 63.7137 L1749.41 21.0448 Q1749.84 19.7046 1749.84 19.2723 Q1749.84 17.4999 1748.2 16.2462 Q1746.6 14.9492 1743.4 14.8628 L1743.4 12.096 Q1750.32 12.3554 1753.47 12.3554 Q1757.97 12.3554 1762.07 12.096 L1762.07 14.8628 Q1754.64 14.9492 1752.43 20.7854 L1732.68 72.8354 Q1732.33 73.9162 1731.99 74.2188 Q1731.64 74.5214 1730.56 74.5214 Q1729.69 74.5214 1729.22 74.1755 Q1728.79 73.8297 1728.35 72.576 L1707.82 18.2348 Q1706.95 15.8571 1705.4 15.3815 Q1703.84 14.8628 1699.13 14.8628 Z" fill="#000000" fill-rule="nonzero" fill-opacity="1" /><path clip-path="url(#clip930)" d="M1772.62 50.4418 Q1772.62 35.4839 1778.2 23.4225 Q1780.58 18.3645 1783.91 14.1279 Q1787.23 9.89123 1789.44 8.0323 Q1791.64 6.17337 1792.25 6.17337 Q1793.11 6.17337 1793.16 7.03799 Q1793.16 7.4703 1791.99 8.55107 Q1777.72 23.0766 1777.77 50.4418 Q1777.77 77.8934 1791.64 91.857 Q1793.16 93.3701 1793.16 93.8456 Q1793.16 94.7102 1792.25 94.7102 Q1791.64 94.7102 1789.53 92.9377 Q1787.41 91.1653 1784.12 87.1016 Q1780.84 83.0379 1778.46 78.0663 Q1772.62 66.0049 1772.62 50.4418 Z" fill="#000000" fill-rule="nonzero" fill-opacity="1" /><path clip-path="url(#clip930)" d="M1801.89 64.146 Q1801.89 56.6238 1810.75 52.6466 Q1816.07 50.0959 1827.05 49.4475 L1827.05 46.2052 Q1827.05 40.7148 1824.15 37.8184 Q1821.3 34.8787 1817.67 34.8787 Q1811.18 34.8787 1808.07 38.9424 Q1810.71 39.0288 1811.66 40.369 Q1812.61 41.6659 1812.61 43.0061 Q1812.61 44.7785 1811.49 45.9458 Q1810.41 47.0698 1808.55 47.0698 Q1806.77 47.0698 1805.61 45.989 Q1804.44 44.865 1804.44 42.9196 Q1804.44 38.5965 1808.33 35.7433 Q1812.27 32.8901 1817.84 32.8901 Q1825.1 32.8901 1829.95 37.7751 Q1831.46 39.2882 1832.19 41.2336 Q1832.97 43.179 1833.06 44.4759 Q1833.15 45.7296 1833.15 48.237 L1833.15 65.9184 Q1833.15 66.4372 1833.32 67.3018 Q1833.49 68.1665 1834.27 69.2905 Q1835.09 70.3712 1836.43 70.3712 Q1839.63 70.3712 1839.59 64.708 L1839.59 59.7364 L1841.83 59.7364 L1841.83 64.708 Q1841.83 69.4201 1839.33 71.2791 Q1836.86 73.0948 1834.57 73.0948 Q1831.63 73.0948 1829.77 70.9332 Q1827.91 68.7717 1827.66 65.832 Q1826.32 69.204 1823.25 71.4088 Q1820.22 73.5703 1816.07 73.5703 Q1812.87 73.5703 1809.84 72.7489 Q1806.86 71.9708 1804.35 69.766 Q1801.89 67.518 1801.89 64.146 M1808.72 64.0595 Q1808.72 67.3451 1811.05 69.4634 Q1813.39 71.5817 1816.67 71.5817 Q1820.39 71.5817 1823.72 68.7285 Q1827.05 65.832 1827.05 60.1687 L1827.05 51.3064 Q1817.24 51.6523 1812.96 55.5863 Q1808.72 59.477 1808.72 64.0595 Z" fill="#000000" fill-rule="nonzero" fill-opacity="1" /><path clip-path="url(#clip930)" d="M1851.3 71.1494 Q1850.05 69.7228 1850.05 67.8638 Q1850.05 66.0049 1851.26 64.6215 Q1852.51 63.1949 1854.76 63.1949 Q1857.4 63.1949 1858.91 65.7455 Q1860.42 68.2529 1860.42 72.4895 Q1860.42 77.072 1858.57 81.3086 Q1856.71 85.5885 1854.89 87.6203 Q1853.07 89.6522 1852.34 89.6522 Q1851.48 89.6522 1851.48 88.7011 Q1851.48 88.3553 1852.08 87.7068 Q1858.44 80.8763 1858.48 72.4895 Q1858.48 71.1494 1858.31 71.1494 L1858.09 71.3223 Q1856.58 72.576 1854.76 72.576 Q1852.56 72.576 1851.3 71.1494 Z" fill="#000000" fill-rule="nonzero" fill-opacity="1" /><path clip-path="url(#clip930)" d="M1868.03 72.576 L1868.03 69.8525 Q1874.95 69.8525 1879.36 64.5351 Q1879.36 64.5351 1887.66 53.9867 L1878.88 42.5738 Q1875.77 38.5965 1874.39 37.9048 Q1873.05 37.1699 1868.47 37.1699 L1868.47 34.4031 Q1872.1 34.6625 1876.85 34.6625 Q1879.49 34.6625 1886.45 34.4031 L1886.45 37.1699 Q1883.34 37.3428 1883.34 39.3747 Q1883.34 40.0664 1884.11 40.9742 L1891.03 49.923 L1896.52 43.0061 Q1897.86 41.4065 1897.86 39.8935 Q1897.86 37.4293 1895.27 37.1699 L1895.27 34.4031 Q1898.73 34.6625 1903.78 34.6625 Q1907.59 34.6625 1911.05 34.4031 L1911.05 37.1699 Q1904.3 37.3428 1900.5 41.7524 Q1898.81 43.6113 1892.37 51.7819 L1904.22 67.0857 Q1905.64 68.9446 1907.24 69.4201 Q1908.84 69.8525 1912.65 69.8525 L1912.65 72.576 Q1908.67 72.3166 1904.13 72.3166 Q1902.53 72.3166 1894.58 72.576 L1894.58 69.8525 Q1896.18 69.766 1896.95 69.0743 Q1897.78 68.3394 1897.78 67.6044 Q1897.78 67.2586 1895.92 64.708 L1889.17 55.8456 Q1882.43 63.8001 1881.56 65.6591 Q1881.22 66.4372 1881.22 67.0857 Q1881.22 69.4634 1883.77 69.8525 L1883.77 72.576 Q1877.41 72.3166 1875.38 72.3166 Q1871.49 72.3166 1868.03 72.576 Z" fill="#000000" fill-rule="nonzero" fill-opacity="1" /><path clip-path="url(#clip930)" d="M1918.66 93.8456 Q1918.66 93.4133 1919.78 92.3325 Q1934.05 77.8069 1934.05 50.4418 Q1934.05 22.9902 1920.34 9.11307 Q1918.66 7.51353 1918.66 7.03799 Q1918.66 6.17337 1919.52 6.17337 Q1920.13 6.17337 1922.24 7.94584 Q1924.41 9.7183 1927.65 13.782 Q1930.93 17.8457 1933.35 22.8173 Q1939.19 34.8787 1939.19 50.4418 Q1939.19 65.3997 1933.61 77.4611 Q1931.24 82.5191 1927.91 86.7557 Q1924.58 90.9924 1922.37 92.8513 Q1920.17 94.7102 1919.52 94.7102 Q1918.66 94.7102 1918.66 93.8456 Z" fill="#000000" fill-rule="nonzero" fill-opacity="1" /><polyline clip-path="url(#clip932)" style="stroke:#1f77b4; stroke-linecap:round; stroke-linejoin:round; stroke-width:10; stroke-opacity:1; fill:none" points="270.541,-51.229 290.961,-1.27671 311.381,44.7208 331.801,87.1123 352.221,126.213 372.64,162.306 393.06,195.65 413.48,226.478 433.9,254.999 454.32,281.407 474.74,305.873 495.16,328.555 515.58,349.596 535.999,369.127 556.419,387.266 576.839,404.12 597.259,419.788 617.679,434.359 638.099,447.914 658.519,460.529 678.939,472.271 699.359,483.202 719.778,493.38 740.198,502.856 760.618,511.678 781.038,519.888 801.458,527.528 821.878,534.634 842.298,541.238 862.718,547.372 883.137,553.062 903.557,558.336 923.977,563.215 944.397,567.721 964.817,571.874 985.237,575.692 1005.66,579.189 1026.08,582.381 1046.5,585.282 1066.92,587.901 1087.34,590.251 1107.76,592.34 1128.18,594.178 1148.6,595.77 1169.02,597.123 1189.44,598.244 1209.86,599.134 1230.28,599.8 1250.7,600.242 1271.12,600.462 1291.53,600.462 1311.95,600.242 1332.37,599.8 1352.79,599.134 1373.21,598.244 1393.63,597.123 1414.05,595.77 1434.47,594.178 1454.89,592.34 1475.31,590.251 1495.73,587.901 1516.15,585.282 1536.57,582.381 1556.99,579.189 1577.41,575.692 1597.83,571.874 1618.25,567.721 1638.67,563.215 1659.09,558.336 1679.51,553.062 1699.93,547.372 1720.35,541.238 1740.77,534.634 1761.19,527.528 1781.61,519.888 1802.03,511.678 1822.45,502.856 1842.87,493.38 1863.29,483.202 1883.71,472.271 1904.13,460.529 1924.55,447.914 1944.97,434.359 1965.39,419.788 1985.81,404.12 2006.23,387.266 2026.65,369.127 2047.07,349.596 2067.49,328.555 2087.91,305.873 2108.33,281.407 2128.75,254.999 2149.17,226.478 2169.59,195.65 2190.01,162.306 2210.43,126.213 2230.85,87.1123 2251.27,44.7208 2271.69,-1.27671 2292.11,-51.229 "/>
<polyline clip-path="url(#clip932)" style="stroke:#ff7e0d; stroke-linecap:round; stroke-linejoin:round; stroke-width:10; stroke-opacity:1; fill:none" points="270.541,772.114 290.961,771.987 311.381,771.849 331.801,771.698 352.221,771.532 372.64,771.352 393.06,771.155 413.48,770.94 433.9,770.706 454.32,770.451 474.74,770.174 495.16,769.873 515.58,769.545 535.999,769.19 556.419,768.805 576.839,768.388 597.259,767.935 617.679,767.446 638.099,766.916 658.519,766.343 678.939,765.724 699.359,765.056 719.778,764.334 740.198,763.555 760.618,762.716 781.038,761.811 801.458,760.835 821.878,759.785 842.298,758.655 862.718,757.439 883.137,756.131 903.557,754.724 923.977,753.212 944.397,751.588 964.817,749.843 985.237,747.969 1005.66,745.956 1026.08,743.796 1046.5,741.478 1066.92,738.991 1087.34,736.322 1107.76,733.458 1128.18,730.387 1148.6,727.092 1169.02,723.559 1189.44,719.769 1209.86,715.703 1230.28,711.343 1250.7,706.665 1271.12,701.647 1291.53,696.264 1311.95,690.487 1332.37,684.286 1352.79,677.631 1373.21,670.485 1393.63,662.81 1414.05,654.566 1434.47,645.708 1454.89,636.187 1475.31,625.95 1495.73,614.938 1516.15,603.09 1536.57,590.336 1556.99,576.602 1577.41,561.805 1597.83,545.856 1618.25,528.657 1638.67,510.1 1659.09,490.069 1679.51,468.433 1699.93,445.053 1720.35,419.772 1740.77,392.421 1761.19,362.81 1781.61,330.736 1802.03,295.969 1822.45,258.26 1842.87,217.332 1863.29,172.882 1883.71,124.572 1904.13,72.0309 1924.55,14.8473 1944.97,-47.4339 1965.39,-115.317 1985.81,-189.361 2006.23,-270.185 2026.65,-358.478 2047.07,-455.005 2067.49,-560.617 2087.91,-676.258 2108.33,-802.983 2128.75,-941.967 2149.17,-1094.52 2169.59,-1262.1 2190.01,-1446.35 2210.43,-1649.09 2230.85,-1872.36 2251.27,-2118.47 2271.69,-2389.96 2292.11,-2689.72 "/>
<polyline clip-path="url(#clip932)" style="stroke:#2ba02b; stroke-linecap:round; stroke-linejoin:round; stroke-width:10; stroke-opacity:1; fill:none" points="270.541,19841.2 290.961,17849.8 311.381,16076.6 331.801,14496.4 352.221,13087.2 372.64,11829.6 393.06,10706.4 413.48,9702.72 433.9,8805.07 454.32,8001.74 474.74,7282.33 495.16,6637.64 515.58,6059.52 535.999,5540.75 556.419,5074.93 576.839,4656.39 597.259,4280.08 617.679,3941.52 638.099,3636.72 658.519,3362.15 678.939,3114.62 699.359,2891.34 719.778,2689.79 740.198,2507.73 760.618,2343.15 781.038,2194.26 801.458,2059.46 821.878,1937.31 842.298,1826.52 862.718,1725.93 883.137,1634.51 903.557,1551.31 923.977,1475.51 944.397,1406.32 964.817,1343.07 985.237,1285.14 1005.66,1231.96 1026.08,1183.01 1046.5,1137.82 1066.92,1095.97 1087.34,1057.06 1107.76,1020.73 1128.18,986.64 1148.6,954.474 1169.02,923.938 1189.44,894.756 1209.86,866.662 1230.28,839.405 1250.7,812.739 1271.12,786.425 1291.53,760.227 1311.95,733.913 1332.37,707.247 1352.79,679.99 1373.21,651.896 1393.63,622.714 1414.05,592.178 1434.47,560.012 1454.89,525.92 1475.31,489.588 1495.73,450.679 1516.15,408.829 1536.57,363.644 1556.99,314.694 1577.41,261.51 1597.83,203.577 1618.25,140.33 1638.67,71.1466 1659.09,-4.66183 1679.51,-87.8558 1699.93,-179.278 1720.35,-279.865 1740.77,-390.657 1761.19,-512.809 1781.61,-647.611 1802.03,-796.5 1822.45,-961.08 1842.87,-1143.14 1863.29,-1344.69 1883.71,-1567.97 1904.13,-1815.49 1924.55,-2090.07 1944.97,-2394.87 1965.39,-2733.43 1985.81,-3109.74 2006.23,-3528.28 2026.65,-3994.1 2047.07,-4512.87 2067.49,-5090.99 2087.91,-5735.68 2108.33,-6455.09 2128.75,-7258.42 2149.17,-8156.06 2169.59,-9159.79 2190.01,-10282.9 2210.43,-11540.5 2230.85,-12949.7 2251.27,-14529.9 2271.69,-16303.2 2292.11,-18294.5 "/>
<polyline clip-path="url(#clip932)" style="stroke:#d52628; stroke-linecap:round; stroke-linejoin:round; stroke-width:10; stroke-opacity:1; fill:none" points="270.541,772.35 290.961,772.213 311.381,772.057 331.801,771.88 352.221,771.68 372.64,771.454 393.06,771.197 413.48,770.907 433.9,770.578 454.32,770.207 474.74,769.788 495.16,769.314 515.58,768.78 535.999,768.177 556.419,767.497 576.839,766.731 597.259,765.868 617.679,764.896 638.099,763.802 658.519,762.571 678.939,761.186 699.359,759.629 719.778,757.879 740.198,755.913 760.618,753.705 781.038,751.225 801.458,748.442 821.878,745.319 842.298,741.815 862.718,737.884 883.137,733.478 903.557,728.537 923.977,723 944.397,716.795 964.817,709.844 985.237,702.057 1005.66,693.336 1026.08,683.57 1046.5,672.635 1066.92,660.393 1087.34,646.689 1107.76,631.35 1128.18,614.181 1148.6,594.965 1169.02,573.461 1189.44,549.394 1209.86,522.461 1230.28,492.321 1250.7,458.589 1271.12,420.839 1291.53,378.587 1311.95,331.296 1332.37,278.359 1352.79,219.097 1373.21,152.748 1393.63,78.4556 1414.05,-4.74352 1434.47,-97.9307 1454.89,-202.322 1475.31,-319.286 1495.73,-450.36 1516.15,-597.28 1536.57,-761.995 1556.99,-946.704 1577.41,-1153.89 1597.83,-1386.34 1618.25,-1647.21 1638.67,-1940.06 1659.09,-2268.92 1679.51,-2638.32 1699.93,-3053.39 1720.35,-3519.95 1740.77,-4044.57 1761.19,-4634.68 1781.61,-5298.72 1802.03,-6046.23 1822.45,-6888.05 1842.87,-7836.48 1863.29,-8905.46 1883.71,-10110.8 1904.13,-11470.7 1924.55,-13005.4 1944.97,-14738.4 1965.39,-16696.1 1985.81,-18908.9 2006.23,-21411.3 2026.65,-24242.5 2047.07,-27447.5 2067.49,-31077.6 2087.91,-35191.4 2108.33,-39856 2128.75,-45148.1 2149.17,-51155.5 2169.59,-57979.1 2190.01,-65734.2 2210.43,-74553.4 2230.85,-84588.8 2251.27,-96015.4 2271.69,-109034 2292.11,-123876 "/>
<path clip-path="url(#clip930)" d="M1917.67 1379.86 L2281.33 1379.86 L2281.33 1120.66 L1917.67 1120.66  Z" fill="#ffffff" fill-rule="evenodd" fill-opacity="1"/>
<polyline clip-path="url(#clip930)" style="stroke:#000000; stroke-linecap:round; stroke-linejoin:round; stroke-width:4; stroke-opacity:1; fill:none" points="1917.67,1379.86 2281.33,1379.86 2281.33,1120.66 1917.67,1120.66 1917.67,1379.86 "/>
<polyline clip-path="url(#clip930)" style="stroke:#1f77b4; stroke-linecap:round; stroke-linejoin:round; stroke-width:10; stroke-opacity:1; fill:none" points="1941.48,1172.5 2084.34,1172.5 "/>
<path clip-path="url(#clip930)" d="M2130.12 1180.93 Q2129.48 1183.95 2128.66 1185.69 Q2127.35 1188.33 2125.13 1188.33 Q2123.44 1188.33 2122.25 1187.3 Q2121.05 1186.27 2120.77 1184.72 Q2117.7 1188.33 2114.52 1188.33 Q2111.71 1188.33 2109.93 1186.2 Q2108.15 1184.05 2108.15 1180.65 Q2108.15 1177.23 2109.83 1173.95 Q2111.54 1170.67 2114.24 1168.63 Q2116.93 1166.6 2119.69 1166.6 Q2122.62 1166.6 2124.12 1169.66 Q2124.24 1168.82 2124.78 1168.19 Q2125.31 1167.56 2126.13 1167.56 Q2126.77 1167.56 2127.14 1167.91 Q2127.52 1168.24 2127.52 1168.84 Q2127.52 1169.15 2127.19 1170.48 L2125.45 1177.18 L2124.4 1181.52 Q2124 1183.11 2123.89 1183.69 Q2123.79 1184.28 2123.79 1185.05 Q2123.79 1187.25 2125.22 1187.25 Q2125.92 1187.25 2126.49 1186.81 Q2127.05 1186.36 2127.49 1185.43 Q2127.94 1184.49 2128.22 1183.62 Q2128.5 1182.73 2128.87 1181.33 Q2128.99 1180.77 2129.09 1180.63 Q2129.2 1180.46 2129.53 1180.46 Q2130.12 1180.46 2130.12 1180.93 M2123.53 1171.87 Q2123.53 1171.66 2123.37 1171.07 Q2123.21 1170.48 2122.83 1169.66 Q2122.46 1168.84 2121.64 1168.26 Q2120.84 1167.65 2119.76 1167.65 Q2118.31 1167.65 2116.79 1168.89 Q2115.29 1170.13 2114.19 1172.24 Q2113.35 1173.93 2112.43 1177.46 Q2111.54 1181 2111.54 1182.76 Q2111.54 1183.83 2111.78 1184.8 Q2112.03 1185.73 2112.76 1186.5 Q2113.49 1187.25 2114.61 1187.25 Q2117.35 1187.25 2120.04 1183.86 Q2120.56 1183.27 2120.68 1183.04 Q2120.82 1182.78 2121 1182.08 L2123.39 1172.69 Q2123.53 1171.98 2123.53 1171.87 Z" fill="#000000" fill-rule="nonzero" fill-opacity="1" /><path clip-path="url(#clip930)" d="M2146.57 1180.51 Q2146.62 1179.92 2147.53 1179.92 L2176.92 1179.92 Q2178.31 1179.92 2178.33 1180.46 Q2178.33 1181.05 2177.02 1181.02 L2147.86 1181.02 Q2146.57 1181.05 2146.57 1180.51 M2146.57 1171.14 Q2146.57 1170.55 2147.58 1170.58 L2176.88 1170.58 Q2178.31 1170.58 2178.33 1171.14 Q2178.33 1171.68 2177.11 1171.68 L2147.53 1171.68 Q2146.57 1171.68 2146.57 1171.14 Z" fill="#000000" fill-rule="nonzero" fill-opacity="1" /><path clip-path="url(#clip930)" d="M2196.82 1172.45 Q2196.82 1165.4 2198.6 1161.56 Q2201.08 1155.84 2206.94 1155.84 Q2208.18 1155.84 2209.47 1156.2 Q2210.78 1156.52 2212.42 1157.81 Q2214.08 1159.1 2215.09 1161.21 Q2217.01 1165.28 2217.01 1172.45 Q2217.01 1179.45 2215.23 1183.27 Q2212.63 1188.85 2206.89 1188.85 Q2204.74 1188.85 2202.54 1187.75 Q2200.36 1186.65 2198.98 1184 Q2196.82 1180.04 2196.82 1172.45 M2200.8 1171.87 Q2200.8 1179.1 2201.32 1181.98 Q2201.9 1185.1 2203.5 1186.46 Q2205.11 1187.79 2206.89 1187.79 Q2208.81 1187.79 2210.41 1186.36 Q2212.02 1184.91 2212.51 1181.8 Q2213.05 1178.73 2213.03 1171.87 Q2213.03 1165.19 2212.56 1162.52 Q2211.93 1159.41 2210.24 1158.16 Q2208.58 1156.9 2206.89 1156.9 Q2206.26 1156.9 2205.58 1157.09 Q2204.92 1157.27 2203.96 1157.81 Q2203 1158.35 2202.25 1159.69 Q2201.53 1161.02 2201.18 1163.04 Q2200.8 1165.64 2200.8 1171.87 Z" fill="#000000" fill-rule="nonzero" fill-opacity="1" /><path clip-path="url(#clip930)" d="M2221.3 1187.02 Q2220.57 1186.25 2220.57 1185.24 Q2220.57 1184.23 2221.3 1183.51 Q2222.02 1182.76 2223.12 1182.76 Q2224.18 1182.76 2224.88 1183.46 Q2225.61 1184.14 2225.61 1185.26 Q2225.61 1186.36 2224.83 1187.09 Q2224.08 1187.79 2223.12 1187.79 Q2222.02 1187.79 2221.3 1187.02 Z" fill="#000000" fill-rule="nonzero" fill-opacity="1" /><path clip-path="url(#clip930)" d="M2233.77 1180.06 Q2233.77 1178.63 2234.54 1178.1 Q2235.31 1177.53 2236.13 1177.53 Q2237.23 1177.53 2237.87 1178.24 Q2238.52 1178.92 2238.52 1179.88 Q2238.52 1180.84 2237.87 1181.54 Q2237.23 1182.22 2236.13 1182.22 Q2235.59 1182.22 2235.31 1182.12 Q2235.95 1184.33 2237.87 1185.92 Q2239.81 1187.51 2242.36 1187.51 Q2245.57 1187.51 2247.49 1184.4 Q2248.64 1182.38 2248.64 1177.82 Q2248.64 1173.79 2247.77 1171.77 Q2246.44 1168.7 2243.7 1168.7 Q2239.81 1168.7 2237.52 1172.05 Q2237.23 1172.47 2236.91 1172.5 Q2236.44 1172.5 2236.32 1172.24 Q2236.23 1171.96 2236.23 1171.23 L2236.23 1157.04 Q2236.23 1155.89 2236.7 1155.89 Q2236.88 1155.89 2237.28 1156.03 Q2240.3 1157.37 2243.65 1157.39 Q2247.09 1157.39 2250.19 1155.99 Q2250.42 1155.84 2250.56 1155.84 Q2251.03 1155.84 2251.05 1156.38 Q2251.05 1156.57 2250.66 1157.13 Q2250.28 1157.67 2249.46 1158.4 Q2248.64 1159.1 2247.59 1159.78 Q2246.53 1160.46 2244.99 1160.93 Q2243.46 1161.37 2241.78 1161.37 Q2239.76 1161.37 2237.7 1160.74 L2237.7 1170.09 Q2240.19 1167.65 2243.79 1167.65 Q2247.63 1167.65 2250.28 1170.74 Q2252.93 1173.83 2252.93 1178.14 Q2252.93 1182.66 2249.79 1185.76 Q2246.67 1188.85 2242.46 1188.85 Q2238.62 1188.85 2236.18 1186.11 Q2233.77 1183.37 2233.77 1180.06 Z" fill="#000000" fill-rule="nonzero" fill-opacity="1" /><polyline clip-path="url(#clip930)" style="stroke:#ff7e0d; stroke-linecap:round; stroke-linejoin:round; stroke-width:10; stroke-opacity:1; fill:none" points="1941.48,1224.34 2084.34,1224.34 "/>
<path clip-path="url(#clip930)" d="M2130.12 1232.77 Q2129.48 1235.79 2128.66 1237.53 Q2127.35 1240.17 2125.13 1240.17 Q2123.44 1240.17 2122.25 1239.14 Q2121.05 1238.11 2120.77 1236.56 Q2117.7 1240.17 2114.52 1240.17 Q2111.71 1240.17 2109.93 1238.04 Q2108.15 1235.89 2108.15 1232.49 Q2108.15 1229.07 2109.83 1225.79 Q2111.54 1222.51 2114.24 1220.47 Q2116.93 1218.44 2119.69 1218.44 Q2122.62 1218.44 2124.12 1221.5 Q2124.24 1220.66 2124.78 1220.03 Q2125.31 1219.4 2126.13 1219.4 Q2126.77 1219.4 2127.14 1219.75 Q2127.52 1220.08 2127.52 1220.68 Q2127.52 1220.99 2127.19 1222.32 L2125.45 1229.02 L2124.4 1233.36 Q2124 1234.95 2123.89 1235.53 Q2123.79 1236.12 2123.79 1236.89 Q2123.79 1239.09 2125.22 1239.09 Q2125.92 1239.09 2126.49 1238.65 Q2127.05 1238.2 2127.49 1237.27 Q2127.94 1236.33 2128.22 1235.46 Q2128.5 1234.57 2128.87 1233.17 Q2128.99 1232.61 2129.09 1232.47 Q2129.2 1232.3 2129.53 1232.3 Q2130.12 1232.3 2130.12 1232.77 M2123.53 1223.71 Q2123.53 1223.5 2123.37 1222.91 Q2123.21 1222.32 2122.83 1221.5 Q2122.46 1220.68 2121.64 1220.1 Q2120.84 1219.49 2119.76 1219.49 Q2118.31 1219.49 2116.79 1220.73 Q2115.29 1221.97 2114.19 1224.08 Q2113.35 1225.77 2112.43 1229.3 Q2111.54 1232.84 2111.54 1234.6 Q2111.54 1235.67 2111.78 1236.64 Q2112.03 1237.57 2112.76 1238.34 Q2113.49 1239.09 2114.61 1239.09 Q2117.35 1239.09 2120.04 1235.7 Q2120.56 1235.11 2120.68 1234.88 Q2120.82 1234.62 2121 1233.92 L2123.39 1224.53 Q2123.53 1223.82 2123.53 1223.71 Z" fill="#000000" fill-rule="nonzero" fill-opacity="1" /><path clip-path="url(#clip930)" d="M2146.57 1232.35 Q2146.62 1231.76 2147.53 1231.76 L2176.92 1231.76 Q2178.31 1231.76 2178.33 1232.3 Q2178.33 1232.89 2177.02 1232.86 L2147.86 1232.86 Q2146.57 1232.89 2146.57 1232.35 M2146.57 1222.98 Q2146.57 1222.39 2147.58 1222.42 L2176.88 1222.42 Q2178.31 1222.42 2178.33 1222.98 Q2178.33 1223.52 2177.11 1223.52 L2147.53 1223.52 Q2146.57 1223.52 2146.57 1222.98 Z" fill="#000000" fill-rule="nonzero" fill-opacity="1" /><path clip-path="url(#clip930)" d="M2196.82 1239.63 Q2196.82 1238.77 2196.89 1238.51 Q2196.98 1238.25 2197.36 1237.85 L2206.56 1227.59 Q2211.6 1221.93 2211.6 1216.98 Q2211.6 1213.77 2209.91 1211.48 Q2208.25 1209.18 2205.18 1209.18 Q2203.07 1209.18 2201.29 1210.47 Q2199.51 1211.76 2198.69 1214.06 Q2198.83 1214.01 2199.33 1214.01 Q2200.52 1214.01 2201.18 1214.76 Q2201.86 1215.51 2201.86 1216.52 Q2201.86 1217.8 2201.01 1218.44 Q2200.19 1219.04 2199.37 1219.04 Q2199.05 1219.04 2198.6 1218.97 Q2198.18 1218.9 2197.5 1218.25 Q2196.82 1217.57 2196.82 1216.37 Q2196.82 1213.03 2199.35 1210.36 Q2201.9 1207.68 2205.79 1207.68 Q2210.19 1207.68 2213.08 1210.31 Q2215.98 1212.91 2215.98 1216.98 Q2215.98 1218.41 2215.54 1219.72 Q2215.11 1221.01 2214.53 1222.02 Q2213.97 1223.03 2212.42 1224.64 Q2210.87 1226.26 2209.63 1227.41 Q2208.39 1228.55 2205.6 1230.99 L2200.52 1235.93 L2209.16 1235.93 Q2213.38 1235.93 2213.71 1235.56 Q2214.18 1234.88 2214.76 1231.29 L2215.98 1231.29 L2214.62 1239.63 L2196.82 1239.63 Z" fill="#000000" fill-rule="nonzero" fill-opacity="1" /><path clip-path="url(#clip930)" d="M2221.3 1238.86 Q2220.57 1238.09 2220.57 1237.08 Q2220.57 1236.07 2221.3 1235.35 Q2222.02 1234.6 2223.12 1234.6 Q2224.18 1234.6 2224.88 1235.3 Q2225.61 1235.98 2225.61 1237.1 Q2225.61 1238.2 2224.83 1238.93 Q2224.08 1239.63 2223.12 1239.63 Q2222.02 1239.63 2221.3 1238.86 Z" fill="#000000" fill-rule="nonzero" fill-opacity="1" /><path clip-path="url(#clip930)" d="M2233.77 1224.29 Q2233.77 1217.24 2235.55 1213.4 Q2238.03 1207.68 2243.89 1207.68 Q2245.13 1207.68 2246.42 1208.04 Q2247.73 1208.36 2249.37 1209.65 Q2251.03 1210.94 2252.04 1213.05 Q2253.96 1217.12 2253.96 1224.29 Q2253.96 1231.29 2252.18 1235.11 Q2249.58 1240.69 2243.84 1240.69 Q2241.68 1240.69 2239.48 1239.59 Q2237.3 1238.49 2235.92 1235.84 Q2233.77 1231.88 2233.77 1224.29 M2237.75 1223.71 Q2237.75 1230.94 2238.26 1233.82 Q2238.85 1236.94 2240.44 1238.3 Q2242.06 1239.63 2243.84 1239.63 Q2245.76 1239.63 2247.35 1238.2 Q2248.97 1236.75 2249.46 1233.64 Q2250 1230.57 2249.98 1223.71 Q2249.98 1217.03 2249.51 1214.36 Q2248.88 1211.25 2247.19 1210 Q2245.53 1208.74 2243.84 1208.74 Q2243.21 1208.74 2242.53 1208.93 Q2241.87 1209.11 2240.91 1209.65 Q2239.95 1210.19 2239.2 1211.53 Q2238.48 1212.86 2238.12 1214.88 Q2237.75 1217.48 2237.75 1223.71 Z" fill="#000000" fill-rule="nonzero" fill-opacity="1" /><polyline clip-path="url(#clip930)" style="stroke:#2ba02b; stroke-linecap:round; stroke-linejoin:round; stroke-width:10; stroke-opacity:1; fill:none" points="1941.48,1276.18 2084.34,1276.18 "/>
<path clip-path="url(#clip930)" d="M2130.12 1284.61 Q2129.48 1287.63 2128.66 1289.37 Q2127.35 1292.01 2125.13 1292.01 Q2123.44 1292.01 2122.25 1290.98 Q2121.05 1289.95 2120.77 1288.4 Q2117.7 1292.01 2114.52 1292.01 Q2111.71 1292.01 2109.93 1289.88 Q2108.15 1287.73 2108.15 1284.33 Q2108.15 1280.91 2109.83 1277.63 Q2111.54 1274.35 2114.24 1272.31 Q2116.93 1270.28 2119.69 1270.28 Q2122.62 1270.28 2124.12 1273.34 Q2124.24 1272.5 2124.78 1271.87 Q2125.31 1271.24 2126.13 1271.24 Q2126.77 1271.24 2127.14 1271.59 Q2127.52 1271.92 2127.52 1272.52 Q2127.52 1272.83 2127.19 1274.16 L2125.45 1280.86 L2124.4 1285.2 Q2124 1286.79 2123.89 1287.37 Q2123.79 1287.96 2123.79 1288.73 Q2123.79 1290.93 2125.22 1290.93 Q2125.92 1290.93 2126.49 1290.49 Q2127.05 1290.04 2127.49 1289.11 Q2127.94 1288.17 2128.22 1287.3 Q2128.5 1286.41 2128.87 1285.01 Q2128.99 1284.45 2129.09 1284.31 Q2129.2 1284.14 2129.53 1284.14 Q2130.12 1284.14 2130.12 1284.61 M2123.53 1275.55 Q2123.53 1275.34 2123.37 1274.75 Q2123.21 1274.16 2122.83 1273.34 Q2122.46 1272.52 2121.64 1271.94 Q2120.84 1271.33 2119.76 1271.33 Q2118.31 1271.33 2116.79 1272.57 Q2115.29 1273.81 2114.19 1275.92 Q2113.35 1277.61 2112.43 1281.14 Q2111.54 1284.68 2111.54 1286.44 Q2111.54 1287.51 2111.78 1288.48 Q2112.03 1289.41 2112.76 1290.18 Q2113.49 1290.93 2114.61 1290.93 Q2117.35 1290.93 2120.04 1287.54 Q2120.56 1286.95 2120.68 1286.72 Q2120.82 1286.46 2121 1285.76 L2123.39 1276.37 Q2123.53 1275.66 2123.53 1275.55 Z" fill="#000000" fill-rule="nonzero" fill-opacity="1" /><path clip-path="url(#clip930)" d="M2146.57 1284.19 Q2146.62 1283.6 2147.53 1283.6 L2176.92 1283.6 Q2178.31 1283.6 2178.33 1284.14 Q2178.33 1284.73 2177.02 1284.7 L2147.86 1284.7 Q2146.57 1284.73 2146.57 1284.19 M2146.57 1274.82 Q2146.57 1274.23 2147.58 1274.26 L2176.88 1274.26 Q2178.31 1274.26 2178.33 1274.82 Q2178.33 1275.36 2177.11 1275.36 L2147.53 1275.36 Q2146.57 1275.36 2146.57 1274.82 Z" fill="#000000" fill-rule="nonzero" fill-opacity="1" /><path clip-path="url(#clip930)" d="M2196.82 1285.01 Q2196.82 1283.58 2197.64 1282.9 Q2198.46 1282.22 2199.51 1282.22 Q2200.62 1282.22 2201.39 1282.95 Q2202.18 1283.65 2202.18 1284.89 Q2202.18 1286.23 2201.25 1286.98 Q2200.33 1287.73 2199.02 1287.54 Q2200.17 1289.46 2202.28 1290.33 Q2204.41 1291.19 2206.38 1291.19 Q2208.44 1291.19 2210.1 1289.41 Q2211.79 1287.63 2211.79 1283.28 Q2211.79 1279.57 2210.34 1277.44 Q2208.91 1275.31 2206.07 1275.31 L2203.96 1275.31 Q2203.24 1275.31 2203.03 1275.24 Q2202.82 1275.17 2202.82 1274.77 Q2202.82 1274.3 2203.54 1274.21 Q2204.27 1274.21 2205.42 1274.07 Q2208.2 1273.98 2209.68 1271.56 Q2211.01 1269.32 2211.01 1266.11 Q2211.01 1263.18 2209.61 1261.96 Q2208.23 1260.72 2206.42 1260.72 Q2204.74 1260.72 2202.89 1261.42 Q2201.04 1262.12 2200.03 1263.69 Q2203 1263.69 2203 1266.11 Q2203 1267.16 2202.32 1267.86 Q2201.67 1268.54 2200.57 1268.54 Q2199.51 1268.54 2198.81 1267.89 Q2198.11 1267.21 2198.11 1266.06 Q2198.11 1263.32 2200.54 1261.42 Q2203 1259.52 2206.61 1259.52 Q2210.17 1259.52 2212.79 1261.4 Q2215.44 1263.27 2215.44 1266.15 Q2215.44 1268.99 2213.57 1271.31 Q2211.69 1273.63 2208.72 1274.59 Q2212.37 1275.31 2214.55 1277.79 Q2216.73 1280.25 2216.73 1283.28 Q2216.73 1287.02 2213.78 1289.79 Q2210.83 1292.53 2206.52 1292.53 Q2202.54 1292.53 2199.68 1290.37 Q2196.82 1288.22 2196.82 1285.01 Z" fill="#000000" fill-rule="nonzero" fill-opacity="1" /><path clip-path="url(#clip930)" d="M2221.3 1290.7 Q2220.57 1289.93 2220.57 1288.92 Q2220.57 1287.91 2221.3 1287.19 Q2222.02 1286.44 2223.12 1286.44 Q2224.18 1286.44 2224.88 1287.14 Q2225.61 1287.82 2225.61 1288.94 Q2225.61 1290.04 2224.83 1290.77 Q2224.08 1291.47 2223.12 1291.47 Q2222.02 1291.47 2221.3 1290.7 Z" fill="#000000" fill-rule="nonzero" fill-opacity="1" /><path clip-path="url(#clip930)" d="M2233.77 1283.74 Q2233.77 1282.31 2234.54 1281.78 Q2235.31 1281.21 2236.13 1281.21 Q2237.23 1281.21 2237.87 1281.92 Q2238.52 1282.6 2238.52 1283.56 Q2238.52 1284.52 2237.87 1285.22 Q2237.23 1285.9 2236.13 1285.9 Q2235.59 1285.9 2235.31 1285.8 Q2235.95 1288.01 2237.87 1289.6 Q2239.81 1291.19 2242.36 1291.19 Q2245.57 1291.19 2247.49 1288.08 Q2248.64 1286.06 2248.64 1281.5 Q2248.64 1277.47 2247.77 1275.45 Q2246.44 1272.38 2243.7 1272.38 Q2239.81 1272.38 2237.52 1275.73 Q2237.23 1276.15 2236.91 1276.18 Q2236.44 1276.18 2236.32 1275.92 Q2236.23 1275.64 2236.23 1274.91 L2236.23 1260.72 Q2236.23 1259.57 2236.7 1259.57 Q2236.88 1259.57 2237.28 1259.71 Q2240.3 1261.05 2243.65 1261.07 Q2247.09 1261.07 2250.19 1259.67 Q2250.42 1259.52 2250.56 1259.52 Q2251.03 1259.52 2251.05 1260.06 Q2251.05 1260.25 2250.66 1260.81 Q2250.28 1261.35 2249.46 1262.08 Q2248.64 1262.78 2247.59 1263.46 Q2246.53 1264.14 2244.99 1264.61 Q2243.46 1265.05 2241.78 1265.05 Q2239.76 1265.05 2237.7 1264.42 L2237.7 1273.77 Q2240.19 1271.33 2243.79 1271.33 Q2247.63 1271.33 2250.28 1274.42 Q2252.93 1277.51 2252.93 1281.82 Q2252.93 1286.34 2249.79 1289.44 Q2246.67 1292.53 2242.46 1292.53 Q2238.62 1292.53 2236.18 1289.79 Q2233.77 1287.05 2233.77 1283.74 Z" fill="#000000" fill-rule="nonzero" fill-opacity="1" /><polyline clip-path="url(#clip930)" style="stroke:#d52628; stroke-linecap:round; stroke-linejoin:round; stroke-width:10; stroke-opacity:1; fill:none" points="1941.48,1328.02 2084.34,1328.02 "/>
<path clip-path="url(#clip930)" d="M2130.12 1336.45 Q2129.48 1339.47 2128.66 1341.21 Q2127.35 1343.85 2125.13 1343.85 Q2123.44 1343.85 2122.25 1342.82 Q2121.05 1341.79 2120.77 1340.24 Q2117.7 1343.85 2114.52 1343.85 Q2111.71 1343.85 2109.93 1341.72 Q2108.15 1339.57 2108.15 1336.17 Q2108.15 1332.75 2109.83 1329.47 Q2111.54 1326.19 2114.24 1324.15 Q2116.93 1322.12 2119.69 1322.12 Q2122.62 1322.12 2124.12 1325.18 Q2124.24 1324.34 2124.78 1323.71 Q2125.31 1323.08 2126.13 1323.08 Q2126.77 1323.08 2127.14 1323.43 Q2127.52 1323.76 2127.52 1324.36 Q2127.52 1324.67 2127.19 1326 L2125.45 1332.7 L2124.4 1337.04 Q2124 1338.63 2123.89 1339.21 Q2123.79 1339.8 2123.79 1340.57 Q2123.79 1342.77 2125.22 1342.77 Q2125.92 1342.77 2126.49 1342.33 Q2127.05 1341.88 2127.49 1340.95 Q2127.94 1340.01 2128.22 1339.14 Q2128.5 1338.25 2128.87 1336.85 Q2128.99 1336.29 2129.09 1336.15 Q2129.2 1335.98 2129.53 1335.98 Q2130.12 1335.98 2130.12 1336.45 M2123.53 1327.39 Q2123.53 1327.18 2123.37 1326.59 Q2123.21 1326 2122.83 1325.18 Q2122.46 1324.36 2121.64 1323.78 Q2120.84 1323.17 2119.76 1323.17 Q2118.31 1323.17 2116.79 1324.41 Q2115.29 1325.65 2114.19 1327.76 Q2113.35 1329.45 2112.43 1332.98 Q2111.54 1336.52 2111.54 1338.28 Q2111.54 1339.35 2111.78 1340.32 Q2112.03 1341.25 2112.76 1342.02 Q2113.49 1342.77 2114.61 1342.77 Q2117.35 1342.77 2120.04 1339.38 Q2120.56 1338.79 2120.68 1338.56 Q2120.82 1338.3 2121 1337.6 L2123.39 1328.21 Q2123.53 1327.5 2123.53 1327.39 Z" fill="#000000" fill-rule="nonzero" fill-opacity="1" /><path clip-path="url(#clip930)" d="M2146.57 1336.03 Q2146.62 1335.44 2147.53 1335.44 L2176.92 1335.44 Q2178.31 1335.44 2178.33 1335.98 Q2178.33 1336.57 2177.02 1336.54 L2147.86 1336.54 Q2146.57 1336.57 2146.57 1336.03 M2146.57 1326.66 Q2146.57 1326.07 2147.58 1326.1 L2176.88 1326.1 Q2178.31 1326.1 2178.33 1326.66 Q2178.33 1327.2 2177.11 1327.2 L2147.53 1327.2 Q2146.57 1327.2 2146.57 1326.66 Z" fill="#000000" fill-rule="nonzero" fill-opacity="1" /><path clip-path="url(#clip930)" d="M2196.82 1335.58 Q2196.82 1334.15 2197.59 1333.62 Q2198.37 1333.05 2199.19 1333.05 Q2200.29 1333.05 2200.92 1333.76 Q2201.58 1334.44 2201.58 1335.4 Q2201.58 1336.36 2200.92 1337.06 Q2200.29 1337.74 2199.19 1337.74 Q2198.65 1337.74 2198.37 1337.64 Q2199 1339.85 2200.92 1341.44 Q2202.86 1343.03 2205.42 1343.03 Q2208.63 1343.03 2210.55 1339.92 Q2211.69 1337.9 2211.69 1333.34 Q2211.69 1329.31 2210.83 1327.29 Q2209.49 1324.22 2206.75 1324.22 Q2202.86 1324.22 2200.57 1327.57 Q2200.29 1327.99 2199.96 1328.02 Q2199.49 1328.02 2199.37 1327.76 Q2199.28 1327.48 2199.28 1326.75 L2199.28 1312.56 Q2199.28 1311.41 2199.75 1311.41 Q2199.94 1311.41 2200.33 1311.55 Q2203.36 1312.89 2206.7 1312.91 Q2210.15 1312.91 2213.24 1311.51 Q2213.47 1311.36 2213.61 1311.36 Q2214.08 1311.36 2214.11 1311.9 Q2214.11 1312.09 2213.71 1312.65 Q2213.33 1313.19 2212.51 1313.92 Q2211.69 1314.62 2210.64 1315.3 Q2209.59 1315.98 2208.04 1316.45 Q2206.52 1316.89 2204.83 1316.89 Q2202.82 1316.89 2200.76 1316.26 L2200.76 1325.61 Q2203.24 1323.17 2206.85 1323.17 Q2210.69 1323.17 2213.33 1326.26 Q2215.98 1329.35 2215.98 1333.66 Q2215.98 1338.18 2212.84 1341.28 Q2209.73 1344.37 2205.51 1344.37 Q2201.67 1344.37 2199.23 1341.63 Q2196.82 1338.89 2196.82 1335.58 Z" fill="#000000" fill-rule="nonzero" fill-opacity="1" /><path clip-path="url(#clip930)" d="M2221.3 1342.54 Q2220.57 1341.77 2220.57 1340.76 Q2220.57 1339.75 2221.3 1339.03 Q2222.02 1338.28 2223.12 1338.28 Q2224.18 1338.28 2224.88 1338.98 Q2225.61 1339.66 2225.61 1340.78 Q2225.61 1341.88 2224.83 1342.61 Q2224.08 1343.31 2223.12 1343.31 Q2222.02 1343.31 2221.3 1342.54 Z" fill="#000000" fill-rule="nonzero" fill-opacity="1" /><path clip-path="url(#clip930)" d="M2233.77 1327.97 Q2233.77 1320.92 2235.55 1317.08 Q2238.03 1311.36 2243.89 1311.36 Q2245.13 1311.36 2246.42 1311.72 Q2247.73 1312.04 2249.37 1313.33 Q2251.03 1314.62 2252.04 1316.73 Q2253.96 1320.8 2253.96 1327.97 Q2253.96 1334.97 2252.18 1338.79 Q2249.58 1344.37 2243.84 1344.37 Q2241.68 1344.37 2239.48 1343.27 Q2237.3 1342.17 2235.92 1339.52 Q2233.77 1335.56 2233.77 1327.97 M2237.75 1327.39 Q2237.75 1334.62 2238.26 1337.5 Q2238.85 1340.62 2240.44 1341.98 Q2242.06 1343.31 2243.84 1343.31 Q2245.76 1343.31 2247.35 1341.88 Q2248.97 1340.43 2249.46 1337.32 Q2250 1334.25 2249.98 1327.39 Q2249.98 1320.71 2249.51 1318.04 Q2248.88 1314.93 2247.19 1313.68 Q2245.53 1312.42 2243.84 1312.42 Q2243.21 1312.42 2242.53 1312.61 Q2241.87 1312.79 2240.91 1313.33 Q2239.95 1313.87 2239.2 1315.21 Q2238.48 1316.54 2238.12 1318.56 Q2237.75 1321.16 2237.75 1327.39 Z" fill="#000000" fill-rule="nonzero" fill-opacity="1" /></svg>
