<?xml version="1.0" encoding="utf-8"?>
<svg xmlns="http://www.w3.org/2000/svg" xmlns:xlink="http://www.w3.org/1999/xlink" width="600" height="400" viewBox="0 0 2400 1600">
<defs>
  <clipPath id="clip230">
    <rect x="0" y="0" width="2400" height="1600"/>
  </clipPath>
</defs>
<path clip-path="url(#clip230)" d="M0 1600 L2400 1600 L2400 0 L0 0  Z" fill="#ffffff" fill-rule="evenodd" fill-opacity="1"/>
<defs>
  <clipPath id="clip231">
    <rect x="480" y="0" width="1681" height="1600"/>
  </clipPath>
</defs>
<defs>
  <clipPath id="clip232">
    <rect x="274" y="123" width="2079" height="1301"/>
  </clipPath>
</defs>
<path clip-path="url(#clip230)" d="M186.127 1423.18 L2352.76 1423.18 L2352.76 123.472 L186.127 123.472  Z" fill="#ffffff" fill-rule="evenodd" fill-opacity="1"/>
<defs>
  <clipPath id="clip233">
    <rect x="186" y="123" width="2168" height="1301"/>
  </clipPath>
</defs>
<polyline clip-path="url(#clip233)" style="stroke:#000000; stroke-linecap:round; stroke-linejoin:round; stroke-width:2; stroke-opacity:0.1; fill:none" points="247.446,1423.18 247.446,123.472 "/>
<polyline clip-path="url(#clip233)" style="stroke:#000000; stroke-linecap:round; stroke-linejoin:round; stroke-width:2; stroke-opacity:0.1; fill:none" points="928.776,1423.18 928.776,123.472 "/>
<polyline clip-path="url(#clip233)" style="stroke:#000000; stroke-linecap:round; stroke-linejoin:round; stroke-width:2; stroke-opacity:0.1; fill:none" points="1610.11,1423.18 1610.11,123.472 "/>
<polyline clip-path="url(#clip233)" style="stroke:#000000; stroke-linecap:round; stroke-linejoin:round; stroke-width:2; stroke-opacity:0.1; fill:none" points="2291.44,1423.18 2291.44,123.472 "/>
<polyline clip-path="url(#clip230)" style="stroke:#000000; stroke-linecap:round; stroke-linejoin:round; stroke-width:4; stroke-opacity:1; fill:none" points="186.127,1423.18 2352.76,1423.18 "/>
<polyline clip-path="url(#clip230)" style="stroke:#000000; stroke-linecap:round; stroke-linejoin:round; stroke-width:4; stroke-opacity:1; fill:none" points="186.127,123.472 2352.76,123.472 "/>
<polyline clip-path="url(#clip230)" style="stroke:#000000; stroke-linecap:round; stroke-linejoin:round; stroke-width:4; stroke-opacity:1; fill:none" points="247.446,1423.18 247.446,1404.28 "/>
<polyline clip-path="url(#clip230)" style="stroke:#000000; stroke-linecap:round; stroke-linejoin:round; stroke-width:4; stroke-opacity:1; fill:none" points="928.776,1423.18 928.776,1404.28 "/>
<polyline clip-path="url(#clip230)" style="stroke:#000000; stroke-linecap:round; stroke-linejoin:round; stroke-width:4; stroke-opacity:1; fill:none" points="1610.11,1423.18 1610.11,1404.28 "/>
<polyline clip-path="url(#clip230)" style="stroke:#000000; stroke-linecap:round; stroke-linejoin:round; stroke-width:4; stroke-opacity:1; fill:none" points="2291.44,1423.18 2291.44,1404.28 "/>
<path clip-path="url(#clip230)" d="M236.799 1469.4 Q236.799 1461.96 238.677 1457.91 Q241.295 1451.88 247.471 1451.88 Q248.78 1451.88 250.139 1452.26 Q251.522 1452.6 253.252 1453.96 Q255.006 1455.32 256.068 1457.54 Q258.094 1461.84 258.094 1469.4 Q258.094 1476.79 256.216 1480.81 Q253.474 1486.69 247.422 1486.69 Q245.149 1486.69 242.827 1485.53 Q240.529 1484.37 239.072 1481.58 Q236.799 1477.4 236.799 1469.4 M240.999 1468.78 Q240.999 1476.41 241.542 1479.45 Q242.16 1482.74 243.84 1484.17 Q245.544 1485.58 247.422 1485.58 Q249.447 1485.58 251.127 1484.07 Q252.832 1482.54 253.351 1479.26 Q253.919 1476.02 253.894 1468.78 Q253.894 1461.74 253.4 1458.92 Q252.733 1455.64 250.954 1454.33 Q249.2 1453 247.422 1453 Q246.755 1453 246.038 1453.19 Q245.347 1453.39 244.334 1453.96 Q243.321 1454.53 242.53 1455.94 Q241.765 1457.34 241.394 1459.47 Q240.999 1462.21 240.999 1468.78 Z" fill="#000000" fill-rule="evenodd" fill-opacity="1" /><path clip-path="url(#clip230)" d="M918.673 1477.43 Q918.673 1475.92 919.488 1475.35 Q920.303 1474.76 921.168 1474.76 Q922.329 1474.76 922.996 1475.5 Q923.687 1476.22 923.687 1477.23 Q923.687 1478.24 922.996 1478.98 Q922.329 1479.7 921.168 1479.7 Q920.6 1479.7 920.303 1479.6 Q920.97 1481.92 922.996 1483.6 Q925.046 1485.28 927.739 1485.28 Q931.123 1485.28 933.149 1482 Q934.359 1479.87 934.359 1475.06 Q934.359 1470.81 933.445 1468.68 Q932.037 1465.45 929.147 1465.45 Q925.046 1465.45 922.625 1468.98 Q922.329 1469.42 921.983 1469.45 Q921.489 1469.45 921.365 1469.18 Q921.267 1468.88 921.267 1468.11 L921.267 1453.14 Q921.267 1451.93 921.761 1451.93 Q921.958 1451.93 922.378 1452.08 Q925.565 1453.49 929.097 1453.51 Q932.729 1453.51 935.99 1452.03 Q936.237 1451.88 936.385 1451.88 Q936.879 1451.88 936.904 1452.45 Q936.904 1452.65 936.484 1453.24 Q936.089 1453.81 935.224 1454.58 Q934.359 1455.32 933.248 1456.03 Q932.136 1456.75 930.506 1457.25 Q928.9 1457.71 927.121 1457.71 Q924.997 1457.71 922.823 1457.05 L922.823 1466.9 Q925.441 1464.33 929.246 1464.33 Q933.297 1464.33 936.089 1467.6 Q938.88 1470.86 938.88 1475.4 Q938.88 1480.17 935.57 1483.43 Q932.284 1486.69 927.838 1486.69 Q923.786 1486.69 921.217 1483.8 Q918.673 1480.91 918.673 1477.43 Z" fill="#000000" fill-rule="evenodd" fill-opacity="1" /><path clip-path="url(#clip230)" d="M1588.07 1456.7 L1588.07 1455.12 Q1594.15 1455.12 1597.29 1451.88 Q1598.15 1451.88 1598.3 1452.08 Q1598.45 1452.28 1598.45 1453.19 L1598.45 1481.58 Q1598.45 1483.08 1599.19 1483.55 Q1599.93 1484.02 1603.16 1484.02 L1604.77 1484.02 L1604.77 1485.58 Q1602.99 1485.43 1596.57 1485.43 Q1590.15 1485.43 1588.39 1485.58 L1588.39 1484.02 L1590 1484.02 Q1593.18 1484.02 1593.95 1483.58 Q1594.72 1483.11 1594.72 1481.58 L1594.72 1455.37 Q1592.07 1456.7 1588.07 1456.7 Z" fill="#000000" fill-rule="evenodd" fill-opacity="1" /><path clip-path="url(#clip230)" d="M1610.85 1469.4 Q1610.85 1461.96 1612.72 1457.91 Q1615.34 1451.88 1621.52 1451.88 Q1622.83 1451.88 1624.19 1452.26 Q1625.57 1452.6 1627.3 1453.96 Q1629.05 1455.32 1630.12 1457.54 Q1632.14 1461.84 1632.14 1469.4 Q1632.14 1476.79 1630.26 1480.81 Q1627.52 1486.69 1621.47 1486.69 Q1619.2 1486.69 1616.87 1485.53 Q1614.58 1484.37 1613.12 1481.58 Q1610.85 1477.4 1610.85 1469.4 M1615.05 1468.78 Q1615.05 1476.41 1615.59 1479.45 Q1616.21 1482.74 1617.89 1484.17 Q1619.59 1485.58 1621.47 1485.58 Q1623.5 1485.58 1625.18 1484.07 Q1626.88 1482.54 1627.4 1479.26 Q1627.97 1476.02 1627.94 1468.78 Q1627.94 1461.74 1627.45 1458.92 Q1626.78 1455.64 1625 1454.33 Q1623.25 1453 1621.47 1453 Q1620.8 1453 1620.09 1453.19 Q1619.39 1453.39 1618.38 1453.96 Q1617.37 1454.53 1616.58 1455.94 Q1615.81 1457.34 1615.44 1459.47 Q1615.05 1462.21 1615.05 1468.78 Z" fill="#000000" fill-rule="evenodd" fill-opacity="1" /><path clip-path="url(#clip230)" d="M2269.67 1456.7 L2269.67 1455.12 Q2275.75 1455.12 2278.89 1451.88 Q2279.75 1451.88 2279.9 1452.08 Q2280.05 1452.28 2280.05 1453.19 L2280.05 1481.58 Q2280.05 1483.08 2280.79 1483.55 Q2281.53 1484.02 2284.77 1484.02 L2286.37 1484.02 L2286.37 1485.58 Q2284.59 1485.43 2278.17 1485.43 Q2271.75 1485.43 2269.99 1485.58 L2269.99 1484.02 L2271.6 1484.02 Q2274.79 1484.02 2275.55 1483.58 Q2276.32 1483.11 2276.32 1481.58 L2276.32 1455.37 Q2273.67 1456.7 2269.67 1456.7 Z" fill="#000000" fill-rule="evenodd" fill-opacity="1" /><path clip-path="url(#clip230)" d="M2292.99 1477.43 Q2292.99 1475.92 2293.81 1475.35 Q2294.62 1474.76 2295.49 1474.76 Q2296.65 1474.76 2297.32 1475.5 Q2298.01 1476.22 2298.01 1477.23 Q2298.01 1478.24 2297.32 1478.98 Q2296.65 1479.7 2295.49 1479.7 Q2294.92 1479.7 2294.62 1479.6 Q2295.29 1481.92 2297.32 1483.6 Q2299.37 1485.28 2302.06 1485.28 Q2305.44 1485.28 2307.47 1482 Q2308.68 1479.87 2308.68 1475.06 Q2308.68 1470.81 2307.77 1468.68 Q2306.36 1465.45 2303.47 1465.45 Q2299.37 1465.45 2296.95 1468.98 Q2296.65 1469.42 2296.3 1469.45 Q2295.81 1469.45 2295.69 1469.18 Q2295.59 1468.88 2295.59 1468.11 L2295.59 1453.14 Q2295.59 1451.93 2296.08 1451.93 Q2296.28 1451.93 2296.7 1452.08 Q2299.88 1453.49 2303.42 1453.51 Q2307.05 1453.51 2310.31 1452.03 Q2310.56 1451.88 2310.7 1451.88 Q2311.2 1451.88 2311.22 1452.45 Q2311.22 1452.65 2310.8 1453.24 Q2310.41 1453.81 2309.54 1454.58 Q2308.68 1455.32 2307.57 1456.03 Q2306.46 1456.75 2304.83 1457.25 Q2303.22 1457.71 2301.44 1457.71 Q2299.32 1457.71 2297.14 1457.05 L2297.14 1466.9 Q2299.76 1464.33 2303.57 1464.33 Q2307.62 1464.33 2310.41 1467.6 Q2313.2 1470.86 2313.2 1475.4 Q2313.2 1480.17 2309.89 1483.43 Q2306.6 1486.69 2302.16 1486.69 Q2298.11 1486.69 2295.54 1483.8 Q2292.99 1480.91 2292.99 1477.43 Z" fill="#000000" fill-rule="evenodd" fill-opacity="1" /><path clip-path="url(#clip230)" d="M1285.64 1526.79 Q1285.64 1530.62 1283.87 1534.42 Q1282.09 1538.22 1279.2 1541.12 Q1276.33 1543.99 1272.4 1545.79 Q1268.5 1547.59 1264.51 1547.59 Q1263.8 1547.59 1262.35 1547.43 Q1260.1 1559.32 1260.03 1559.51 Q1259.74 1560.19 1259.16 1560.6 Q1258.62 1561.02 1258.23 1561.12 Q1257.84 1561.22 1257.59 1561.22 Q1256.94 1561.22 1256.3 1560.77 Q1255.69 1560.35 1255.69 1559.38 Q1255.69 1559.15 1256.01 1558.06 L1259.52 1546.98 Q1254.2 1545.76 1251.14 1542.38 Q1248.09 1538.96 1248.09 1534.32 Q1248.09 1531.36 1249.44 1527.5 Q1250.79 1523.63 1252.43 1521.02 Q1254.08 1518.41 1255.01 1518.41 Q1255.81 1518.41 1255.81 1519.09 Q1255.81 1519.35 1255.3 1519.93 Q1252.69 1522.92 1251.24 1527.24 Q1249.82 1531.52 1249.82 1533.58 Q1249.82 1537.19 1252.59 1539.8 Q1255.4 1542.38 1260.65 1543.34 Q1263.77 1533.23 1265.64 1528.98 Q1269.41 1520.54 1274.3 1518.48 Q1276.1 1517.71 1278.1 1517.71 Q1281.71 1517.71 1283.67 1520.25 Q1285.64 1522.76 1285.64 1526.79 M1283.77 1528.24 Q1283.77 1526.53 1283.16 1525.08 Q1282.58 1523.63 1281.1 1522.6 Q1279.61 1521.54 1277.46 1521.54 Q1273.14 1521.54 1269.53 1525.69 Q1265.93 1529.85 1264.38 1536.29 L1263.06 1543.44 Q1263.06 1543.7 1263.93 1543.7 Q1264.45 1543.76 1265.12 1543.76 Q1268.79 1543.76 1272.27 1542.38 Q1275.78 1540.99 1278.26 1538.8 Q1280.74 1536.61 1282.26 1533.81 Q1283.77 1531.01 1283.77 1528.24 Z" fill="#000000" fill-rule="evenodd" fill-opacity="1" /><polyline clip-path="url(#clip233)" style="stroke:#000000; stroke-linecap:round; stroke-linejoin:round; stroke-width:2; stroke-opacity:0.1; fill:none" points="186.127,1377.37 2352.76,1377.37 "/>
<polyline clip-path="url(#clip233)" style="stroke:#000000; stroke-linecap:round; stroke-linejoin:round; stroke-width:2; stroke-opacity:0.1; fill:none" points="186.127,1075.35 2352.76,1075.35 "/>
<polyline clip-path="url(#clip233)" style="stroke:#000000; stroke-linecap:round; stroke-linejoin:round; stroke-width:2; stroke-opacity:0.1; fill:none" points="186.127,773.326 2352.76,773.326 "/>
<polyline clip-path="url(#clip233)" style="stroke:#000000; stroke-linecap:round; stroke-linejoin:round; stroke-width:2; stroke-opacity:0.1; fill:none" points="186.127,471.302 2352.76,471.302 "/>
<polyline clip-path="url(#clip233)" style="stroke:#000000; stroke-linecap:round; stroke-linejoin:round; stroke-width:2; stroke-opacity:0.1; fill:none" points="186.127,169.279 2352.76,169.279 "/>
<polyline clip-path="url(#clip230)" style="stroke:#000000; stroke-linecap:round; stroke-linejoin:round; stroke-width:4; stroke-opacity:1; fill:none" points="186.127,1423.18 186.127,123.472 "/>
<polyline clip-path="url(#clip230)" style="stroke:#000000; stroke-linecap:round; stroke-linejoin:round; stroke-width:4; stroke-opacity:1; fill:none" points="2352.76,1423.18 2352.76,123.472 "/>
<polyline clip-path="url(#clip230)" style="stroke:#000000; stroke-linecap:round; stroke-linejoin:round; stroke-width:4; stroke-opacity:1; fill:none" points="186.127,1377.37 205.024,1377.37 "/>
<polyline clip-path="url(#clip230)" style="stroke:#000000; stroke-linecap:round; stroke-linejoin:round; stroke-width:4; stroke-opacity:1; fill:none" points="186.127,1075.35 205.024,1075.35 "/>
<polyline clip-path="url(#clip230)" style="stroke:#000000; stroke-linecap:round; stroke-linejoin:round; stroke-width:4; stroke-opacity:1; fill:none" points="186.127,773.326 205.024,773.326 "/>
<polyline clip-path="url(#clip230)" style="stroke:#000000; stroke-linecap:round; stroke-linejoin:round; stroke-width:4; stroke-opacity:1; fill:none" points="186.127,471.302 205.024,471.302 "/>
<polyline clip-path="url(#clip230)" style="stroke:#000000; stroke-linecap:round; stroke-linejoin:round; stroke-width:4; stroke-opacity:1; fill:none" points="186.127,169.279 205.024,169.279 "/>
<path clip-path="url(#clip230)" d="M84.3911 1381.29 Q84.6875 1381.58 84.6875 1382 Q84.6875 1382.42 84.3911 1382.72 Q84.0946 1383.02 83.6747 1383.02 L52.005 1383.02 Q51.585 1383.02 51.2886 1382.72 Q50.9921 1382.42 50.9921 1382 Q50.9921 1381.58 51.2886 1381.29 Q51.585 1380.99 52.005 1380.99 L83.6747 1380.99 Q84.0946 1380.99 84.3911 1381.29 Z" fill="#000000" fill-rule="evenodd" fill-opacity="1" /><path clip-path="url(#clip230)" d="M91.9997 1365.77 L91.9997 1364.19 Q98.0767 1364.19 101.214 1360.96 Q102.079 1360.96 102.227 1361.15 Q102.375 1361.35 102.375 1362.27 L102.375 1390.65 Q102.375 1392.16 103.116 1392.63 Q103.857 1393.1 107.093 1393.1 L108.699 1393.1 L108.699 1394.65 Q106.921 1394.5 100.498 1394.5 Q94.0748 1394.5 92.3208 1394.65 L92.3208 1393.1 L93.9266 1393.1 Q97.1133 1393.1 97.8791 1392.65 Q98.6449 1392.18 98.6449 1390.65 L98.6449 1364.44 Q96.0016 1365.77 91.9997 1365.77 Z" fill="#000000" fill-rule="evenodd" fill-opacity="1" /><path clip-path="url(#clip230)" d="M117.864 1393.84 Q117.098 1393.02 117.098 1391.96 Q117.098 1390.9 117.864 1390.13 Q118.63 1389.34 119.791 1389.34 Q120.903 1389.34 121.644 1390.08 Q122.41 1390.8 122.41 1391.98 Q122.41 1393.15 121.594 1393.91 Q120.804 1394.65 119.791 1394.65 Q118.63 1394.65 117.864 1393.84 Z" fill="#000000" fill-rule="evenodd" fill-opacity="1" /><path clip-path="url(#clip230)" d="M128.832 1378.47 Q128.832 1371.04 130.71 1366.98 Q133.328 1360.96 139.504 1360.96 Q140.814 1360.96 142.172 1361.33 Q143.556 1361.67 145.285 1363.03 Q147.039 1364.39 148.101 1366.61 Q150.127 1370.91 150.127 1378.47 Q150.127 1385.86 148.249 1389.88 Q145.507 1395.76 139.455 1395.76 Q137.182 1395.76 134.86 1394.6 Q132.563 1393.44 131.105 1390.65 Q128.832 1386.48 128.832 1378.47 M133.032 1377.85 Q133.032 1385.49 133.575 1388.53 Q134.193 1391.81 135.873 1393.24 Q137.577 1394.65 139.455 1394.65 Q141.481 1394.65 143.16 1393.15 Q144.865 1391.61 145.384 1388.33 Q145.952 1385.09 145.927 1377.85 Q145.927 1370.81 145.433 1368 Q144.766 1364.71 142.987 1363.4 Q141.233 1362.07 139.455 1362.07 Q138.788 1362.07 138.071 1362.27 Q137.38 1362.46 136.367 1363.03 Q135.354 1363.6 134.564 1365.01 Q133.798 1366.42 133.427 1368.54 Q133.032 1371.28 133.032 1377.85 Z" fill="#000000" fill-rule="evenodd" fill-opacity="1" /><path clip-path="url(#clip230)" d="M84.9345 1079.26 Q85.231 1079.56 85.231 1079.98 Q85.231 1080.4 84.9345 1080.7 Q84.6381 1080.99 84.2181 1080.99 L52.5484 1080.99 Q52.1285 1080.99 51.832 1080.7 Q51.5356 1080.4 51.5356 1079.98 Q51.5356 1079.56 51.832 1079.26 Q52.1285 1078.97 52.5484 1078.97 L84.2181 1078.97 Q84.6381 1078.97 84.9345 1079.26 Z" fill="#000000" fill-rule="evenodd" fill-opacity="1" /><path clip-path="url(#clip230)" d="M90.0234 1076.45 Q90.0234 1069.01 91.9009 1064.96 Q94.5194 1058.93 100.695 1058.93 Q102.005 1058.93 103.363 1059.3 Q104.747 1059.65 106.476 1061.01 Q108.23 1062.37 109.292 1064.59 Q111.318 1068.89 111.318 1076.45 Q111.318 1083.83 109.44 1087.86 Q106.698 1093.74 100.646 1093.74 Q98.3732 1093.74 96.0511 1092.58 Q93.7536 1091.42 92.2961 1088.63 Q90.0234 1084.45 90.0234 1076.45 M94.223 1075.83 Q94.223 1083.46 94.7665 1086.5 Q95.3841 1089.79 97.0639 1091.22 Q98.7684 1092.63 100.646 1092.63 Q102.672 1092.63 104.351 1091.12 Q106.056 1089.59 106.575 1086.3 Q107.143 1083.07 107.118 1075.83 Q107.118 1068.79 106.624 1065.97 Q105.957 1062.69 104.178 1061.38 Q102.425 1060.05 100.646 1060.05 Q99.9789 1060.05 99.2625 1060.24 Q98.5708 1060.44 97.558 1061.01 Q96.5451 1061.58 95.7546 1062.98 Q94.9888 1064.39 94.6183 1066.52 Q94.223 1069.26 94.223 1075.83 Z" fill="#000000" fill-rule="evenodd" fill-opacity="1" /><path clip-path="url(#clip230)" d="M118.408 1091.81 Q117.642 1091 117.642 1089.94 Q117.642 1088.87 118.408 1088.11 Q119.173 1087.32 120.334 1087.32 Q121.446 1087.32 122.187 1088.06 Q122.953 1088.78 122.953 1089.96 Q122.953 1091.12 122.138 1091.89 Q121.347 1092.63 120.334 1092.63 Q119.173 1092.63 118.408 1091.81 Z" fill="#000000" fill-rule="evenodd" fill-opacity="1" /><path clip-path="url(#clip230)" d="M129.919 1084.48 Q129.919 1082.97 130.735 1082.4 Q131.55 1081.81 132.414 1081.81 Q133.575 1081.81 134.242 1082.55 Q134.934 1083.27 134.934 1084.28 Q134.934 1085.29 134.242 1086.03 Q133.575 1086.75 132.414 1086.75 Q131.846 1086.75 131.55 1086.65 Q132.217 1088.97 134.242 1090.65 Q136.293 1092.33 138.985 1092.33 Q142.37 1092.33 144.396 1089.05 Q145.606 1086.92 145.606 1082.11 Q145.606 1077.86 144.692 1075.73 Q143.284 1072.5 140.394 1072.5 Q136.293 1072.5 133.872 1076.03 Q133.575 1076.47 133.23 1076.5 Q132.736 1076.5 132.612 1076.23 Q132.513 1075.93 132.513 1075.16 L132.513 1060.19 Q132.513 1058.98 133.007 1058.98 Q133.205 1058.98 133.625 1059.13 Q136.812 1060.54 140.344 1060.56 Q143.976 1060.56 147.236 1059.08 Q147.483 1058.93 147.632 1058.93 Q148.126 1058.93 148.15 1059.5 Q148.15 1059.7 147.73 1060.29 Q147.335 1060.86 146.471 1061.63 Q145.606 1062.37 144.494 1063.08 Q143.383 1063.8 141.752 1064.29 Q140.147 1064.76 138.368 1064.76 Q136.243 1064.76 134.07 1064.1 L134.07 1073.95 Q136.688 1071.38 140.492 1071.38 Q144.544 1071.38 147.335 1074.64 Q150.127 1077.91 150.127 1082.45 Q150.127 1087.22 146.816 1090.48 Q143.531 1093.74 139.084 1093.74 Q135.033 1093.74 132.464 1090.85 Q129.919 1087.96 129.919 1084.48 Z" fill="#000000" fill-rule="evenodd" fill-opacity="1" /><path clip-path="url(#clip230)" d="M89.48 774.425 Q89.48 766.989 91.3574 762.938 Q93.976 756.91 100.152 756.91 Q101.461 756.91 102.82 757.281 Q104.203 757.627 105.932 758.985 Q107.686 760.344 108.749 762.567 Q110.774 766.866 110.774 774.425 Q110.774 781.811 108.897 785.838 Q106.155 791.717 100.102 791.717 Q97.8297 791.717 95.5076 790.556 Q93.2102 789.395 91.7527 786.604 Q89.48 782.429 89.48 774.425 M93.6795 773.807 Q93.6795 781.441 94.223 784.479 Q94.8406 787.765 96.5204 789.198 Q98.2249 790.606 100.102 790.606 Q102.128 790.606 103.808 789.099 Q105.512 787.567 106.031 784.282 Q106.599 781.045 106.575 773.807 Q106.575 766.767 106.081 763.951 Q105.414 760.665 103.635 759.356 Q101.881 758.022 100.102 758.022 Q99.4354 758.022 98.719 758.22 Q98.0273 758.417 97.0145 758.985 Q96.0016 759.554 95.2111 760.962 Q94.4453 762.37 94.0748 764.494 Q93.6795 767.236 93.6795 773.807 Z" fill="#000000" fill-rule="evenodd" fill-opacity="1" /><path clip-path="url(#clip230)" d="M117.864 789.79 Q117.098 788.975 117.098 787.913 Q117.098 786.851 117.864 786.085 Q118.63 785.294 119.791 785.294 Q120.903 785.294 121.644 786.036 Q122.41 786.752 122.41 787.938 Q122.41 789.099 121.594 789.865 Q120.804 790.606 119.791 790.606 Q118.63 790.606 117.864 789.79 Z" fill="#000000" fill-rule="evenodd" fill-opacity="1" /><path clip-path="url(#clip230)" d="M128.832 774.425 Q128.832 766.989 130.71 762.938 Q133.328 756.91 139.504 756.91 Q140.814 756.91 142.172 757.281 Q143.556 757.627 145.285 758.985 Q147.039 760.344 148.101 762.567 Q150.127 766.866 150.127 774.425 Q150.127 781.811 148.249 785.838 Q145.507 791.717 139.455 791.717 Q137.182 791.717 134.86 790.556 Q132.563 789.395 131.105 786.604 Q128.832 782.429 128.832 774.425 M133.032 773.807 Q133.032 781.441 133.575 784.479 Q134.193 787.765 135.873 789.198 Q137.577 790.606 139.455 790.606 Q141.481 790.606 143.16 789.099 Q144.865 787.567 145.384 784.282 Q145.952 781.045 145.927 773.807 Q145.927 766.767 145.433 763.951 Q144.766 760.665 142.987 759.356 Q141.233 758.022 139.455 758.022 Q138.788 758.022 138.071 758.22 Q137.38 758.417 136.367 758.985 Q135.354 759.554 134.564 760.962 Q133.798 762.37 133.427 764.494 Q133.032 767.236 133.032 773.807 Z" fill="#000000" fill-rule="evenodd" fill-opacity="1" /><path clip-path="url(#clip230)" d="M90.0234 472.402 Q90.0234 464.966 91.9009 460.915 Q94.5194 454.887 100.695 454.887 Q102.005 454.887 103.363 455.258 Q104.747 455.603 106.476 456.962 Q108.23 458.321 109.292 460.544 Q111.318 464.843 111.318 472.402 Q111.318 479.788 109.44 483.815 Q106.698 489.694 100.646 489.694 Q98.3732 489.694 96.0511 488.533 Q93.7536 487.372 92.2961 484.581 Q90.0234 480.406 90.0234 472.402 M94.223 471.784 Q94.223 479.418 94.7665 482.456 Q95.3841 485.742 97.0639 487.174 Q98.7684 488.582 100.646 488.582 Q102.672 488.582 104.351 487.076 Q106.056 485.544 106.575 482.258 Q107.143 479.022 107.118 471.784 Q107.118 464.744 106.624 461.928 Q105.957 458.642 104.178 457.333 Q102.425 455.999 100.646 455.999 Q99.9789 455.999 99.2625 456.196 Q98.5708 456.394 97.558 456.962 Q96.5451 457.53 95.7546 458.938 Q94.9888 460.347 94.6183 462.471 Q94.223 465.213 94.223 471.784 Z" fill="#000000" fill-rule="evenodd" fill-opacity="1" /><path clip-path="url(#clip230)" d="M118.408 487.767 Q117.642 486.952 117.642 485.89 Q117.642 484.828 118.408 484.062 Q119.173 483.271 120.334 483.271 Q121.446 483.271 122.187 484.012 Q122.953 484.729 122.953 485.915 Q122.953 487.076 122.138 487.841 Q121.347 488.582 120.334 488.582 Q119.173 488.582 118.408 487.767 Z" fill="#000000" fill-rule="evenodd" fill-opacity="1" /><path clip-path="url(#clip230)" d="M129.919 480.43 Q129.919 478.923 130.735 478.355 Q131.55 477.762 132.414 477.762 Q133.575 477.762 134.242 478.504 Q134.934 479.22 134.934 480.233 Q134.934 481.246 134.242 481.987 Q133.575 482.703 132.414 482.703 Q131.846 482.703 131.55 482.604 Q132.217 484.926 134.242 486.606 Q136.293 488.286 138.985 488.286 Q142.37 488.286 144.396 485 Q145.606 482.876 145.606 478.059 Q145.606 473.81 144.692 471.685 Q143.284 468.449 140.394 468.449 Q136.293 468.449 133.872 471.982 Q133.575 472.426 133.23 472.451 Q132.736 472.451 132.612 472.179 Q132.513 471.883 132.513 471.117 L132.513 456.147 Q132.513 454.937 133.007 454.937 Q133.205 454.937 133.625 455.085 Q136.812 456.493 140.344 456.518 Q143.976 456.518 147.236 455.035 Q147.483 454.887 147.632 454.887 Q148.126 454.887 148.15 455.455 Q148.15 455.653 147.73 456.246 Q147.335 456.814 146.471 457.58 Q145.606 458.321 144.494 459.037 Q143.383 459.754 141.752 460.248 Q140.147 460.717 138.368 460.717 Q136.243 460.717 134.07 460.05 L134.07 469.907 Q136.688 467.338 140.492 467.338 Q144.544 467.338 147.335 470.598 Q150.127 473.859 150.127 478.405 Q150.127 483.172 146.816 486.433 Q143.531 489.694 139.084 489.694 Q135.033 489.694 132.464 486.804 Q129.919 483.914 129.919 480.43 Z" fill="#000000" fill-rule="evenodd" fill-opacity="1" /><path clip-path="url(#clip230)" d="M91.9997 157.681 L91.9997 156.1 Q98.0767 156.1 101.214 152.864 Q102.079 152.864 102.227 153.062 Q102.375 153.259 102.375 154.173 L102.375 182.557 Q102.375 184.064 103.116 184.534 Q103.857 185.003 107.093 185.003 L108.699 185.003 L108.699 186.559 Q106.921 186.411 100.498 186.411 Q94.0748 186.411 92.3208 186.559 L92.3208 185.003 L93.9266 185.003 Q97.1133 185.003 97.8791 184.558 Q98.6449 184.089 98.6449 182.557 L98.6449 156.347 Q96.0016 157.681 91.9997 157.681 Z" fill="#000000" fill-rule="evenodd" fill-opacity="1" /><path clip-path="url(#clip230)" d="M117.864 185.744 Q117.098 184.929 117.098 183.867 Q117.098 182.804 117.864 182.039 Q118.63 181.248 119.791 181.248 Q120.903 181.248 121.644 181.989 Q122.41 182.706 122.41 183.891 Q122.41 185.052 121.594 185.818 Q120.804 186.559 119.791 186.559 Q118.63 186.559 117.864 185.744 Z" fill="#000000" fill-rule="evenodd" fill-opacity="1" /><path clip-path="url(#clip230)" d="M128.832 170.379 Q128.832 162.943 130.71 158.892 Q133.328 152.864 139.504 152.864 Q140.814 152.864 142.172 153.234 Q143.556 153.58 145.285 154.939 Q147.039 156.298 148.101 158.521 Q150.127 162.819 150.127 170.379 Q150.127 177.765 148.249 181.792 Q145.507 187.671 139.455 187.671 Q137.182 187.671 134.86 186.51 Q132.563 185.349 131.105 182.557 Q128.832 178.382 128.832 170.379 M133.032 169.761 Q133.032 177.394 133.575 180.433 Q134.193 183.718 135.873 185.151 Q137.577 186.559 139.455 186.559 Q141.481 186.559 143.16 185.052 Q144.865 183.521 145.384 180.235 Q145.952 176.999 145.927 169.761 Q145.927 162.721 145.433 159.904 Q144.766 156.619 142.987 155.31 Q141.233 153.976 139.455 153.976 Q138.788 153.976 138.071 154.173 Q137.38 154.371 136.367 154.939 Q135.354 155.507 134.564 156.915 Q133.798 158.323 133.427 160.448 Q133.032 163.19 133.032 169.761 Z" fill="#000000" fill-rule="evenodd" fill-opacity="1" /><path clip-path="url(#clip230)" d="M947.198 42.3144 Q947.198 28.956 956.32 19.5749 Q965.442 10.1506 977.979 10.1506 Q981.869 10.1506 985.328 11.5772 Q988.786 13.0038 990.386 14.2575 Q991.986 15.468 994.277 17.7592 L998.73 11.2314 Q999.421 10.1506 1000.11 10.1506 Q1000.85 10.1506 1000.98 10.5829 Q1001.11 10.972 1001.11 12.2689 L1001.11 33.2791 Q1001.11 34.7057 1000.93 35.0516 Q1000.76 35.3974 999.681 35.3974 Q998.816 35.3974 998.6 35.1381 Q998.427 34.8787 998.254 33.8844 Q996.914 24.3303 991.596 18.6239 Q986.322 12.9174 978.973 12.9174 Q976.855 12.9174 974.477 13.3929 Q972.143 13.8685 968.727 15.6842 Q965.355 17.4999 962.718 20.526 Q960.124 23.509 958.222 29.2154 Q956.32 34.8787 956.32 42.4008 Q956.32 49.8366 958.222 55.543 Q960.124 61.2495 962.718 64.2324 Q965.355 67.1721 968.727 68.9878 Q972.143 70.8035 974.52 71.3223 Q976.941 71.7978 979.059 71.7978 Q986.668 71.7978 992.504 66.394 Q998.34 60.9901 998.902 51.8684 Q998.989 51.4361 998.989 51.2632 Q998.989 51.047 999.075 50.8309 Q999.162 50.6147 999.378 50.5283 Q999.594 50.4418 999.94 50.4418 Q1001.11 50.4418 1001.11 51.9549 Q1001.11 60.3849 994.623 67.4748 Q988.181 74.5214 977.979 74.5214 Q965.399 74.5214 956.277 65.1835 Q947.198 55.8456 947.198 42.3144 Z" fill="#000000" fill-rule="evenodd" fill-opacity="1" /><path clip-path="url(#clip230)" d="M1009.06 72.576 L1009.06 69.8525 Q1013.77 69.8525 1014.85 69.2905 Q1015.94 68.6852 1015.94 65.832 L1015.94 19.7911 Q1015.94 16.5055 1014.77 15.6842 Q1013.64 14.8628 1009.06 14.8628 L1009.06 12.096 L1021.77 11.1449 L1021.77 65.832 Q1021.77 68.6852 1022.9 69.2905 Q1024.02 69.8525 1028.69 69.8525 L1028.69 72.576 Q1027.61 72.576 1025.36 72.4895 Q1023.11 72.4031 1021.47 72.3598 Q1019.83 72.3166 1018.88 72.3166 Q1017.84 72.3166 1009.06 72.576 Z" fill="#000000" fill-rule="evenodd" fill-opacity="1" /><path clip-path="url(#clip230)" d="M1034.35 64.146 Q1034.35 56.6238 1043.21 52.6466 Q1048.53 50.0959 1059.51 49.4475 L1059.51 46.2052 Q1059.51 40.7148 1056.62 37.8184 Q1053.76 34.8787 1050.13 34.8787 Q1043.65 34.8787 1040.53 38.9424 Q1043.17 39.0288 1044.12 40.369 Q1045.07 41.6659 1045.07 43.0061 Q1045.07 44.7785 1043.95 45.9458 Q1042.87 47.0698 1041.01 47.0698 Q1039.24 47.0698 1038.07 45.989 Q1036.9 44.865 1036.9 42.9196 Q1036.9 38.5965 1040.79 35.7433 Q1044.73 32.8901 1050.3 32.8901 Q1057.57 32.8901 1062.41 37.7751 Q1063.92 39.2882 1064.66 41.2336 Q1065.43 43.179 1065.52 44.4759 Q1065.61 45.7296 1065.61 48.237 L1065.61 65.9184 Q1065.61 66.4372 1065.78 67.3018 Q1065.95 68.1665 1066.73 69.2905 Q1067.55 70.3712 1068.89 70.3712 Q1072.09 70.3712 1072.05 64.708 L1072.05 59.7364 L1074.3 59.7364 L1074.3 64.708 Q1074.3 69.4201 1071.79 71.2791 Q1069.33 73.0948 1067.03 73.0948 Q1064.09 73.0948 1062.24 70.9332 Q1060.38 68.7717 1060.12 65.832 Q1058.78 69.204 1055.71 71.4088 Q1052.68 73.5703 1048.53 73.5703 Q1045.33 73.5703 1042.31 72.7489 Q1039.32 71.9708 1036.82 69.766 Q1034.35 67.518 1034.35 64.146 M1041.18 64.0595 Q1041.18 67.3451 1043.52 69.4634 Q1045.85 71.5817 1049.14 71.5817 Q1052.85 71.5817 1056.18 68.7285 Q1059.51 65.832 1059.51 60.1687 L1059.51 51.3064 Q1049.7 51.6523 1045.42 55.5863 Q1041.18 59.477 1041.18 64.0595 Z" fill="#000000" fill-rule="evenodd" fill-opacity="1" /><path clip-path="url(#clip230)" d="M1077.76 37.1699 L1077.76 34.4031 L1090.77 33.4521 L1090.77 62.8491 Q1090.77 64.9674 1090.94 66.2211 Q1091.11 67.4315 1091.81 68.8581 Q1092.54 70.2848 1094.18 70.9332 Q1095.87 71.5817 1098.55 71.5817 Q1103.35 71.5817 1106.29 67.6477 Q1109.27 63.7137 1109.27 57.8775 L1109.27 42.0982 Q1109.27 38.8127 1108.1 37.9913 Q1106.94 37.1699 1102.35 37.1699 L1102.35 34.4031 L1115.37 33.4521 L1115.37 64.8809 Q1115.37 68.1665 1116.49 69.0311 Q1117.66 69.8525 1122.28 69.8525 L1122.28 72.576 L1109.53 73.5703 L1109.53 65.5726 Q1105.81 73.5271 1098.12 73.5703 Q1094.23 73.5703 1091.55 72.576 Q1088.91 71.5817 1087.57 70.3712 Q1086.23 69.1175 1085.49 66.7398 Q1084.8 64.3621 1084.72 62.8923 Q1084.63 61.4224 1084.63 58.5692 L1084.63 45.2973 Q1084.63 39.2882 1083.76 38.2507 Q1082.9 37.1699 1077.76 37.1699 Z" fill="#000000" fill-rule="evenodd" fill-opacity="1" /><path clip-path="url(#clip230)" d="M1126.95 71.4088 L1126.95 59.7364 Q1126.95 58.7421 1127 58.3963 Q1127.04 58.0504 1127.3 57.791 Q1127.56 57.5317 1128.08 57.5317 Q1128.68 57.5317 1128.9 57.791 Q1129.16 58.0504 1129.33 59.0447 Q1130.67 65.1403 1133.52 68.3826 Q1136.42 71.5817 1141.65 71.5817 Q1146.62 71.5817 1149.13 69.3769 Q1151.64 67.1721 1151.64 63.5407 Q1151.64 57.0561 1142.43 55.4133 Q1137.11 54.3326 1134.91 53.6409 Q1132.7 52.9059 1130.76 51.3064 Q1126.95 48.1938 1126.95 43.7842 Q1126.95 39.3747 1130.28 36.1324 Q1133.65 32.8901 1141.09 32.8901 Q1146.06 32.8901 1149.43 35.3974 Q1150.43 34.6193 1150.95 33.9708 Q1152.11 32.8901 1152.72 32.8901 Q1153.41 32.8901 1153.54 33.3656 Q1153.67 33.7979 1153.67 35.0516 L1153.67 43.9572 Q1153.67 44.9515 1153.63 45.2973 Q1153.58 45.6432 1153.32 45.9025 Q1153.06 46.1187 1152.5 46.1187 Q1151.51 46.1187 1151.46 45.2973 Q1150.77 34.5761 1141.09 34.5761 Q1135.86 34.5761 1133.52 36.6079 Q1131.19 38.5965 1131.19 41.3201 Q1131.19 42.8332 1131.88 44.0004 Q1132.62 45.1244 1133.52 45.8161 Q1134.47 46.4645 1136.2 47.113 Q1137.93 47.7182 1138.97 47.9344 Q1140.05 48.1506 1142.08 48.5829 Q1149.17 49.923 1152.16 52.8195 Q1155.87 56.5373 1155.87 61.2495 Q1155.87 66.4804 1152.33 70.0254 Q1148.78 73.5703 1141.65 73.5703 Q1135.9 73.5703 1131.88 69.7228 Q1131.36 70.2415 1130.97 70.7171 Q1130.58 71.1494 1130.41 71.3223 Q1130.28 71.4952 1130.24 71.6249 Q1130.19 71.7114 1130.11 71.7978 Q1128.34 73.5703 1127.9 73.5703 Q1127.21 73.5703 1127.08 73.0948 Q1126.95 72.6625 1126.95 71.4088 Z" fill="#000000" fill-rule="evenodd" fill-opacity="1" /><path clip-path="url(#clip230)" d="M1161.32 53.0789 Q1161.32 44.7353 1166.68 38.8127 Q1172.04 32.8901 1179.74 32.8901 Q1187.52 32.8901 1191.54 37.9481 Q1195.6 43.0061 1195.6 50.2689 Q1195.6 51.609 1195.26 51.8684 Q1194.91 52.1278 1193.4 52.1278 L1168.67 52.1278 Q1168.67 61.163 1171.35 65.3997 Q1175.07 71.3223 1181.34 71.3223 Q1182.2 71.3223 1183.24 71.1494 Q1184.28 70.9765 1186.39 70.2415 Q1188.51 69.4634 1190.37 67.4315 Q1192.23 65.3997 1193.31 62.2006 Q1193.57 60.9469 1194.44 60.9901 Q1195.6 60.9901 1195.6 62.0277 Q1195.6 62.8058 1194.74 64.5783 Q1193.92 66.3075 1192.32 68.3826 Q1190.72 70.4577 1187.61 72.014 Q1184.54 73.5703 1180.82 73.5703 Q1173.04 73.5703 1167.16 67.6909 Q1161.32 61.7683 1161.32 53.0789 M1168.76 50.2689 L1189.77 50.2689 Q1189.77 48.4099 1189.42 46.3349 Q1189.12 44.2598 1188.17 41.4065 Q1187.26 38.5101 1185.1 36.6944 Q1182.94 34.8787 1179.74 34.8787 Q1178.31 34.8787 1176.75 35.4839 Q1175.24 36.0891 1173.38 37.559 Q1171.52 39.0288 1170.23 42.3576 Q1168.93 45.6864 1168.76 50.2689 Z" fill="#000000" fill-rule="evenodd" fill-opacity="1" /><path clip-path="url(#clip230)" d="M1201.01 72.576 L1201.01 69.8525 Q1205.72 69.8525 1206.8 69.2905 Q1207.88 68.6852 1207.88 65.832 L1207.88 42.0982 Q1207.88 38.8127 1206.71 37.9913 Q1205.59 37.1699 1201.01 37.1699 L1201.01 34.4031 L1213.46 33.4521 L1213.46 42.7467 Q1217.61 33.4521 1226.56 33.4521 Q1233.21 33.4521 1235.85 36.7376 Q1237.8 38.9424 1238.19 41.4065 Q1238.62 43.8707 1238.62 50.2689 L1238.62 67.1721 Q1238.7 69.0311 1240.13 69.4634 Q1241.56 69.8525 1245.53 69.8525 L1245.53 72.576 Q1236.5 72.3166 1235.59 72.3166 Q1234.9 72.3166 1225.61 72.576 L1225.61 69.8525 Q1230.32 69.8525 1231.4 69.2905 Q1232.52 68.6852 1232.52 65.832 L1232.52 45.2109 Q1232.52 40.7148 1231.14 38.0778 Q1229.76 35.3974 1225.95 35.3974 Q1221.37 35.3974 1217.69 39.245 Q1214.02 43.0925 1214.02 49.5772 L1214.02 65.832 Q1214.02 68.6852 1215.1 69.2905 Q1216.22 69.8525 1220.89 69.8525 L1220.89 72.576 Q1211.86 72.3166 1210.99 72.3166 Q1210.3 72.3166 1201.01 72.576 Z" fill="#000000" fill-rule="evenodd" fill-opacity="1" /><path clip-path="url(#clip230)" d="M1279.64 37.1699 L1279.64 34.4031 L1286.6 34.4031 L1286.6 24.2439 Q1286.6 17.6728 1290.84 13.9117 Q1295.12 10.1506 1300.35 10.1506 Q1303.81 10.1506 1306.06 12.0095 Q1308.31 13.8685 1308.31 16.3759 Q1308.31 18.0619 1307.27 19.1859 Q1306.27 20.2666 1304.42 20.2666 Q1302.64 20.2666 1301.61 19.1426 Q1300.61 18.0186 1300.61 16.4623 Q1300.61 13.6091 1303.25 12.7445 Q1301.91 12.1392 1300.35 12.096 Q1297.15 12.096 1294.64 15.3815 Q1292.18 18.6671 1292.18 24.1574 L1292.18 34.4031 L1302.56 34.4031 L1302.56 37.1699 L1292.48 37.1699 L1292.48 65.6591 Q1292.48 68.2097 1293.52 69.0311 Q1294.6 69.8525 1299.18 69.8525 L1301.04 69.8525 L1301.04 72.576 Q1297.5 72.3166 1289.8 72.3166 Q1288.72 72.3166 1287.04 72.3598 Q1285.39 72.4031 1283.15 72.4895 Q1280.94 72.576 1279.73 72.576 L1279.73 69.8525 Q1284.44 69.8525 1285.52 69.2905 Q1286.6 68.6852 1286.6 65.832 L1286.6 37.1699 L1279.64 37.1699 Z" fill="#000000" fill-rule="evenodd" fill-opacity="1" /><path clip-path="url(#clip230)" d="M1306.53 37.1699 L1306.53 34.4031 L1319.55 33.4521 L1319.55 62.8491 Q1319.55 64.9674 1319.72 66.2211 Q1319.89 67.4315 1320.58 68.8581 Q1321.32 70.2848 1322.96 70.9332 Q1324.65 71.5817 1327.33 71.5817 Q1332.13 71.5817 1335.07 67.6477 Q1338.05 63.7137 1338.05 57.8775 L1338.05 42.0982 Q1338.05 38.8127 1336.88 37.9913 Q1335.71 37.1699 1331.13 37.1699 L1331.13 34.4031 L1344.14 33.4521 L1344.14 64.8809 Q1344.14 68.1665 1345.27 69.0311 Q1346.44 69.8525 1351.06 69.8525 L1351.06 72.576 L1338.31 73.5703 L1338.31 65.5726 Q1334.59 73.5271 1326.9 73.5703 Q1323 73.5703 1320.32 72.576 Q1317.69 71.5817 1316.35 70.3712 Q1315.01 69.1175 1314.27 66.7398 Q1313.58 64.3621 1313.49 62.8923 Q1313.41 61.4224 1313.41 58.5692 L1313.41 45.2973 Q1313.41 39.2882 1312.54 38.2507 Q1311.68 37.1699 1306.53 37.1699 Z" fill="#000000" fill-rule="evenodd" fill-opacity="1" /><path clip-path="url(#clip230)" d="M1355.64 72.576 L1355.64 69.8525 Q1360.36 69.8525 1361.44 69.2905 Q1362.52 68.6852 1362.52 65.832 L1362.52 42.0982 Q1362.52 38.8127 1361.35 37.9913 Q1360.23 37.1699 1355.64 37.1699 L1355.64 34.4031 L1368.09 33.4521 L1368.09 42.7467 Q1372.24 33.4521 1381.19 33.4521 Q1387.85 33.4521 1390.49 36.7376 Q1392.43 38.9424 1392.82 41.4065 Q1393.25 43.8707 1393.25 50.2689 L1393.25 67.1721 Q1393.34 69.0311 1394.77 69.4634 Q1396.19 69.8525 1400.17 69.8525 L1400.17 72.576 Q1391.14 72.3166 1390.23 72.3166 Q1389.54 72.3166 1380.24 72.576 L1380.24 69.8525 Q1384.95 69.8525 1386.03 69.2905 Q1387.16 68.6852 1387.16 65.832 L1387.16 45.2109 Q1387.16 40.7148 1385.78 38.0778 Q1384.39 35.3974 1380.59 35.3974 Q1376.01 35.3974 1372.33 39.245 Q1368.66 43.0925 1368.66 49.5772 L1368.66 65.832 Q1368.66 68.6852 1369.74 69.2905 Q1370.86 69.8525 1375.53 69.8525 L1375.53 72.576 Q1366.49 72.3166 1365.63 72.3166 Q1364.94 72.3166 1355.64 72.576 Z" fill="#000000" fill-rule="evenodd" fill-opacity="1" /><path clip-path="url(#clip230)" d="M1410.55 67.7341 Q1404.93 61.8547 1404.93 53.468 Q1404.93 45.0379 1410.46 38.9856 Q1415.99 32.8901 1424.12 32.8901 Q1429.53 32.8901 1433.59 35.4839 Q1437.65 38.0345 1437.65 42.4008 Q1437.65 44.3462 1436.49 45.4702 Q1435.36 46.551 1433.59 46.551 Q1431.73 46.551 1430.61 45.427 Q1429.53 44.2598 1429.53 42.4873 Q1429.53 41.7092 1429.78 40.931 Q1430.04 40.1528 1431 39.3315 Q1431.99 38.5101 1433.68 38.3804 Q1430.52 35.1381 1424.38 35.1381 Q1424.29 35.1381 1424.21 35.1381 Q1419.71 35.1381 1415.99 39.3747 Q1412.28 43.6113 1412.28 53.295 Q1412.28 58.353 1413.49 62.0709 Q1414.74 65.7455 1416.77 67.6477 Q1418.8 69.5498 1420.79 70.4577 Q1422.78 71.3223 1424.73 71.3223 Q1433.42 71.3223 1436.36 62.0277 Q1436.62 61.163 1437.48 61.163 Q1438.65 61.163 1438.65 62.0277 Q1438.65 62.46 1438.3 63.584 Q1437.96 64.708 1436.87 66.4804 Q1435.79 68.2529 1434.24 69.8092 Q1432.72 71.3223 1430 72.4463 Q1427.32 73.5703 1423.95 73.5703 Q1416.17 73.5703 1410.55 67.7341 Z" fill="#000000" fill-rule="evenodd" fill-opacity="1" /><path clip-path="url(#clip230)" d="M1442.88 37.1699 L1442.88 35.2245 Q1446.95 35.0516 1449.63 32.1984 Q1452.35 29.3019 1453.26 25.757 Q1454.21 22.212 1454.3 18.1051 L1456.5 18.1051 L1456.5 34.4031 L1469.17 34.4031 L1469.17 37.1699 L1456.5 37.1699 L1456.5 61.7683 Q1456.5 71.3223 1462.47 71.3223 Q1465.02 71.3223 1466.7 68.7285 Q1468.39 66.0914 1468.39 61.4224 L1468.39 56.5373 L1470.59 56.5373 L1470.59 61.5954 Q1470.59 66.394 1468.39 69.9821 Q1466.19 73.5703 1461.82 73.5703 Q1460.22 73.5703 1458.62 73.138 Q1457.06 72.7489 1454.99 71.7114 Q1452.96 70.6306 1451.66 68.0368 Q1450.41 65.3997 1450.41 61.5954 L1450.41 37.1699 L1442.88 37.1699 Z" fill="#000000" fill-rule="evenodd" fill-opacity="1" /><path clip-path="url(#clip230)" d="M1478.46 72.576 L1478.46 69.8525 Q1483.17 69.8525 1484.26 69.2905 Q1485.34 68.6852 1485.34 65.832 L1485.34 42.0118 Q1485.34 38.7262 1484.21 37.9481 Q1483.13 37.1699 1478.81 37.1699 L1478.81 34.4031 L1491.17 33.4521 L1491.17 65.9184 Q1491.17 68.5555 1492.12 69.204 Q1493.07 69.8525 1497.4 69.8525 L1497.4 72.576 Q1488.36 72.3166 1488.19 72.3166 Q1486.98 72.3166 1478.46 72.576 M1482.18 18.0186 Q1482.18 16.2462 1483.52 14.8195 Q1484.9 13.3497 1486.85 13.3497 Q1488.79 13.3497 1490.18 14.6899 Q1491.56 15.9868 1491.56 18.0619 Q1491.56 20.0937 1490.18 21.4339 Q1488.79 22.7308 1486.85 22.7308 Q1484.82 22.7308 1483.48 21.3042 Q1482.18 19.8776 1482.18 18.0186 Z" fill="#000000" fill-rule="evenodd" fill-opacity="1" /><path clip-path="url(#clip230)" d="M1508.34 67.8206 Q1502.5 62.0277 1502.5 53.6409 Q1502.5 45.2109 1508.21 39.0721 Q1513.96 32.8901 1522.17 32.8901 Q1530.21 32.8901 1535.96 39.0288 Q1541.75 45.1244 1541.75 53.6409 Q1541.75 61.9844 1535.92 67.7774 Q1530.12 73.5703 1522.08 73.5703 Q1514.21 73.5703 1508.34 67.8206 M1509.85 52.9059 Q1509.85 61.5089 1512.1 65.3997 Q1515.55 71.3223 1522.17 71.3223 Q1525.45 71.3223 1528.18 69.5498 Q1530.94 67.7774 1532.46 64.7944 Q1534.4 60.9037 1534.4 52.9059 Q1534.4 44.3895 1532.07 40.6284 Q1528.61 34.8787 1522.08 34.8787 Q1519.23 34.8787 1516.42 36.3918 Q1513.65 37.8616 1511.97 40.8013 Q1509.85 44.6921 1509.85 52.9059 Z" fill="#000000" fill-rule="evenodd" fill-opacity="1" /><path clip-path="url(#clip230)" d="M1547.16 72.576 L1547.16 69.8525 Q1551.87 69.8525 1552.95 69.2905 Q1554.03 68.6852 1554.03 65.832 L1554.03 42.0982 Q1554.03 38.8127 1552.86 37.9913 Q1551.74 37.1699 1547.16 37.1699 L1547.16 34.4031 L1559.61 33.4521 L1559.61 42.7467 Q1563.76 33.4521 1572.71 33.4521 Q1579.36 33.4521 1582 36.7376 Q1583.95 38.9424 1584.34 41.4065 Q1584.77 43.8707 1584.77 50.2689 L1584.77 67.1721 Q1584.85 69.0311 1586.28 69.4634 Q1587.71 69.8525 1591.68 69.8525 L1591.68 72.576 Q1582.65 72.3166 1581.74 72.3166 Q1581.05 72.3166 1571.75 72.576 L1571.75 69.8525 Q1576.47 69.8525 1577.55 69.2905 Q1578.67 68.6852 1578.67 65.832 L1578.67 45.2109 Q1578.67 40.7148 1577.29 38.0778 Q1575.91 35.3974 1572.1 35.3974 Q1567.52 35.3974 1563.84 39.245 Q1560.17 43.0925 1560.17 49.5772 L1560.17 65.832 Q1560.17 68.6852 1561.25 69.2905 Q1562.37 69.8525 1567.04 69.8525 L1567.04 72.576 Q1558.01 72.3166 1557.14 72.3166 Q1556.45 72.3166 1547.16 72.576 Z" fill="#000000" fill-rule="evenodd" fill-opacity="1" /><polyline clip-path="url(#clip233)" style="stroke:#1f77b4; stroke-linecap:round; stroke-linejoin:round; stroke-width:10; stroke-opacity:1; fill:none" points="247.446,773.326 249.492,726.175 251.538,691.597 253.585,661.764 255.631,635.013 257.677,610.553 259.723,587.918 261.769,566.801 263.815,546.983 265.861,528.3 267.907,510.626 269.953,493.858 271.999,477.914 274.045,462.725 276.091,448.232 278.137,434.385 280.183,421.14 282.229,408.46 284.275,396.311 286.321,384.663 288.367,373.49 290.413,362.766 292.459,352.471 294.505,342.585 296.551,333.089 298.597,323.967 300.643,315.204 302.689,306.785 304.735,298.698 306.781,290.929 308.827,283.469 310.874,276.306 312.92,269.43 314.966,262.832 317.012,256.504 319.058,250.436 321.104,244.622 323.15,239.053 325.196,233.724 327.242,228.626 329.288,223.754 331.334,219.103 333.38,214.665 335.426,210.436 337.472,206.411 339.518,202.585 341.564,198.952 343.61,195.508 345.656,192.25 347.702,189.172 349.748,186.271 351.794,183.542 353.84,180.983 355.886,178.589 357.932,176.357 359.978,174.284 362.024,172.366 364.07,170.601 366.116,168.985 368.163,167.515 370.209,166.189 372.255,165.004 374.301,163.956 376.347,163.045 378.393,162.266 380.439,161.618 382.485,161.098 384.531,160.705 386.577,160.435 388.623,160.287 390.669,160.258 392.715,160.346 394.761,160.55 396.807,160.868 398.853,161.297 400.899,161.835 402.945,162.482 404.991,163.235 407.037,164.092 409.083,165.051 411.129,166.112 413.175,167.272 415.221,168.53 417.267,169.884 419.313,171.333 421.359,172.876 423.405,174.51 425.452,176.234 427.498,178.048 429.544,179.949 431.59,181.936 433.636,184.008 435.682,186.164 437.728,188.403 439.774,190.722 441.82,193.121 443.866,195.599 445.912,198.155 447.958,200.787 450.004,203.494 452.05,206.276 454.096,209.13 456.142,212.056 458.188,215.053 460.234,218.12 462.28,221.255 464.326,224.458 466.372,227.728 468.418,231.064 470.464,234.464 472.51,237.928 474.556,241.455 476.602,245.043 478.648,248.693 480.694,252.403 482.741,256.171 484.787,259.998 486.833,263.883 488.879,267.823 490.925,271.82 492.971,275.871 495.017,279.976 497.063,284.134 499.109,288.345 501.155,292.607 503.201,296.919 505.247,301.282 507.293,305.694 509.339,310.154 511.385,314.661 513.431,319.216 515.477,323.816 517.523,328.462 519.569,333.152 521.615,337.887 523.661,342.664 525.707,347.484 527.753,352.345 529.799,357.248 531.845,362.191 533.891,367.174 535.937,372.195 537.983,377.255 540.03,382.352 542.076,387.487 544.122,392.657 546.168,397.864 548.214,403.105 550.26,408.381 552.306,413.69 554.352,419.033 556.398,424.407 558.444,429.814 560.49,435.252 562.536,440.721 564.582,446.219 566.628,451.747 568.674,457.304 570.72,462.888 572.766,468.501 574.812,474.14 576.858,479.806 578.904,485.497 580.95,491.214 582.996,496.955 585.042,502.72 587.088,508.509 589.134,514.321 591.18,520.155 593.226,526.011 595.272,531.888 597.319,537.786 599.365,543.704 601.411,549.641 603.457,555.597 605.503,561.572 607.549,567.565 609.595,573.575 611.641,579.602 613.687,585.645 615.733,591.704 617.779,597.778 619.825,603.866 621.871,609.969 623.917,616.086 625.963,622.215 628.009,628.357 630.055,634.511 632.101,640.676 634.147,646.853 636.193,653.039 638.239,659.236 640.285,665.442 642.331,671.657 644.377,677.88 646.423,684.112 648.469,690.35 650.515,696.595 652.561,702.847 654.608,709.104 656.654,715.366 658.7,721.633 660.746,727.905 662.792,734.18 664.838,740.458 666.884,746.739 668.93,753.022 670.976,759.307 673.022,765.593 675.068,771.879 677.114,778.166 679.16,784.452 681.206,790.738 683.252,797.021 685.298,803.303 687.344,809.583 689.39,815.86 691.436,822.133 693.482,828.402 695.528,834.667 697.574,840.926 699.62,847.18 701.666,853.429 703.712,859.67 705.758,865.905 707.804,872.132 709.851,878.35 711.897,884.561 713.943,890.762 715.989,896.953 718.035,903.134 720.081,909.305 722.127,915.464 724.173,921.612 726.219,927.747 728.265,933.869 730.311,939.979 732.357,946.074 734.403,952.155 736.449,958.221 738.495,964.271 740.541,970.305 742.587,976.323 744.633,982.324 746.679,988.307 748.725,994.272 750.771,1000.22 752.817,1006.15 754.863,1012.05 756.909,1017.94 758.955,1023.8 761.001,1029.65 763.047,1035.47 765.093,1041.27 767.14,1047.05 769.186,1052.8 771.232,1058.53 773.278,1064.23 775.324,1069.91 777.37,1075.56 779.416,1081.18 781.462,1086.78 783.508,1092.35 785.554,1097.89 787.6,1103.4 789.646,1108.89 791.692,1114.34 793.738,1119.76 795.784,1125.15 797.83,1130.51 799.876,1135.83 801.922,1141.12 803.968,1146.38 806.014,1151.6 808.06,1156.79 810.106,1161.94 812.152,1167.06 814.198,1172.13 816.244,1177.17 818.29,1182.17 820.336,1187.13 822.382,1192.06 824.429,1196.94 826.475,1201.77 828.521,1206.57 830.567,1211.33 832.613,1216.04 834.659,1220.7 836.705,1225.32 838.751,1229.9 840.797,1234.43 842.843,1238.91 844.889,1243.35 846.935,1247.73 848.981,1252.07 851.027,1256.35 853.073,1260.59 855.119,1264.77 857.165,1268.9 859.211,1272.97 861.257,1277 863.303,1280.96 865.349,1284.87 867.395,1288.73 869.441,1292.52 871.487,1296.26 873.533,1299.94 875.579,1303.55 877.625,1307.11 879.671,1310.6 881.718,1314.03 883.764,1317.4 885.81,1320.7 887.856,1323.93 889.902,1327.1 891.948,1330.2 893.994,1333.23 896.04,1336.18 898.086,1339.07 900.132,1341.89 902.178,1344.63 904.224,1347.29 906.27,1349.89 908.316,1352.4 910.362,1354.84 912.408,1357.19 914.454,1359.47 916.5,1361.66 918.546,1363.77 920.592,1365.8 922.638,1367.74 924.684,1369.59 926.73,1371.36 928.776,1373.04 930.822,1374.62 932.868,1376.11 934.914,1377.51 936.96,1378.81 939.007,1380.02 941.053,1381.12 943.099,1382.13 945.145,1383.04 947.191,1383.84 949.237,1384.53 951.283,1385.12 953.329,1385.6 955.375,1385.97 957.421,1386.23 959.467,1386.37 961.513,1386.39 963.559,1386.3 965.605,1386.09 967.651,1385.75 969.697,1385.29 971.743,1384.7 973.789,1383.98 975.835,1383.13 977.881,1382.15 979.927,1381.03 981.973,1379.76 984.019,1378.36 986.065,1376.81 988.111,1375.12 990.157,1373.27 992.203,1371.27 994.249,1369.11 996.296,1366.79 998.342,1364.31 1000.39,1361.66 1002.43,1358.84 1004.48,1355.84 1006.53,1352.67 1008.57,1349.31 1010.62,1345.76 1012.66,1342.03 1014.71,1338.09 1016.76,1333.96 1018.8,1329.62 1020.85,1325.06 1022.89,1320.29 1024.94,1315.3 1026.99,1310.08 1029.03,1304.62 1031.08,1298.92 1033.12,1292.97 1035.17,1286.76 1037.22,1280.29 1039.26,1273.54 1041.31,1266.51 1043.35,1259.19 1045.4,1251.57 1047.45,1243.63 1049.49,1235.36 1051.54,1226.76 1053.58,1217.81 1055.63,1208.48 1057.68,1198.78 1059.72,1188.67 1061.77,1178.15 1063.81,1167.19 1065.86,1155.76 1067.91,1143.85 1069.95,1131.41 1072,1118.43 1074.04,1104.87 1076.09,1090.68 1078.14,1075.82 1080.18,1060.23 1082.23,1043.85 1084.28,1026.6 1086.32,1008.4 1088.37,989.12 1090.41,968.623 1092.46,946.719 1094.51,923.145 1096.55,897.52 1098.6,869.238 1100.64,837.16 1102.69,798.261 1104.74,744.852 1106.78,706.749 1108.83,675.04 1110.87,647.001 1112.92,621.558 1114.97,598.129 1117.01,576.345 1119.06,555.952 1121.1,536.765 1123.15,518.641 1125.2,501.467 1127.24,485.153 1129.29,469.625 1131.33,454.818 1133.38,440.679 1135.43,427.163 1137.47,414.227 1139.52,401.838 1141.56,389.963 1143.61,378.574 1145.66,367.646 1147.7,357.156 1149.75,347.084 1151.79,337.411 1153.84,328.119 1155.89,319.193 1157.93,310.617 1159.98,302.379 1162.02,294.465 1164.07,286.864 1166.12,279.566 1168.16,272.559 1170.21,265.834 1172.25,259.383 1174.3,253.196 1176.35,247.266 1178.39,241.586 1180.44,236.147 1182.48,230.943 1184.53,225.968 1186.58,221.216 1188.62,216.681 1190.67,212.357 1192.71,208.238 1194.76,204.321 1196.81,200.6 1198.85,197.07 1200.9,193.726 1202.95,190.566 1204.99,187.584 1207.04,184.776 1209.08,182.14 1211.13,179.67 1213.18,177.364 1215.22,175.219 1217.27,173.23 1219.31,171.395 1221.36,169.71 1223.41,168.173 1225.45,166.782 1227.5,165.532 1229.54,164.421 1231.59,163.448 1233.64,162.608 1235.68,161.9 1237.73,161.322 1239.77,160.87 1241.82,160.544 1243.87,160.34 1245.91,160.256 1247.96,160.291 1250,160.442 1252.05,160.708 1254.1,161.086 1256.14,161.574 1258.19,162.171 1260.23,162.875 1262.28,163.684 1264.33,164.597 1266.37,165.612 1268.42,166.726 1270.46,167.939 1272.51,169.249 1274.56,170.655 1276.6,172.155 1278.65,173.747 1280.69,175.43 1282.74,177.202 1284.79,179.063 1286.83,181.011 1288.88,183.044 1290.92,185.162 1292.97,187.362 1295.02,189.645 1297.06,192.007 1299.11,194.449 1301.15,196.97 1303.2,199.567 1305.25,202.239 1307.29,204.987 1309.34,207.807 1311.39,210.701 1313.43,213.665 1315.48,216.7 1317.52,219.804 1319.57,222.976 1321.62,226.215 1323.66,229.521 1325.71,232.891 1327.75,236.326 1329.8,239.824 1331.85,243.384 1333.89,247.006 1335.94,250.688 1337.98,254.43 1340.03,258.23 1342.08,262.088 1344.12,266.003 1346.17,269.974 1348.21,274 1350.26,278.08 1352.31,282.214 1354.35,286.401 1356.4,290.639 1358.44,294.929 1360.49,299.268 1362.54,303.658 1364.58,308.096 1366.63,312.581 1368.67,317.114 1370.72,321.694 1372.77,326.319 1374.81,330.989 1376.86,335.703 1378.9,340.46 1380.95,345.261 1383,350.103 1385.04,354.987 1387.09,359.912 1389.13,364.876 1391.18,369.88 1393.23,374.922 1395.27,380.002 1397.32,385.12 1399.36,390.274 1401.41,395.464 1403.46,400.689 1405.5,405.949 1407.55,411.243 1409.59,416.57 1411.64,421.93 1413.69,427.322 1415.73,432.746 1417.78,438.201 1419.82,443.685 1421.87,449.2 1423.92,454.743 1425.96,460.315 1428.01,465.915 1430.06,471.542 1432.1,477.195 1434.15,482.875 1436.19,488.58 1438.24,494.31 1440.29,500.065 1442.33,505.843 1444.38,511.644 1446.42,517.468 1448.47,523.314 1450.52,529.181 1452.56,535.069 1454.61,540.978 1456.65,546.906 1458.7,552.854 1460.75,558.821 1462.79,564.805 1464.84,570.807 1466.88,576.826 1468.93,582.862 1470.98,588.914 1473.02,594.981 1475.07,601.063 1477.11,607.159 1479.16,613.269 1481.21,619.393 1483.25,625.529 1485.3,631.678 1487.34,637.838 1489.39,644.009 1491.44,650.191 1493.48,656.384 1495.53,662.585 1497.57,668.796 1499.62,675.016 1501.67,681.243 1503.71,687.479 1505.76,693.721 1507.8,699.969 1509.85,706.224 1511.9,712.484 1513.94,718.749 1515.99,725.019 1518.03,731.292 1520.08,737.569 1522.13,743.849 1524.17,750.131 1526.22,756.415 1528.26,762.7 1530.31,768.987 1532.36,775.273 1534.4,781.56 1536.45,787.846 1538.5,794.13 1540.54,800.413 1542.59,806.694 1544.63,812.972 1546.68,819.247 1548.73,825.518 1550.77,831.785 1552.82,838.047 1554.86,844.303 1556.91,850.554 1558.96,856.799 1561,863.037 1563.05,869.267 1565.09,875.49 1567.14,881.704 1569.19,887.91 1571.23,894.105 1573.28,900.291 1575.32,906.467 1577.37,912.631 1579.42,918.785 1581.46,924.926 1583.51,931.054 1585.55,937.169 1587.6,943.271 1589.65,949.358 1591.69,955.431 1593.74,961.489 1595.78,967.531 1597.83,973.556 1599.88,979.565 1601.92,985.556 1603.97,991.53 1606.01,997.484 1608.06,1003.42 1610.11,1009.34 1612.15,1015.23 1614.2,1021.11 1616.24,1026.96 1618.29,1032.79 1620.34,1038.6 1622.38,1044.39 1624.43,1050.15 1626.47,1055.89 1628.52,1061.61 1630.57,1067.3 1632.61,1072.96 1634.66,1078.6 1636.7,1084.21 1638.75,1089.79 1640.8,1095.35 1642.84,1100.87 1644.89,1106.37 1646.93,1111.83 1648.98,1117.27 1651.03,1122.67 1653.07,1128.05 1655.12,1133.39 1657.17,1138.69 1659.21,1143.97 1661.26,1149.2 1663.3,1154.41 1665.35,1159.58 1667.4,1164.71 1669.44,1169.8 1671.49,1174.86 1673.53,1179.88 1675.58,1184.86 1677.63,1189.8 1679.67,1194.69 1681.72,1199.55 1683.76,1204.37 1685.81,1209.14 1687.86,1213.87 1689.9,1218.56 1691.95,1223.2 1693.99,1227.8 1696.04,1232.35 1698.09,1236.85 1700.13,1241.31 1702.18,1245.72 1704.22,1250.08 1706.27,1254.39 1708.32,1258.64 1710.36,1262.85 1712.41,1267 1714.45,1271.11 1716.5,1275.15 1718.55,1279.14 1720.59,1283.08 1722.64,1286.96 1724.68,1290.78 1726.73,1294.55 1728.78,1298.25 1730.82,1301.9 1732.87,1305.48 1734.91,1309 1736.96,1312.46 1739.01,1315.86 1741.05,1319.19 1743.1,1322.45 1745.14,1325.65 1747.19,1328.78 1749.24,1331.84 1751.28,1334.83 1753.33,1337.75 1755.37,1340.6 1757.42,1343.38 1759.47,1346.08 1761.51,1348.7 1763.56,1351.25 1765.6,1353.72 1767.65,1356.12 1769.7,1358.43 1771.74,1360.66 1773.79,1362.81 1775.84,1364.88 1777.88,1366.86 1779.93,1368.75 1781.97,1370.56 1784.02,1372.28 1786.07,1373.9 1788.11,1375.44 1790.16,1376.88 1792.2,1378.22 1794.25,1379.48 1796.3,1380.63 1798.34,1381.68 1800.39,1382.63 1802.43,1383.48 1804.48,1384.22 1806.53,1384.86 1808.57,1385.39 1810.62,1385.81 1812.66,1386.12 1814.71,1386.32 1816.76,1386.4 1818.8,1386.36 1820.85,1386.2 1822.89,1385.92 1824.94,1385.52 1826.99,1384.99 1829.03,1384.33 1831.08,1383.54 1833.12,1382.62 1835.17,1381.56 1837.22,1380.36 1839.26,1379.02 1841.31,1377.54 1843.35,1375.92 1845.4,1374.14 1847.45,1372.21 1849.49,1370.12 1851.54,1367.88 1853.58,1365.47 1855.63,1362.9 1857.68,1360.16 1859.72,1357.24 1861.77,1354.15 1863.81,1350.88 1865.86,1347.42 1867.91,1343.77 1869.95,1339.93 1872,1335.89 1874.04,1331.64 1876.09,1327.19 1878.14,1322.52 1880.18,1317.63 1882.23,1312.51 1884.28,1307.16 1886.32,1301.58 1888.37,1295.74 1890.41,1289.65 1892.46,1283.3 1894.51,1276.68 1896.55,1269.79 1898.6,1262.6 1900.64,1255.11 1902.69,1247.32 1904.74,1239.21 1906.78,1230.76 1908.83,1221.97 1910.87,1212.82 1912.92,1203.29 1914.97,1193.37 1917.01,1183.05 1919.06,1172.29 1921.1,1161.08 1923.15,1149.39 1925.2,1137.2 1927.24,1124.48 1929.29,1111.19 1931.33,1097.29 1933.38,1082.74 1935.43,1067.49 1937.47,1051.49 1939.52,1034.65 1941.56,1016.9 1943.61,998.132 1945.66,978.217 1947.7,956.988 1949.75,934.22 1951.79,909.597 1953.84,882.636 1955.89,852.505 1957.93,817.411 1959.98,767.738 1962.02,723.167 1964.07,689.076 1966.12,659.532 1968.16,632.987 1970.21,608.687 1972.25,586.183 1974.3,565.176 1976.35,545.454 1978.39,526.856 1980.44,509.257 1982.48,492.558 1984.53,476.677 1986.58,461.545 1988.62,447.105 1990.67,433.308 1992.71,420.109 1994.76,407.473 1996.81,395.365 1998.85,383.755 2000.9,372.618 2002.95,361.93 2004.99,351.668 2007.04,341.814 2009.08,332.348 2011.13,323.256 2013.18,314.52 2015.22,306.128 2017.27,298.067 2019.31,290.324 2021.36,282.887 2023.41,275.747 2025.45,268.894 2027.5,262.318 2029.54,256.011 2031.59,249.964 2033.64,244.169 2035.68,238.62 2037.73,233.309 2039.77,228.229 2041.82,223.376 2043.87,218.741 2045.91,214.32 2047.96,210.108 2050,206.099 2052.05,202.288 2054.1,198.67 2056.14,195.242 2058.19,191.998 2060.23,188.934 2062.28,186.047 2064.33,183.332 2066.37,180.786 2068.42,178.405 2070.46,176.186 2072.51,174.126 2074.56,172.22 2076.6,170.467 2078.65,168.862 2080.69,167.404 2082.74,166.089 2084.79,164.915 2086.83,163.879 2088.88,162.978 2090.92,162.21 2092.97,161.572 2095.02,161.063 2097.06,160.679 2099.11,160.419 2101.15,160.28 2103.2,160.261 2105.25,160.358 2107.29,160.571 2109.34,160.898 2111.39,161.336 2113.43,161.883 2115.48,162.538 2117.52,163.299 2119.57,164.164 2121.62,165.132 2123.66,166.201 2125.71,167.369 2127.75,168.635 2129.8,169.997 2131.85,171.453 2133.89,173.003 2135.94,174.644 2137.98,176.376 2140.03,178.196 2142.08,180.104 2144.12,182.098 2146.17,184.177 2148.21,186.34 2150.26,188.584 2152.31,190.91 2154.35,193.316 2156.4,195.8 2158.44,198.362 2160.49,201 2162.54,203.713 2164.58,206.5 2166.63,209.36 2168.67,212.292 2170.72,215.295 2172.77,218.367 2174.81,221.508 2176.86,224.716 2178.9,227.992 2180.95,231.332 2183,234.738 2185.04,238.207 2187.09,241.739 2189.13,245.332 2191.18,248.987 2193.23,252.701 2195.27,256.474 2197.32,260.306 2199.36,264.195 2201.41,268.14 2203.46,272.141 2205.5,276.196 2207.55,280.306 2209.59,284.468 2211.64,288.683 2213.69,292.949 2215.73,297.265 2217.78,301.632 2219.82,306.047 2221.87,310.511 2223.92,315.023 2225.96,319.581 2228.01,324.185 2230.06,328.834 2232.1,333.528 2234.15,338.266 2236.19,343.047 2238.24,347.87 2240.29,352.735 2242.33,357.641 2244.38,362.587 2246.42,367.572 2248.47,372.597 2250.52,377.66 2252.56,382.76 2254.61,387.898 2256.65,393.071 2258.7,398.28 2260.75,403.524 2262.79,408.803 2264.84,414.115 2266.88,419.46 2268.93,424.837 2270.98,430.247 2273.02,435.687 2275.07,441.158 2277.11,446.659 2279.16,452.189 2281.21,457.748 2283.25,463.335 2285.3,468.949 2287.34,474.591 2289.39,480.258 2291.44,485.952 "/>
<path clip-path="url(#clip230)" d="M258.348 1379.86 L608.031 1379.86 L608.031 1276.18 L258.348 1276.18  Z" fill="#ffffff" fill-rule="evenodd" fill-opacity="1"/>
<polyline clip-path="url(#clip230)" style="stroke:#000000; stroke-linecap:round; stroke-linejoin:round; stroke-width:4; stroke-opacity:1; fill:none" points="258.348,1379.86 608.031,1379.86 608.031,1276.18 258.348,1276.18 258.348,1379.86 "/>
<polyline clip-path="url(#clip230)" style="stroke:#1f77b4; stroke-linecap:round; stroke-linejoin:round; stroke-width:10; stroke-opacity:1; fill:none" points="282.421,1328.02 426.863,1328.02 "/>
<path clip-path="url(#clip230)" d="M484.993 1305.59 L481.972 1317.81 Q481.761 1318.59 481.62 1318.68 Q481.503 1318.78 481.128 1318.78 Q480.402 1318.78 480.402 1318.28 Q480.402 1318.24 480.473 1317.63 Q480.543 1317 480.543 1315.85 Q480.543 1311.61 478.482 1309.1 Q476.444 1306.6 472.814 1306.6 Q469.675 1306.6 466.513 1308.19 Q463.374 1309.78 461.126 1312.38 Q459.439 1314.35 458.198 1316.83 Q456.98 1319.31 456.394 1321.59 Q455.832 1323.86 455.575 1325.57 Q455.317 1327.28 455.317 1328.52 Q455.317 1330.32 455.692 1331.85 Q456.09 1333.37 456.793 1334.44 Q457.495 1335.5 458.385 1336.32 Q459.299 1337.12 460.353 1337.58 Q461.43 1338.05 462.508 1338.29 Q463.585 1338.5 464.709 1338.5 Q469.23 1338.5 473.54 1334.98 Q476.959 1332.1 478.388 1327.39 Q478.505 1326.93 478.997 1326.93 Q479.583 1326.93 479.583 1327.39 Q479.583 1327.49 479.465 1327.96 Q479.348 1328.4 478.997 1329.32 Q478.646 1330.21 478.107 1331.21 Q477.568 1332.22 476.561 1333.48 Q475.554 1334.75 474.313 1335.85 Q472.205 1337.68 469.534 1338.82 Q466.864 1339.97 463.936 1339.97 Q460.282 1339.97 457.331 1338.36 Q454.38 1336.74 452.647 1333.72 Q450.937 1330.7 450.937 1326.83 Q450.937 1322.76 452.811 1318.75 Q454.685 1314.75 457.659 1311.77 Q460.634 1308.8 464.569 1306.95 Q468.504 1305.1 472.439 1305.1 Q473.938 1305.1 475.273 1305.49 Q476.608 1305.89 477.404 1306.38 Q478.224 1306.88 478.95 1307.6 Q479.676 1308.31 479.911 1308.63 Q480.168 1308.96 480.402 1309.36 L483.752 1305.68 Q484.337 1305.1 484.478 1305.1 Q484.759 1305.1 484.876 1305.26 Q484.993 1305.42 484.993 1305.59 Z" fill="#000000" fill-rule="evenodd" fill-opacity="1" /><path clip-path="url(#clip230)" d="M495.151 1306.15 L488.241 1333.88 Q487.96 1334.98 487.96 1336.18 Q487.96 1338.38 489.413 1338.38 Q490.092 1338.38 490.654 1337.93 Q491.216 1337.47 491.638 1336.55 Q492.083 1335.62 492.364 1334.73 Q492.668 1333.84 493.043 1332.45 Q493.16 1331.92 493.277 1331.75 Q493.394 1331.59 493.722 1331.59 Q494.308 1331.59 494.308 1332.06 Q493.722 1334.94 492.856 1336.76 Q491.591 1339.46 489.249 1339.46 Q487.492 1339.46 486.18 1338.24 Q484.892 1337 484.892 1335.03 Q484.892 1334.28 485.126 1333.39 L491.169 1309.41 L491.333 1308.47 Q491.333 1308.21 491.24 1308.07 Q491.146 1307.93 490.584 1307.79 Q490.045 1307.65 488.968 1307.65 Q488.523 1307.65 488.312 1307.63 Q488.124 1307.6 487.937 1307.49 Q487.773 1307.37 487.773 1307.11 Q487.773 1306.69 487.937 1306.46 Q488.124 1306.22 488.265 1306.17 Q488.405 1306.13 488.686 1306.1 Q489.085 1306.08 490.42 1305.96 Q491.755 1305.82 492.902 1305.73 Q494.05 1305.64 494.542 1305.64 Q494.823 1305.64 494.964 1305.78 Q495.128 1305.89 495.151 1306.03 L495.151 1306.15 Z" fill="#000000" fill-rule="evenodd" fill-opacity="1" /><path clip-path="url(#clip230)" d="M500.168 1352.74 Q500.168 1352.13 500.217 1351.95 Q500.283 1351.77 500.545 1351.49 L506.989 1344.31 Q510.514 1340.34 510.514 1336.88 Q510.514 1334.64 509.333 1333.03 Q508.169 1331.42 506.022 1331.42 Q504.546 1331.42 503.3 1332.33 Q502.054 1333.23 501.48 1334.83 Q501.578 1334.8 501.923 1334.8 Q502.759 1334.8 503.218 1335.33 Q503.693 1335.85 503.693 1336.56 Q503.693 1337.46 503.103 1337.9 Q502.529 1338.33 501.955 1338.33 Q501.726 1338.33 501.414 1338.28 Q501.119 1338.23 500.644 1337.77 Q500.168 1337.29 500.168 1336.46 Q500.168 1334.11 501.939 1332.24 Q503.726 1330.38 506.448 1330.38 Q509.53 1330.38 511.547 1332.21 Q513.58 1334.03 513.58 1336.88 Q513.58 1337.88 513.268 1338.8 Q512.973 1339.7 512.563 1340.41 Q512.17 1341.11 511.088 1342.25 Q510.006 1343.38 509.137 1344.18 Q508.268 1344.98 506.317 1346.69 L502.759 1350.15 L508.809 1350.15 Q511.76 1350.15 511.99 1349.89 Q512.317 1349.41 512.727 1346.9 L513.58 1346.9 L512.629 1352.74 L500.168 1352.74 Z" fill="#000000" fill-rule="evenodd" fill-opacity="1" /><path clip-path="url(#clip230)" d="M518.566 1326.93 Q518.566 1318.82 521.588 1312.29 Q522.876 1309.55 524.68 1307.25 Q526.483 1304.96 527.678 1303.95 Q528.872 1302.94 529.2 1302.94 Q529.669 1302.94 529.692 1303.41 Q529.692 1303.64 529.06 1304.23 Q521.33 1312.1 521.354 1326.93 Q521.354 1341.8 528.872 1349.37 Q529.692 1350.18 529.692 1350.44 Q529.692 1350.91 529.2 1350.91 Q528.872 1350.91 527.725 1349.95 Q526.577 1348.99 524.797 1346.79 Q523.017 1344.59 521.728 1341.89 Q518.566 1335.36 518.566 1326.93 Z" fill="#000000" fill-rule="evenodd" fill-opacity="1" /><path clip-path="url(#clip230)" d="M561.604 1324.33 Q561.604 1327.11 560.316 1329.88 Q559.028 1332.64 556.92 1334.75 Q554.835 1336.83 551.978 1338.15 Q549.144 1339.46 546.239 1339.46 Q545.724 1339.46 544.67 1339.34 Q543.03 1347.98 542.984 1348.12 Q542.773 1348.62 542.351 1348.92 Q541.953 1349.22 541.672 1349.29 Q541.391 1349.37 541.204 1349.37 Q540.735 1349.37 540.267 1349.04 Q539.822 1348.73 539.822 1348.03 Q539.822 1347.87 540.056 1347.07 L542.609 1339.01 Q538.744 1338.12 536.519 1335.66 Q534.294 1333.18 534.294 1329.81 Q534.294 1327.65 535.278 1324.84 Q536.261 1322.03 537.456 1320.13 Q538.65 1318.24 539.33 1318.24 Q539.915 1318.24 539.915 1318.73 Q539.915 1318.92 539.541 1319.34 Q537.643 1321.52 536.589 1324.65 Q535.559 1327.77 535.559 1329.27 Q535.559 1331.89 537.573 1333.79 Q539.611 1335.66 543.429 1336.37 Q545.701 1329.01 547.059 1325.92 Q549.8 1319.78 553.36 1318.28 Q554.671 1317.72 556.124 1317.72 Q558.747 1317.72 560.176 1319.57 Q561.604 1321.4 561.604 1324.33 M560.246 1325.38 Q560.246 1324.14 559.801 1323.09 Q559.379 1322.03 558.302 1321.28 Q557.224 1320.51 555.655 1320.51 Q552.517 1320.51 549.893 1323.53 Q547.27 1326.55 546.146 1331.24 L545.185 1336.44 Q545.185 1336.62 545.818 1336.62 Q546.193 1336.67 546.684 1336.67 Q549.355 1336.67 551.884 1335.66 Q554.437 1334.66 556.241 1333.06 Q558.044 1331.47 559.145 1329.43 Q560.246 1327.39 560.246 1325.38 Z" fill="#000000" fill-rule="evenodd" fill-opacity="1" /><path clip-path="url(#clip230)" d="M565.542 1350.44 Q565.542 1350.21 566.151 1349.62 Q573.88 1341.75 573.88 1326.93 Q573.88 1312.05 566.455 1304.53 Q565.542 1303.67 565.542 1303.41 Q565.542 1302.94 566.01 1302.94 Q566.338 1302.94 567.486 1303.9 Q568.657 1304.86 570.414 1307.06 Q572.194 1309.27 573.505 1311.96 Q576.667 1318.49 576.667 1326.93 Q576.667 1335.03 573.646 1341.57 Q572.358 1344.31 570.554 1346.6 Q568.751 1348.9 567.556 1349.9 Q566.362 1350.91 566.01 1350.91 Q565.542 1350.91 565.542 1350.44 Z" fill="#000000" fill-rule="evenodd" fill-opacity="1" /></svg>
