<?xml version="1.0" encoding="utf-8"?>
<svg xmlns="http://www.w3.org/2000/svg" xmlns:xlink="http://www.w3.org/1999/xlink" width="600" height="400" viewBox="0 0 2400 1600">
<defs>
  <clipPath id="clip090">
    <rect x="0" y="0" width="2400" height="1600"/>
  </clipPath>
</defs>
<path clip-path="url(#clip090)" d="M0 1600 L2400 1600 L2400 0 L0 0  Z" fill="#ffffff" fill-rule="evenodd" fill-opacity="1"/>
<defs>
  <clipPath id="clip091">
    <rect x="480" y="0" width="1681" height="1600"/>
  </clipPath>
</defs>
<path clip-path="url(#clip090)" d="M197.419 1423.18 L2352.76 1423.18 L2352.76 123.472 L197.419 123.472  Z" fill="#ffffff" fill-rule="evenodd" fill-opacity="1"/>
<defs>
  <clipPath id="clip092">
    <rect x="197" y="123" width="2156" height="1301"/>
  </clipPath>
</defs>
<polyline clip-path="url(#clip092)" style="stroke:#000000; stroke-linecap:round; stroke-linejoin:round; stroke-width:2; stroke-opacity:0.1; fill:none" points="461.753,1423.18 461.753,123.472 "/>
<polyline clip-path="url(#clip092)" style="stroke:#000000; stroke-linecap:round; stroke-linejoin:round; stroke-width:2; stroke-opacity:0.1; fill:none" points="868.42,1423.18 868.42,123.472 "/>
<polyline clip-path="url(#clip092)" style="stroke:#000000; stroke-linecap:round; stroke-linejoin:round; stroke-width:2; stroke-opacity:0.1; fill:none" points="1275.09,1423.18 1275.09,123.472 "/>
<polyline clip-path="url(#clip092)" style="stroke:#000000; stroke-linecap:round; stroke-linejoin:round; stroke-width:2; stroke-opacity:0.1; fill:none" points="1681.75,1423.18 1681.75,123.472 "/>
<polyline clip-path="url(#clip092)" style="stroke:#000000; stroke-linecap:round; stroke-linejoin:round; stroke-width:2; stroke-opacity:0.1; fill:none" points="2088.42,1423.18 2088.42,123.472 "/>
<polyline clip-path="url(#clip092)" style="stroke:#000000; stroke-linecap:round; stroke-linejoin:round; stroke-width:2; stroke-opacity:0.1; fill:none" points="461.753,1423.18 461.753,123.472 "/>
<polyline clip-path="url(#clip092)" style="stroke:#000000; stroke-linecap:round; stroke-linejoin:round; stroke-width:2; stroke-opacity:0.1; fill:none" points="868.42,1423.18 868.42,123.472 "/>
<polyline clip-path="url(#clip092)" style="stroke:#000000; stroke-linecap:round; stroke-linejoin:round; stroke-width:2; stroke-opacity:0.1; fill:none" points="1275.09,1423.18 1275.09,123.472 "/>
<polyline clip-path="url(#clip092)" style="stroke:#000000; stroke-linecap:round; stroke-linejoin:round; stroke-width:2; stroke-opacity:0.1; fill:none" points="1681.75,1423.18 1681.75,123.472 "/>
<polyline clip-path="url(#clip092)" style="stroke:#000000; stroke-linecap:round; stroke-linejoin:round; stroke-width:2; stroke-opacity:0.1; fill:none" points="2088.42,1423.18 2088.42,123.472 "/>
<polyline clip-path="url(#clip092)" style="stroke:#000000; stroke-linecap:round; stroke-linejoin:round; stroke-width:2; stroke-opacity:0.1; fill:none" points="197.419,1386.4 2352.76,1386.4 "/>
<polyline clip-path="url(#clip092)" style="stroke:#000000; stroke-linecap:round; stroke-linejoin:round; stroke-width:2; stroke-opacity:0.1; fill:none" points="197.419,1120.38 2352.76,1120.38 "/>
<polyline clip-path="url(#clip092)" style="stroke:#000000; stroke-linecap:round; stroke-linejoin:round; stroke-width:2; stroke-opacity:0.1; fill:none" points="197.419,854.354 2352.76,854.354 "/>
<polyline clip-path="url(#clip092)" style="stroke:#000000; stroke-linecap:round; stroke-linejoin:round; stroke-width:2; stroke-opacity:0.1; fill:none" points="197.419,588.334 2352.76,588.334 "/>
<polyline clip-path="url(#clip092)" style="stroke:#000000; stroke-linecap:round; stroke-linejoin:round; stroke-width:2; stroke-opacity:0.1; fill:none" points="197.419,322.313 2352.76,322.313 "/>
<polyline clip-path="url(#clip092)" style="stroke:#000000; stroke-linecap:round; stroke-linejoin:round; stroke-width:2; stroke-opacity:0.1; fill:none" points="197.419,1386.4 2352.76,1386.4 "/>
<polyline clip-path="url(#clip092)" style="stroke:#000000; stroke-linecap:round; stroke-linejoin:round; stroke-width:2; stroke-opacity:0.1; fill:none" points="197.419,1120.38 2352.76,1120.38 "/>
<polyline clip-path="url(#clip092)" style="stroke:#000000; stroke-linecap:round; stroke-linejoin:round; stroke-width:2; stroke-opacity:0.1; fill:none" points="197.419,854.354 2352.76,854.354 "/>
<polyline clip-path="url(#clip092)" style="stroke:#000000; stroke-linecap:round; stroke-linejoin:round; stroke-width:2; stroke-opacity:0.1; fill:none" points="197.419,588.334 2352.76,588.334 "/>
<polyline clip-path="url(#clip092)" style="stroke:#000000; stroke-linecap:round; stroke-linejoin:round; stroke-width:2; stroke-opacity:0.1; fill:none" points="197.419,322.313 2352.76,322.313 "/>
<polyline clip-path="url(#clip090)" style="stroke:#000000; stroke-linecap:round; stroke-linejoin:round; stroke-width:4; stroke-opacity:1; fill:none" points="197.419,1423.18 2352.76,1423.18 "/>
<polyline clip-path="url(#clip090)" style="stroke:#000000; stroke-linecap:round; stroke-linejoin:round; stroke-width:4; stroke-opacity:1; fill:none" points="197.419,123.472 2352.76,123.472 "/>
<polyline clip-path="url(#clip090)" style="stroke:#000000; stroke-linecap:round; stroke-linejoin:round; stroke-width:4; stroke-opacity:1; fill:none" points="461.753,1423.18 461.753,1404.28 "/>
<polyline clip-path="url(#clip090)" style="stroke:#000000; stroke-linecap:round; stroke-linejoin:round; stroke-width:4; stroke-opacity:1; fill:none" points="868.42,1423.18 868.42,1404.28 "/>
<polyline clip-path="url(#clip090)" style="stroke:#000000; stroke-linecap:round; stroke-linejoin:round; stroke-width:4; stroke-opacity:1; fill:none" points="1275.09,1423.18 1275.09,1404.28 "/>
<polyline clip-path="url(#clip090)" style="stroke:#000000; stroke-linecap:round; stroke-linejoin:round; stroke-width:4; stroke-opacity:1; fill:none" points="1681.75,1423.18 1681.75,1404.28 "/>
<polyline clip-path="url(#clip090)" style="stroke:#000000; stroke-linecap:round; stroke-linejoin:round; stroke-width:4; stroke-opacity:1; fill:none" points="2088.42,1423.18 2088.42,1404.28 "/>
<polyline clip-path="url(#clip090)" style="stroke:#000000; stroke-linecap:round; stroke-linejoin:round; stroke-width:4; stroke-opacity:1; fill:none" points="461.753,123.472 461.753,142.37 "/>
<polyline clip-path="url(#clip090)" style="stroke:#000000; stroke-linecap:round; stroke-linejoin:round; stroke-width:4; stroke-opacity:1; fill:none" points="868.42,123.472 868.42,142.37 "/>
<polyline clip-path="url(#clip090)" style="stroke:#000000; stroke-linecap:round; stroke-linejoin:round; stroke-width:4; stroke-opacity:1; fill:none" points="1275.09,123.472 1275.09,142.37 "/>
<polyline clip-path="url(#clip090)" style="stroke:#000000; stroke-linecap:round; stroke-linejoin:round; stroke-width:4; stroke-opacity:1; fill:none" points="1681.75,123.472 1681.75,142.37 "/>
<polyline clip-path="url(#clip090)" style="stroke:#000000; stroke-linecap:round; stroke-linejoin:round; stroke-width:4; stroke-opacity:1; fill:none" points="2088.42,123.472 2088.42,142.37 "/>
<path clip-path="url(#clip090)" d="M465.532 1472.22 Q465.829 1472.51 465.829 1472.93 Q465.829 1473.35 465.532 1473.65 Q465.236 1473.94 464.816 1473.94 L433.146 1473.94 Q432.726 1473.94 432.43 1473.65 Q432.133 1473.35 432.133 1472.93 Q432.133 1472.51 432.43 1472.22 Q432.726 1471.92 433.146 1471.92 L464.816 1471.92 Q465.236 1471.92 465.532 1472.22 Z" fill="#000000" fill-rule="nonzero" fill-opacity="1" /><path clip-path="url(#clip090)" d="M471.165 1485.58 Q471.165 1484.67 471.239 1484.39 Q471.338 1484.12 471.733 1483.7 L481.441 1472.88 Q486.752 1466.9 486.752 1461.69 Q486.752 1458.31 484.974 1455.89 Q483.22 1453.47 479.984 1453.47 Q477.76 1453.47 475.883 1454.82 Q474.006 1456.18 473.141 1458.6 Q473.289 1458.55 473.808 1458.55 Q475.068 1458.55 475.759 1459.34 Q476.476 1460.14 476.476 1461.2 Q476.476 1462.56 475.587 1463.22 Q474.722 1463.87 473.857 1463.87 Q473.511 1463.87 473.042 1463.79 Q472.597 1463.72 471.881 1463.03 Q471.165 1462.31 471.165 1461.05 Q471.165 1457.52 473.833 1454.7 Q476.525 1451.88 480.626 1451.88 Q485.27 1451.88 488.309 1454.65 Q491.372 1457.39 491.372 1461.69 Q491.372 1463.2 490.903 1464.58 Q490.458 1465.94 489.84 1467 Q489.247 1468.07 487.617 1469.77 Q485.987 1471.47 484.677 1472.68 Q483.368 1473.9 480.428 1476.46 L475.068 1481.68 L484.183 1481.68 Q488.63 1481.68 488.976 1481.28 Q489.47 1480.57 490.087 1476.79 L491.372 1476.79 L489.939 1485.58 L471.165 1485.58 Z" fill="#000000" fill-rule="nonzero" fill-opacity="1" /><path clip-path="url(#clip090)" d="M872.965 1472.22 Q873.262 1472.51 873.262 1472.93 Q873.262 1473.35 872.965 1473.65 Q872.669 1473.94 872.249 1473.94 L840.579 1473.94 Q840.159 1473.94 839.863 1473.65 Q839.566 1473.35 839.566 1472.93 Q839.566 1472.51 839.863 1472.22 Q840.159 1471.92 840.579 1471.92 L872.249 1471.92 Q872.669 1471.92 872.965 1472.22 Z" fill="#000000" fill-rule="nonzero" fill-opacity="1" /><path clip-path="url(#clip090)" d="M880.574 1456.7 L880.574 1455.12 Q886.651 1455.12 889.788 1451.88 Q890.653 1451.88 890.801 1452.08 Q890.949 1452.28 890.949 1453.19 L890.949 1481.58 Q890.949 1483.08 891.691 1483.55 Q892.432 1484.02 895.668 1484.02 L897.274 1484.02 L897.274 1485.58 Q895.495 1485.43 889.072 1485.43 Q882.649 1485.43 880.895 1485.58 L880.895 1484.02 L882.501 1484.02 Q885.688 1484.02 886.453 1483.58 Q887.219 1483.11 887.219 1481.58 L887.219 1455.37 Q884.576 1456.7 880.574 1456.7 Z" fill="#000000" fill-rule="nonzero" fill-opacity="1" /><path clip-path="url(#clip090)" d="M1264.44 1469.4 Q1264.44 1461.96 1266.32 1457.91 Q1268.94 1451.88 1275.11 1451.88 Q1276.42 1451.88 1277.78 1452.26 Q1279.16 1452.6 1280.89 1453.96 Q1282.65 1455.32 1283.71 1457.54 Q1285.73 1461.84 1285.73 1469.4 Q1285.73 1476.79 1283.86 1480.81 Q1281.12 1486.69 1275.06 1486.69 Q1272.79 1486.69 1270.47 1485.53 Q1268.17 1484.37 1266.71 1481.58 Q1264.44 1477.4 1264.44 1469.4 M1268.64 1468.78 Q1268.64 1476.41 1269.18 1479.45 Q1269.8 1482.74 1271.48 1484.17 Q1273.19 1485.58 1275.06 1485.58 Q1277.09 1485.58 1278.77 1484.07 Q1280.47 1482.54 1280.99 1479.26 Q1281.56 1476.02 1281.53 1468.78 Q1281.53 1461.74 1281.04 1458.92 Q1280.37 1455.64 1278.6 1454.33 Q1276.84 1453 1275.06 1453 Q1274.4 1453 1273.68 1453.19 Q1272.99 1453.39 1271.97 1453.96 Q1270.96 1454.53 1270.17 1455.94 Q1269.41 1457.34 1269.04 1459.47 Q1268.64 1462.21 1268.64 1468.78 Z" fill="#000000" fill-rule="nonzero" fill-opacity="1" /><path clip-path="url(#clip090)" d="M1673.41 1456.7 L1673.41 1455.12 Q1679.48 1455.12 1682.62 1451.88 Q1683.48 1451.88 1683.63 1452.08 Q1683.78 1452.28 1683.78 1453.19 L1683.78 1481.58 Q1683.78 1483.08 1684.52 1483.55 Q1685.26 1484.02 1688.5 1484.02 L1690.1 1484.02 L1690.1 1485.58 Q1688.33 1485.43 1681.9 1485.43 Q1675.48 1485.43 1673.73 1485.58 L1673.73 1484.02 L1675.33 1484.02 Q1678.52 1484.02 1679.28 1483.58 Q1680.05 1483.11 1680.05 1481.58 L1680.05 1455.37 Q1677.41 1456.7 1673.41 1456.7 Z" fill="#000000" fill-rule="nonzero" fill-opacity="1" /><path clip-path="url(#clip090)" d="M2078.32 1485.58 Q2078.32 1484.67 2078.39 1484.39 Q2078.49 1484.12 2078.89 1483.7 L2088.6 1472.88 Q2093.91 1466.9 2093.91 1461.69 Q2093.91 1458.31 2092.13 1455.89 Q2090.37 1453.47 2087.14 1453.47 Q2084.91 1453.47 2083.04 1454.82 Q2081.16 1456.18 2080.29 1458.6 Q2080.44 1458.55 2080.96 1458.55 Q2082.22 1458.55 2082.91 1459.34 Q2083.63 1460.14 2083.63 1461.2 Q2083.63 1462.56 2082.74 1463.22 Q2081.88 1463.87 2081.01 1463.87 Q2080.67 1463.87 2080.2 1463.79 Q2079.75 1463.72 2079.03 1463.03 Q2078.32 1462.31 2078.32 1461.05 Q2078.32 1457.52 2080.99 1454.7 Q2083.68 1451.88 2087.78 1451.88 Q2092.42 1451.88 2095.46 1454.65 Q2098.53 1457.39 2098.53 1461.69 Q2098.53 1463.2 2098.06 1464.58 Q2097.61 1465.94 2096.99 1467 Q2096.4 1468.07 2094.77 1469.77 Q2093.14 1471.47 2091.83 1472.68 Q2090.52 1473.9 2087.58 1476.46 L2082.22 1481.68 L2091.34 1481.68 Q2095.78 1481.68 2096.13 1481.28 Q2096.62 1480.57 2097.24 1476.79 L2098.53 1476.79 L2097.09 1485.58 L2078.32 1485.58 Z" fill="#000000" fill-rule="nonzero" fill-opacity="1" /><path clip-path="url(#clip090)" d="M1257.56 1568.04 L1257.56 1565.9 Q1263 1565.9 1266.46 1561.73 Q1266.46 1561.73 1272.98 1553.44 L1266.09 1544.47 Q1263.64 1541.35 1262.55 1540.8 Q1261.5 1540.22 1257.9 1540.22 L1257.9 1538.05 Q1260.75 1538.25 1264.49 1538.25 Q1266.56 1538.25 1272.03 1538.05 L1272.03 1540.22 Q1269.58 1540.36 1269.58 1541.96 Q1269.58 1542.5 1270.2 1543.21 L1275.63 1550.25 L1279.94 1544.81 Q1281 1543.55 1281 1542.36 Q1281 1540.43 1278.96 1540.22 L1278.96 1538.05 Q1281.68 1538.25 1285.65 1538.25 Q1288.64 1538.25 1291.36 1538.05 L1291.36 1540.22 Q1286.06 1540.36 1283.07 1543.83 Q1281.74 1545.29 1276.68 1551.71 L1285.99 1563.73 Q1287.11 1565.19 1288.37 1565.56 Q1289.63 1565.9 1292.61 1565.9 L1292.61 1568.04 Q1289.49 1567.84 1285.92 1567.84 Q1284.67 1567.84 1278.42 1568.04 L1278.42 1565.9 Q1279.67 1565.84 1280.28 1565.29 Q1280.93 1564.72 1280.93 1564.14 Q1280.93 1563.87 1279.47 1561.86 L1274.17 1554.9 Q1268.87 1561.15 1268.19 1562.61 Q1267.92 1563.22 1267.92 1563.73 Q1267.92 1565.6 1269.92 1565.9 L1269.92 1568.04 Q1264.93 1567.84 1263.33 1567.84 Q1260.28 1567.84 1257.56 1568.04 Z" fill="#000000" fill-rule="nonzero" fill-opacity="1" /><polyline clip-path="url(#clip090)" style="stroke:#000000; stroke-linecap:round; stroke-linejoin:round; stroke-width:4; stroke-opacity:1; fill:none" points="197.419,1423.18 197.419,123.472 "/>
<polyline clip-path="url(#clip090)" style="stroke:#000000; stroke-linecap:round; stroke-linejoin:round; stroke-width:4; stroke-opacity:1; fill:none" points="2352.76,1423.18 2352.76,123.472 "/>
<polyline clip-path="url(#clip090)" style="stroke:#000000; stroke-linecap:round; stroke-linejoin:round; stroke-width:4; stroke-opacity:1; fill:none" points="197.419,1386.4 216.317,1386.4 "/>
<polyline clip-path="url(#clip090)" style="stroke:#000000; stroke-linecap:round; stroke-linejoin:round; stroke-width:4; stroke-opacity:1; fill:none" points="197.419,1120.38 216.317,1120.38 "/>
<polyline clip-path="url(#clip090)" style="stroke:#000000; stroke-linecap:round; stroke-linejoin:round; stroke-width:4; stroke-opacity:1; fill:none" points="197.419,854.354 216.317,854.354 "/>
<polyline clip-path="url(#clip090)" style="stroke:#000000; stroke-linecap:round; stroke-linejoin:round; stroke-width:4; stroke-opacity:1; fill:none" points="197.419,588.334 216.317,588.334 "/>
<polyline clip-path="url(#clip090)" style="stroke:#000000; stroke-linecap:round; stroke-linejoin:round; stroke-width:4; stroke-opacity:1; fill:none" points="197.419,322.313 216.317,322.313 "/>
<polyline clip-path="url(#clip090)" style="stroke:#000000; stroke-linecap:round; stroke-linejoin:round; stroke-width:4; stroke-opacity:1; fill:none" points="2352.76,1386.4 2333.86,1386.4 "/>
<polyline clip-path="url(#clip090)" style="stroke:#000000; stroke-linecap:round; stroke-linejoin:round; stroke-width:4; stroke-opacity:1; fill:none" points="2352.76,1120.38 2333.86,1120.38 "/>
<polyline clip-path="url(#clip090)" style="stroke:#000000; stroke-linecap:round; stroke-linejoin:round; stroke-width:4; stroke-opacity:1; fill:none" points="2352.76,854.354 2333.86,854.354 "/>
<polyline clip-path="url(#clip090)" style="stroke:#000000; stroke-linecap:round; stroke-linejoin:round; stroke-width:4; stroke-opacity:1; fill:none" points="2352.76,588.334 2333.86,588.334 "/>
<polyline clip-path="url(#clip090)" style="stroke:#000000; stroke-linecap:round; stroke-linejoin:round; stroke-width:4; stroke-opacity:1; fill:none" points="2352.76,322.313 2333.86,322.313 "/>
<path clip-path="url(#clip090)" d="M140.125 1387.5 Q140.125 1380.06 142.002 1376.01 Q144.621 1369.98 150.796 1369.98 Q152.106 1369.98 153.464 1370.35 Q154.848 1370.7 156.577 1372.06 Q158.331 1373.41 159.393 1375.64 Q161.419 1379.94 161.419 1387.5 Q161.419 1394.88 159.541 1398.91 Q156.799 1404.79 150.747 1404.79 Q148.474 1404.79 146.152 1403.63 Q143.855 1402.47 142.397 1399.67 Q140.125 1395.5 140.125 1387.5 M144.324 1386.88 Q144.324 1394.51 144.868 1397.55 Q145.485 1400.83 147.165 1402.27 Q148.87 1403.68 150.747 1403.68 Q152.773 1403.68 154.453 1402.17 Q156.157 1400.64 156.676 1397.35 Q157.244 1394.12 157.219 1386.88 Q157.219 1379.84 156.725 1377.02 Q156.058 1373.74 154.28 1372.43 Q152.526 1371.09 150.747 1371.09 Q150.08 1371.09 149.364 1371.29 Q148.672 1371.49 147.659 1372.06 Q146.646 1372.62 145.856 1374.03 Q145.09 1375.44 144.719 1377.56 Q144.324 1380.31 144.324 1386.88 Z" fill="#000000" fill-rule="nonzero" fill-opacity="1" /><path clip-path="url(#clip090)" d="M117.348 1108.78 L117.348 1107.2 Q123.425 1107.2 126.562 1103.96 Q127.427 1103.96 127.575 1104.16 Q127.723 1104.35 127.723 1105.27 L127.723 1133.65 Q127.723 1135.16 128.465 1135.63 Q129.206 1136.1 132.442 1136.1 L134.048 1136.1 L134.048 1137.66 Q132.269 1137.51 125.846 1137.51 Q119.423 1137.51 117.669 1137.66 L117.669 1136.1 L119.275 1136.1 Q122.462 1136.1 123.227 1135.65 Q123.993 1135.18 123.993 1133.65 L123.993 1107.44 Q121.35 1108.78 117.348 1108.78 Z" fill="#000000" fill-rule="nonzero" fill-opacity="1" /><path clip-path="url(#clip090)" d="M140.125 1121.47 Q140.125 1114.04 142.002 1109.99 Q144.621 1103.96 150.796 1103.96 Q152.106 1103.96 153.464 1104.33 Q154.848 1104.68 156.577 1106.03 Q158.331 1107.39 159.393 1109.62 Q161.419 1113.92 161.419 1121.47 Q161.419 1128.86 159.541 1132.89 Q156.799 1138.77 150.747 1138.77 Q148.474 1138.77 146.152 1137.61 Q143.855 1136.44 142.397 1133.65 Q140.125 1129.48 140.125 1121.47 M144.324 1120.86 Q144.324 1128.49 144.868 1131.53 Q145.485 1134.81 147.165 1136.25 Q148.87 1137.66 150.747 1137.66 Q152.773 1137.66 154.453 1136.15 Q156.157 1134.62 156.676 1131.33 Q157.244 1128.09 157.219 1120.86 Q157.219 1113.82 156.725 1111 Q156.058 1107.71 154.28 1106.41 Q152.526 1105.07 150.747 1105.07 Q150.08 1105.07 149.364 1105.27 Q148.672 1105.47 147.659 1106.03 Q146.646 1106.6 145.856 1108.01 Q145.09 1109.42 144.719 1111.54 Q144.324 1114.29 144.324 1120.86 Z" fill="#000000" fill-rule="nonzero" fill-opacity="1" /><path clip-path="url(#clip090)" d="M115.372 871.634 Q115.372 870.72 115.446 870.449 Q115.545 870.177 115.94 869.757 L125.648 858.937 Q130.96 852.959 130.96 847.746 Q130.96 844.362 129.181 841.941 Q127.427 839.52 124.191 839.52 Q121.968 839.52 120.09 840.879 Q118.213 842.237 117.348 844.658 Q117.496 844.609 118.015 844.609 Q119.275 844.609 119.967 845.399 Q120.683 846.19 120.683 847.252 Q120.683 848.611 119.794 849.278 Q118.929 849.92 118.064 849.92 Q117.719 849.92 117.249 849.846 Q116.805 849.772 116.088 849.08 Q115.372 848.364 115.372 847.104 Q115.372 843.571 118.04 840.755 Q120.732 837.939 124.833 837.939 Q129.477 837.939 132.516 840.706 Q135.579 843.448 135.579 847.746 Q135.579 849.253 135.11 850.637 Q134.665 851.995 134.048 853.058 Q133.455 854.12 131.824 855.824 Q130.194 857.529 128.885 858.739 Q127.575 859.95 124.636 862.519 L119.275 867.731 L128.39 867.731 Q132.837 867.731 133.183 867.336 Q133.677 866.62 134.295 862.84 L135.579 862.84 L134.146 871.634 L115.372 871.634 Z" fill="#000000" fill-rule="nonzero" fill-opacity="1" /><path clip-path="url(#clip090)" d="M140.125 855.454 Q140.125 848.018 142.002 843.967 Q144.621 837.939 150.796 837.939 Q152.106 837.939 153.464 838.31 Q154.848 838.655 156.577 840.014 Q158.331 841.373 159.393 843.596 Q161.419 847.895 161.419 855.454 Q161.419 862.84 159.541 866.867 Q156.799 872.746 150.747 872.746 Q148.474 872.746 146.152 871.585 Q143.855 870.424 142.397 867.633 Q140.125 863.458 140.125 855.454 M144.324 854.836 Q144.324 862.47 144.868 865.508 Q145.485 868.794 147.165 870.226 Q148.87 871.634 150.747 871.634 Q152.773 871.634 154.453 870.128 Q156.157 868.596 156.676 865.31 Q157.244 862.074 157.219 854.836 Q157.219 847.796 156.725 844.98 Q156.058 841.694 154.28 840.385 Q152.526 839.051 150.747 839.051 Q150.08 839.051 149.364 839.248 Q148.672 839.446 147.659 840.014 Q146.646 840.582 145.856 841.99 Q145.09 843.399 144.719 845.523 Q144.324 848.265 144.324 854.836 Z" fill="#000000" fill-rule="nonzero" fill-opacity="1" /><path clip-path="url(#clip090)" d="M114.977 598.796 Q114.977 597.289 115.841 596.572 Q116.706 595.856 117.817 595.856 Q118.978 595.856 119.794 596.622 Q120.634 597.363 120.634 598.672 Q120.634 600.08 119.645 600.871 Q118.682 601.661 117.299 601.464 Q118.509 603.489 120.732 604.403 Q122.98 605.317 125.056 605.317 Q127.229 605.317 128.983 603.44 Q130.762 601.562 130.762 596.968 Q130.762 593.065 129.23 590.817 Q127.723 588.568 124.734 588.568 L122.511 588.568 Q121.745 588.568 121.523 588.494 Q121.301 588.42 121.301 588 Q121.301 587.506 122.066 587.407 Q122.832 587.407 124.043 587.259 Q126.982 587.16 128.539 584.616 Q129.947 582.244 129.947 578.86 Q129.947 575.772 128.465 574.488 Q127.007 573.178 125.105 573.178 Q123.326 573.178 121.375 573.919 Q119.423 574.661 118.361 576.316 Q121.498 576.316 121.498 578.86 Q121.498 579.972 120.782 580.713 Q120.09 581.429 118.929 581.429 Q117.817 581.429 117.076 580.738 Q116.335 580.021 116.335 578.811 Q116.335 575.92 118.904 573.919 Q121.498 571.918 125.303 571.918 Q129.057 571.918 131.824 573.895 Q134.616 575.871 134.616 578.909 Q134.616 581.899 132.639 584.344 Q130.663 586.79 127.526 587.803 Q131.38 588.568 133.677 591.187 Q135.974 593.781 135.974 596.968 Q135.974 600.92 132.862 603.835 Q129.749 606.725 125.204 606.725 Q121.004 606.725 117.99 604.453 Q114.977 602.18 114.977 598.796 Z" fill="#000000" fill-rule="nonzero" fill-opacity="1" /><path clip-path="url(#clip090)" d="M140.125 589.433 Q140.125 581.997 142.002 577.946 Q144.621 571.918 150.796 571.918 Q152.106 571.918 153.464 572.289 Q154.848 572.635 156.577 573.994 Q158.331 575.352 159.393 577.576 Q161.419 581.874 161.419 589.433 Q161.419 596.819 159.541 600.846 Q156.799 606.725 150.747 606.725 Q148.474 606.725 146.152 605.564 Q143.855 604.403 142.397 601.612 Q140.125 597.437 140.125 589.433 M144.324 588.816 Q144.324 596.449 144.868 599.487 Q145.485 602.773 147.165 604.206 Q148.87 605.614 150.747 605.614 Q152.773 605.614 154.453 604.107 Q156.157 602.575 156.676 599.29 Q157.244 596.054 157.219 588.816 Q157.219 581.775 156.725 578.959 Q156.058 575.673 154.28 574.364 Q152.526 573.03 150.747 573.03 Q150.08 573.03 149.364 573.228 Q148.672 573.425 147.659 573.994 Q146.646 574.562 145.856 575.97 Q145.09 577.378 144.719 579.502 Q144.324 582.244 144.324 588.816 Z" fill="#000000" fill-rule="nonzero" fill-opacity="1" /><path clip-path="url(#clip090)" d="M114.26 331.243 L114.26 329.687 L129.799 305.947 Q130.194 305.33 130.811 305.354 Q131.38 305.354 131.503 305.577 Q131.627 305.799 131.627 306.664 L131.627 329.687 L136.691 329.687 L136.691 331.243 L131.627 331.243 L131.627 335.641 Q131.627 337.098 132.219 337.567 Q132.837 338.037 135.456 338.037 L136.518 338.037 L136.518 339.593 Q134.443 339.445 129.65 339.445 Q124.883 339.445 122.808 339.593 L122.808 338.037 L123.87 338.037 Q126.488 338.037 127.106 337.592 Q127.723 337.123 127.723 335.641 L127.723 331.243 L114.26 331.243 M115.693 329.687 L128.02 329.687 L128.02 310.814 L115.693 329.687 Z" fill="#000000" fill-rule="nonzero" fill-opacity="1" /><path clip-path="url(#clip090)" d="M140.125 323.412 Q140.125 315.977 142.002 311.925 Q144.621 305.898 150.796 305.898 Q152.106 305.898 153.464 306.268 Q154.848 306.614 156.577 307.973 Q158.331 309.332 159.393 311.555 Q161.419 315.853 161.419 323.412 Q161.419 330.799 159.541 334.825 Q156.799 340.705 150.747 340.705 Q148.474 340.705 146.152 339.544 Q143.855 338.383 142.397 335.591 Q140.125 331.416 140.125 323.412 M144.324 322.795 Q144.324 330.428 144.868 333.467 Q145.485 336.752 147.165 338.185 Q148.87 339.593 150.747 339.593 Q152.773 339.593 154.453 338.086 Q156.157 336.555 156.676 333.269 Q157.244 330.033 157.219 322.795 Q157.219 315.754 156.725 312.938 Q156.058 309.653 154.28 308.343 Q152.526 307.009 150.747 307.009 Q150.08 307.009 149.364 307.207 Q148.672 307.405 147.659 307.973 Q146.646 308.541 145.856 309.949 Q145.09 311.357 144.719 313.482 Q144.324 316.224 144.324 322.795 Z" fill="#000000" fill-rule="nonzero" fill-opacity="1" /><path clip-path="url(#clip090)" d="M21.7688 828.64 Q23.0893 828.64 23.0893 829.735 Q23.1537 831.668 23.5402 832.988 Q23.8944 834.309 24.6029 835.082 Q25.3115 835.822 26.0844 836.241 Q26.8252 836.628 27.9524 836.885 L51.366 842.747 Q57.9682 844.421 62.7669 849.832 Q67.5334 855.243 67.5334 861.394 Q67.5334 864.904 66.0841 867.835 Q64.6348 870.734 61.7041 872.537 Q58.7734 874.341 54.8765 874.341 Q53.0085 874.341 51.044 873.857 L34.7478 869.864 L28.9507 868.382 Q24.6674 867.287 24.2809 867.287 Q23.669 867.287 23.5079 867.674 Q23.3147 868.028 23.2181 869.059 L23.0893 871.571 Q23.0893 872.344 23.0571 872.666 Q23.0249 872.956 22.8638 873.181 Q22.7028 873.407 22.3485 873.407 Q21.8977 873.407 21.6078 873.31 Q21.2857 873.181 21.1891 872.956 Q21.0925 872.73 21.0603 872.569 Q21.0281 872.408 21.0281 872.151 L21.2213 863.648 L21.0281 855.21 Q21.0281 854.276 21.7688 854.276 Q22.7028 854.276 22.896 854.695 Q23.0893 855.114 23.0893 856.531 Q23.0893 858.946 23.4113 860.041 Q23.7012 861.104 24.2165 861.426 Q24.6996 861.716 26.1166 862.07 L51.7847 868.479 Q53.0729 868.801 54.3612 868.994 Q55.6172 869.155 56.2613 869.155 L56.9054 869.188 Q60.9956 869.188 63.25 866.933 Q65.5044 864.647 65.5044 861.136 Q65.5044 855.983 61.4142 851.185 Q57.3241 846.354 50.9151 844.711 L27.3726 838.785 Q26.7929 838.592 25.9878 838.592 Q24.6996 838.592 23.9266 839.558 Q23.1215 840.492 23.0893 843.069 Q23.0893 844.26 22.3485 844.26 Q21.7366 844.26 21.4468 844.035 Q21.1247 843.777 21.0925 843.584 Q21.0281 843.359 21.0281 843.069 Q21.0281 841.974 21.1247 839.655 Q21.2213 837.336 21.2213 836.209 Q21.2213 835.082 21.1247 832.827 Q21.0281 830.573 21.0281 829.478 Q21.0281 829.091 21.2213 828.898 Q21.3824 828.673 21.5756 828.64 L21.7688 828.64 Z" fill="#000000" fill-rule="nonzero" fill-opacity="1" /><path clip-path="url(#clip090)" d="M49.5947 821.298 Q38.4515 821.298 29.466 817.144 Q25.6979 815.373 22.5418 812.893 Q19.3856 810.413 18.0007 808.77 Q16.6159 807.128 16.6159 806.677 Q16.6159 806.033 17.26 806.001 Q17.5821 806.001 18.3872 806.87 Q29.2084 817.498 49.5947 817.466 Q70.0454 817.466 80.4479 807.128 Q81.5751 806.001 81.9294 806.001 Q82.5735 806.001 82.5735 806.677 Q82.5735 807.128 81.2531 808.706 Q79.9326 810.284 76.9053 812.732 Q73.8779 815.179 70.1742 816.951 Q61.1888 821.298 49.5947 821.298 Z" fill="#000000" fill-rule="nonzero" fill-opacity="1" /><path clip-path="url(#clip090)" d="M56.6478 769.722 Q60.8023 770.592 63.1856 771.719 Q66.8248 773.522 66.8248 776.582 Q66.8248 778.901 65.4078 780.543 Q63.9907 782.186 61.8651 782.572 Q66.8248 786.791 66.8248 791.171 Q66.8248 795.036 63.8941 797.483 Q60.9312 799.931 56.2613 799.931 Q51.5593 799.931 47.0504 797.612 Q42.5416 795.261 39.7397 791.558 Q36.9378 787.854 36.9378 784.054 Q36.9378 780.028 41.1568 777.967 Q39.9973 777.806 39.1278 777.065 Q38.2582 776.324 38.2582 775.197 Q38.2582 774.327 38.7413 773.812 Q39.1922 773.297 40.0296 773.297 Q40.4482 773.297 42.284 773.748 L51.4948 776.131 L57.4529 777.58 Q59.6429 778.128 60.4481 778.289 Q61.2532 778.418 62.316 778.418 Q65.3434 778.418 65.3434 776.453 Q65.3434 775.487 64.7314 774.714 Q64.1195 773.941 62.8313 773.329 Q61.5431 772.717 60.3515 772.331 Q59.1276 771.944 57.1953 771.429 Q56.4223 771.268 56.2291 771.139 Q56.0037 770.978 56.0037 770.527 Q56.0037 769.722 56.6478 769.722 M44.1841 778.772 Q43.8943 778.772 43.0891 778.997 Q42.284 779.223 41.1568 779.738 Q40.0296 780.253 39.2244 781.38 Q38.3871 782.475 38.3871 783.957 Q38.3871 785.954 40.094 788.047 Q41.8009 790.108 44.6994 791.622 Q47.0182 792.781 51.8813 794.037 Q56.7444 795.261 59.1598 795.261 Q60.6413 795.261 61.9617 794.939 Q63.25 794.585 64.3128 793.587 Q65.3434 792.588 65.3434 791.042 Q65.3434 787.274 60.6735 783.57 Q59.8684 782.862 59.5463 782.701 Q59.192 782.508 58.2259 782.25 L45.3113 778.965 Q44.3451 778.772 44.1841 778.772 Z" fill="#000000" fill-rule="nonzero" fill-opacity="1" /><path clip-path="url(#clip090)" d="M65.0213 764.451 Q63.9585 765.385 62.5737 765.385 Q61.1888 765.385 60.1582 764.483 Q59.0954 763.549 59.0954 761.875 Q59.0954 759.91 60.9956 758.783 Q62.8635 757.656 66.0197 757.656 Q69.4335 757.656 72.5897 759.04 Q75.7781 760.425 77.2917 761.778 Q78.8054 763.131 78.8054 763.678 Q78.8054 764.322 78.0969 764.322 Q77.8392 764.322 77.3561 763.871 Q72.2676 759.137 66.0197 759.105 Q65.0213 759.105 65.0213 759.234 L65.1501 759.395 Q66.0841 760.522 66.0841 761.875 Q66.0841 763.517 65.0213 764.451 Z" fill="#000000" fill-rule="nonzero" fill-opacity="1" /><path clip-path="url(#clip090)" d="M41.2856 703.99 Q43.0891 703.99 44.1197 705.117 Q45.1181 706.244 45.1181 707.533 Q45.1181 708.756 44.4096 709.401 Q43.701 710.045 42.7993 710.045 Q41.5754 710.045 40.5126 709.143 Q39.4498 708.241 39.2244 706.888 Q38.3871 708.209 38.3871 710.173 Q38.3871 711.462 39.0634 712.589 Q39.7397 713.684 40.6093 714.36 Q41.4788 715.004 42.7348 715.584 Q43.9587 716.132 44.6994 716.357 Q45.4079 716.55 46.1809 716.711 L55.1985 718.966 Q59.4819 720.061 60.9956 720.061 Q62.8635 720.061 64.1195 719.159 Q65.3434 718.257 65.3434 716.454 Q65.3434 715.745 65.1501 714.94 Q64.9247 714.135 64.345 713.104 Q63.7331 712.041 62.8313 711.107 Q61.8973 710.141 60.3192 709.207 Q58.7412 708.273 56.7122 707.661 Q56.0037 707.468 56.0037 706.824 Q56.0037 706.019 56.6478 706.019 Q57.1953 706.019 58.3547 706.47 Q59.4819 706.888 60.9634 707.822 Q62.4126 708.724 63.7331 709.916 Q65.0213 711.107 65.9231 712.879 Q66.8248 714.65 66.8248 716.582 Q66.8248 719.352 65.3434 721.188 Q63.8619 723.024 61.8007 723.7 Q62.0906 723.861 62.477 724.086 Q62.8635 724.312 63.7331 724.988 Q64.5704 725.632 65.2145 726.373 Q65.8264 727.114 66.3095 728.273 Q66.8248 729.4 66.8248 730.624 Q66.8248 732.17 66.3739 733.555 Q65.9231 734.908 64.8925 735.874 Q63.8619 736.84 62.4448 736.84 Q60.8667 736.84 59.7717 735.777 Q58.6445 734.682 58.6445 733.201 Q58.6445 732.267 59.192 731.526 Q59.7395 730.753 60.9312 730.753 Q62.2516 730.753 63.25 731.655 Q64.2484 732.557 64.506 733.845 Q65.3434 732.524 65.3434 730.56 Q65.3434 728.434 63.4754 726.759 Q61.6075 725.085 58.4835 724.28 Q50.9795 722.283 47.6301 721.51 Q44.2485 720.737 42.7993 720.737 Q41.4466 720.737 40.5126 721.091 Q39.5787 721.446 39.16 722.057 Q38.7091 722.637 38.5481 723.185 Q38.3871 723.7 38.3871 724.28 Q38.3871 725.246 38.7735 726.341 Q39.16 727.404 40.0618 728.692 Q40.9313 729.948 42.7348 731.139 Q44.5384 732.331 47.0182 733.136 Q47.759 733.297 47.759 734.006 Q47.7268 734.779 47.0826 734.779 Q46.5351 734.779 45.4079 734.36 Q44.2485 733.909 42.7993 733.007 Q41.35 732.073 40.0618 730.882 Q38.7413 729.658 37.8396 727.887 Q36.9378 726.083 36.9378 724.151 Q36.9378 723.281 37.131 722.444 Q37.2921 721.574 37.7751 720.544 Q38.2582 719.481 39.321 718.547 Q40.3838 717.613 41.9297 717.033 Q41.189 716.647 40.4804 716.132 Q39.7719 715.584 38.9023 714.747 Q38.0006 713.877 37.4853 712.686 Q36.9378 711.462 36.9378 710.109 Q36.9378 708.789 37.2921 707.5 Q37.6141 706.212 38.6769 705.117 Q39.7075 703.99 41.2856 703.99 Z" fill="#000000" fill-rule="nonzero" fill-opacity="1" /><path clip-path="url(#clip090)" d="M81.9294 697.639 Q81.6073 697.639 80.8022 696.801 Q69.981 686.174 49.5947 686.174 Q29.144 686.174 18.8059 696.383 Q17.6143 697.639 17.26 697.639 Q16.6159 697.639 16.6159 696.995 Q16.6159 696.544 17.9363 694.966 Q19.2568 693.355 22.2841 690.94 Q25.3115 688.492 29.0151 686.689 Q38.0006 682.341 49.5947 682.341 Q60.7379 682.341 69.7234 686.496 Q73.4914 688.267 76.6476 690.747 Q79.8038 693.227 81.1886 694.869 Q82.5735 696.512 82.5735 696.995 Q82.5735 697.639 81.9294 697.639 Z" fill="#000000" fill-rule="nonzero" fill-opacity="1" /><path clip-path="url(#clip090)" d="M593.228 72.576 L593.228 69.8525 L595.347 69.8525 Q600.145 69.8525 601.226 69.0743 Q602.35 68.2529 602.35 65.6591 L602.35 19.0129 Q602.35 16.4623 601.226 15.6842 Q600.102 14.8628 595.347 14.8628 L593.228 14.8628 L593.228 12.096 L624.484 12.096 Q633.433 12.096 639.399 17.0243 Q645.365 21.9526 645.365 28.567 Q645.365 35.1381 639.269 39.8935 Q633.217 44.6056 625.176 44.6056 L610.218 44.6056 L610.218 65.6591 Q610.218 68.2097 611.299 69.0311 Q612.423 69.8525 617.221 69.8525 L619.34 69.8525 L619.34 72.576 Q616.227 72.3166 606.241 72.3166 Q596.341 72.3166 593.228 72.576 M609.959 42.3144 L622.15 42.3144 Q626.127 42.3144 629.024 41.1904 Q631.92 40.0664 633.217 38.7262 Q634.557 37.3428 635.292 35.1381 Q636.07 32.8901 636.157 31.6796 Q636.243 30.4259 636.243 28.567 Q636.243 26.6216 636.157 25.4111 Q636.07 24.1574 635.292 21.9526 Q634.557 19.7046 633.217 18.3645 Q631.92 16.9811 629.024 15.9435 Q626.17 14.8628 622.15 14.8628 L614.282 14.8628 Q611.256 14.8628 610.607 15.468 Q609.959 16.0732 609.959 18.4077 L609.959 42.3144 Z" fill="#000000" fill-rule="nonzero" fill-opacity="1" /><path clip-path="url(#clip090)" d="M651.547 64.146 Q651.547 56.6238 660.409 52.6466 Q665.727 50.0959 676.707 49.4475 L676.707 46.2052 Q676.707 40.7148 673.811 37.8184 Q670.957 34.8787 667.326 34.8787 Q660.841 34.8787 657.729 38.9424 Q660.366 39.0288 661.317 40.369 Q662.268 41.6659 662.268 43.0061 Q662.268 44.7785 661.144 45.9458 Q660.063 47.0698 658.204 47.0698 Q656.432 47.0698 655.265 45.989 Q654.097 44.865 654.097 42.9196 Q654.097 38.5965 657.988 35.7433 Q661.922 32.8901 667.499 32.8901 Q674.762 32.8901 679.604 37.7751 Q681.117 39.2882 681.852 41.2336 Q682.63 43.179 682.716 44.4759 Q682.803 45.7296 682.803 48.237 L682.803 65.9184 Q682.803 66.4372 682.976 67.3018 Q683.149 68.1665 683.927 69.2905 Q684.748 70.3712 686.088 70.3712 Q689.287 70.3712 689.244 64.708 L689.244 59.7364 L691.492 59.7364 L691.492 64.708 Q691.492 69.4201 688.985 71.2791 Q686.521 73.0948 684.229 73.0948 Q681.29 73.0948 679.431 70.9332 Q677.572 68.7717 677.312 65.832 Q675.972 69.204 672.903 71.4088 Q669.877 73.5703 665.727 73.5703 Q662.527 73.5703 659.501 72.7489 Q656.518 71.9708 654.011 69.766 Q651.547 67.518 651.547 64.146 M658.377 64.0595 Q658.377 67.3451 660.712 69.4634 Q663.046 71.5817 666.332 71.5817 Q670.05 71.5817 673.378 68.7285 Q676.707 65.832 676.707 60.1687 L676.707 51.3064 Q666.894 51.6523 662.614 55.5863 Q658.377 59.477 658.377 64.0595 Z" fill="#000000" fill-rule="nonzero" fill-opacity="1" /><path clip-path="url(#clip090)" d="M694.562 72.576 L694.562 69.8525 Q699.274 69.8525 700.354 69.2905 Q701.478 68.6852 701.478 65.832 L701.478 42.0982 Q701.478 38.8127 700.311 37.9913 Q699.187 37.1699 694.562 37.1699 L694.562 34.4031 L706.882 33.4521 L706.882 43.179 Q708.136 39.3747 710.773 36.435 Q713.453 33.4521 717.777 33.4521 Q720.63 33.4521 722.445 35.0516 Q724.304 36.6511 724.304 38.8559 Q724.304 40.8013 723.094 41.7956 Q721.927 42.7467 720.5 42.7467 Q718.901 42.7467 717.777 41.7524 Q716.696 40.7148 716.696 38.9424 Q716.696 37.8616 717.171 37.0402 Q717.69 36.1756 718.079 35.873 Q718.468 35.5704 718.728 35.4839 Q718.555 35.3974 717.777 35.3974 Q712.891 35.3974 710.081 40.2825 Q707.315 45.1244 707.315 52.0413 L707.315 65.6591 Q707.315 68.2097 708.352 69.0311 Q709.433 69.8525 714.059 69.8525 L715.918 69.8525 L715.918 72.576 Q712.373 72.3166 704.678 72.3166 Q703.597 72.3166 701.911 72.3598 Q700.225 72.4031 698.02 72.4895 Q695.815 72.576 694.562 72.576 Z" fill="#000000" fill-rule="nonzero" fill-opacity="1" /><path clip-path="url(#clip090)" d="M730.4 64.146 Q730.4 56.6238 739.262 52.6466 Q744.58 50.0959 755.56 49.4475 L755.56 46.2052 Q755.56 40.7148 752.664 37.8184 Q749.811 34.8787 746.179 34.8787 Q739.695 34.8787 736.582 38.9424 Q739.219 39.0288 740.17 40.369 Q741.121 41.6659 741.121 43.0061 Q741.121 44.7785 739.997 45.9458 Q738.916 47.0698 737.057 47.0698 Q735.285 47.0698 734.118 45.989 Q732.951 44.865 732.951 42.9196 Q732.951 38.5965 736.841 35.7433 Q740.775 32.8901 746.352 32.8901 Q753.615 32.8901 758.457 37.7751 Q759.97 39.2882 760.705 41.2336 Q761.483 43.179 761.569 44.4759 Q761.656 45.7296 761.656 48.237 L761.656 65.9184 Q761.656 66.4372 761.829 67.3018 Q762.002 68.1665 762.78 69.2905 Q763.601 70.3712 764.941 70.3712 Q768.14 70.3712 768.097 64.708 L768.097 59.7364 L770.345 59.7364 L770.345 64.708 Q770.345 69.4201 767.838 71.2791 Q765.374 73.0948 763.082 73.0948 Q760.143 73.0948 758.284 70.9332 Q756.425 68.7717 756.166 65.832 Q754.825 69.204 751.756 71.4088 Q748.73 73.5703 744.58 73.5703 Q741.381 73.5703 738.354 72.7489 Q735.371 71.9708 732.864 69.766 Q730.4 67.518 730.4 64.146 M737.23 64.0595 Q737.23 67.3451 739.565 69.4634 Q741.899 71.5817 745.185 71.5817 Q748.903 71.5817 752.232 68.7285 Q755.56 65.832 755.56 60.1687 L755.56 51.3064 Q745.747 51.6523 741.467 55.5863 Q737.23 59.477 737.23 64.0595 Z" fill="#000000" fill-rule="nonzero" fill-opacity="1" /><path clip-path="url(#clip090)" d="M773.415 14.8628 L773.415 12.096 L786.168 11.1449 L786.168 39.2018 Q791.312 33.4521 798.316 33.4521 Q805.924 33.4521 811.501 39.2882 Q817.078 45.1244 817.078 53.468 Q817.078 61.898 811.242 67.7341 Q805.406 73.5703 797.321 73.5703 Q789.972 73.5703 785.735 67.0857 Q782.623 72.4895 782.536 72.576 L780.332 72.576 L780.332 19.7911 Q780.332 16.5055 779.164 15.6842 Q777.997 14.8628 773.415 14.8628 M786.427 62.5032 Q786.427 64.3621 787.681 66.2211 Q791.183 71.5817 796.889 71.5817 Q796.932 71.5817 796.975 71.5817 Q803.157 71.5817 807.005 65.9184 Q809.729 61.6818 809.729 53.3815 Q809.729 45.1676 807.178 41.0607 Q803.633 35.3974 797.883 35.3974 Q791.399 35.3974 787.421 41.0607 Q786.427 42.4873 786.427 44.2598 L786.427 62.5032 Z" fill="#000000" fill-rule="nonzero" fill-opacity="1" /><path clip-path="url(#clip090)" d="M830.825 67.8206 Q824.989 62.0277 824.989 53.6409 Q824.989 45.2109 830.696 39.0721 Q836.445 32.8901 844.659 32.8901 Q852.7 32.8901 858.45 39.0288 Q864.243 45.1244 864.243 53.6409 Q864.243 61.9844 858.407 67.7774 Q852.614 73.5703 844.573 73.5703 Q836.705 73.5703 830.825 67.8206 M832.338 52.9059 Q832.338 61.5089 834.586 65.3997 Q838.045 71.3223 844.659 71.3223 Q847.945 71.3223 850.668 69.5498 Q853.435 67.7774 854.948 64.7944 Q856.893 60.9037 856.893 52.9059 Q856.893 44.3895 854.559 40.6284 Q851.101 34.8787 844.573 34.8787 Q841.719 34.8787 838.909 36.3918 Q836.143 37.8616 834.457 40.8013 Q832.338 44.6921 832.338 52.9059 Z" fill="#000000" fill-rule="nonzero" fill-opacity="1" /><path clip-path="url(#clip090)" d="M869.733 72.576 L869.733 69.8525 Q874.445 69.8525 875.526 69.2905 Q876.607 68.6852 876.607 65.832 L876.607 19.7911 Q876.607 16.5055 875.44 15.6842 Q874.316 14.8628 869.733 14.8628 L869.733 12.096 L882.443 11.1449 L882.443 65.832 Q882.443 68.6852 883.567 69.2905 Q884.691 69.8525 889.36 69.8525 L889.36 72.576 Q888.279 72.576 886.031 72.4895 Q883.783 72.4031 882.14 72.3598 Q880.498 72.3166 879.546 72.3166 Q878.509 72.3166 869.733 72.576 Z" fill="#000000" fill-rule="nonzero" fill-opacity="1" /><path clip-path="url(#clip090)" d="M894.245 72.576 L894.245 69.8525 Q898.957 69.8525 900.038 69.2905 Q901.119 68.6852 901.119 65.832 L901.119 42.0118 Q901.119 38.7262 899.995 37.9481 Q898.914 37.1699 894.591 37.1699 L894.591 34.4031 L906.955 33.4521 L906.955 65.9184 Q906.955 68.5555 907.906 69.204 Q908.857 69.8525 913.18 69.8525 L913.18 72.576 Q904.145 72.3166 903.972 72.3166 Q902.761 72.3166 894.245 72.576 M897.963 18.0186 Q897.963 16.2462 899.303 14.8195 Q900.686 13.3497 902.632 13.3497 Q904.577 13.3497 905.961 14.6899 Q907.344 15.9868 907.344 18.0619 Q907.344 20.0937 905.961 21.4339 Q904.577 22.7308 902.632 22.7308 Q900.6 22.7308 899.26 21.3042 Q897.963 19.8776 897.963 18.0186 Z" fill="#000000" fill-rule="nonzero" fill-opacity="1" /><path clip-path="url(#clip090)" d="M924.463 67.7341 Q918.843 61.8547 918.843 53.468 Q918.843 45.0379 924.377 38.9856 Q929.91 32.8901 938.038 32.8901 Q943.442 32.8901 947.505 35.4839 Q951.569 38.0345 951.569 42.4008 Q951.569 44.3462 950.402 45.4702 Q949.278 46.551 947.505 46.551 Q945.646 46.551 944.522 45.427 Q943.442 44.2598 943.442 42.4873 Q943.442 41.7092 943.701 40.931 Q943.96 40.1528 944.912 39.3315 Q945.906 38.5101 947.592 38.3804 Q944.436 35.1381 938.297 35.1381 Q938.211 35.1381 938.124 35.1381 Q933.628 35.1381 929.91 39.3747 Q926.193 43.6113 926.193 53.295 Q926.193 58.353 927.403 62.0709 Q928.657 65.7455 930.689 67.6477 Q932.72 69.5498 934.709 70.4577 Q936.698 71.3223 938.643 71.3223 Q947.332 71.3223 950.272 62.0277 Q950.532 61.163 951.396 61.163 Q952.563 61.163 952.563 62.0277 Q952.563 62.46 952.218 63.584 Q951.872 64.708 950.791 66.4804 Q949.71 68.2529 948.154 69.8092 Q946.641 71.3223 943.917 72.4463 Q941.237 73.5703 937.865 73.5703 Q930.083 73.5703 924.463 67.7341 Z" fill="#000000" fill-rule="nonzero" fill-opacity="1" /><path clip-path="url(#clip090)" d="M989.526 42.3144 Q989.526 28.956 998.648 19.5749 Q1007.77 10.1506 1020.31 10.1506 Q1024.2 10.1506 1027.66 11.5772 Q1031.11 13.0038 1032.71 14.2575 Q1034.31 15.468 1036.6 17.7592 L1041.06 11.2314 Q1041.75 10.1506 1042.44 10.1506 Q1043.18 10.1506 1043.31 10.5829 Q1043.43 10.972 1043.43 12.2689 L1043.43 33.2791 Q1043.43 34.7057 1043.26 35.0516 Q1043.09 35.3974 1042.01 35.3974 Q1041.14 35.3974 1040.93 35.1381 Q1040.75 34.8787 1040.58 33.8844 Q1039.24 24.3303 1033.92 18.6239 Q1028.65 12.9174 1021.3 12.9174 Q1019.18 12.9174 1016.8 13.3929 Q1014.47 13.8685 1011.05 15.6842 Q1007.68 17.4999 1005.05 20.526 Q1002.45 23.509 1000.55 29.2154 Q998.648 34.8787 998.648 42.4008 Q998.648 49.8366 1000.55 55.543 Q1002.45 61.2495 1005.05 64.2324 Q1007.68 67.1721 1011.05 68.9878 Q1014.47 70.8035 1016.85 71.3223 Q1019.27 71.7978 1021.39 71.7978 Q1029 71.7978 1034.83 66.394 Q1040.67 60.9901 1041.23 51.8684 Q1041.32 51.4361 1041.32 51.2632 Q1041.32 51.047 1041.4 50.8309 Q1041.49 50.6147 1041.71 50.5283 Q1041.92 50.4418 1042.27 50.4418 Q1043.43 50.4418 1043.43 51.9549 Q1043.43 60.3849 1036.95 67.4748 Q1030.51 74.5214 1020.31 74.5214 Q1007.73 74.5214 998.604 65.1835 Q989.526 55.8456 989.526 42.3144 Z" fill="#000000" fill-rule="nonzero" fill-opacity="1" /><path clip-path="url(#clip090)" d="M1050.14 83.5566 Q1050.14 81.6977 1051.22 80.7034 Q1052.34 79.7523 1053.85 79.7523 Q1055.45 79.7523 1056.49 80.7466 Q1057.57 81.7842 1057.57 83.4702 Q1057.57 86.7557 1054.11 87.188 Q1055.8 88.7876 1058.26 88.7876 Q1060.9 88.7876 1063.02 86.8422 Q1065.18 84.8968 1066.09 83.0379 Q1067.04 81.1789 1068.38 77.8069 Q1069.63 75.1699 1070.58 72.576 L1057.31 40.2393 Q1056.45 38.121 1055.11 37.6454 Q1053.77 37.1699 1050.14 37.1699 L1050.14 34.4031 Q1054.11 34.6625 1058.74 34.6625 Q1061.46 34.6625 1068.38 34.4031 L1068.38 37.1699 Q1063.41 37.1699 1063.41 39.4611 Q1063.41 39.7205 1063.93 41.0607 L1073.78 64.8809 L1082.73 43.0925 Q1083.25 41.8388 1083.25 40.9742 Q1083.25 37.3428 1079.1 37.1699 L1079.1 34.4031 Q1084.94 34.6625 1086.8 34.6625 Q1090.43 34.6625 1093.41 34.4031 L1093.41 37.1699 Q1087.49 37.1699 1085.2 42.8332 L1069.59 80.6169 Q1065.35 90.6897 1058.26 90.733 Q1054.89 90.733 1052.51 88.6579 Q1050.14 86.5828 1050.14 83.5566 Z" fill="#000000" fill-rule="nonzero" fill-opacity="1" /><path clip-path="url(#clip090)" d="M1098.04 72.576 L1098.04 69.8525 Q1102.75 69.8525 1103.83 69.2905 Q1104.91 68.6852 1104.91 65.832 L1104.91 19.7911 Q1104.91 16.5055 1103.74 15.6842 Q1102.62 14.8628 1098.04 14.8628 L1098.04 12.096 L1110.75 11.1449 L1110.75 65.832 Q1110.75 68.6852 1111.87 69.2905 Q1112.99 69.8525 1117.66 69.8525 L1117.66 72.576 Q1116.58 72.576 1114.33 72.4895 Q1112.09 72.4031 1110.44 72.3598 Q1108.8 72.3166 1107.85 72.3166 Q1106.81 72.3166 1098.04 72.576 Z" fill="#000000" fill-rule="nonzero" fill-opacity="1" /><path clip-path="url(#clip090)" d="M1122.55 72.576 L1122.55 69.8525 Q1127.26 69.8525 1128.34 69.2905 Q1129.42 68.6852 1129.42 65.832 L1129.42 42.0118 Q1129.42 38.7262 1128.3 37.9481 Q1127.22 37.1699 1122.89 37.1699 L1122.89 34.4031 L1135.26 33.4521 L1135.26 65.9184 Q1135.26 68.5555 1136.21 69.204 Q1137.16 69.8525 1141.48 69.8525 L1141.48 72.576 Q1132.45 72.3166 1132.27 72.3166 Q1131.06 72.3166 1122.55 72.576 M1126.27 18.0186 Q1126.27 16.2462 1127.61 14.8195 Q1128.99 13.3497 1130.93 13.3497 Q1132.88 13.3497 1134.26 14.6899 Q1135.65 15.9868 1135.65 18.0619 Q1135.65 20.0937 1134.26 21.4339 Q1132.88 22.7308 1130.93 22.7308 Q1128.9 22.7308 1127.56 21.3042 Q1126.27 19.8776 1126.27 18.0186 Z" fill="#000000" fill-rule="nonzero" fill-opacity="1" /><path clip-path="url(#clip090)" d="M1146.97 72.576 L1146.97 69.8525 Q1151.68 69.8525 1152.77 69.2905 Q1153.85 68.6852 1153.85 65.832 L1153.85 42.0982 Q1153.85 38.8127 1152.68 37.9913 Q1151.56 37.1699 1146.97 37.1699 L1146.97 34.4031 L1159.42 33.4521 L1159.42 42.7467 Q1163.57 33.4521 1172.52 33.4521 Q1179.18 33.4521 1181.82 36.7376 Q1183.76 38.9424 1184.15 41.4065 Q1184.58 43.8707 1184.58 50.2689 L1184.58 67.1721 Q1184.67 69.0311 1186.1 69.4634 Q1187.52 69.8525 1191.5 69.8525 L1191.5 72.576 Q1182.47 72.3166 1181.56 72.3166 Q1180.87 72.3166 1171.57 72.576 L1171.57 69.8525 Q1176.28 69.8525 1177.36 69.2905 Q1178.49 68.6852 1178.49 65.832 L1178.49 45.2109 Q1178.49 40.7148 1177.1 38.0778 Q1175.72 35.3974 1171.92 35.3974 Q1167.33 35.3974 1163.66 39.245 Q1159.99 43.0925 1159.99 49.5772 L1159.99 65.832 Q1159.99 68.6852 1161.07 69.2905 Q1162.19 69.8525 1166.86 69.8525 L1166.86 72.576 Q1157.82 72.3166 1156.96 72.3166 Q1156.27 72.3166 1146.97 72.576 Z" fill="#000000" fill-rule="nonzero" fill-opacity="1" /><path clip-path="url(#clip090)" d="M1196.26 53.5544 Q1196.26 45.1244 1202.14 39.2882 Q1208.01 33.4521 1215.97 33.4521 Q1222.71 33.4521 1227.12 38.9424 L1227.12 19.7911 Q1227.12 16.5055 1225.96 15.6842 Q1224.83 14.8628 1220.25 14.8628 L1220.25 12.096 L1233 11.1449 L1233 64.8809 Q1233 68.1665 1234.13 69.0311 Q1235.29 69.8525 1239.88 69.8525 L1239.88 72.576 L1226.86 73.5703 L1226.86 67.6909 Q1222.28 73.5271 1215.02 73.5703 Q1207.41 73.5703 1201.83 67.7341 Q1196.26 61.898 1196.26 53.5544 M1203.61 53.6409 Q1203.61 61.8547 1206.16 65.9184 Q1209.7 71.5817 1215.45 71.5817 Q1222.02 71.5817 1225.91 65.3997 Q1226.91 63.8866 1226.86 62.1141 L1226.86 43.9572 Q1226.86 42.1847 1225.91 40.7148 Q1222.28 35.3974 1216.36 35.3974 Q1210.18 35.3974 1206.33 41.0607 Q1203.61 45.2973 1203.61 53.6409 Z" fill="#000000" fill-rule="nonzero" fill-opacity="1" /><path clip-path="url(#clip090)" d="M1244.8 53.0789 Q1244.8 44.7353 1250.16 38.8127 Q1255.53 32.8901 1263.22 32.8901 Q1271 32.8901 1275.02 37.9481 Q1279.09 43.0061 1279.09 50.2689 Q1279.09 51.609 1278.74 51.8684 Q1278.39 52.1278 1276.88 52.1278 L1252.15 52.1278 Q1252.15 61.163 1254.83 65.3997 Q1258.55 71.3223 1264.82 71.3223 Q1265.68 71.3223 1266.72 71.1494 Q1267.76 70.9765 1269.88 70.2415 Q1272 69.4634 1273.86 67.4315 Q1275.71 65.3997 1276.8 62.2006 Q1277.05 60.9469 1277.92 60.9901 Q1279.09 60.9901 1279.09 62.0277 Q1279.09 62.8058 1278.22 64.5783 Q1277.4 66.3075 1275.8 68.3826 Q1274.2 70.4577 1271.09 72.014 Q1268.02 73.5703 1264.3 73.5703 Q1256.52 73.5703 1250.64 67.6909 Q1244.8 61.7683 1244.8 53.0789 M1252.24 50.2689 L1273.25 50.2689 Q1273.25 48.4099 1272.9 46.3349 Q1272.6 44.2598 1271.65 41.4065 Q1270.74 38.5101 1268.58 36.6944 Q1266.42 34.8787 1263.22 34.8787 Q1261.79 34.8787 1260.24 35.4839 Q1258.72 36.0891 1256.87 37.559 Q1255.01 39.0288 1253.71 42.3576 Q1252.41 45.6864 1252.24 50.2689 Z" fill="#000000" fill-rule="nonzero" fill-opacity="1" /><path clip-path="url(#clip090)" d="M1284.1 72.576 L1284.1 69.8525 Q1288.81 69.8525 1289.89 69.2905 Q1291.02 68.6852 1291.02 65.832 L1291.02 42.0982 Q1291.02 38.8127 1289.85 37.9913 Q1288.73 37.1699 1284.1 37.1699 L1284.1 34.4031 L1296.42 33.4521 L1296.42 43.179 Q1297.68 39.3747 1300.31 36.435 Q1302.99 33.4521 1307.32 33.4521 Q1310.17 33.4521 1311.98 35.0516 Q1313.84 36.6511 1313.84 38.8559 Q1313.84 40.8013 1312.63 41.7956 Q1311.47 42.7467 1310.04 42.7467 Q1308.44 42.7467 1307.32 41.7524 Q1306.24 40.7148 1306.24 38.9424 Q1306.24 37.8616 1306.71 37.0402 Q1307.23 36.1756 1307.62 35.873 Q1308.01 35.5704 1308.27 35.4839 Q1308.09 35.3974 1307.32 35.3974 Q1302.43 35.3974 1299.62 40.2825 Q1296.85 45.1244 1296.85 52.0413 L1296.85 65.6591 Q1296.85 68.2097 1297.89 69.0311 Q1298.97 69.8525 1303.6 69.8525 L1305.46 69.8525 L1305.46 72.576 Q1301.91 72.3166 1294.22 72.3166 Q1293.14 72.3166 1291.45 72.3598 Q1289.76 72.4031 1287.56 72.4895 Q1285.35 72.576 1284.1 72.576 Z" fill="#000000" fill-rule="nonzero" fill-opacity="1" /><path clip-path="url(#clip090)" d="M1348.6 72.576 L1348.6 69.8525 L1350.72 69.8525 Q1355.52 69.8525 1356.6 69.0743 Q1357.72 68.2529 1357.72 65.6591 L1357.72 19.2723 Q1357.72 16.7217 1356.6 15.9435 Q1355.48 15.1222 1350.72 15.1222 L1348.6 15.1222 L1348.6 12.3554 L1397.19 12.3554 L1399.66 32.2848 L1397.45 32.2848 Q1396.85 27.2268 1396.03 24.3736 Q1395.25 21.4771 1393.43 19.1859 Q1391.62 16.8946 1388.55 16.03 Q1385.52 15.1222 1380.55 15.1222 L1369.91 15.1222 Q1366.89 15.1222 1366.24 15.7706 Q1365.59 16.3759 1365.59 18.6671 L1365.59 41.0607 L1373.2 41.0607 Q1379.21 41.0607 1380.89 38.8991 Q1382.58 36.7376 1382.58 30.6853 L1384.79 30.6853 L1384.79 54.1596 L1382.58 54.1596 Q1382.58 48.0641 1380.89 45.9458 Q1379.21 43.7842 1373.2 43.7842 L1365.59 43.7842 L1365.59 65.5726 Q1365.59 67.4315 1365.89 68.1665 Q1366.2 68.8581 1368.06 69.3769 Q1369.91 69.8525 1373.98 69.8525 L1376.92 69.8525 L1376.92 72.576 Q1373.72 72.3166 1362.05 72.3166 Q1351.71 72.3166 1348.6 72.576 Z" fill="#000000" fill-rule="nonzero" fill-opacity="1" /><path clip-path="url(#clip090)" d="M1398.88 37.1699 L1398.88 34.4031 L1411.89 33.4521 L1411.89 62.8491 Q1411.89 64.9674 1412.06 66.2211 Q1412.24 67.4315 1412.93 68.8581 Q1413.66 70.2848 1415.31 70.9332 Q1416.99 71.5817 1419.67 71.5817 Q1424.47 71.5817 1427.41 67.6477 Q1430.39 63.7137 1430.39 57.8775 L1430.39 42.0982 Q1430.39 38.8127 1429.23 37.9913 Q1428.06 37.1699 1423.48 37.1699 L1423.48 34.4031 L1436.49 33.4521 L1436.49 64.8809 Q1436.49 68.1665 1437.61 69.0311 Q1438.78 69.8525 1443.41 69.8525 L1443.41 72.576 L1430.65 73.5703 L1430.65 65.5726 Q1426.94 73.5271 1419.24 73.5703 Q1415.35 73.5703 1412.67 72.576 Q1410.03 71.5817 1408.69 70.3712 Q1407.35 69.1175 1406.62 66.7398 Q1405.93 64.3621 1405.84 62.8923 Q1405.75 61.4224 1405.75 58.5692 L1405.75 45.2973 Q1405.75 39.2882 1404.89 38.2507 Q1404.02 37.1699 1398.88 37.1699 Z" fill="#000000" fill-rule="nonzero" fill-opacity="1" /><path clip-path="url(#clip090)" d="M1447.99 72.576 L1447.99 69.8525 Q1452.7 69.8525 1453.78 69.2905 Q1454.86 68.6852 1454.86 65.832 L1454.86 42.0982 Q1454.86 38.8127 1453.7 37.9913 Q1452.57 37.1699 1447.99 37.1699 L1447.99 34.4031 L1460.44 33.4521 L1460.44 42.7467 Q1464.59 33.4521 1473.54 33.4521 Q1480.2 33.4521 1482.83 36.7376 Q1484.78 38.9424 1485.17 41.4065 Q1485.6 43.8707 1485.6 50.2689 L1485.6 67.1721 Q1485.69 69.0311 1487.11 69.4634 Q1488.54 69.8525 1492.52 69.8525 L1492.52 72.576 Q1483.48 72.3166 1482.57 72.3166 Q1481.88 72.3166 1472.59 72.576 L1472.59 69.8525 Q1477.3 69.8525 1478.38 69.2905 Q1479.5 68.6852 1479.5 65.832 L1479.5 45.2109 Q1479.5 40.7148 1478.12 38.0778 Q1476.74 35.3974 1472.93 35.3974 Q1468.35 35.3974 1464.68 39.245 Q1461 43.0925 1461 49.5772 L1461 65.832 Q1461 68.6852 1462.08 69.2905 Q1463.21 69.8525 1467.88 69.8525 L1467.88 72.576 Q1458.84 72.3166 1457.98 72.3166 Q1457.28 72.3166 1447.99 72.576 Z" fill="#000000" fill-rule="nonzero" fill-opacity="1" /><path clip-path="url(#clip090)" d="M1502.89 67.7341 Q1497.27 61.8547 1497.27 53.468 Q1497.27 45.0379 1502.81 38.9856 Q1508.34 32.8901 1516.47 32.8901 Q1521.87 32.8901 1525.93 35.4839 Q1530 38.0345 1530 42.4008 Q1530 44.3462 1528.83 45.4702 Q1527.71 46.551 1525.93 46.551 Q1524.08 46.551 1522.95 45.427 Q1521.87 44.2598 1521.87 42.4873 Q1521.87 41.7092 1522.13 40.931 Q1522.39 40.1528 1523.34 39.3315 Q1524.34 38.5101 1526.02 38.3804 Q1522.87 35.1381 1516.73 35.1381 Q1516.64 35.1381 1516.55 35.1381 Q1512.06 35.1381 1508.34 39.3747 Q1504.62 43.6113 1504.62 53.295 Q1504.62 58.353 1505.83 62.0709 Q1507.09 65.7455 1509.12 67.6477 Q1511.15 69.5498 1513.14 70.4577 Q1515.13 71.3223 1517.07 71.3223 Q1525.76 71.3223 1528.7 62.0277 Q1528.96 61.163 1529.83 61.163 Q1530.99 61.163 1530.99 62.0277 Q1530.99 62.46 1530.65 63.584 Q1530.3 64.708 1529.22 66.4804 Q1528.14 68.2529 1526.58 69.8092 Q1525.07 71.3223 1522.35 72.4463 Q1519.67 73.5703 1516.29 73.5703 Q1508.51 73.5703 1502.89 67.7341 Z" fill="#000000" fill-rule="nonzero" fill-opacity="1" /><path clip-path="url(#clip090)" d="M1535.23 37.1699 L1535.23 35.2245 Q1539.29 35.0516 1541.97 32.1984 Q1544.7 29.3019 1545.6 25.757 Q1546.56 22.212 1546.64 18.1051 L1548.85 18.1051 L1548.85 34.4031 L1561.51 34.4031 L1561.51 37.1699 L1548.85 37.1699 L1548.85 61.7683 Q1548.85 71.3223 1554.81 71.3223 Q1557.36 71.3223 1559.05 68.7285 Q1560.74 66.0914 1560.74 61.4224 L1560.74 56.5373 L1562.94 56.5373 L1562.94 61.5954 Q1562.94 66.394 1560.74 69.9821 Q1558.53 73.5703 1554.16 73.5703 Q1552.56 73.5703 1550.97 73.138 Q1549.41 72.7489 1547.33 71.7114 Q1545.3 70.6306 1544.01 68.0368 Q1542.75 65.3997 1542.75 61.5954 L1542.75 37.1699 L1535.23 37.1699 Z" fill="#000000" fill-rule="nonzero" fill-opacity="1" /><path clip-path="url(#clip090)" d="M1570.81 72.576 L1570.81 69.8525 Q1575.52 69.8525 1576.6 69.2905 Q1577.68 68.6852 1577.68 65.832 L1577.68 42.0118 Q1577.68 38.7262 1576.56 37.9481 Q1575.48 37.1699 1571.15 37.1699 L1571.15 34.4031 L1583.52 33.4521 L1583.52 65.9184 Q1583.52 68.5555 1584.47 69.204 Q1585.42 69.8525 1589.74 69.8525 L1589.74 72.576 Q1580.71 72.3166 1580.54 72.3166 Q1579.32 72.3166 1570.81 72.576 M1574.53 18.0186 Q1574.53 16.2462 1575.87 14.8195 Q1577.25 13.3497 1579.2 13.3497 Q1581.14 13.3497 1582.52 14.6899 Q1583.91 15.9868 1583.91 18.0619 Q1583.91 20.0937 1582.52 21.4339 Q1581.14 22.7308 1579.2 22.7308 Q1577.16 22.7308 1575.82 21.3042 Q1574.53 19.8776 1574.53 18.0186 Z" fill="#000000" fill-rule="nonzero" fill-opacity="1" /><path clip-path="url(#clip090)" d="M1600.68 67.8206 Q1594.84 62.0277 1594.84 53.6409 Q1594.84 45.2109 1600.55 39.0721 Q1606.3 32.8901 1614.51 32.8901 Q1622.56 32.8901 1628.31 39.0288 Q1634.1 45.1244 1634.1 53.6409 Q1634.1 61.9844 1628.26 67.7774 Q1622.47 73.5703 1614.43 73.5703 Q1606.56 73.5703 1600.68 67.8206 M1602.19 52.9059 Q1602.19 61.5089 1604.44 65.3997 Q1607.9 71.3223 1614.51 71.3223 Q1617.8 71.3223 1620.52 69.5498 Q1623.29 67.7774 1624.8 64.7944 Q1626.75 60.9037 1626.75 52.9059 Q1626.75 44.3895 1624.41 40.6284 Q1620.96 34.8787 1614.43 34.8787 Q1611.57 34.8787 1608.76 36.3918 Q1606 37.8616 1604.31 40.8013 Q1602.19 44.6921 1602.19 52.9059 Z" fill="#000000" fill-rule="nonzero" fill-opacity="1" /><path clip-path="url(#clip090)" d="M1639.5 72.576 L1639.5 69.8525 Q1644.21 69.8525 1645.3 69.2905 Q1646.38 68.6852 1646.38 65.832 L1646.38 42.0982 Q1646.38 38.8127 1645.21 37.9913 Q1644.08 37.1699 1639.5 37.1699 L1639.5 34.4031 L1651.95 33.4521 L1651.95 42.7467 Q1656.1 33.4521 1665.05 33.4521 Q1671.71 33.4521 1674.35 36.7376 Q1676.29 38.9424 1676.68 41.4065 Q1677.11 43.8707 1677.11 50.2689 L1677.11 67.1721 Q1677.2 69.0311 1678.63 69.4634 Q1680.05 69.8525 1684.03 69.8525 L1684.03 72.576 Q1674.99 72.3166 1674.09 72.3166 Q1673.4 72.3166 1664.1 72.576 L1664.1 69.8525 Q1668.81 69.8525 1669.89 69.2905 Q1671.02 68.6852 1671.02 65.832 L1671.02 45.2109 Q1671.02 40.7148 1669.63 38.0778 Q1668.25 35.3974 1664.45 35.3974 Q1659.86 35.3974 1656.19 39.245 Q1652.51 43.0925 1652.51 49.5772 L1652.51 65.832 Q1652.51 68.6852 1653.6 69.2905 Q1654.72 69.8525 1659.39 69.8525 L1659.39 72.576 Q1650.35 72.3166 1649.49 72.3166 Q1648.8 72.3166 1639.5 72.576 Z" fill="#000000" fill-rule="nonzero" fill-opacity="1" /><path clip-path="url(#clip090)" d="M1718.14 14.8628 L1718.14 12.096 Q1721.25 12.3554 1731.24 12.3554 Q1741.14 12.3554 1744.25 12.096 L1744.25 14.8628 L1742.13 14.8628 Q1737.33 14.8628 1736.21 15.6842 Q1735.13 16.4623 1735.13 19.0129 L1735.13 52.733 Q1735.13 58.6557 1736.77 62.7626 Q1738.41 66.8263 1740.96 68.642 Q1743.52 70.4577 1745.59 71.1494 Q1747.71 71.7978 1749.74 71.7978 Q1756.48 71.7978 1761.59 66.4372 Q1766.73 61.0766 1766.73 52.1278 L1766.73 21.3906 Q1766.73 20.0505 1766.56 19.2723 Q1766.38 18.4942 1765.61 17.2837 Q1764.87 16.0732 1762.84 15.468 Q1760.81 14.8628 1757.61 14.8628 L1757.61 12.096 Q1767.16 12.3554 1768.16 12.3554 Q1769.02 12.3554 1778.58 12.096 L1778.58 14.8628 Q1775.38 14.8628 1773.34 15.4248 Q1771.31 15.9868 1770.58 17.2405 Q1769.84 18.4942 1769.63 19.402 Q1769.45 20.2666 1769.45 21.7365 L1769.45 50.0959 Q1769.45 54.419 1769.19 56.1915 Q1768.03 63.8866 1762.54 69.204 Q1757.09 74.5214 1749.57 74.5214 Q1740.45 74.5214 1733.83 68.1232 Q1727.26 61.6818 1727.26 52.3872 L1727.26 19.0129 Q1727.26 16.4623 1726.14 15.6842 Q1725.01 14.8628 1720.26 14.8628 L1718.14 14.8628 Z" fill="#000000" fill-rule="nonzero" fill-opacity="1" /><path clip-path="url(#clip090)" d="M1790.38 50.4418 Q1790.38 35.4839 1795.95 23.4225 Q1798.33 18.3645 1801.66 14.1279 Q1804.99 9.89123 1807.19 8.0323 Q1809.4 6.17337 1810 6.17337 Q1810.87 6.17337 1810.91 7.03799 Q1810.91 7.4703 1809.75 8.55107 Q1795.48 23.0766 1795.52 50.4418 Q1795.52 77.8934 1809.4 91.857 Q1810.91 93.3701 1810.91 93.8456 Q1810.91 94.7102 1810 94.7102 Q1809.4 94.7102 1807.28 92.9377 Q1805.16 91.1653 1801.88 87.1016 Q1798.59 83.0379 1796.21 78.0663 Q1790.38 66.0049 1790.38 50.4418 Z" fill="#000000" fill-rule="nonzero" fill-opacity="1" /><path clip-path="url(#clip090)" d="M1819.65 64.146 Q1819.65 56.6238 1828.51 52.6466 Q1833.82 50.0959 1844.81 49.4475 L1844.81 46.2052 Q1844.81 40.7148 1841.91 37.8184 Q1839.06 34.8787 1835.42 34.8787 Q1828.94 34.8787 1825.83 38.9424 Q1828.46 39.0288 1829.42 40.369 Q1830.37 41.6659 1830.37 43.0061 Q1830.37 44.7785 1829.24 45.9458 Q1828.16 47.0698 1826.3 47.0698 Q1824.53 47.0698 1823.36 45.989 Q1822.2 44.865 1822.2 42.9196 Q1822.2 38.5965 1826.09 35.7433 Q1830.02 32.8901 1835.6 32.8901 Q1842.86 32.8901 1847.7 37.7751 Q1849.22 39.2882 1849.95 41.2336 Q1850.73 43.179 1850.81 44.4759 Q1850.9 45.7296 1850.9 48.237 L1850.9 65.9184 Q1850.9 66.4372 1851.07 67.3018 Q1851.25 68.1665 1852.03 69.2905 Q1852.85 70.3712 1854.19 70.3712 Q1857.39 70.3712 1857.34 64.708 L1857.34 59.7364 L1859.59 59.7364 L1859.59 64.708 Q1859.59 69.4201 1857.08 71.2791 Q1854.62 73.0948 1852.33 73.0948 Q1849.39 73.0948 1847.53 70.9332 Q1845.67 68.7717 1845.41 65.832 Q1844.07 69.204 1841 71.4088 Q1837.98 73.5703 1833.82 73.5703 Q1830.63 73.5703 1827.6 72.7489 Q1824.62 71.9708 1822.11 69.766 Q1819.65 67.518 1819.65 64.146 M1826.48 64.0595 Q1826.48 67.3451 1828.81 69.4634 Q1831.14 71.5817 1834.43 71.5817 Q1838.15 71.5817 1841.48 68.7285 Q1844.81 65.832 1844.81 60.1687 L1844.81 51.3064 Q1834.99 51.6523 1830.71 55.5863 Q1826.48 59.477 1826.48 64.0595 Z" fill="#000000" fill-rule="nonzero" fill-opacity="1" /><path clip-path="url(#clip090)" d="M1869.06 71.1494 Q1867.8 69.7228 1867.8 67.8638 Q1867.8 66.0049 1869.01 64.6215 Q1870.27 63.1949 1872.52 63.1949 Q1875.15 63.1949 1876.67 65.7455 Q1878.18 68.2529 1878.18 72.4895 Q1878.18 77.072 1876.32 81.3086 Q1874.46 85.5885 1872.65 87.6203 Q1870.83 89.6522 1870.1 89.6522 Q1869.23 89.6522 1869.23 88.7011 Q1869.23 88.3553 1869.84 87.7068 Q1876.19 80.8763 1876.23 72.4895 Q1876.23 71.1494 1876.06 71.1494 L1875.85 71.3223 Q1874.33 72.576 1872.52 72.576 Q1870.31 72.576 1869.06 71.1494 Z" fill="#000000" fill-rule="nonzero" fill-opacity="1" /><path clip-path="url(#clip090)" d="M1885.79 72.576 L1885.79 69.8525 Q1892.71 69.8525 1897.11 64.5351 Q1897.11 64.5351 1905.42 53.9867 L1896.64 42.5738 Q1893.53 38.5965 1892.14 37.9048 Q1890.8 37.1699 1886.22 37.1699 L1886.22 34.4031 Q1889.85 34.6625 1894.61 34.6625 Q1897.24 34.6625 1904.2 34.4031 L1904.2 37.1699 Q1901.09 37.3428 1901.09 39.3747 Q1901.09 40.0664 1901.87 40.9742 L1908.79 49.923 L1914.28 43.0061 Q1915.62 41.4065 1915.62 39.8935 Q1915.62 37.4293 1913.02 37.1699 L1913.02 34.4031 Q1916.48 34.6625 1921.54 34.6625 Q1925.34 34.6625 1928.8 34.4031 L1928.8 37.1699 Q1922.06 37.3428 1918.25 41.7524 Q1916.57 43.6113 1910.13 51.7819 L1921.97 67.0857 Q1923.4 68.9446 1925 69.4201 Q1926.6 69.8525 1930.4 69.8525 L1930.4 72.576 Q1926.43 72.3166 1921.89 72.3166 Q1920.29 72.3166 1912.33 72.576 L1912.33 69.8525 Q1913.93 69.766 1914.71 69.0743 Q1915.53 68.3394 1915.53 67.6044 Q1915.53 67.2586 1913.67 64.708 L1906.93 55.8456 Q1900.18 63.8001 1899.32 65.6591 Q1898.97 66.4372 1898.97 67.0857 Q1898.97 69.4634 1901.52 69.8525 L1901.52 72.576 Q1895.17 72.3166 1893.14 72.3166 Q1889.25 72.3166 1885.79 72.576 Z" fill="#000000" fill-rule="nonzero" fill-opacity="1" /><path clip-path="url(#clip090)" d="M1936.41 93.8456 Q1936.41 93.4133 1937.54 92.3325 Q1951.8 77.8069 1951.8 50.4418 Q1951.8 22.9902 1938.1 9.11307 Q1936.41 7.51353 1936.41 7.03799 Q1936.41 6.17337 1937.28 6.17337 Q1937.88 6.17337 1940 7.94584 Q1942.16 9.7183 1945.4 13.782 Q1948.69 17.8457 1951.11 22.8173 Q1956.95 34.8787 1956.95 50.4418 Q1956.95 65.3997 1951.37 77.4611 Q1948.99 82.5191 1945.66 86.7557 Q1942.33 90.9924 1940.13 92.8513 Q1937.92 94.7102 1937.28 94.7102 Q1936.41 94.7102 1936.41 93.8456 Z" fill="#000000" fill-rule="nonzero" fill-opacity="1" /><polyline clip-path="url(#clip092)" style="stroke:#1f77b4; stroke-linecap:round; stroke-linejoin:round; stroke-width:10; stroke-opacity:1; fill:none" points="258.419,1070.25 278.752,1089.5 299.086,1107.26 319.419,1123.67 339.752,1138.84 360.086,1152.88 380.419,1165.89 400.753,1177.96 421.086,1189.16 441.419,1199.57 461.753,1209.26 482.086,1218.28 502.419,1226.7 522.753,1234.55 543.086,1241.89 563.419,1248.75 583.753,1255.18 604.086,1261.21 624.42,1266.87 644.753,1272.18 665.086,1277.18 685.42,1281.9 705.753,1286.34 726.086,1290.54 746.42,1294.5 766.753,1298.26 787.087,1301.82 807.42,1305.19 827.753,1308.4 848.087,1311.45 868.42,1314.36 888.753,1317.13 909.087,1319.78 929.42,1322.3 949.753,1324.72 970.087,1327.04 990.42,1329.26 1010.75,1331.39 1031.09,1333.44 1051.42,1335.42 1071.75,1337.31 1092.09,1339.14 1112.42,1340.91 1132.75,1342.61 1153.09,1344.25 1173.42,1345.84 1193.75,1347.38 1214.09,1348.87 1234.42,1350.31 1254.75,1351.7 1275.09,1353.06 1295.42,1354.36 1315.75,1355.63 1336.09,1356.86 1356.42,1358.06 1376.75,1359.22 1397.09,1360.34 1417.42,1361.43 1437.75,1362.48 1458.09,1363.5 1478.42,1364.5 1498.75,1365.46 1519.09,1366.39 1539.42,1367.29 1559.75,1368.16 1580.09,1369 1600.42,1369.82 1620.75,1370.61 1641.09,1371.37 1661.42,1372.1 1681.75,1372.81 1702.09,1373.5 1722.42,1374.15 1742.75,1374.79 1763.09,1375.4 1783.42,1375.98 1803.75,1376.55 1824.09,1377.09 1844.42,1377.61 1864.76,1378.1 1885.09,1378.58 1905.42,1379.03 1925.76,1379.47 1946.09,1379.88 1966.42,1380.28 1986.76,1380.65 2007.09,1381.01 2027.42,1381.35 2047.76,1381.67 2068.09,1381.98 2088.42,1382.27 2108.76,1382.55 2129.09,1382.81 2149.42,1383.05 2169.76,1383.29 2190.09,1383.51 2210.42,1383.71 2230.76,1383.91 2251.09,1384.09 2271.42,1384.26 2291.76,1384.42 "/>
<polyline clip-path="url(#clip092)" style="stroke:#ff7e0d; stroke-linecap:round; stroke-linejoin:round; stroke-width:10; stroke-opacity:1; fill:none" points="258.419,381.334 278.752,467.505 299.086,545.625 319.419,616.508 339.752,680.877 360.086,739.381 380.419,792.597 400.753,841.043 421.086,885.183 441.419,925.432 461.753,962.163 482.086,995.708 502.419,1026.37 522.753,1054.42 543.086,1080.09 563.419,1103.61 583.753,1125.18 604.086,1144.96 624.42,1163.13 644.753,1179.82 665.086,1195.16 685.42,1209.28 705.753,1222.29 726.086,1234.26 746.42,1245.31 766.753,1255.5 787.087,1264.91 807.42,1273.59 827.753,1281.63 848.087,1289.05 868.42,1295.93 888.753,1302.29 909.087,1308.19 929.42,1313.65 949.753,1318.72 970.087,1323.43 990.42,1327.79 1010.75,1331.85 1031.09,1335.61 1051.42,1339.12 1071.75,1342.37 1092.09,1345.4 1112.42,1348.22 1132.75,1350.85 1153.09,1353.29 1173.42,1355.57 1193.75,1357.69 1214.09,1359.66 1234.42,1361.51 1254.75,1363.22 1275.09,1364.83 1295.42,1366.32 1315.75,1367.71 1336.09,1369.01 1356.42,1370.23 1376.75,1371.36 1397.09,1372.41 1417.42,1373.4 1437.75,1374.32 1458.09,1375.17 1478.42,1375.97 1498.75,1376.72 1519.09,1377.41 1539.42,1378.06 1559.75,1378.67 1580.09,1379.23 1600.42,1379.76 1620.75,1380.25 1641.09,1380.7 1661.42,1381.13 1681.75,1381.52 1702.09,1381.89 1722.42,1382.23 1742.75,1382.55 1763.09,1382.85 1783.42,1383.12 1803.75,1383.38 1824.09,1383.61 1844.42,1383.83 1864.76,1384.04 1885.09,1384.23 1905.42,1384.4 1925.76,1384.56 1946.09,1384.71 1966.42,1384.85 1986.76,1384.98 2007.09,1385.1 2027.42,1385.21 2047.76,1385.31 2068.09,1385.4 2088.42,1385.49 2108.76,1385.57 2129.09,1385.64 2149.42,1385.71 2169.76,1385.77 2190.09,1385.83 2210.42,1385.88 2230.76,1385.92 2251.09,1385.97 2271.42,1386.01 2291.76,1386.04 "/>
<polyline clip-path="url(#clip092)" style="stroke:#2ba02b; stroke-linecap:round; stroke-linejoin:round; stroke-width:10; stroke-opacity:1; fill:none" points="258.419,160.256 278.752,287.086 299.086,400.155 319.419,501.028 339.752,591.085 360.086,671.541 380.419,743.47 400.753,807.82 421.086,865.427 441.419,917.033 461.753,963.293 482.086,1004.79 502.419,1042.03 522.753,1075.48 543.086,1105.54 563.419,1132.57 583.753,1156.89 604.086,1178.79 624.42,1198.51 644.753,1216.29 665.086,1232.32 685.42,1246.78 705.753,1259.84 726.086,1271.64 746.42,1282.3 766.753,1291.93 787.087,1300.65 807.42,1308.54 827.753,1315.68 848.087,1322.15 868.42,1328.01 888.753,1333.33 909.087,1338.15 929.42,1342.52 949.753,1346.49 970.087,1350.09 990.42,1353.37 1010.75,1356.34 1031.09,1359.04 1051.42,1361.5 1071.75,1363.73 1092.09,1365.76 1112.42,1367.61 1132.75,1369.29 1153.09,1370.82 1173.42,1372.22 1193.75,1373.49 1214.09,1374.64 1234.42,1375.7 1254.75,1376.65 1275.09,1377.53 1295.42,1378.32 1315.75,1379.05 1336.09,1379.71 1356.42,1380.31 1376.75,1380.86 1397.09,1381.36 1417.42,1381.82 1437.75,1382.23 1458.09,1382.61 1478.42,1382.96 1498.75,1383.27 1519.09,1383.56 1539.42,1383.82 1559.75,1384.05 1580.09,1384.27 1600.42,1384.47 1620.75,1384.65 1641.09,1384.81 1661.42,1384.96 1681.75,1385.09 1702.09,1385.22 1722.42,1385.33 1742.75,1385.43 1763.09,1385.52 1783.42,1385.6 1803.75,1385.68 1824.09,1385.75 1844.42,1385.81 1864.76,1385.87 1885.09,1385.92 1905.42,1385.97 1925.76,1386.01 1946.09,1386.05 1966.42,1386.08 1986.76,1386.11 2007.09,1386.14 2027.42,1386.17 2047.76,1386.19 2068.09,1386.21 2088.42,1386.23 2108.76,1386.25 2129.09,1386.26 2149.42,1386.28 2169.76,1386.29 2190.09,1386.3 2210.42,1386.31 2230.76,1386.32 2251.09,1386.33 2271.42,1386.34 2291.76,1386.34 "/>
<polyline clip-path="url(#clip092)" style="stroke:#d52628; stroke-linecap:round; stroke-linejoin:round; stroke-width:10; stroke-opacity:1; fill:none" points="258.419,467.63 278.752,576.004 299.086,671.188 319.419,754.839 339.752,828.4 360.086,893.128 380.419,950.117 400.753,1000.32 421.086,1044.58 441.419,1083.61 461.753,1118.06 482.086,1148.48 502.419,1175.35 522.753,1199.1 543.086,1220.11 563.419,1238.7 583.753,1255.15 604.086,1269.73 624.42,1282.65 644.753,1294.1 665.086,1304.26 685.42,1313.28 705.753,1321.28 726.086,1328.39 746.42,1334.71 766.753,1340.32 787.087,1345.32 807.42,1349.76 827.753,1353.71 848.087,1357.23 868.42,1360.37 888.753,1363.16 909.087,1365.65 929.42,1367.87 949.753,1369.85 970.087,1371.61 990.42,1373.19 1010.75,1374.59 1031.09,1375.85 1051.42,1376.97 1071.75,1377.97 1092.09,1378.86 1112.42,1379.66 1132.75,1380.37 1153.09,1381.01 1173.42,1381.58 1193.75,1382.09 1214.09,1382.55 1234.42,1382.96 1254.75,1383.32 1275.09,1383.65 1295.42,1383.94 1315.75,1384.2 1336.09,1384.43 1356.42,1384.64 1376.75,1384.83 1397.09,1384.99 1417.42,1385.14 1437.75,1385.28 1458.09,1385.4 1478.42,1385.5 1498.75,1385.6 1519.09,1385.69 1539.42,1385.76 1559.75,1385.83 1580.09,1385.89 1600.42,1385.95 1620.75,1385.99 1641.09,1386.04 1661.42,1386.08 1681.75,1386.11 1702.09,1386.14 1722.42,1386.17 1742.75,1386.2 1763.09,1386.22 1783.42,1386.24 1803.75,1386.26 1824.09,1386.27 1844.42,1386.28 1864.76,1386.3 1885.09,1386.31 1905.42,1386.32 1925.76,1386.33 1946.09,1386.33 1966.42,1386.34 1986.76,1386.35 2007.09,1386.35 2027.42,1386.36 2047.76,1386.36 2068.09,1386.37 2088.42,1386.37 2108.76,1386.37 2129.09,1386.38 2149.42,1386.38 2169.76,1386.38 2190.09,1386.38 2210.42,1386.38 2230.76,1386.39 2251.09,1386.39 2271.42,1386.39 2291.76,1386.39 "/>
<polyline clip-path="url(#clip092)" style="stroke:#9466bd; stroke-linecap:round; stroke-linejoin:round; stroke-width:10; stroke-opacity:1; fill:none" points="258.419,1174.74 278.752,1204.74 299.086,1230.41 319.419,1252.39 339.752,1271.22 360.086,1287.36 380.419,1301.2 400.753,1313.07 421.086,1323.27 441.419,1332.02 461.753,1339.55 482.086,1346.01 502.419,1351.57 522.753,1356.36 543.086,1360.47 563.419,1364.02 583.753,1367.07 604.086,1369.7 624.42,1371.97 644.753,1373.93 665.086,1375.62 685.42,1377.07 705.753,1378.33 726.086,1379.42 746.42,1380.35 766.753,1381.17 787.087,1381.87 807.42,1382.47 827.753,1383 848.087,1383.45 868.42,1383.84 888.753,1384.18 909.087,1384.48 929.42,1384.73 949.753,1384.95 970.087,1385.14 990.42,1385.31 1010.75,1385.45 1031.09,1385.58 1051.42,1385.69 1071.75,1385.78 1092.09,1385.86 1112.42,1385.93 1132.75,1385.99 1153.09,1386.05 1173.42,1386.09 1193.75,1386.13 1214.09,1386.17 1234.42,1386.2 1254.75,1386.22 1275.09,1386.25 1295.42,1386.27 1315.75,1386.28 1336.09,1386.3 1356.42,1386.31 1376.75,1386.32 1397.09,1386.33 1417.42,1386.34 1437.75,1386.35 1458.09,1386.35 1478.42,1386.36 1498.75,1386.36 1519.09,1386.37 1539.42,1386.37 1559.75,1386.38 1580.09,1386.38 1600.42,1386.38 1620.75,1386.38 1641.09,1386.38 1661.42,1386.39 1681.75,1386.39 1702.09,1386.39 1722.42,1386.39 1742.75,1386.39 1763.09,1386.39 1783.42,1386.39 1803.75,1386.39 1824.09,1386.39 1844.42,1386.39 1864.76,1386.39 1885.09,1386.39 1905.42,1386.39 1925.76,1386.39 1946.09,1386.39 1966.42,1386.39 1986.76,1386.39 2007.09,1386.39 2027.42,1386.4 2047.76,1386.4 2068.09,1386.4 2088.42,1386.4 2108.76,1386.4 2129.09,1386.4 2149.42,1386.4 2169.76,1386.4 2190.09,1386.4 2210.42,1386.4 2230.76,1386.4 2251.09,1386.4 2271.42,1386.4 2291.76,1386.4 "/>
<path clip-path="url(#clip090)" d="M1916.01 477.836 L2280.91 477.836 L2280.91 166.796 L1916.01 166.796  Z" fill="#ffffff" fill-rule="evenodd" fill-opacity="1"/>
<polyline clip-path="url(#clip090)" style="stroke:#000000; stroke-linecap:round; stroke-linejoin:round; stroke-width:4; stroke-opacity:1; fill:none" points="1916.01,477.836 2280.91,477.836 2280.91,166.796 1916.01,166.796 1916.01,477.836 "/>
<polyline clip-path="url(#clip090)" style="stroke:#1f77b4; stroke-linecap:round; stroke-linejoin:round; stroke-width:10; stroke-opacity:1; fill:none" points="1939.95,218.636 2083.64,218.636 "/>
<path clip-path="url(#clip090)" d="M2129.56 227.07 Q2128.93 230.091 2128.11 231.825 Q2126.8 234.471 2124.57 234.471 Q2122.89 234.471 2121.69 233.441 Q2120.5 232.41 2120.22 230.864 Q2117.15 234.471 2113.96 234.471 Q2111.15 234.471 2109.37 232.34 Q2107.59 230.185 2107.59 226.789 Q2107.59 223.369 2109.28 220.09 Q2110.99 216.811 2113.68 214.773 Q2116.37 212.735 2119.14 212.735 Q2122.07 212.735 2123.57 215.804 Q2123.68 214.96 2124.22 214.328 Q2124.76 213.696 2125.58 213.696 Q2126.21 213.696 2126.59 214.047 Q2126.96 214.375 2126.96 214.984 Q2126.96 215.288 2126.63 216.623 L2124.9 223.322 L2123.85 227.655 Q2123.45 229.248 2123.33 229.834 Q2123.24 230.419 2123.24 231.192 Q2123.24 233.394 2124.67 233.394 Q2125.37 233.394 2125.93 232.949 Q2126.49 232.504 2126.94 231.567 Q2127.38 230.63 2127.66 229.763 Q2127.95 228.873 2128.32 227.468 Q2128.44 226.906 2128.53 226.765 Q2128.65 226.601 2128.98 226.601 Q2129.56 226.601 2129.56 227.07 M2122.98 218.005 Q2122.98 217.795 2122.82 217.209 Q2122.65 216.623 2122.28 215.804 Q2121.9 214.984 2121.08 214.398 Q2120.29 213.789 2119.21 213.789 Q2117.76 213.789 2116.23 215.031 Q2114.74 216.272 2113.63 218.38 Q2112.79 220.067 2111.88 223.603 Q2110.99 227.14 2110.99 228.897 Q2110.99 229.974 2111.22 230.935 Q2111.48 231.871 2112.21 232.644 Q2112.93 233.394 2114.06 233.394 Q2116.8 233.394 2119.49 229.998 Q2120.01 229.412 2120.12 229.178 Q2120.26 228.92 2120.45 228.218 L2122.84 218.825 Q2122.98 218.122 2122.98 218.005 Z" fill="#000000" fill-rule="nonzero" fill-opacity="1" /><path clip-path="url(#clip090)" d="M2146.01 226.648 Q2146.06 226.063 2146.97 226.063 L2176.37 226.063 Q2177.75 226.063 2177.78 226.601 Q2177.78 227.187 2176.46 227.164 L2147.3 227.164 Q2146.01 227.187 2146.01 226.648 M2146.01 217.279 Q2146.01 216.694 2147.02 216.717 L2176.32 216.717 Q2177.75 216.717 2177.78 217.279 Q2177.78 217.818 2176.56 217.818 L2146.97 217.818 Q2146.01 217.818 2146.01 217.279 Z" fill="#000000" fill-rule="nonzero" fill-opacity="1" /><path clip-path="url(#clip090)" d="M2196.27 218.591 Q2196.27 211.541 2198.05 207.699 Q2200.53 201.984 2206.38 201.984 Q2207.63 201.984 2208.91 202.336 Q2210.23 202.664 2211.87 203.952 Q2213.53 205.24 2214.54 207.348 Q2216.46 211.424 2216.46 218.591 Q2216.46 225.594 2214.68 229.412 Q2212.08 234.987 2206.34 234.987 Q2204.18 234.987 2201.98 233.886 Q2199.8 232.785 2198.42 230.138 Q2196.27 226.18 2196.27 218.591 M2200.25 218.005 Q2200.25 225.243 2200.76 228.124 Q2201.35 231.239 2202.94 232.598 Q2204.56 233.933 2206.34 233.933 Q2208.26 233.933 2209.85 232.504 Q2211.47 231.052 2211.96 227.936 Q2212.5 224.868 2212.47 218.005 Q2212.47 211.33 2212.01 208.66 Q2211.37 205.545 2209.69 204.303 Q2208.02 203.038 2206.34 203.038 Q2205.71 203.038 2205.03 203.226 Q2204.37 203.413 2203.41 203.952 Q2202.45 204.491 2201.7 205.826 Q2200.97 207.161 2200.62 209.175 Q2200.25 211.775 2200.25 218.005 Z" fill="#000000" fill-rule="nonzero" fill-opacity="1" /><path clip-path="url(#clip090)" d="M2220.74 233.16 Q2220.02 232.387 2220.02 231.38 Q2220.02 230.372 2220.74 229.646 Q2221.47 228.897 2222.57 228.897 Q2223.62 228.897 2224.33 229.599 Q2225.05 230.279 2225.05 231.403 Q2225.05 232.504 2224.28 233.23 Q2223.53 233.933 2222.57 233.933 Q2221.47 233.933 2220.74 233.16 Z" fill="#000000" fill-rule="nonzero" fill-opacity="1" /><path clip-path="url(#clip090)" d="M2233.21 226.203 Q2233.21 224.774 2233.99 224.236 Q2234.76 223.674 2235.58 223.674 Q2236.68 223.674 2237.31 224.376 Q2237.97 225.055 2237.97 226.016 Q2237.97 226.976 2237.31 227.679 Q2236.68 228.358 2235.58 228.358 Q2235.04 228.358 2234.76 228.264 Q2235.39 230.466 2237.31 232.059 Q2239.26 233.652 2241.81 233.652 Q2245.02 233.652 2246.94 230.536 Q2248.09 228.522 2248.09 223.955 Q2248.09 219.926 2247.22 217.912 Q2245.88 214.843 2243.14 214.843 Q2239.26 214.843 2236.96 218.193 Q2236.68 218.614 2236.35 218.638 Q2235.88 218.638 2235.77 218.38 Q2235.67 218.099 2235.67 217.373 L2235.67 203.179 Q2235.67 202.031 2236.14 202.031 Q2236.33 202.031 2236.73 202.172 Q2239.75 203.507 2243.1 203.53 Q2246.54 203.53 2249.63 202.125 Q2249.87 201.984 2250.01 201.984 Q2250.48 201.984 2250.5 202.523 Q2250.5 202.71 2250.1 203.273 Q2249.73 203.811 2248.91 204.537 Q2248.09 205.24 2247.03 205.919 Q2245.98 206.599 2244.43 207.067 Q2242.91 207.512 2241.22 207.512 Q2239.21 207.512 2237.15 206.88 L2237.15 216.225 Q2239.63 213.789 2243.24 213.789 Q2247.08 213.789 2249.73 216.881 Q2252.37 219.973 2252.37 224.283 Q2252.37 228.803 2249.23 231.895 Q2246.12 234.987 2241.9 234.987 Q2238.06 234.987 2235.63 232.246 Q2233.21 229.506 2233.21 226.203 Z" fill="#000000" fill-rule="nonzero" fill-opacity="1" /><polyline clip-path="url(#clip090)" style="stroke:#ff7e0d; stroke-linecap:round; stroke-linejoin:round; stroke-width:10; stroke-opacity:1; fill:none" points="1939.95,270.476 2083.64,270.476 "/>
<path clip-path="url(#clip090)" d="M2129.56 278.91 Q2128.93 281.931 2128.11 283.665 Q2126.8 286.311 2124.57 286.311 Q2122.89 286.311 2121.69 285.281 Q2120.5 284.25 2120.22 282.704 Q2117.15 286.311 2113.96 286.311 Q2111.15 286.311 2109.37 284.18 Q2107.59 282.025 2107.59 278.629 Q2107.59 275.209 2109.28 271.93 Q2110.99 268.651 2113.68 266.613 Q2116.37 264.575 2119.14 264.575 Q2122.07 264.575 2123.57 267.644 Q2123.68 266.8 2124.22 266.168 Q2124.76 265.536 2125.58 265.536 Q2126.21 265.536 2126.59 265.887 Q2126.96 266.215 2126.96 266.824 Q2126.96 267.128 2126.63 268.463 L2124.9 275.162 L2123.85 279.495 Q2123.45 281.088 2123.33 281.674 Q2123.24 282.259 2123.24 283.032 Q2123.24 285.234 2124.67 285.234 Q2125.37 285.234 2125.93 284.789 Q2126.49 284.344 2126.94 283.407 Q2127.38 282.47 2127.66 281.603 Q2127.95 280.713 2128.32 279.308 Q2128.44 278.746 2128.53 278.605 Q2128.65 278.441 2128.98 278.441 Q2129.56 278.441 2129.56 278.91 M2122.98 269.845 Q2122.98 269.635 2122.82 269.049 Q2122.65 268.463 2122.28 267.644 Q2121.9 266.824 2121.08 266.238 Q2120.29 265.629 2119.21 265.629 Q2117.76 265.629 2116.23 266.871 Q2114.74 268.112 2113.63 270.22 Q2112.79 271.907 2111.88 275.443 Q2110.99 278.98 2110.99 280.737 Q2110.99 281.814 2111.22 282.775 Q2111.48 283.711 2112.21 284.484 Q2112.93 285.234 2114.06 285.234 Q2116.8 285.234 2119.49 281.838 Q2120.01 281.252 2120.12 281.018 Q2120.26 280.76 2120.45 280.058 L2122.84 270.665 Q2122.98 269.962 2122.98 269.845 Z" fill="#000000" fill-rule="nonzero" fill-opacity="1" /><path clip-path="url(#clip090)" d="M2146.01 278.488 Q2146.06 277.903 2146.97 277.903 L2176.37 277.903 Q2177.75 277.903 2177.78 278.441 Q2177.78 279.027 2176.46 279.004 L2147.3 279.004 Q2146.01 279.027 2146.01 278.488 M2146.01 269.119 Q2146.01 268.534 2147.02 268.557 L2176.32 268.557 Q2177.75 268.557 2177.78 269.119 Q2177.78 269.658 2176.56 269.658 L2146.97 269.658 Q2146.01 269.658 2146.01 269.119 Z" fill="#000000" fill-rule="nonzero" fill-opacity="1" /><path clip-path="url(#clip090)" d="M2196.27 285.773 Q2196.27 284.906 2196.34 284.648 Q2196.43 284.391 2196.8 283.992 L2206.01 273.733 Q2211.05 268.065 2211.05 263.123 Q2211.05 259.914 2209.36 257.619 Q2207.7 255.323 2204.63 255.323 Q2202.52 255.323 2200.74 256.612 Q2198.96 257.9 2198.14 260.195 Q2198.28 260.148 2198.77 260.148 Q2199.97 260.148 2200.62 260.898 Q2201.3 261.647 2201.3 262.655 Q2201.3 263.943 2200.46 264.575 Q2199.64 265.184 2198.82 265.184 Q2198.49 265.184 2198.05 265.114 Q2197.62 265.044 2196.95 264.388 Q2196.27 263.709 2196.27 262.514 Q2196.27 259.165 2198.8 256.495 Q2201.35 253.824 2205.24 253.824 Q2209.64 253.824 2212.52 256.448 Q2215.43 259.048 2215.43 263.123 Q2215.43 264.552 2214.98 265.864 Q2214.56 267.152 2213.97 268.159 Q2213.41 269.166 2211.87 270.782 Q2210.32 272.398 2209.08 273.546 Q2207.84 274.694 2205.05 277.13 L2199.97 282.072 L2208.61 282.072 Q2212.83 282.072 2213.15 281.697 Q2213.62 281.018 2214.21 277.434 L2215.43 277.434 L2214.07 285.773 L2196.27 285.773 Z" fill="#000000" fill-rule="nonzero" fill-opacity="1" /><path clip-path="url(#clip090)" d="M2220.74 285 Q2220.02 284.227 2220.02 283.22 Q2220.02 282.212 2220.74 281.486 Q2221.47 280.737 2222.57 280.737 Q2223.62 280.737 2224.33 281.439 Q2225.05 282.119 2225.05 283.243 Q2225.05 284.344 2224.28 285.07 Q2223.53 285.773 2222.57 285.773 Q2221.47 285.773 2220.74 285 Z" fill="#000000" fill-rule="nonzero" fill-opacity="1" /><path clip-path="url(#clip090)" d="M2233.21 270.431 Q2233.21 263.381 2234.99 259.539 Q2237.48 253.824 2243.33 253.824 Q2244.57 253.824 2245.86 254.176 Q2247.17 254.504 2248.81 255.792 Q2250.48 257.08 2251.48 259.188 Q2253.4 263.264 2253.4 270.431 Q2253.4 277.434 2251.62 281.252 Q2249.02 286.827 2243.28 286.827 Q2241.13 286.827 2238.93 285.726 Q2236.75 284.625 2235.37 281.978 Q2233.21 278.02 2233.21 270.431 M2237.19 269.845 Q2237.19 277.083 2237.71 279.964 Q2238.3 283.079 2239.89 284.438 Q2241.5 285.773 2243.28 285.773 Q2245.21 285.773 2246.8 284.344 Q2248.41 282.892 2248.91 279.776 Q2249.44 276.708 2249.42 269.845 Q2249.42 263.17 2248.95 260.5 Q2248.32 257.385 2246.63 256.143 Q2244.97 254.878 2243.28 254.878 Q2242.65 254.878 2241.97 255.066 Q2241.32 255.253 2240.36 255.792 Q2239.4 256.331 2238.65 257.666 Q2237.92 259.001 2237.57 261.015 Q2237.19 263.615 2237.19 269.845 Z" fill="#000000" fill-rule="nonzero" fill-opacity="1" /><polyline clip-path="url(#clip090)" style="stroke:#2ba02b; stroke-linecap:round; stroke-linejoin:round; stroke-width:10; stroke-opacity:1; fill:none" points="1939.95,322.316 2083.64,322.316 "/>
<path clip-path="url(#clip090)" d="M2129.56 330.75 Q2128.93 333.771 2128.11 335.505 Q2126.8 338.151 2124.57 338.151 Q2122.89 338.151 2121.69 337.121 Q2120.5 336.09 2120.22 334.544 Q2117.15 338.151 2113.96 338.151 Q2111.15 338.151 2109.37 336.02 Q2107.59 333.865 2107.59 330.469 Q2107.59 327.049 2109.28 323.77 Q2110.99 320.491 2113.68 318.453 Q2116.37 316.415 2119.14 316.415 Q2122.07 316.415 2123.57 319.484 Q2123.68 318.64 2124.22 318.008 Q2124.76 317.376 2125.58 317.376 Q2126.21 317.376 2126.59 317.727 Q2126.96 318.055 2126.96 318.664 Q2126.96 318.968 2126.63 320.303 L2124.9 327.002 L2123.85 331.335 Q2123.45 332.928 2123.33 333.514 Q2123.24 334.099 2123.24 334.872 Q2123.24 337.074 2124.67 337.074 Q2125.37 337.074 2125.93 336.629 Q2126.49 336.184 2126.94 335.247 Q2127.38 334.31 2127.66 333.443 Q2127.95 332.553 2128.32 331.148 Q2128.44 330.586 2128.53 330.445 Q2128.65 330.281 2128.98 330.281 Q2129.56 330.281 2129.56 330.75 M2122.98 321.685 Q2122.98 321.475 2122.82 320.889 Q2122.65 320.303 2122.28 319.484 Q2121.9 318.664 2121.08 318.078 Q2120.29 317.469 2119.21 317.469 Q2117.76 317.469 2116.23 318.711 Q2114.74 319.952 2113.63 322.06 Q2112.79 323.747 2111.88 327.283 Q2110.99 330.82 2110.99 332.577 Q2110.99 333.654 2111.22 334.615 Q2111.48 335.551 2112.21 336.324 Q2112.93 337.074 2114.06 337.074 Q2116.8 337.074 2119.49 333.678 Q2120.01 333.092 2120.12 332.858 Q2120.26 332.6 2120.45 331.898 L2122.84 322.505 Q2122.98 321.802 2122.98 321.685 Z" fill="#000000" fill-rule="nonzero" fill-opacity="1" /><path clip-path="url(#clip090)" d="M2146.01 330.328 Q2146.06 329.743 2146.97 329.743 L2176.37 329.743 Q2177.75 329.743 2177.78 330.281 Q2177.78 330.867 2176.46 330.844 L2147.3 330.844 Q2146.01 330.867 2146.01 330.328 M2146.01 320.959 Q2146.01 320.374 2147.02 320.397 L2176.32 320.397 Q2177.75 320.397 2177.78 320.959 Q2177.78 321.498 2176.56 321.498 L2146.97 321.498 Q2146.01 321.498 2146.01 320.959 Z" fill="#000000" fill-rule="nonzero" fill-opacity="1" /><path clip-path="url(#clip090)" d="M2196.27 331.148 Q2196.27 329.719 2197.09 329.04 Q2197.91 328.361 2198.96 328.361 Q2200.06 328.361 2200.83 329.087 Q2201.63 329.789 2201.63 331.031 Q2201.63 332.366 2200.69 333.115 Q2199.78 333.865 2198.47 333.678 Q2199.62 335.598 2201.72 336.465 Q2203.85 337.332 2205.82 337.332 Q2207.88 337.332 2209.55 335.551 Q2211.23 333.771 2211.23 329.415 Q2211.23 325.714 2209.78 323.583 Q2208.35 321.451 2205.52 321.451 L2203.41 321.451 Q2202.68 321.451 2202.47 321.381 Q2202.26 321.311 2202.26 320.912 Q2202.26 320.444 2202.99 320.35 Q2203.71 320.35 2204.86 320.21 Q2207.65 320.116 2209.13 317.704 Q2210.46 315.455 2210.46 312.246 Q2210.46 309.318 2209.05 308.1 Q2207.67 306.859 2205.87 306.859 Q2204.18 306.859 2202.33 307.562 Q2200.48 308.264 2199.48 309.834 Q2202.45 309.834 2202.45 312.246 Q2202.45 313.3 2201.77 314.003 Q2201.11 314.682 2200.01 314.682 Q2198.96 314.682 2198.26 314.026 Q2197.55 313.347 2197.55 312.199 Q2197.55 309.459 2199.99 307.562 Q2202.45 305.664 2206.06 305.664 Q2209.62 305.664 2212.24 307.538 Q2214.89 309.412 2214.89 312.293 Q2214.89 315.127 2213.01 317.446 Q2211.14 319.765 2208.16 320.725 Q2211.82 321.451 2214 323.934 Q2216.18 326.393 2216.18 329.415 Q2216.18 333.162 2213.22 335.926 Q2210.27 338.667 2205.96 338.667 Q2201.98 338.667 2199.12 336.512 Q2196.27 334.357 2196.27 331.148 Z" fill="#000000" fill-rule="nonzero" fill-opacity="1" /><path clip-path="url(#clip090)" d="M2220.74 336.84 Q2220.02 336.067 2220.02 335.06 Q2220.02 334.052 2220.74 333.326 Q2221.47 332.577 2222.57 332.577 Q2223.62 332.577 2224.33 333.279 Q2225.05 333.959 2225.05 335.083 Q2225.05 336.184 2224.28 336.91 Q2223.53 337.613 2222.57 337.613 Q2221.47 337.613 2220.74 336.84 Z" fill="#000000" fill-rule="nonzero" fill-opacity="1" /><path clip-path="url(#clip090)" d="M2233.21 329.883 Q2233.21 328.454 2233.99 327.916 Q2234.76 327.354 2235.58 327.354 Q2236.68 327.354 2237.31 328.056 Q2237.97 328.735 2237.97 329.696 Q2237.97 330.656 2237.31 331.359 Q2236.68 332.038 2235.58 332.038 Q2235.04 332.038 2234.76 331.944 Q2235.39 334.146 2237.31 335.739 Q2239.26 337.332 2241.81 337.332 Q2245.02 337.332 2246.94 334.216 Q2248.09 332.202 2248.09 327.635 Q2248.09 323.606 2247.22 321.592 Q2245.88 318.523 2243.14 318.523 Q2239.26 318.523 2236.96 321.873 Q2236.68 322.294 2236.35 322.318 Q2235.88 322.318 2235.77 322.06 Q2235.67 321.779 2235.67 321.053 L2235.67 306.859 Q2235.67 305.711 2236.14 305.711 Q2236.33 305.711 2236.73 305.852 Q2239.75 307.187 2243.1 307.21 Q2246.54 307.21 2249.63 305.805 Q2249.87 305.664 2250.01 305.664 Q2250.48 305.664 2250.5 306.203 Q2250.5 306.39 2250.1 306.953 Q2249.73 307.491 2248.91 308.217 Q2248.09 308.92 2247.03 309.599 Q2245.98 310.279 2244.43 310.747 Q2242.91 311.192 2241.22 311.192 Q2239.21 311.192 2237.15 310.56 L2237.15 319.905 Q2239.63 317.469 2243.24 317.469 Q2247.08 317.469 2249.73 320.561 Q2252.37 323.653 2252.37 327.963 Q2252.37 332.483 2249.23 335.575 Q2246.12 338.667 2241.9 338.667 Q2238.06 338.667 2235.63 335.926 Q2233.21 333.186 2233.21 329.883 Z" fill="#000000" fill-rule="nonzero" fill-opacity="1" /><polyline clip-path="url(#clip090)" style="stroke:#d52628; stroke-linecap:round; stroke-linejoin:round; stroke-width:10; stroke-opacity:1; fill:none" points="1939.95,374.156 2083.64,374.156 "/>
<path clip-path="url(#clip090)" d="M2129.56 382.59 Q2128.93 385.611 2128.11 387.345 Q2126.8 389.991 2124.57 389.991 Q2122.89 389.991 2121.69 388.961 Q2120.5 387.93 2120.22 386.384 Q2117.15 389.991 2113.96 389.991 Q2111.15 389.991 2109.37 387.86 Q2107.59 385.705 2107.59 382.309 Q2107.59 378.889 2109.28 375.61 Q2110.99 372.331 2113.68 370.293 Q2116.37 368.255 2119.14 368.255 Q2122.07 368.255 2123.57 371.324 Q2123.68 370.48 2124.22 369.848 Q2124.76 369.216 2125.58 369.216 Q2126.21 369.216 2126.59 369.567 Q2126.96 369.895 2126.96 370.504 Q2126.96 370.808 2126.63 372.143 L2124.9 378.842 L2123.85 383.175 Q2123.45 384.768 2123.33 385.354 Q2123.24 385.939 2123.24 386.712 Q2123.24 388.914 2124.67 388.914 Q2125.37 388.914 2125.93 388.469 Q2126.49 388.024 2126.94 387.087 Q2127.38 386.15 2127.66 385.283 Q2127.95 384.393 2128.32 382.988 Q2128.44 382.426 2128.53 382.285 Q2128.65 382.121 2128.98 382.121 Q2129.56 382.121 2129.56 382.59 M2122.98 373.525 Q2122.98 373.315 2122.82 372.729 Q2122.65 372.143 2122.28 371.324 Q2121.9 370.504 2121.08 369.918 Q2120.29 369.309 2119.21 369.309 Q2117.76 369.309 2116.23 370.551 Q2114.74 371.792 2113.63 373.9 Q2112.79 375.587 2111.88 379.123 Q2110.99 382.66 2110.99 384.417 Q2110.99 385.494 2111.22 386.455 Q2111.48 387.391 2112.21 388.164 Q2112.93 388.914 2114.06 388.914 Q2116.8 388.914 2119.49 385.518 Q2120.01 384.932 2120.12 384.698 Q2120.26 384.44 2120.45 383.738 L2122.84 374.345 Q2122.98 373.642 2122.98 373.525 Z" fill="#000000" fill-rule="nonzero" fill-opacity="1" /><path clip-path="url(#clip090)" d="M2146.01 382.168 Q2146.06 381.583 2146.97 381.583 L2176.37 381.583 Q2177.75 381.583 2177.78 382.121 Q2177.78 382.707 2176.46 382.684 L2147.3 382.684 Q2146.01 382.707 2146.01 382.168 M2146.01 372.799 Q2146.01 372.214 2147.02 372.237 L2176.32 372.237 Q2177.75 372.237 2177.78 372.799 Q2177.78 373.338 2176.56 373.338 L2146.97 373.338 Q2146.01 373.338 2146.01 372.799 Z" fill="#000000" fill-rule="nonzero" fill-opacity="1" /><path clip-path="url(#clip090)" d="M2196.27 381.723 Q2196.27 380.294 2197.04 379.756 Q2197.81 379.194 2198.63 379.194 Q2199.73 379.194 2200.37 379.896 Q2201.02 380.575 2201.02 381.536 Q2201.02 382.496 2200.37 383.199 Q2199.73 383.878 2198.63 383.878 Q2198.09 383.878 2197.81 383.784 Q2198.44 385.986 2200.37 387.579 Q2202.31 389.172 2204.86 389.172 Q2208.07 389.172 2209.99 386.056 Q2211.14 384.042 2211.14 379.475 Q2211.14 375.446 2210.27 373.432 Q2208.94 370.363 2206.2 370.363 Q2202.31 370.363 2200.01 373.713 Q2199.73 374.134 2199.4 374.158 Q2198.94 374.158 2198.82 373.9 Q2198.73 373.619 2198.73 372.893 L2198.73 358.699 Q2198.73 357.551 2199.19 357.551 Q2199.38 357.551 2199.78 357.692 Q2202.8 359.027 2206.15 359.05 Q2209.59 359.05 2212.69 357.645 Q2212.92 357.504 2213.06 357.504 Q2213.53 357.504 2213.55 358.043 Q2213.55 358.23 2213.15 358.793 Q2212.78 359.331 2211.96 360.057 Q2211.14 360.76 2210.09 361.439 Q2209.03 362.119 2207.49 362.587 Q2205.96 363.032 2204.28 363.032 Q2202.26 363.032 2200.2 362.4 L2200.2 371.745 Q2202.68 369.309 2206.29 369.309 Q2210.13 369.309 2212.78 372.401 Q2215.43 375.493 2215.43 379.803 Q2215.43 384.323 2212.29 387.415 Q2209.17 390.507 2204.96 390.507 Q2201.11 390.507 2198.68 387.766 Q2196.27 385.026 2196.27 381.723 Z" fill="#000000" fill-rule="nonzero" fill-opacity="1" /><path clip-path="url(#clip090)" d="M2220.74 388.68 Q2220.02 387.907 2220.02 386.9 Q2220.02 385.892 2220.74 385.166 Q2221.47 384.417 2222.57 384.417 Q2223.62 384.417 2224.33 385.119 Q2225.05 385.799 2225.05 386.923 Q2225.05 388.024 2224.28 388.75 Q2223.53 389.453 2222.57 389.453 Q2221.47 389.453 2220.74 388.68 Z" fill="#000000" fill-rule="nonzero" fill-opacity="1" /><path clip-path="url(#clip090)" d="M2233.21 374.111 Q2233.21 367.061 2234.99 363.219 Q2237.48 357.504 2243.33 357.504 Q2244.57 357.504 2245.86 357.856 Q2247.17 358.184 2248.81 359.472 Q2250.48 360.76 2251.48 362.868 Q2253.4 366.944 2253.4 374.111 Q2253.4 381.114 2251.62 384.932 Q2249.02 390.507 2243.28 390.507 Q2241.13 390.507 2238.93 389.406 Q2236.75 388.305 2235.37 385.658 Q2233.21 381.7 2233.21 374.111 M2237.19 373.525 Q2237.19 380.763 2237.71 383.644 Q2238.3 386.759 2239.89 388.118 Q2241.5 389.453 2243.28 389.453 Q2245.21 389.453 2246.8 388.024 Q2248.41 386.572 2248.91 383.456 Q2249.44 380.388 2249.42 373.525 Q2249.42 366.85 2248.95 364.18 Q2248.32 361.065 2246.63 359.823 Q2244.97 358.558 2243.28 358.558 Q2242.65 358.558 2241.97 358.746 Q2241.32 358.933 2240.36 359.472 Q2239.4 360.011 2238.65 361.346 Q2237.92 362.681 2237.57 364.695 Q2237.19 367.295 2237.19 373.525 Z" fill="#000000" fill-rule="nonzero" fill-opacity="1" /><polyline clip-path="url(#clip090)" style="stroke:#9466bd; stroke-linecap:round; stroke-linejoin:round; stroke-width:10; stroke-opacity:1; fill:none" points="1939.95,425.996 2083.64,425.996 "/>
<path clip-path="url(#clip090)" d="M2129.56 434.43 Q2128.93 437.451 2128.11 439.185 Q2126.8 441.831 2124.57 441.831 Q2122.89 441.831 2121.69 440.801 Q2120.5 439.77 2120.22 438.224 Q2117.15 441.831 2113.96 441.831 Q2111.15 441.831 2109.37 439.7 Q2107.59 437.545 2107.59 434.149 Q2107.59 430.729 2109.28 427.45 Q2110.99 424.171 2113.68 422.133 Q2116.37 420.095 2119.14 420.095 Q2122.07 420.095 2123.57 423.164 Q2123.68 422.32 2124.22 421.688 Q2124.76 421.056 2125.58 421.056 Q2126.21 421.056 2126.59 421.407 Q2126.96 421.735 2126.96 422.344 Q2126.96 422.648 2126.63 423.983 L2124.9 430.682 L2123.85 435.015 Q2123.45 436.608 2123.33 437.194 Q2123.24 437.779 2123.24 438.552 Q2123.24 440.754 2124.67 440.754 Q2125.37 440.754 2125.93 440.309 Q2126.49 439.864 2126.94 438.927 Q2127.38 437.99 2127.66 437.123 Q2127.95 436.233 2128.32 434.828 Q2128.44 434.266 2128.53 434.125 Q2128.65 433.961 2128.98 433.961 Q2129.56 433.961 2129.56 434.43 M2122.98 425.365 Q2122.98 425.155 2122.82 424.569 Q2122.65 423.983 2122.28 423.164 Q2121.9 422.344 2121.08 421.758 Q2120.29 421.149 2119.21 421.149 Q2117.76 421.149 2116.23 422.391 Q2114.74 423.632 2113.63 425.74 Q2112.79 427.427 2111.88 430.963 Q2110.99 434.5 2110.99 436.257 Q2110.99 437.334 2111.22 438.295 Q2111.48 439.231 2112.21 440.004 Q2112.93 440.754 2114.06 440.754 Q2116.8 440.754 2119.49 437.358 Q2120.01 436.772 2120.12 436.538 Q2120.26 436.28 2120.45 435.578 L2122.84 426.185 Q2122.98 425.482 2122.98 425.365 Z" fill="#000000" fill-rule="nonzero" fill-opacity="1" /><path clip-path="url(#clip090)" d="M2146.01 434.008 Q2146.06 433.423 2146.97 433.423 L2176.37 433.423 Q2177.75 433.423 2177.78 433.961 Q2177.78 434.547 2176.46 434.524 L2147.3 434.524 Q2146.01 434.547 2146.01 434.008 M2146.01 424.639 Q2146.01 424.054 2147.02 424.077 L2176.32 424.077 Q2177.75 424.077 2177.78 424.639 Q2177.78 425.178 2176.56 425.178 L2146.97 425.178 Q2146.01 425.178 2146.01 424.639 Z" fill="#000000" fill-rule="nonzero" fill-opacity="1" /><path clip-path="url(#clip090)" d="M2196.27 434.055 Q2196.27 428.691 2203.18 425.225 Q2200.2 423.21 2199.66 422.625 Q2197.55 420.283 2197.55 417.355 Q2197.55 414.005 2200.08 411.687 Q2202.64 409.344 2206.24 409.344 Q2209.69 409.344 2212.29 411.335 Q2214.89 413.326 2214.89 416.488 Q2214.89 420.938 2209.08 423.937 Q2212.92 426.326 2213.83 427.333 Q2216.18 429.933 2216.18 433.235 Q2216.18 437.077 2213.22 439.723 Q2210.27 442.347 2206.2 442.347 Q2202.22 442.347 2199.24 440.028 Q2196.27 437.709 2196.27 434.055 M2198.66 434.055 Q2198.66 437.03 2200.88 439.021 Q2203.13 441.012 2206.24 441.012 Q2209.27 441.012 2211.51 439.278 Q2213.79 437.545 2213.79 434.969 Q2213.79 433.961 2213.43 433.095 Q2213.11 432.228 2212.43 431.549 Q2211.77 430.846 2211.35 430.542 Q2210.95 430.214 2210.18 429.675 L2204.28 425.951 Q2198.66 429.066 2198.66 434.055 M2199.66 415.481 Q2199.66 417.776 2202.07 419.369 L2208.02 423.21 Q2212.78 420.423 2212.78 416.488 Q2212.78 413.935 2210.83 412.249 Q2208.89 410.539 2206.2 410.539 Q2203.55 410.539 2201.61 411.944 Q2199.66 413.326 2199.66 415.481 Z" fill="#000000" fill-rule="nonzero" fill-opacity="1" /><path clip-path="url(#clip090)" d="M2220.74 440.52 Q2220.02 439.747 2220.02 438.74 Q2220.02 437.732 2220.74 437.006 Q2221.47 436.257 2222.57 436.257 Q2223.62 436.257 2224.33 436.959 Q2225.05 437.639 2225.05 438.763 Q2225.05 439.864 2224.28 440.59 Q2223.53 441.293 2222.57 441.293 Q2221.47 441.293 2220.74 440.52 Z" fill="#000000" fill-rule="nonzero" fill-opacity="1" /><path clip-path="url(#clip090)" d="M2233.21 425.951 Q2233.21 418.901 2234.99 415.059 Q2237.48 409.344 2243.33 409.344 Q2244.57 409.344 2245.86 409.696 Q2247.17 410.024 2248.81 411.312 Q2250.48 412.6 2251.48 414.708 Q2253.4 418.784 2253.4 425.951 Q2253.4 432.954 2251.62 436.772 Q2249.02 442.347 2243.28 442.347 Q2241.13 442.347 2238.93 441.246 Q2236.75 440.145 2235.37 437.498 Q2233.21 433.54 2233.21 425.951 M2237.19 425.365 Q2237.19 432.603 2237.71 435.484 Q2238.3 438.599 2239.89 439.958 Q2241.5 441.293 2243.28 441.293 Q2245.21 441.293 2246.8 439.864 Q2248.41 438.412 2248.91 435.296 Q2249.44 432.228 2249.42 425.365 Q2249.42 418.69 2248.95 416.02 Q2248.32 412.905 2246.63 411.663 Q2244.97 410.398 2243.28 410.398 Q2242.65 410.398 2241.97 410.586 Q2241.32 410.773 2240.36 411.312 Q2239.4 411.851 2238.65 413.186 Q2237.92 414.521 2237.57 416.535 Q2237.19 419.135 2237.19 425.365 Z" fill="#000000" fill-rule="nonzero" fill-opacity="1" /></svg>
